<svg xmlns="http://www.w3.org/2000/svg" xmlns:xlink="http://www.w3.org/1999/xlink" width="103" height="103" viewBox="0 0 103 103">
  <defs>
    <filter id="Path_978624" x="0" y="0" width="103" height="103" filterUnits="userSpaceOnUse">
      <feOffset dy="3" input="SourceAlpha"/>
      <feGaussianBlur stdDeviation="3" result="blur"/>
      <feFlood flood-opacity="0.161"/>
      <feComposite operator="in" in2="blur"/>
      <feComposite in="SourceGraphic"/>
    </filter>
  </defs>
  <g id="Group_1209801" data-name="Group 1209801" transform="translate(-164.789 -1238.973)">
    <g id="Group_1209409" data-name="Group 1209409" transform="translate(0 18.973)">
      <g id="Group_1208074" data-name="Group 1208074" transform="translate(-20.211 -1842)">
        <g id="Group_1177896" data-name="Group 1177896" transform="translate(14 196)">
          <g id="Group_1176881" data-name="Group 1176881">
            <g id="Group_1175148" data-name="Group 1175148" transform="translate(0 1580)">
              <g id="Group_1173798" data-name="Group 1173798" transform="translate(-3 -3520)">
                <g id="Group_1171925" data-name="Group 1171925" transform="translate(-22 -2246)">
                  <g id="Group_1164524" data-name="Group 1164524" transform="translate(205 7058)">
                    <g id="Group_1144123" data-name="Group 1144123">
                      <g transform="matrix(1, 0, 0, 1, -9, -6)" filter="url(#Path_978624)">
                        <g id="Path_978624-2" data-name="Path 978624" transform="translate(9 6)" fill="#edeef2">
                          <path d="M 42.5 83.5 C 36.96437835693359 83.5 31.59512901306152 82.41617584228516 26.54141235351562 80.27863311767578 C 21.65934181213379 78.21369171142578 17.27447128295898 75.25723266601562 13.50862312316895 71.49137878417969 C 9.742764472961426 67.72553253173828 6.786305904388428 63.34066009521484 4.721364498138428 58.45858764648438 C 2.583823442459106 53.40486907958984 1.5 48.03562164306641 1.5 42.5 C 1.5 36.96437835693359 2.583823442459106 31.59512901306152 4.721364498138428 26.54141235351562 C 6.786305904388428 21.65934181213379 9.742764472961426 17.27447128295898 13.50862312316895 13.50862312316895 C 17.27447128295898 9.742764472961426 21.65934181213379 6.786305904388428 26.54141235351562 4.721364498138428 C 31.59512901306152 2.583823442459106 36.96437835693359 1.5 42.5 1.5 C 48.03562164306641 1.5 53.40486907958984 2.583823442459106 58.45858764648438 4.721364498138428 C 63.34066009521484 6.786305904388428 67.72553253173828 9.742764472961426 71.49137878417969 13.50862312316895 C 75.25723266601562 17.27447128295898 78.21369171142578 21.65934181213379 80.27863311767578 26.54141235351562 C 82.41617584228516 31.59512901306152 83.5 36.96437835693359 83.5 42.5 C 83.5 48.03562164306641 82.41617584228516 53.40486907958984 80.27863311767578 58.45858764648438 C 78.21369171142578 63.34066009521484 75.25723266601562 67.72553253173828 71.49137878417969 71.49137878417969 C 67.72553253173828 75.25723266601562 63.34066009521484 78.21369171142578 58.45858764648438 80.27863311767578 C 53.40486907958984 82.41617584228516 48.03562164306641 83.5 42.5 83.5 Z" stroke="none"/>
                          <path d="M 42.5 3 C 37.16621398925781 3 31.99356079101562 4.043960571289062 27.125732421875 6.102882385253906 C 22.42246627807617 8.092185974121094 18.19785308837891 10.94070434570312 14.56928253173828 14.56928253173828 C 10.94070434570312 18.19785308837891 8.092185974121094 22.42246627807617 6.102882385253906 27.125732421875 C 4.043960571289062 31.99356079101562 3 37.16621398925781 3 42.5 C 3 47.83378601074219 4.043960571289062 53.00643920898438 6.102882385253906 57.87425231933594 C 8.092185974121094 62.57753372192383 10.94070434570312 66.80213165283203 14.56928253173828 70.43071746826172 C 18.19786834716797 74.05929565429688 22.42246627807617 76.90781402587891 27.125732421875 78.89711761474609 C 31.99356079101562 80.95603942871094 37.16621398925781 82 42.5 82 C 47.83378601074219 82 53.00642395019531 80.95603942871094 57.87425231933594 78.89711761474609 C 62.57753372192383 76.90781402587891 66.80213165283203 74.05929565429688 70.43071746826172 70.43071746826172 C 74.05929565429688 66.80213165283203 76.90781402587891 62.57753372192383 78.89711761474609 57.87425231933594 C 80.95603942871094 53.00642395019531 82 47.83378601074219 82 42.5 C 82 37.16621398925781 80.95603942871094 31.99356079101562 78.89711761474609 27.125732421875 C 76.90781402587891 22.42246627807617 74.05929565429688 18.19786834716797 70.43071746826172 14.56928253173828 C 66.80213165283203 10.94070434570312 62.57753372192383 8.092185974121094 57.87425231933594 6.102882385253906 C 53.00643920898438 4.043960571289062 47.83378601074219 3 42.5 3 M 42.5 0 C 65.97209167480469 0 85 19.02789306640625 85 42.5 C 85 65.97209167480469 65.97209167480469 85 42.5 85 C 19.02789306640625 85 0 65.97209167480469 0 42.5 C 0 19.02789306640625 19.02789306640625 0 42.5 0 Z" stroke="none" fill="#9ec6e0"/>
                        </g>
                      </g>
                    </g>
                  </g>
                </g>
              </g>
            </g>
          </g>
        </g>
      </g>
      <g id="libro-de-leyes" transform="translate(190.332 1242.866)">
        <g id="Group_1209407" data-name="Group 1209407" transform="translate(1.11 0.751)">
          <g id="Group_1209400" data-name="Group 1209400">
            <path id="Path_1078508" data-name="Path 1078508" d="M322.355,320.711v12.935H313.64V321.6Z" transform="translate(-283.021 -289.348)" fill="gray"/>
            <path id="Path_1078509" data-name="Path 1078509" d="M76.366,359.619a4.975,4.975,0,0,1,0-5.331l-14.772-2.575H43.123v9.831H68.677Z" transform="translate(-39.592 -317.246)" fill="#f6f6f6"/>
            <path id="Path_1078510" data-name="Path 1078510" d="M47.189,9.425V42.616l-32.818.794-1.878.054L7.855,47.207V14.016A6.523,6.523,0,0,1,14.371,7.5H45.265a1.925,1.925,0,0,1,1.924,1.925Z" transform="translate(-7.855 -7.5)" fill="gray"/>
            <path id="Path_1078511" data-name="Path 1078511" d="M14.371,7.5V43.411l-1.878.054L7.855,47.207V14.016A6.523,6.523,0,0,1,14.371,7.5Z" transform="translate(-7.855 -7.5)" fill="#595959"/>
            <path id="Path_1078512" data-name="Path 1078512" d="M45.267,352.008H14.374a6.516,6.516,0,1,1,0-13.031H45.267a1.925,1.925,0,1,1,0,3.849H14.374a2.666,2.666,0,1,0,0,5.332H45.267a1.925,1.925,0,1,1,0,3.849Z" transform="translate(-7.858 -305.785)" fill="#595959"/>
            <path id="Path_1078513" data-name="Path 1078513" d="M87.711,377.426V388.92a1.228,1.228,0,0,1-1.986.965l-1.533-1.2a1.231,1.231,0,0,0-1.515,0l-1.533,1.2a1.227,1.227,0,0,1-1.984-.965V377.426Z" transform="translate(-72.02 -340.384)" fill="#ffe07d"/>
            <path id="Path_1078514" data-name="Path 1078514" d="M79.159,377.426H87.71v4.737H79.159Z" transform="translate(-72.019 -340.384)" fill="#ffd064"/>
          </g>
          <g id="Group_1209401" data-name="Group 1209401" transform="translate(12.129 3.847)">
            <path id="Path_1078515" data-name="Path 1078515" d="M227.053,67.073h-3.176V47.506a1.588,1.588,0,0,1,3.176,0Z" transform="translate(-214.375 -45.918)" fill="#ffd064"/>
            <path id="Path_1078516" data-name="Path 1078516" d="M159.5,86.223H144.152a2.108,2.108,0,1,0,0,4.215h3.46a4.215,4.215,0,1,0,8.43,0h3.46a2.108,2.108,0,0,0,0-4.215Z" transform="translate(-140.737 -82.187)" fill="#ffe07d"/>
            <path id="Path_1078517" data-name="Path 1078517" d="M128.988,184.481a3.415,3.415,0,1,0,6.83,0Z" transform="translate(-128.988 -170.606)" fill="#ffe07d"/>
            <circle id="Ellipse_11821" data-name="Ellipse 11821" cx="1.492" cy="1.492" r="1.492" transform="translate(9.597 6.737)" fill="#ffd064"/>
            <path id="Path_1078518" data-name="Path 1078518" d="M184.461,244.565H174.177a1.58,1.58,0,1,1,0-3.161h10.285a1.58,1.58,0,1,1,0,3.161Z" transform="translate(-168.229 -221.829)" fill="#ffe07d"/>
          </g>
          <g id="Group_1209406" data-name="Group 1209406" transform="translate(18.32 14.596)">
            <g id="Group_1209402" data-name="Group 1209402" transform="translate(0 0.001)">
              <path id="Path_1078519" data-name="Path 1078519" d="M222.187,165.316V178.11a11.456,11.456,0,0,1-1.845,6.236h0a7.088,7.088,0,0,0-1.143,3.859v.232H203.463v-.9a3.456,3.456,0,0,0-1.012-2.443l-10.668-10.667a3.31,3.31,0,1,1,4.681-4.682l3,3v-13.89a2.979,2.979,0,1,1,5.959,0V156.3a3.029,3.029,0,0,1,3.005-3.032,2.978,2.978,0,0,1,2.954,2.979v3.078a2.979,2.979,0,1,1,5.958,0v5.99a2.425,2.425,0,1,1,4.849,0Z" transform="translate(-190.812 -153.269)" fill="#ffddce"/>
            </g>
            <g id="Group_1209403" data-name="Group 1209403" transform="translate(26.526 9.622)">
              <path id="Path_1078520" data-name="Path 1078520" d="M455.717,258.807v-7.028a2.424,2.424,0,0,1,2.992-2.358,2.425,2.425,0,0,0-1.857,2.358v5.893A1.135,1.135,0,0,1,455.717,258.807Z" transform="translate(-455.717 -249.353)" fill="#ffcbbe"/>
            </g>
            <g id="Group_1209404" data-name="Group 1209404" transform="translate(8.649)">
              <path id="Path_1078521" data-name="Path 1078521" d="M280.881,179.37a2.981,2.981,0,0,0-2.27,2.894v14.58h-.728l-.69-.69v-13.89a2.979,2.979,0,0,1,3.689-2.894Z" transform="translate(-277.192 -176.679)" fill="#ffcbbe"/>
              <path id="Path_1078522" data-name="Path 1078522" d="M336.7,169.388V156.244a2.979,2.979,0,0,1,3.689-2.894,2.981,2.981,0,0,0-2.27,2.894V167.97A1.419,1.419,0,0,1,336.7,169.388Z" transform="translate(-330.741 -153.264)" fill="#ffcbbe"/>
              <path id="Path_1078523" data-name="Path 1078523" d="M396.208,197.143v-10.16a2.979,2.979,0,0,1,3.689-2.894,2.981,2.981,0,0,0-2.27,2.894v8.741A1.419,1.419,0,0,1,396.208,197.143Z" transform="translate(-384.291 -180.926)" fill="#ffcbbe"/>
            </g>
            <g id="Group_1209405" data-name="Group 1209405" transform="translate(0.001 15.809)">
              <path id="Path_1078524" data-name="Path 1078524" d="M207.437,327.97V330.5h-3.965v-.9a3.45,3.45,0,0,0-1.012-2.442l-10.668-10.668a3.312,3.312,0,0,1,.961-5.351,3.313,3.313,0,0,0,.671,3.719l13,10.668A3.456,3.456,0,0,1,207.437,327.97Z" transform="translate(-190.822 -311.14)" fill="#ffcbbe"/>
            </g>
          </g>
        </g>
        <g id="Group_1209408" data-name="Group 1209408" transform="translate(0.359 0)">
          <path id="Path_1078525" data-name="Path 1078525" d="M221.822,107.943a2.243,2.243,0,1,0-2.243,2.243A2.246,2.246,0,0,0,221.822,107.943Zm-2.984,0a.741.741,0,1,1,.741.741A.742.742,0,0,1,218.838,107.943Z" transform="translate(-195.609 -95.116)"/>
          <path id="Path_1078526" data-name="Path 1078526" d="M48.38,24.218a3.155,3.155,0,0,0-1.674.476V21.4A3.728,3.728,0,0,0,41.2,18.128V2.676A2.679,2.679,0,0,0,38.52,0H14.027a.751.751,0,0,0,0,1.5H38.52a1.175,1.175,0,0,1,1.174,1.174V15.728l-.038-.04A3.714,3.714,0,0,0,37.049,14.6H37.02a3.677,3.677,0,0,0-2.6,1.084q-.111.111-.213.23l-1.133-2.518A2.858,2.858,0,0,0,32,7.883H26.667v-1.7a2.339,2.339,0,1,0-4.677,0v1.7H16.654a2.858,2.858,0,0,0-1.068,5.509l-1.948,4.33h-.4a.751.751,0,0,0-.751.751,4.166,4.166,0,1,0,8.332,0,.751.751,0,0,0-.751-.751h-.4L17.815,13.6h1.6a4.979,4.979,0,0,0,2.571,3.629v6.193h-2.8a2.331,2.331,0,1,0,0,4.662h8.142v4.925l-1.716-1.716a4.064,4.064,0,0,0-6.816,1.9H8.377V1.5h2.647a.751.751,0,0,0,0-1.5h-3.4A7.275,7.275,0,0,0,.359,7.267V40.459A7.273,7.273,0,0,0,7.5,47.721v1.566a1.979,1.979,0,0,0,3.2,1.557l1.533-1.2a.476.476,0,0,1,.588,0l1.533,1.2a1.979,1.979,0,0,0,3.2-1.557V47.724h13a2.723,2.723,0,0,1,.774,1.893v.9a.751.751,0,1,0,1.5,0v-.9A4.235,4.235,0,0,0,31.6,46.643L20.931,35.976a2.559,2.559,0,0,1,3.619-3.62l3,3a.751.751,0,0,0,1.282-.531V20.932a2.228,2.228,0,0,1,4.457,0h0V31.471a.751.751,0,0,0,1.5,0V18.379a2.318,2.318,0,0,1,.686-1.633A2.185,2.185,0,0,1,37.02,16.1h.017a2.227,2.227,0,0,1,2.209,2.228V24.7a.751.751,0,1,0,1.5,0V21.412s0-.005,0-.008a2.228,2.228,0,1,1,4.456,0V34.422a.751.751,0,1,0,1.5,0V27.394s0,0,0,0a1.674,1.674,0,0,1,3.347,0V40.189a10.682,10.682,0,0,1-1.724,5.828l-.016.025a7.822,7.822,0,0,0-1.248,4.244v.232a.751.751,0,0,0,1.5,0v-.232a6.324,6.324,0,0,1,1.021-3.45l.016-.025a12.181,12.181,0,0,0,1.951-6.621V27.394a3.179,3.179,0,0,0-3.175-3.176ZM1.861,7.267A5.772,5.772,0,0,1,6.875,1.553V4.808A7.265,7.265,0,0,0,1.861,7.618Zm0,4.754a5.772,5.772,0,0,1,5.013-5.7V9.812a7.265,7.265,0,0,0-5.013,2.811Zm0,5a5.772,5.772,0,0,1,5.013-5.7V21.71a7.265,7.265,0,0,0-5.013,2.811Zm0,11.9a5.772,5.772,0,0,1,5.013-5.7v3.491a7.265,7.265,0,0,0-5.013,2.811Zm0,5a5.772,5.772,0,0,1,5.013-5.7v5a7.265,7.265,0,0,0-5.013,2.811Zm0,6.531a5.771,5.771,0,0,1,5.765-5.765H18.714a4.032,4.032,0,0,0,1.155,2.344l0,0H7.626A3.417,3.417,0,0,0,7.5,43.872v2.347a5.77,5.77,0,0,1-5.637-5.76Zm15.691-1.916h3.823l3.83,3.83H17.552v-3.83ZM7.5,42.367a1.913,1.913,0,0,1,0-3.817Zm8.284,7.349a.464.464,0,0,1-.5-.054l-1.533-1.2a1.974,1.974,0,0,0-2.442,0l-1.533,1.2A.477.477,0,0,1,9,49.287V38.543h7.05V49.287A.464.464,0,0,1,15.782,49.716Zm1.77-5.841h9.155l2.347,2.347h-11.5Zm5.94-37.689a.837.837,0,1,1,1.673,0v1.7H23.492Zm-6.838,14.95A2.669,2.669,0,0,1,14.1,19.224H19.21a2.669,2.669,0,0,1-2.556,1.913Zm-1.369-3.415,1.369-3.043,1.37,3.043Zm5.58-4.873a.751.751,0,0,0-.751-.751H16.654a1.357,1.357,0,0,1,0-2.713H32A1.357,1.357,0,1,1,32,12.1H28.544a.751.751,0,0,0-.751.751,3.464,3.464,0,1,1-6.928,0Zm2.628,4.895a4.923,4.923,0,0,0,1.673,0v5.679H23.492V17.743Zm-4.306,8.839a.831.831,0,0,1-.83-.829.83.83,0,0,1,.83-.829h8.142v1.658Zm9.234-8.288a3.71,3.71,0,0,0-1.093,2.637v2.49h-.661V17.229A4.979,4.979,0,0,0,29.238,13.6h1.6l-1.924,4.277A3.753,3.753,0,0,0,28.421,18.295ZM31.059,17.2c-.064,0-.128,0-.192.005L32,14.679l1.351,3c-.018.092-.033.185-.043.279a3.709,3.709,0,0,0-2.252-.759Z" transform="translate(-0.359 0)"/>
          <path id="Path_1078527" data-name="Path 1078527" d="M389.459,269.17a.751.751,0,0,0-.751.751v3.86a.751.751,0,0,0,1.5,0v-3.86A.751.751,0,0,0,389.459,269.17Z" transform="translate(-349.821 -242.217)"/>
        </g>
      </g>
    </g>
  </g>
</svg>
