<svg xmlns="http://www.w3.org/2000/svg" xmlns:xlink="http://www.w3.org/1999/xlink" width="93.934" height="93.934" viewBox="0 0 93.934 93.934">
  <defs>
    <filter id="Path_978624" x="0" y="0" width="93.934" height="93.934" filterUnits="userSpaceOnUse">
      <feOffset dy="3" input="SourceAlpha"/>
      <feGaussianBlur stdDeviation="3" result="blur"/>
      <feFlood flood-opacity="0.161"/>
      <feComposite operator="in" in2="blur"/>
      <feComposite in="SourceGraphic"/>
    </filter>
  </defs>
  <g id="Group_1209794" data-name="Group 1209794" transform="translate(-1033 -5275.033)">
    <g id="Group_1209313" data-name="Group 1209313" transform="translate(0 29.445)">
      <g id="Group_1208073" data-name="Group 1208073" transform="translate(836 3815.588)">
        <g id="Group_1144123" data-name="Group 1144123" transform="translate(206 1436)">
          <g transform="matrix(1, 0, 0, 1, -9, -6)" filter="url(#Path_978624)">
            <g id="Path_978624-2" data-name="Path 978624" transform="translate(9 6)" fill="#efeadd">
              <path d="M 37.966796875 74.43359375 C 33.04315185546875 74.43359375 28.26757431030273 73.46962738037109 23.77274131774902 71.56847381591797 C 19.43047523498535 69.73184967041016 15.53040790557861 67.10224914550781 12.18087482452393 63.75271987915039 C 8.831341743469238 60.4031867980957 6.201741218566895 56.50312042236328 4.365118980407715 52.16086196899414 C 2.463963508605957 47.66601943969727 1.499996900558472 42.89044189453125 1.499996900558472 37.966796875 C 1.499996900558472 33.04315185546875 2.463963508605957 28.26757431030273 4.365118980407715 23.77274131774902 C 6.201741218566895 19.43047523498535 8.831341743469238 15.53040790557861 12.18087482452393 12.18087482452393 C 15.53040790557861 8.831341743469238 19.43047523498535 6.201741218566895 23.77274131774902 4.365118980407715 C 28.26757431030273 2.463963508605957 33.04315185546875 1.499996900558472 37.966796875 1.499996900558472 C 42.89044189453125 1.499996900558472 47.66601943969727 2.463963508605957 52.16086196899414 4.365118980407715 C 56.50312042236328 6.201741218566895 60.4031867980957 8.831341743469238 63.75271987915039 12.18087482452393 C 67.10224914550781 15.53040790557861 69.73184967041016 19.43047523498535 71.56847381591797 23.77274131774902 C 73.46962738037109 28.26757431030273 74.43359375 33.04315185546875 74.43359375 37.966796875 C 74.43359375 42.89044189453125 73.46962738037109 47.66601943969727 71.56847381591797 52.16086196899414 C 69.73184967041016 56.50313186645508 67.10224914550781 60.4031867980957 63.75271987915039 63.75271987915039 C 60.4031867980957 67.10224914550781 56.50313186645508 69.73184967041016 52.16086196899414 71.56847381591797 C 47.66601943969727 73.46962738037109 42.89044189453125 74.43359375 37.966796875 74.43359375 Z" stroke="none"/>
              <path d="M 37.966796875 3 C 33.2449836730957 3 28.66600799560547 3.924095153808594 24.35705947875977 5.746635437011719 C 20.19359588623047 7.507621765136719 16.45379638671875 10.02927398681641 13.24153518676758 13.24153518676758 C 10.02927398681641 16.45379638671875 7.507621765136719 20.19359588623047 5.746635437011719 24.35705947875977 C 3.924095153808594 28.66600799560547 3 33.2449836730957 3 37.966796875 C 3 42.6886100769043 3.924095153808594 47.26758575439453 5.746635437011719 51.57653427124023 C 7.507621765136719 55.73999786376953 10.02927398681641 59.47979736328125 13.24153518676758 62.69205856323242 C 16.45379638671875 65.90431976318359 20.19359588623047 68.42597198486328 24.35705947875977 70.18695831298828 C 28.66600799560547 72.00949859619141 33.2449836730957 72.93359375 37.966796875 72.93359375 C 42.6886100769043 72.93359375 47.26758575439453 72.00949859619141 51.57653427124023 70.18695831298828 C 55.73999786376953 68.42597198486328 59.47979736328125 65.90431976318359 62.69205856323242 62.69205856323242 C 65.90431976318359 59.47979736328125 68.42597198486328 55.73999786376953 70.18695831298828 51.57653427124023 C 72.00949859619141 47.26758575439453 72.93359375 42.6886100769043 72.93359375 37.966796875 C 72.93359375 33.2449836730957 72.00949859619141 28.66600799560547 70.18695831298828 24.35705947875977 C 68.42597198486328 20.19359588623047 65.90431976318359 16.45379638671875 62.69205856323242 13.24153518676758 C 59.47979736328125 10.02927398681641 55.73999786376953 7.507621765136719 51.57653427124023 5.746635437011719 C 47.26758575439453 3.924095153808594 42.6886100769043 3 37.966796875 3 M 37.966796875 0 C 58.93528366088867 0 75.93359375 16.99831008911133 75.93359375 37.966796875 C 75.93359375 58.93528366088867 58.93528366088867 75.93359375 37.966796875 75.93359375 C 16.99831008911133 75.93359375 0 58.93528366088867 0 37.966796875 C 0 16.99831008911133 16.99831008911133 0 37.966796875 0 Z" stroke="none" fill="#847625"/>
            </g>
          </g>
        </g>
      </g>
      <g id="empoderamiento" transform="translate(1056.532 5264.411)">
        <g id="Group_1209311" data-name="Group 1209311" transform="translate(7.358 10.96)">
          <g id="XMLID_223_">
            <g id="Group_1209308" data-name="Group 1209308">
              <path id="Path_1078292" data-name="Path 1078292" d="M170.562,173.744l.955,22.826v6.358a.943.943,0,0,0,.943.943h14.408a.943.943,0,0,0,.943-.943v-6.55a1,1,0,0,1,.138-.508l1.039-1.775a6.488,6.488,0,0,0,.889-3.276V173.833Z" transform="translate(-162.327 -167.112)" fill="#eb9c8d"/>
              <path id="Path_1078293" data-name="Path 1078293" d="M174.753,273.869l.535,12.794h6.881a4.6,4.6,0,0,0,4.608-4.54c0-.017,0-4,0-4,0-.015,0-.031,0-.046a4.258,4.258,0,0,0-4.269-4.207h-7.755Z" transform="translate(-166.135 -258.083)" fill="#d78878"/>
              <path id="Path_1078294" data-name="Path 1078294" d="M170.787,179.065a4.413,4.413,0,0,0,3.391-.282,4.418,4.418,0,0,0,5.281.8,4.417,4.417,0,0,0,5.2.709,4.416,4.416,0,0,0,5.216.691v-7.145l-19.315-.089Z" transform="translate(-162.329 -167.112)" fill="#d78878"/>
              <path id="Path_1078295" data-name="Path 1078295" d="M164.63,108.936a2.6,2.6,0,1,1-5.2,0V103.8a2.6,2.6,0,1,1,5.2,0Z" transform="translate(-152.216 -101.196)" fill="#eb9c8d"/>
              <path id="Path_1078296" data-name="Path 1078296" d="M221.479,118.119a2.6,2.6,0,1,1-5.2,0v-5.141a2.6,2.6,0,1,1,5.2,0Z" transform="translate(-203.868 -109.539)" fill="#eb9c8d"/>
              <g id="Group_1209307" data-name="Group 1209307" transform="translate(7.218)">
                <path id="Path_1078297" data-name="Path 1078297" d="M161.382,108.936V103.8a2.6,2.6,0,0,1,1.626-2.41,2.6,2.6,0,0,0-3.573,2.41v5.141a2.6,2.6,0,0,0,3.572,2.409A2.6,2.6,0,0,1,161.382,108.936Z" transform="translate(-159.435 -101.196)" fill="#d78878"/>
                <path id="Path_1078298" data-name="Path 1078298" d="M218.23,118.119v-5.141a2.6,2.6,0,0,1,1.626-2.41,2.6,2.6,0,0,0-3.573,2.41v5.141a2.6,2.6,0,0,0,3.572,2.409A2.6,2.6,0,0,1,218.23,118.119Z" transform="translate(-211.086 -109.539)" fill="#d78878"/>
                <path id="Path_1078299" data-name="Path 1078299" d="M182.768,366.41l-4.347-4.925.237,5.663v6.358a.943.943,0,0,0,.943.943h3.175Z" transform="translate(-176.685 -337.689)" fill="#d78878"/>
              </g>
              <path id="Path_1078300" data-name="Path 1078300" d="M96.445,177.228l1.726,2.078a4.883,4.883,0,0,1,1.127,3.121v3.948a5.471,5.471,0,0,1-5.471,5.471H89.674v-.164L82.448,183.5a7.847,7.847,0,0,1-1.186-8.6l1.973-4.092a3.992,3.992,0,0,1,5.483-1.784l8.228,4.417a2,2,0,0,1,0,3.52Z" transform="translate(-80.484 -162.388)" fill="#eb9c8d"/>
            </g>
            <path id="Path_1078301" data-name="Path 1078301" d="M98.293,170.968A2.686,2.686,0,0,0,97.272,170l-8.594-4.509a.877.877,0,0,0-.158-.065l-.035.043a.89.89,0,0,1-.868.322,3.991,3.991,0,0,0-4.381,2.179l-1.973,4.092a7.847,7.847,0,0,0,1.186,8.6l7.226,8.186v.164h4.111v-.176a1.487,1.487,0,0,0-.372-.983L86.567,180.1a7.847,7.847,0,0,1-1.186-8.6l1.973-4.092a3.937,3.937,0,0,1,.274-.48.472.472,0,0,1,.613-.159c1.634.867,8.382,4.443,8.382,4.443a1.312,1.312,0,0,1,0,2.312l-1.078.58a5.375,5.375,0,0,1-4.936.076l-2.495-1.244a.686.686,0,0,0-.929.326.7.7,0,0,0,.342.913L90,175.406a6.749,6.749,0,0,0,6.2-.1l1.078-.58a2.683,2.683,0,0,0,1.019-3.762Z" transform="translate(-80.485 -159.557)" fill="#d78878"/>
          </g>
          <g id="XMLID_222_" transform="translate(17.612 1.552)">
            <g id="Group_1209309" data-name="Group 1209309">
              <path id="Path_1078302" data-name="Path 1078302" d="M278.328,125.914a2.6,2.6,0,0,1-5.2,0v-5.141a2.6,2.6,0,1,1,5.2,0Z" transform="translate(-273.132 -118.174)" fill="#eb9c8d"/>
              <path id="Path_1078303" data-name="Path 1078303" d="M335.169,130.293v4.972a2.6,2.6,0,0,1-5.2,0v-4.972a2.6,2.6,0,1,1,5.2,0Z" transform="translate(-324.776 -126.824)" fill="#eb9c8d"/>
            </g>
          </g>
          <g id="XMLID_224_" transform="translate(17.612 1.552)">
            <g id="Group_1209310" data-name="Group 1209310">
              <path id="Path_1078304" data-name="Path 1078304" d="M275.079,125.914v-5.141a2.6,2.6,0,0,1,1.626-2.41,2.6,2.6,0,0,0-3.573,2.41v5.141a2.6,2.6,0,0,0,3.573,2.409A2.6,2.6,0,0,1,275.079,125.914Z" transform="translate(-273.132 -118.174)" fill="#d78878"/>
              <path id="Path_1078305" data-name="Path 1078305" d="M331.919,135.266v-4.972a2.6,2.6,0,0,1,1.627-2.41,2.6,2.6,0,0,0-3.573,2.41v4.972a2.6,2.6,0,0,0,3.573,2.409A2.6,2.6,0,0,1,331.919,135.266Z" transform="translate(-324.776 -126.824)" fill="#d78878"/>
            </g>
          </g>
        </g>
        <g id="Group_1209312" data-name="Group 1209312" transform="translate(0 1.881)">
          <path id="Path_1078306" data-name="Path 1078306" d="M148.61,384.8a.686.686,0,0,0-1.028.908l2.214,2.509v7.205a.686.686,0,1,0,1.371,0v-7.465A.686.686,0,0,0,151,387.5Z" transform="translate(-133.934 -349.581)"/>
          <path id="Path_1078307" data-name="Path 1078307" d="M76.114,220.247a7.146,7.146,0,0,1-1.082-7.849l.926-1.921a.686.686,0,0,0-1.235-.6L73.8,211.8a8.515,8.515,0,0,0,1.289,9.353l2.865,3.246a.686.686,0,0,0,1.028-.907Z" transform="translate(-66.278 -190.513)"/>
          <path id="Path_1078308" data-name="Path 1078308" d="M129.312,96.119a3.272,3.272,0,0,0-2.274.918,3.279,3.279,0,0,0-5.233-.835,3.28,3.28,0,0,0-5.191-.775,3.284,3.284,0,0,0-6.177,1.553v2.874a4.656,4.656,0,0,0-4.058,2.055.686.686,0,0,0,1.137.767,3.293,3.293,0,0,1,4.3-1.058l8.229,4.417a1.312,1.312,0,0,1,0,2.311l-1.079.58a5.374,5.374,0,0,1-4.936.076l-2.495-1.244a.686.686,0,0,0-.612,1.227l2.495,1.244a6.748,6.748,0,0,0,6.2-.1l.082-.044,1.368,1.646a4.207,4.207,0,0,1,.969,2.683v3.948a.686.686,0,1,0,1.371,0v-3.948a5.582,5.582,0,0,0-1.286-3.56l-1.2-1.444a2.676,2.676,0,0,0,.927-3.373,3.274,3.274,0,0,0,4.6-.065,3.28,3.28,0,0,0,4.32,1.338v1.635a.686.686,0,1,0,1.371,0v-2.91a3.264,3.264,0,0,0,.457-1.668V99.4A3.288,3.288,0,0,0,129.312,96.119Zm-17.5,4V96.98a1.913,1.913,0,1,1,3.826,0v5.132l-3.17-1.7A4.767,4.767,0,0,0,111.808,100.12Zm5.2,2.728V97.765a1.913,1.913,0,1,1,3.826,0v5.908a1.913,1.913,0,0,1-.32,1.057Zm7.11,2.738a1.915,1.915,0,0,1-1.913-1.913V98.533a1.913,1.913,0,0,1,3.826,0v5.141A1.915,1.915,0,0,1,124.115,105.586Zm5.2.7a1.915,1.915,0,0,1-1.913-1.913V99.4a1.913,1.913,0,0,1,3.826,0v4.972A1.915,1.915,0,0,1,129.312,106.288Z" transform="translate(-96.547 -85.302)"/>
          <path id="Path_1078309" data-name="Path 1078309" d="M354.487,285.042a.686.686,0,0,0-.686.686v6.214a5.8,5.8,0,0,1-.795,2.929l-1.039,1.775a1.694,1.694,0,0,0-.232.855v7.493a.686.686,0,0,0,1.371,0V297.5a.321.321,0,0,1,.044-.162l1.039-1.775a7.175,7.175,0,0,0,.983-3.622v-6.214A.686.686,0,0,0,354.487,285.042Z" transform="translate(-319.58 -259.155)"/>
          <path id="Path_1078310" data-name="Path 1078310" d="M337.251,8.456a.685.685,0,0,0,.948-.206l3.419-5.312a.686.686,0,1,0-1.153-.742l-3.419,5.312A.686.686,0,0,0,337.251,8.456Z" transform="translate(-306.134 -1.881)"/>
          <path id="Path_1078311" data-name="Path 1078311" d="M414.786,15.6a.685.685,0,0,0,.963-.116l7.6-9.69a.686.686,0,0,0-1.079-.846l-7.6,9.69A.686.686,0,0,0,414.786,15.6Z" transform="translate(-376.627 -4.431)"/>
          <path id="Path_1078312" data-name="Path 1078312" d="M467.7,198.088l-3.05,1.7a.686.686,0,1,0,.667,1.2l3.05-1.7a.686.686,0,1,0-.667-1.2Z" transform="translate(-421.854 -180.072)"/>
          <path id="Path_1078313" data-name="Path 1078313" d="M468.3,318.675l-2.957-1.785a.686.686,0,1,0-.709,1.174l2.957,1.785a.686.686,0,1,0,.709-1.174Z" transform="translate(-421.853 -288.002)"/>
          <path id="Path_1078314" data-name="Path 1078314" d="M406.393,384.515a.686.686,0,1,0-1.043.891l1.1,1.286a.686.686,0,1,0,1.043-.891Z" transform="translate(-368.143 -349.316)"/>
          <path id="Path_1078315" data-name="Path 1078315" d="M439.814,423.63a.686.686,0,0,0-1.043.891L442.6,429a.686.686,0,0,0,1.043-.891Z" transform="translate(-398.509 -384.855)"/>
          <path id="Path_1078316" data-name="Path 1078316" d="M277.97,17.839a.685.685,0,0,0,.867-.434l.757-2.277a.686.686,0,1,0-1.3-.433l-.757,2.277A.686.686,0,0,0,277.97,17.839Z" transform="translate(-252.131 -13.097)"/>
          <path id="Path_1078317" data-name="Path 1078317" d="M126.86,8.25a.686.686,0,1,0,1.153-.742L124.6,2.2a.686.686,0,1,0-1.153.742Z" transform="translate(-112.058 -1.881)"/>
          <path id="Path_1078318" data-name="Path 1078318" d="M7.933,14.581a.686.686,0,1,0,1.073-.854L1.223,3.946A.686.686,0,1,0,.15,4.8Z" transform="translate(0 -3.522)"/>
          <path id="Path_1078319" data-name="Path 1078319" d="M3.6,200.991a.686.686,0,1,0,.637-1.214L1,198.081A.686.686,0,1,0,.367,199.3Z" transform="translate(0 -180.072)"/>
          <path id="Path_1078320" data-name="Path 1078320" d="M7.244,317.124a.686.686,0,0,0-.941-.233l-2.957,1.785a.686.686,0,1,0,.709,1.174l2.957-1.785A.686.686,0,0,0,7.244,317.124Z" transform="translate(-2.739 -288.003)"/>
          <path id="Path_1078321" data-name="Path 1078321" d="M84.686,384.439a.686.686,0,0,0-.967.076l-1.1,1.286a.686.686,0,1,0,1.043.891l1.1-1.286A.686.686,0,0,0,84.686,384.439Z" transform="translate(-74.918 -349.316)"/>
          <path id="Path_1078322" data-name="Path 1078322" d="M24.149,423.554a.686.686,0,0,0-.967.076l-3.828,4.48A.686.686,0,1,0,20.4,429l3.828-4.48A.686.686,0,0,0,24.149,423.554Z" transform="translate(-17.436 -384.855)"/>
          <path id="Path_1078323" data-name="Path 1078323" d="M212.673,17.4a.686.686,0,0,0,1.3-.433l-.757-2.277a.686.686,0,0,0-1.3.433Z" transform="translate(-192.51 -13.097)"/>
        </g>
      </g>
    </g>
  </g>
</svg>
