<svg xmlns="http://www.w3.org/2000/svg" xmlns:xlink="http://www.w3.org/1999/xlink" width="108" height="108" viewBox="0 0 108 108">
  <defs>
    <filter id="Path_904820" x="0" y="0" width="108" height="108" filterUnits="userSpaceOnUse">
      <feOffset dy="3" input="SourceAlpha"/>
      <feGaussianBlur stdDeviation="3" result="blur"/>
      <feFlood flood-opacity="0.161"/>
      <feComposite operator="in" in2="blur"/>
      <feComposite in="SourceGraphic"/>
    </filter>
  </defs>
  <g id="Group_1209790" data-name="Group 1209790" transform="translate(-194 -4822.5)">
    <g id="Group_1209299" data-name="Group 1209299" transform="translate(0 29.445)">
      <g id="Group_1208067" data-name="Group 1208067" transform="translate(203 4797.713)">
        <g id="Group_1206630" data-name="Group 1206630" transform="translate(0 1.342)">
          <g id="Group_1185091" data-name="Group 1185091" transform="translate(0 0)">
            <g id="Group_1179560" data-name="Group 1179560">
              <g id="Group_1173787" data-name="Group 1173787" transform="translate(0)">
                <g id="Group_1171910" data-name="Group 1171910">
                  <g id="Group_1167341" data-name="Group 1167341">
                    <g id="Group_1166792" data-name="Group 1166792">
                      <g transform="matrix(1, 0, 0, 1, -9, -6)" filter="url(#Path_904820)">
                        <g id="Path_904820-2" data-name="Path 904820" transform="translate(9 6)" fill="#edeef2">
                          <path d="M 44.99999618530273 88.50006866455078 C 39.12687301635742 88.50006866455078 33.43022155761719 87.35014343261719 28.06829643249512 85.08222961425781 C 22.88852119445801 82.89136505126953 18.23629570007324 79.75465393066406 14.24084663391113 75.75919342041016 C 10.24540901184082 71.76374053955078 7.108683586120605 67.11151885986328 4.917821407318115 61.93174362182617 C 2.649921178817749 56.56980514526367 1.499996185302734 50.87315368652344 1.499996185302734 45.00003051757812 C 1.499996185302734 39.12690734863281 2.649921178817749 33.43025588989258 4.917821407318115 28.06831741333008 C 7.108683586120605 22.88854217529297 10.24540901184082 18.23631858825684 14.24084663391113 14.24086761474609 C 18.23629570007324 10.24541759490967 22.88852119445801 7.10869312286377 28.06829643249512 4.917842864990234 C 33.43022155761719 2.649930477142334 39.12687301635742 1.500005483627319 44.99999618530273 1.500005483627319 C 50.87311935424805 1.500005483627319 56.56977081298828 2.649930477142334 61.93169784545898 4.917842864990234 C 67.11147308349609 7.10869312286377 71.76369476318359 10.24541759490967 75.75914764404297 14.24086761474609 C 79.75458526611328 18.23631858825684 82.89131164550781 22.88854217529297 85.08216857910156 28.06831741333008 C 87.35007476806641 33.43025588989258 88.5 39.12690734863281 88.5 45.00003051757812 C 88.5 50.87315368652344 87.35007476806641 56.56980514526367 85.08216857910156 61.93174362182617 C 82.89131164550781 67.11151885986328 79.75458526611328 71.76374053955078 75.75914764404297 75.75919342041016 C 71.76369476318359 79.75465393066406 67.11147308349609 82.89136505126953 61.93169784545898 85.08222961425781 C 56.56977081298828 87.35014343261719 50.87311935424805 88.50006866455078 44.99999618530273 88.50006866455078 Z" stroke="none"/>
                          <path d="M 44.99999618530273 3 C 39.32870864868164 3 33.82865142822266 4.110061645507812 28.65262603759766 6.299346923828125 C 23.65165710449219 8.414573669433594 19.15968322753906 11.44334411621094 15.301513671875 15.30152893066406 C 11.44333648681641 19.15969848632812 8.414566040039062 23.65167236328125 6.299339294433594 28.65264511108398 C 4.110054016113281 33.82868576049805 2.999992370605469 39.32874298095703 2.999992370605469 45.00003051757812 C 2.999992370605469 50.67131805419922 4.110054016113281 56.1713752746582 6.299339294433594 61.34741592407227 C 8.414566040039062 66.348388671875 11.44333648681641 70.84036254882812 15.301513671875 74.69853210449219 C 19.15968322753906 78.55671691894531 23.65165710449219 81.58548736572266 28.65262603759766 83.70071411132812 C 33.82865142822266 85.88999938964844 39.32870864868164 87.00006103515625 44.99999618530273 87.00006103515625 C 50.67128372192383 87.00006103515625 56.17134094238281 85.88999938964844 61.34736633300781 83.70071411132812 C 66.34834289550781 81.58548736572266 70.84030914306641 78.55671691894531 74.69847869873047 74.69853210449219 C 78.55665588378906 70.84036254882812 81.58542633056641 66.348388671875 83.70065307617188 61.34741592407227 C 85.88993835449219 56.1713752746582 87 50.67131805419922 87 45.00003051757812 C 87 39.32874298095703 85.88993835449219 33.82868576049805 83.70065307617188 28.65264511108398 C 81.58542633056641 23.65167236328125 78.55665588378906 19.15969848632812 74.69847869873047 15.30152893066406 C 70.84030914306641 11.44334411621094 66.34834289550781 8.414573669433594 61.34736633300781 6.299346923828125 C 56.17134094238281 4.110061645507812 50.67128372192383 3 44.99999618530273 3 M 44.99999618530273 0 C 69.85281372070312 0 90 20.14720153808594 90 45.00003051757812 C 90 69.85285949707031 69.85281372070312 90.00006103515625 44.99999618530273 90.00006103515625 C 20.14717864990234 90.00006103515625 -7.62939453125e-06 69.85285949707031 -7.62939453125e-06 45.00003051757812 C -7.62939453125e-06 20.14720153808594 20.14717864990234 0 44.99999618530273 0 Z" stroke="none" fill="#56678d"/>
                        </g>
                      </g>
                    </g>
                  </g>
                </g>
              </g>
            </g>
          </g>
        </g>
      </g>
      <g id="obediente" transform="translate(213.718 4812.435)">
        <g id="Group_1209289" data-name="Group 1209289" transform="translate(9.825 0.846)">
          <g id="Group_1209287" data-name="Group 1209287">
            <g id="Group_1209284" data-name="Group 1209284" transform="translate(0 22.099)">
              <g id="Group_1209277" data-name="Group 1209277" transform="translate(0 0)">
                <path id="Path_1078234" data-name="Path 1078234" d="M39.206,203.948l2.032,3.519a.338.338,0,0,0,.293.169h13.92a.338.338,0,0,0,.293-.169l2.032-3.519a.338.338,0,0,0-.293-.508H39.5A.338.338,0,0,0,39.206,203.948Z" transform="translate(-39.16 -203.44)" fill="#fed402"/>
              </g>
              <g id="Group_1209283" data-name="Group 1209283">
                <g id="Group_1209278" data-name="Group 1209278" transform="translate(30.252 0)">
                  <path id="Path_1078235" data-name="Path 1078235" d="M307.428,203.948l2.032,3.519a.338.338,0,0,0,.293.169h13.92a.338.338,0,0,0,.293-.169L326,203.948a.338.338,0,0,0-.293-.508H307.721A.338.338,0,0,0,307.428,203.948Z" transform="translate(-307.382 -203.44)" fill="#fed402"/>
                </g>
                <g id="Group_1209279" data-name="Group 1209279" transform="translate(0 0)">
                  <path id="Path_1078236" data-name="Path 1078236" d="M39.206,203.948l2.032,3.519a.338.338,0,0,0,.293.169h13.92a.338.338,0,0,0,.293-.169l2.032-3.519a.338.338,0,0,0-.293-.508H39.5A.338.338,0,0,0,39.206,203.948Z" transform="translate(-39.16 -203.44)" fill="#ca6e59"/>
                </g>
                <g id="Group_1209280" data-name="Group 1209280" transform="translate(0)">
                  <path id="Path_1078237" data-name="Path 1078237" d="M46.018,207.465l-2.032-3.519a.338.338,0,0,1,.293-.508H39.5a.338.338,0,0,0-.293.508l2.032,3.519a.338.338,0,0,0,.293.169h4.78A.338.338,0,0,1,46.018,207.465Z" transform="translate(-39.161 -203.439)" fill="#bb5d4c"/>
                </g>
                <g id="Group_1209281" data-name="Group 1209281" transform="translate(30.252 0)">
                  <path id="Path_1078238" data-name="Path 1078238" d="M307.428,203.948l2.032,3.519a.338.338,0,0,0,.293.169h13.92a.338.338,0,0,0,.293-.169L326,203.948a.338.338,0,0,0-.293-.508H307.721A.338.338,0,0,0,307.428,203.948Z" transform="translate(-307.382 -203.44)" fill="#ca6e59"/>
                </g>
                <g id="Group_1209282" data-name="Group 1209282" transform="translate(30.252)">
                  <path id="Path_1078239" data-name="Path 1078239" d="M314.831,207.465l-2.032-3.519a.338.338,0,0,1,.293-.508h-5.371a.338.338,0,0,0-.293.508l2.032,3.519a.338.338,0,0,0,.293.169h5.371A.338.338,0,0,1,314.831,207.465Z" transform="translate(-307.383 -203.439)" fill="#bb5d4c"/>
                </g>
              </g>
            </g>
            <path id="Path_1078240" data-name="Path 1078240" d="M240.485,124.368V103.687a.564.564,0,0,0-.564-.564H236.53a.564.564,0,0,0-.564.564v20.681h4.519Z" transform="translate(-213.769 -92.338)" fill="#bb5d4c"/>
            <path id="Path_1078241" data-name="Path 1078241" d="M237.88,124.368V103.687a.564.564,0,0,1,.564-.564H236.53a.564.564,0,0,0-.564.564v20.681h1.914Z" transform="translate(-213.769 -92.338)" fill="#a44f3e"/>
            <g id="Group_1209285" data-name="Group 1209285" transform="translate(21.299 0)">
              <circle id="Ellipse_11819" data-name="Ellipse 11819" cx="3.157" cy="3.157" r="3.157" fill="#883f2e"/>
            </g>
            <g id="Group_1209286" data-name="Group 1209286" transform="translate(21.299)">
              <path id="Path_1078242" data-name="Path 1078242" d="M230.825,10.657a3.157,3.157,0,0,1,1.747-2.825,3.157,3.157,0,1,0,0,5.65A3.157,3.157,0,0,1,230.825,10.657Z" transform="translate(-228.005 -7.5)" fill="#6d3326"/>
            </g>
          </g>
          <g id="Group_1209288" data-name="Group 1209288" transform="translate(4.347 32.03)">
            <path id="Path_1078243" data-name="Path 1078243" d="M219.8,296.332v-2.591a2.256,2.256,0,0,0-2.256-2.256h-6.033a2.256,2.256,0,0,0-2.256,2.256v2.591Z" transform="translate(-194.419 -291.485)" fill="#883f2e"/>
            <path id="Path_1078244" data-name="Path 1078244" d="M213.061,296.332v-2.591a2.256,2.256,0,0,1,2.256-2.256h-3.806a2.256,2.256,0,0,0-2.256,2.256v2.591Z" transform="translate(-194.418 -291.485)" fill="#6d3326"/>
            <path id="Path_1078245" data-name="Path 1078245" d="M190.307,339.594v-3.2a1.933,1.933,0,0,0-1.933-1.933H173.105a1.933,1.933,0,0,0-1.933,1.933v3.2Z" transform="translate(-160.63 -329.61)" fill="#bb5d4c"/>
            <path id="Path_1078246" data-name="Path 1078246" d="M175.929,339.594v-3.2a1.933,1.933,0,0,1,1.933-1.933h-4.756a1.933,1.933,0,0,0-1.933,1.933v3.2Z" transform="translate(-160.631 -329.61)" fill="#a44f3e"/>
            <path id="Path_1078247" data-name="Path 1078247" d="M80.716,379.006a3.013,3.013,0,0,0-3.013,3.013v5.724a3.013,3.013,0,0,0,3.013,3.013h1.221v-7.984H88.1v7.984h34.495V379.006Z" transform="translate(-77.703 -369.135)" fill="#fff3de"/>
          </g>
        </g>
        <g id="Group_1209298" data-name="Group 1209298" transform="translate(6.942 42.747)">
          <g id="Group_1209293" data-name="Group 1209293">
            <g id="Group_1209290" data-name="Group 1209290">
              <path id="Path_1078248" data-name="Path 1078248" d="M23.839,390.755a3.013,3.013,0,0,1-3.013-3.013v-5.724a3.013,3.013,0,0,1,3.013-3.013H19.471a5.875,5.875,0,1,0,0,11.749h4.368Z" transform="translate(-13.596 -379.006)" fill="#3675bb"/>
            </g>
            <g id="Group_1209291" data-name="Group 1209291">
              <path id="Path_1078249" data-name="Path 1078249" d="M16.45,384.881a5.875,5.875,0,0,1,5.875-5.875H19.471a5.875,5.875,0,1,0,0,11.749h2.854A5.875,5.875,0,0,1,16.45,384.881Z" transform="translate(-13.596 -379.006)" fill="#2b68b6"/>
            </g>
            <g id="Group_1209292" data-name="Group 1209292" transform="translate(7.23 0.004)">
              <path id="Path_1078250" data-name="Path 1078250" d="M81.937,387.485a3.009,3.009,0,0,1-1.381-2.532v-5.724c0-.063,0-.126.006-.188a3.013,3.013,0,0,0-2.86,3.009v5.724a3.013,3.013,0,0,0,3.013,3.013h1.221Z" transform="translate(-77.703 -379.041)" fill="#ffe5c2"/>
              <path id="Path_1078251" data-name="Path 1078251" d="M169.857,458.174h34.495v2.82H169.857Z" transform="translate(-159.463 -449.249)" fill="#ffe5c2"/>
            </g>
          </g>
          <g id="Group_1209297" data-name="Group 1209297" transform="translate(11.464 3.766)">
            <g id="Group_1209294" data-name="Group 1209294">
              <path id="Path_1078252" data-name="Path 1078252" d="M121.4,422.444V412.4h-6.16v10.049a.338.338,0,0,0,.531.278l2.549-1.764,2.549,1.764A.338.338,0,0,0,121.4,422.444Z" transform="translate(-115.24 -412.395)" fill="#fb2b3a"/>
            </g>
            <g id="Group_1209296" data-name="Group 1209296" transform="translate(0)">
              <g id="Group_1209295" data-name="Group 1209295">
                <path id="Path_1078253" data-name="Path 1078253" d="M118.076,412.4H115.24v10.049a.338.338,0,0,0,.531.278l2.3-1.6Z" transform="translate(-115.24 -412.395)" fill="#e41f2d"/>
              </g>
            </g>
          </g>
        </g>
        <path id="Path_1078254" data-name="Path 1078254" d="M61.622,53.65H59.907V43.593h1.715a.846.846,0,1,0,0-1.692H44.7V39.655a2.782,2.782,0,0,0-2.779-2.779H40.4V35.131a3.1,3.1,0,0,0-3.013-3.1V18.384a.846.846,0,0,0-1.692,0V32.03H32.868V12.477H35.7v1.96a.846.846,0,1,0,1.692,0V12.195a1.411,1.411,0,0,0-1.41-1.41h-.85V7.916a4.015,4.015,0,0,0,3.067-3.067H48.562V6.392L40.291,22.108a1.182,1.182,0,0,0-.9,1.768l2.032,3.519a1.187,1.187,0,0,0,1.026.592H50.41a.846.846,0,1,0,0-1.692h-7.67l-1.446-2.5H57.52l-1.446,2.5H54.358a.846.846,0,1,0,0,1.692h2.01a1.187,1.187,0,0,0,1.026-.592l2.032-3.519a1.182,1.182,0,0,0-.9-1.768L50.254,6.392V4.849H53.42a.846.846,0,0,0,0-1.692H38.194a4,4,0,0,0-7.825,0H15.144a.846.846,0,1,0,0,1.692H18.31V6.392L10.039,22.108a1.182,1.182,0,0,0-.9,1.768h0l2.032,3.519a1.188,1.188,0,0,0,1.026.592h13.92a1.187,1.187,0,0,0,1.026-.592l2.032-3.519a1.182,1.182,0,0,0-.9-1.768L20,6.392V4.849H30.369a4.015,4.015,0,0,0,3.067,3.067v2.869h-.85a1.411,1.411,0,0,0-1.41,1.41V32.032a3.1,3.1,0,0,0-3.013,3.1v1.745H26.647a2.782,2.782,0,0,0-2.779,2.779V41.9H12.817a6.721,6.721,0,1,0,0,13.441H17.56v1.22a1.184,1.184,0,0,0,1.858.974L21.486,56.1l2.068,1.431a1.184,1.184,0,0,0,1.858-.974v-1.22h36.21a.846.846,0,1,0,0-1.692ZM48.562,22.1H42.207l6.355-12.075Zm1.692-12.075L56.608,22.1H50.254Zm-31.944,0V22.1H11.955Zm7.513,16.27H12.489l-1.446-2.5H27.269Zm.534-4.2H20V10.025ZM31.97,4a2.312,2.312,0,1,1,2.312,2.312A2.314,2.314,0,0,1,31.97,4ZM29.855,35.131a1.411,1.411,0,0,1,1.41-1.41H37.3a1.411,1.411,0,0,1,1.41,1.41v1.745H29.855ZM12.817,53.65a5.029,5.029,0,1,1,0-10.058h1.177a3.836,3.836,0,0,0-.668,2.167v5.724a3.835,3.835,0,0,0,.668,2.167Zm10.9,1.943L21.967,54.38a.846.846,0,0,0-.963,0l-1.753,1.213V47.358H23.72Zm34.495-9.927H39.931a.846.846,0,0,0,0,1.692H58.215v2.526H39.931a.846.846,0,0,0,0,1.692H58.215V53.65h-32.8V47.358h7.138a.846.846,0,1,0,0-1.692H17.185a.846.846,0,0,0,0,1.692h.375V53.65h-.375a2.169,2.169,0,0,1-2.167-2.167V45.759a2.169,2.169,0,0,1,2.167-2.167h13.6a.846.846,0,1,0,0-1.692H25.56V39.655a1.088,1.088,0,0,1,1.087-1.087H41.916A1.089,1.089,0,0,1,43,39.655V41.9h-8.27a.846.846,0,1,0,0,1.692H58.215Z" transform="translate(0)"/>
      </g>
    </g>
  </g>
</svg>
