<svg xmlns="http://www.w3.org/2000/svg" xmlns:xlink="http://www.w3.org/1999/xlink" width="93.934" height="93.934" viewBox="0 0 93.934 93.934">
  <defs>
    <filter id="Path_978624" x="0" y="0" width="93.934" height="93.934" filterUnits="userSpaceOnUse">
      <feOffset dy="3" input="SourceAlpha"/>
      <feGaussianBlur stdDeviation="3" result="blur"/>
      <feFlood flood-opacity="0.161"/>
      <feComposite operator="in" in2="blur"/>
      <feComposite in="SourceGraphic"/>
    </filter>
  </defs>
  <g id="Group_1209783" data-name="Group 1209783" transform="translate(-609 -2175.165)">
    <g id="Group_1208659" data-name="Group 1208659" transform="translate(0 -6.555)">
      <g id="Group_1208062" data-name="Group 1208062" transform="translate(412 751.719)">
        <g id="Group_1144123" data-name="Group 1144123" transform="translate(206 1436)">
          <g transform="matrix(1, 0, 0, 1, -9, -6)" filter="url(#Path_978624)">
            <g id="Path_978624-2" data-name="Path 978624" transform="translate(9 6)" fill="#efeadd">
              <path d="M 37.966796875 74.43359375 C 33.04315185546875 74.43359375 28.26757431030273 73.46962738037109 23.77274131774902 71.56847381591797 C 19.43047523498535 69.73184967041016 15.53040790557861 67.10224914550781 12.18087482452393 63.75271987915039 C 8.831341743469238 60.4031867980957 6.201741218566895 56.50312042236328 4.365118980407715 52.16086196899414 C 2.463963508605957 47.66601943969727 1.499996900558472 42.89044189453125 1.499996900558472 37.966796875 C 1.499996900558472 33.04315185546875 2.463963508605957 28.26757431030273 4.365118980407715 23.77274131774902 C 6.201741218566895 19.43047523498535 8.831341743469238 15.53040790557861 12.18087482452393 12.18087482452393 C 15.53040790557861 8.831341743469238 19.43047523498535 6.201741218566895 23.77274131774902 4.365118980407715 C 28.26757431030273 2.463963508605957 33.04315185546875 1.499996900558472 37.966796875 1.499996900558472 C 42.89044189453125 1.499996900558472 47.66601943969727 2.463963508605957 52.16086196899414 4.365118980407715 C 56.50312042236328 6.201741218566895 60.4031867980957 8.831341743469238 63.75271987915039 12.18087482452393 C 67.10224914550781 15.53040790557861 69.73184967041016 19.43047523498535 71.56847381591797 23.77274131774902 C 73.46962738037109 28.26757431030273 74.43359375 33.04315185546875 74.43359375 37.966796875 C 74.43359375 42.89044189453125 73.46962738037109 47.66601943969727 71.56847381591797 52.16086196899414 C 69.73184967041016 56.50313186645508 67.10224914550781 60.4031867980957 63.75271987915039 63.75271987915039 C 60.4031867980957 67.10224914550781 56.50313186645508 69.73184967041016 52.16086196899414 71.56847381591797 C 47.66601943969727 73.46962738037109 42.89044189453125 74.43359375 37.966796875 74.43359375 Z" stroke="none"/>
              <path d="M 37.966796875 3 C 33.2449836730957 3 28.66600799560547 3.924095153808594 24.35705947875977 5.746635437011719 C 20.19359588623047 7.507621765136719 16.45379638671875 10.02927398681641 13.24153518676758 13.24153518676758 C 10.02927398681641 16.45379638671875 7.507621765136719 20.19359588623047 5.746635437011719 24.35705947875977 C 3.924095153808594 28.66600799560547 3 33.2449836730957 3 37.966796875 C 3 42.6886100769043 3.924095153808594 47.26758575439453 5.746635437011719 51.57653427124023 C 7.507621765136719 55.73999786376953 10.02927398681641 59.47979736328125 13.24153518676758 62.69205856323242 C 16.45379638671875 65.90431976318359 20.19359588623047 68.42597198486328 24.35705947875977 70.18695831298828 C 28.66600799560547 72.00949859619141 33.2449836730957 72.93359375 37.966796875 72.93359375 C 42.6886100769043 72.93359375 47.26758575439453 72.00949859619141 51.57653427124023 70.18695831298828 C 55.73999786376953 68.42597198486328 59.47979736328125 65.90431976318359 62.69205856323242 62.69205856323242 C 65.90431976318359 59.47979736328125 68.42597198486328 55.73999786376953 70.18695831298828 51.57653427124023 C 72.00949859619141 47.26758575439453 72.93359375 42.6886100769043 72.93359375 37.966796875 C 72.93359375 33.2449836730957 72.00949859619141 28.66600799560547 70.18695831298828 24.35705947875977 C 68.42597198486328 20.19359588623047 65.90431976318359 16.45379638671875 62.69205856323242 13.24153518676758 C 59.47979736328125 10.02927398681641 55.73999786376953 7.507621765136719 51.57653427124023 5.746635437011719 C 47.26758575439453 3.924095153808594 42.6886100769043 3 37.966796875 3 M 37.966796875 0 C 58.93528366088867 0 75.93359375 16.99831008911133 75.93359375 37.966796875 C 75.93359375 58.93528366088867 58.93528366088867 75.93359375 37.966796875 75.93359375 C 16.99831008911133 75.93359375 0 58.93528366088867 0 37.966796875 C 0 16.99831008911133 16.99831008911133 0 37.966796875 0 Z" stroke="none" fill="#847625"/>
            </g>
          </g>
        </g>
      </g>
      <g id="sanction_17977634" transform="translate(687.266 2266.104)">
        <circle id="Ellipse_11783" data-name="Ellipse 11783" cx="26.521" cy="26.521" r="26.521" transform="translate(-69.266 -40.885) rotate(-45)" fill="#d7ebff"/>
        <circle id="Ellipse_11784" data-name="Ellipse 11784" cx="20.742" cy="20.742" r="20.742" transform="translate(-61.095 -40.885) rotate(-45)" fill="#4eb1fc"/>
        <g id="Group_1208658" data-name="Group 1208658" transform="translate(-51.627 -61.618)">
          <path id="Path_1077314" data-name="Path 1077314" d="M168.3,63.6c-1,1.6-.237,4.094-3.632,4.358-1.828.142-2.595-.237-1.985-2,1.5-4.325-4.662-2.317-4.81.73-.1,2.068.516,8.507-4.05,5.614-1.169-.741-3.293,1.655-4.21,2.52-1.314,1.239-3.055,1.5-3.966-.4-.744-1.552-1.358-2.126-1.928-2.3-3.185-1.5,2.714-2.781,3.628-2.771,3.264.039,2.066-2.884,3.34-3.842,3.372-2.536.5-3.4,1.907-5.07a1.555,1.555,0,0,0-.087-2.26A20.782,20.782,0,0,1,168.3,63.6Z" transform="translate(-134.373 -58.116)" fill="#adffad" fill-rule="evenodd"/>
          <path id="Path_1077315" data-name="Path 1077315" d="M80.162,241.164c3.265-5.922-.522-4.4.452-7.8.73-2.545,1.963-5.7-.6-7.327-1.576-.814-2.614.246-2.868,1.746a8.014,8.014,0,0,1-2.8,4.089,20.748,20.748,0,0,0,5.825,9.289Z" transform="translate(-74.337 -205.166)" fill="#adffad" fill-rule="evenodd"/>
          <path id="Path_1077316" data-name="Path 1077316" d="M341.639,186.978a8.058,8.058,0,0,0-4.473,2.146c-.974,1.177-2.41,1.577-3.371.078-1.417-2.7,1.24-4.83,3.153-6.676,2.549-2.461-1.489-3.041,4.274-6.533a20.867,20.867,0,0,1,.418,10.985Z" transform="translate(-301.573 -161.514)" fill="#adffad" fill-rule="evenodd"/>
          <path id="Path_1077317" data-name="Path 1077317" d="M148.954,306.587a10.84,10.84,0,0,1,21.4,0,20.759,20.759,0,0,1-21.4,0Z" transform="translate(-139.788 -268.083)" fill="#ffeb87" fill-rule="evenodd"/>
        </g>
        <circle id="Ellipse_11785" data-name="Ellipse 11785" cx="4.541" cy="4.541" r="4.541" transform="matrix(0.16, -0.987, 0.987, 0.16, -36.979, -33.04)" fill="#f0e3df"/>
        <circle id="Ellipse_11786" data-name="Ellipse 11786" cx="11.697" cy="11.697" r="11.697" transform="translate(-27.782 -23.984) rotate(-27.257)" fill="#ff879b"/>
        <path id="Path_1077318" data-name="Path 1077318" d="M340.325,341.584a7.847,7.847,0,0,1,4.062,1.126l-10.821,10.821a7.886,7.886,0,0,1,6.758-11.947Zm6.758,3.822-10.821,10.821a7.886,7.886,0,0,0,10.821-10.821Z" transform="translate(-352.363 -368.382)" fill="#fff" fill-rule="evenodd"/>
        <path id="Path_1077319" data-name="Path 1077319" d="M66.285,52.473a6.917,6.917,0,0,0-.425-2.39L56.993,58.95a6.9,6.9,0,0,0,9.292-6.476Zm1.965,0a8.866,8.866,0,0,1-13.435,7.6.982.982,0,0,1-.188-1.536L65.447,47.716a.984.984,0,0,1,1.537.188,8.854,8.854,0,0,1,1.266,4.57ZM61.773,46l-8.865,8.866A6.9,6.9,0,0,1,61.773,46Zm2.367.412L53.319,57.231a.979.979,0,0,1-.694.287,1.01,1.01,0,0,1-.12-.007.983.983,0,0,1-.723-.468A8.868,8.868,0,0,1,63.953,44.874a.982.982,0,0,1,.187,1.536ZM70.1,52.474A10.714,10.714,0,1,1,59.384,41.759,10.726,10.726,0,0,1,70.1,52.474Zm1.966,0a12.679,12.679,0,1,1-12.679-12.68,12.694,12.694,0,0,1,12.679,12.68ZM59.038,34.387a19.835,19.835,0,0,0-.16-8.487c-1.915,1.313-1.88,1.937-1.842,2.593a3.462,3.462,0,0,1-1.231,3.1c-.167.161-.34.325-.516.491-2,1.892-3.253,3.259-2.427,4.894a.882.882,0,0,0,.619.47,1.564,1.564,0,0,0,1.1-.679,8.935,8.935,0,0,1,4.458-2.381Zm-6.85-17.8c-.326,1.277-.49,1.917-2.179,2.049a3.415,3.415,0,0,1-1.131-.032,2.253,2.253,0,0,1,.151-.663c.612-1.762.137-2.708-.367-3.191a2.991,2.991,0,0,0-3.221-.277A4.73,4.73,0,0,0,42.309,18.3c-.014.278-.015.607-.017.986-.005,1.178-.018,3.936-.818,4.373-.294.161-.932-.037-1.707-.526-1.676-1.063-3.68.923-5,2.238-.152.152-.289.287-.405.4a2.017,2.017,0,0,1-1.575.7c-.324-.06-.6-.33-.83-.8-.772-1.609-1.529-2.474-2.447-2.789a.008.008,0,0,0-.006,0A11.12,11.12,0,0,1,32.745,22h.007c2.872.037,3.311-1.882,3.569-3.027a2.175,2.175,0,0,1,.374-1.012c2.333-1.755,2.252-3.084,1.969-4.3-.124-.533-.14-.643.1-.926a2.55,2.55,0,0,0,.66-1.987c.079,0,.158,0,.238,0A19.673,19.673,0,0,1,52.511,15.5a10.706,10.706,0,0,0-.323,1.083ZM20.939,36.824a19.783,19.783,0,0,0,4.385,7.261c1-2.086.655-2.609.3-3.157a3.456,3.456,0,0,1-.484-3.3c.064-.224.132-.452.2-.683.786-2.639,1.187-4.449-.345-5.452a.881.881,0,0,0-.772-.1,1.561,1.561,0,0,0-.612,1.138,8.932,8.932,0,0,1-2.67,4.289Zm37.272.5c.089-.245.173-.49.253-.736a6.823,6.823,0,0,0-2.369,1.43,3.459,3.459,0,0,1-2.583,1.393c-.05,0-.1,0-.149,0A2.752,2.752,0,0,1,51.184,38c-.015-.024-.03-.049-.043-.075-1.622-3.093.932-5.508,2.8-7.272.171-.162.339-.32.5-.478a1.584,1.584,0,0,0,.634-1.571c-.081-1.418.117-2.679,3.224-4.676a19.777,19.777,0,0,0-4.192-6.9l-.011.042c-.334,1.307-.839,3.281-3.931,3.52-1.058.084-2.226.056-2.868-.776a2.745,2.745,0,0,1-.121-2.521c.269-.773.17-1.089.133-1.125-.063-.059-.462-.143-1.135.125a2.85,2.85,0,0,0-1.9,2.1c-.011.234-.012.543-.015.9-.009,2.029-.023,5.094-1.84,6.089-.981.537-2.22.342-3.683-.58-.061,0-.355.036-1.016.535a16.415,16.415,0,0,0-1.573,1.427c-.166.164-.314.312-.441.431a4.138,4.138,0,0,1-2.767,1.245,2.776,2.776,0,0,1-.516-.047,3.106,3.106,0,0,1-2.243-1.886c-.674-1.406-1.123-1.723-1.33-1.786a1.115,1.115,0,0,1-.13-.05c-1.453-.684-1.6-1.529-1.462-2.116.192-.834,1.072-1.466,2.77-1.989a12.142,12.142,0,0,1,2.75-.538c1.287.018,1.387-.426,1.629-1.495a3.412,3.412,0,0,1,1.109-2.149c1.5-1.132,1.4-1.587,1.237-2.278a2.7,2.7,0,0,1,.508-2.64c.179-.213.272-.374.184-.6A19.762,19.762,0,0,0,20.337,34.627a6.817,6.817,0,0,0,1.334-2.42,3.389,3.389,0,0,1,1.672-2.568,2.751,2.751,0,0,1,2.59.13.678.678,0,0,1,.075.043c2.95,1.867,1.947,5.237,1.213,7.7-.067.224-.133.447-.2.663a1.588,1.588,0,0,0,.237,1.678c.779,1.185,1.238,2.376-.449,5.652a19.769,19.769,0,0,0,17.732,4.152.983.983,0,1,1,.484,1.905A21.71,21.71,0,1,1,60.055,38a.982.982,0,1,1-1.844-.678ZM36.1,34.6a3.559,3.559,0,1,0,3.559-3.559A3.564,3.564,0,0,0,36.1,34.6Zm11.218,9.339a.983.983,0,0,0,1.545-1.216,11.843,11.843,0,0,0-5.591-3.951,5.524,5.524,0,1,0-7.228,0,11.987,11.987,0,0,0-7.077,6.352.983.983,0,1,0,1.777.839,9.861,9.861,0,0,1,8.923-5.8,9.712,9.712,0,0,1,7.649,3.778ZM46.33,56.212a.983.983,0,0,1-.746,1.173,26.165,26.165,0,0,1-5.694.622h-.238a27.5,27.5,0,0,1-19.439-46.95A27.512,27.512,0,0,1,65.794,39.1a.982.982,0,0,1-1.867-.613A25.542,25.542,0,1,0,39.661,56.039a24.165,24.165,0,0,0,5.5-.572.983.983,0,0,1,1.173.744Z" transform="translate(-71.423 -71.387)" fill-rule="evenodd"/>
      </g>
    </g>
  </g>
</svg>
