<svg xmlns="http://www.w3.org/2000/svg" xmlns:xlink="http://www.w3.org/1999/xlink" width="108" height="108" viewBox="0 0 108 108">
  <defs>
    <filter id="Path_978624" x="0" y="0" width="108" height="108" filterUnits="userSpaceOnUse">
      <feOffset dy="3" input="SourceAlpha"/>
      <feGaussianBlur stdDeviation="3" result="blur"/>
      <feFlood flood-opacity="0.161"/>
      <feComposite operator="in" in2="blur"/>
      <feComposite in="SourceGraphic"/>
    </filter>
    <filter id="Path_1076716" x="0" y="0" width="108" height="108" filterUnits="userSpaceOnUse">
      <feOffset dy="3" input="SourceAlpha"/>
      <feGaussianBlur stdDeviation="3" result="blur-2"/>
      <feFlood flood-opacity="0.161"/>
      <feComposite operator="in" in2="blur-2"/>
      <feComposite in="SourceGraphic"/>
    </filter>
  </defs>
  <g id="Group_1209742" data-name="Group 1209742" transform="translate(-616 -486)">
    <g id="Group_1208503" data-name="Group 1208503">
      <g id="Group_1200660" data-name="Group 1200660">
        <g id="Group_1181203" data-name="Group 1181203" transform="translate(625 492)">
          <g id="Group_1172348" data-name="Group 1172348" transform="translate(0)">
            <g id="Group_1171897" data-name="Group 1171897">
              <g id="Group_1171052" data-name="Group 1171052">
                <g id="Group_1164581" data-name="Group 1164581">
                  <g id="Group_1144123" data-name="Group 1144123">
                    <g transform="matrix(1, 0, 0, 1, -9, -6)" filter="url(#Path_978624)">
                      <g id="Path_978624-2" data-name="Path 978624" transform="translate(9 6)" fill="#fdfaeb">
                        <path d="M 45 88.5 C 39.12687683105469 88.5 33.43022537231445 87.35007476806641 28.06830024719238 85.08217620849609 C 22.88852500915527 82.89131164550781 18.23629951477051 79.75458526611328 14.2408504486084 75.75914764404297 C 10.24541282653809 71.76370239257812 7.108687400817871 67.11147308349609 4.917825222015381 61.93170166015625 C 2.649924993515015 56.56977462768555 1.5 50.87312316894531 1.5 45 C 1.5 39.12687683105469 2.649924993515015 33.43022537231445 4.917825222015381 28.06830024719238 C 7.108687400817871 22.88852500915527 10.24541282653809 18.23629951477051 14.2408504486084 14.2408504486084 C 18.23629951477051 10.24541282653809 22.88852500915527 7.108687400817871 28.06830024719238 4.917825222015381 C 33.43022537231445 2.649924993515015 39.12687683105469 1.5 45 1.5 C 50.87312316894531 1.5 56.56977462768555 2.649924993515015 61.93170166015625 4.917825222015381 C 67.11147308349609 7.108687400817871 71.76370239257812 10.24541282653809 75.75914764404297 14.2408504486084 C 79.75458526611328 18.23629951477051 82.89131164550781 22.88852500915527 85.08217620849609 28.06830024719238 C 87.35007476806641 33.43022537231445 88.5 39.12687683105469 88.5 45 C 88.5 50.87312316894531 87.35007476806641 56.56977462768555 85.08217620849609 61.93170166015625 C 82.89131164550781 67.11147308349609 79.75458526611328 71.76370239257812 75.75914764404297 75.75914764404297 C 71.76370239257812 79.75458526611328 67.11147308349609 82.89131164550781 61.93170166015625 85.08217620849609 C 56.56977462768555 87.35007476806641 50.87312316894531 88.5 45 88.5 Z" stroke="none"/>
                        <path d="M 45 3 C 39.32871246337891 3 33.82865524291992 4.110054016113281 28.65262985229492 6.299339294433594 C 23.65165710449219 8.414573669433594 19.15968322753906 11.44334411621094 15.301513671875 15.301513671875 C 11.44334411621094 19.15968322753906 8.414573669433594 23.65165710449219 6.299339294433594 28.65262985229492 C 4.110054016113281 33.82865524291992 3 39.32871246337891 3 45 C 3 50.67128753662109 4.110054016113281 56.17134475708008 6.299339294433594 61.34737396240234 C 8.414573669433594 66.34834289550781 11.44334411621094 70.84031677246094 15.301513671875 74.698486328125 C 19.15968322753906 78.55665588378906 23.65165710449219 81.58542633056641 28.65262985229492 83.70066070556641 C 33.82865524291992 85.88994598388672 39.32871246337891 87 45 87 C 50.67128753662109 87 56.17134475708008 85.88994598388672 61.34737396240234 83.70066070556641 C 66.34834289550781 81.58542633056641 70.84031677246094 78.55665588378906 74.698486328125 74.698486328125 C 78.55665588378906 70.84031677246094 81.58542633056641 66.34834289550781 83.70066070556641 61.34737396240234 C 85.88994598388672 56.17134475708008 87 50.67128753662109 87 45 C 87 39.32871246337891 85.88994598388672 33.82865524291992 83.70066070556641 28.65262985229492 C 81.58542633056641 23.65165710449219 78.55665588378906 19.15968322753906 74.698486328125 15.301513671875 C 70.84031677246094 11.44334411621094 66.34834289550781 8.414573669433594 61.34737396240234 6.299339294433594 C 56.17134475708008 4.110054016113281 50.67128753662109 3 45 3 M 45 0 C 69.85281372070312 0 90 20.14718627929688 90 45 C 90 69.85281372070312 69.85281372070312 90 45 90 C 20.14718627929688 90 0 69.85281372070312 0 45 C 0 20.14718627929688 20.14718627929688 0 45 0 Z" stroke="none" fill="#bcac89"/>
                      </g>
                    </g>
                    <g transform="matrix(1, 0, 0, 1, -9, -6)" filter="url(#Path_1076716)">
                      <g id="Path_1076716-2" data-name="Path 1076716" transform="translate(9 6)" fill="#fdfaeb">
                        <path d="M 45 88.5 C 39.12687683105469 88.5 33.43022537231445 87.35007476806641 28.06830024719238 85.08217620849609 C 22.88852500915527 82.89131164550781 18.23629951477051 79.75458526611328 14.2408504486084 75.75914764404297 C 10.24541282653809 71.76370239257812 7.108687400817871 67.11147308349609 4.917825222015381 61.93170166015625 C 2.649924993515015 56.56977462768555 1.5 50.87312316894531 1.5 45 C 1.5 39.12687683105469 2.649924993515015 33.43022537231445 4.917825222015381 28.06830024719238 C 7.108687400817871 22.88852500915527 10.24541282653809 18.23629951477051 14.2408504486084 14.2408504486084 C 18.23629951477051 10.24541282653809 22.88852500915527 7.108687400817871 28.06830024719238 4.917825222015381 C 33.43022537231445 2.649924993515015 39.12687683105469 1.5 45 1.5 C 50.87312316894531 1.5 56.56977462768555 2.649924993515015 61.93170166015625 4.917825222015381 C 67.11147308349609 7.108687400817871 71.76370239257812 10.24541282653809 75.75914764404297 14.2408504486084 C 79.75458526611328 18.23629951477051 82.89131164550781 22.88852500915527 85.08217620849609 28.06830024719238 C 87.35007476806641 33.43022537231445 88.5 39.12687683105469 88.5 45 C 88.5 50.87312316894531 87.35007476806641 56.56977462768555 85.08217620849609 61.93170166015625 C 82.89131164550781 67.11147308349609 79.75458526611328 71.76370239257812 75.75914764404297 75.75914764404297 C 71.76370239257812 79.75458526611328 67.11147308349609 82.89131164550781 61.93170166015625 85.08217620849609 C 56.56977462768555 87.35007476806641 50.87312316894531 88.5 45 88.5 Z" stroke="none"/>
                        <path d="M 45 3 C 39.32871246337891 3 33.82865524291992 4.110054016113281 28.65262985229492 6.299339294433594 C 23.65165710449219 8.414573669433594 19.15968322753906 11.44334411621094 15.301513671875 15.301513671875 C 11.44334411621094 19.15968322753906 8.414573669433594 23.65165710449219 6.299339294433594 28.65262985229492 C 4.110054016113281 33.82865524291992 3 39.32871246337891 3 45 C 3 50.67128753662109 4.110054016113281 56.17134475708008 6.299339294433594 61.34737396240234 C 8.414573669433594 66.34834289550781 11.44334411621094 70.84031677246094 15.301513671875 74.698486328125 C 19.15968322753906 78.55665588378906 23.65165710449219 81.58542633056641 28.65262985229492 83.70066070556641 C 33.82865524291992 85.88994598388672 39.32871246337891 87 45 87 C 50.67128753662109 87 56.17134475708008 85.88994598388672 61.34737396240234 83.70066070556641 C 66.34834289550781 81.58542633056641 70.84031677246094 78.55665588378906 74.698486328125 74.698486328125 C 78.55665588378906 70.84031677246094 81.58542633056641 66.34834289550781 83.70066070556641 61.34737396240234 C 85.88994598388672 56.17134475708008 87 50.67128753662109 87 45 C 87 39.32871246337891 85.88994598388672 33.82865524291992 83.70066070556641 28.65262985229492 C 81.58542633056641 23.65165710449219 78.55665588378906 19.15968322753906 74.698486328125 15.301513671875 C 70.84031677246094 11.44334411621094 66.34834289550781 8.414573669433594 61.34737396240234 6.299339294433594 C 56.17134475708008 4.110054016113281 50.67128753662109 3 45 3 M 45 0 C 69.85281372070312 0 90 20.14718627929688 90 45 C 90 69.85281372070312 69.85281372070312 90 45 90 C 20.14718627929688 90 0 69.85281372070312 0 45 C 0 20.14718627929688 20.14718627929688 0 45 0 Z" stroke="none" fill="#bcac89"/>
                      </g>
                    </g>
                  </g>
                </g>
              </g>
            </g>
          </g>
        </g>
      </g>
      <g id="ley" transform="translate(622.482 476.504)">
        <g id="Group_1208494" data-name="Group 1208494" transform="translate(18.818 64.832)">
          <g id="Group_1208489" data-name="Group 1208489" transform="translate(0 4.613)">
            <path id="Path_1077090" data-name="Path 1077090" d="M164.756,360.257a14.687,14.687,0,0,0,3.526,9.672H115.136a1.681,1.681,0,0,1-1.372-.7,17.121,17.121,0,0,1,0-17.94,1.682,1.682,0,0,1,1.372-.7h53.146A14.688,14.688,0,0,0,164.756,360.257Z" transform="translate(-111.226 -350.585)" fill="#fb3a82"/>
            <path id="Path_1077091" data-name="Path 1077091" d="M127.443,350.587l-14.987,16.234a16.983,16.983,0,0,1-1.227-6.561,15.349,15.349,0,0,1,2.538-8.97,1.679,1.679,0,0,1,1.372-.7Z" transform="translate(-111.229 -350.587)" fill="#fb1466"/>
            <path id="Path_1077092" data-name="Path 1077092" d="M199.321,360.257a14.687,14.687,0,0,0,3.526,9.672H148.892s-3.1-3.14-3.1-9.672,3.1-9.672,3.1-9.672h53.955A14.688,14.688,0,0,0,199.321,360.257Z" transform="translate(-139.943 -350.585)" fill="#e0d3ce"/>
            <g id="Group_1208488" data-name="Group 1208488" transform="translate(5.848 0)">
              <path id="Path_1077093" data-name="Path 1077093" d="M156.156,350.587l-10.31,11.168c-.035-.477-.056-.976-.056-1.5,0-6.532,3.1-9.673,3.1-9.673Z" transform="translate(-145.79 -350.587)" fill="#cdbfbb"/>
              <path id="Path_1077094" data-name="Path 1077094" d="M430.792,360.264a14.685,14.685,0,0,0,3.526,9.672h-6.393a15.028,15.028,0,0,1,0-19.343h6.393A14.681,14.681,0,0,0,430.792,360.264Z" transform="translate(-377.261 -350.591)" fill="#cdbfbb"/>
            </g>
          </g>
          <g id="Group_1208493" data-name="Group 1208493" transform="translate(7.28 0)">
            <g id="Group_1208491" data-name="Group 1208491" transform="translate(0.001)">
              <path id="Path_1077095" data-name="Path 1077095" d="M213.515,326.126a2.807,2.807,0,0,1-2.807,2.807H157.067a2.808,2.808,0,0,1,0-5.615h53.641A2.808,2.808,0,0,1,213.515,326.126Z" transform="translate(-154.26 -323.317)" fill="#fb3a82"/>
              <g id="Group_1208490" data-name="Group 1208490">
                <path id="Path_1077096" data-name="Path 1077096" d="M167.452,323.317l-5.182,5.615h-5.2a2.808,2.808,0,0,1,0-5.615Z" transform="translate(-154.26 -323.317)" fill="#fb1466"/>
                <path id="Path_1077097" data-name="Path 1077097" d="M463.967,326.128a2.81,2.81,0,0,1-2.809,2.809h-5.445a2.808,2.808,0,0,0,0-5.616h5.445A2.808,2.808,0,0,1,463.967,326.128Z" transform="translate(-404.71 -323.32)" fill="#fb1466"/>
              </g>
            </g>
            <g id="Group_1208492" data-name="Group 1208492" transform="translate(0 22.955)">
              <path id="Path_1077098" data-name="Path 1077098" d="M210.706,464.611H157.064a2.808,2.808,0,0,1,0-5.615h53.641a2.808,2.808,0,1,1,0,5.615Z" transform="translate(-154.257 -458.996)" fill="#fb3a82"/>
              <path id="Path_1077099" data-name="Path 1077099" d="M463.967,461.807a2.806,2.806,0,0,1-2.809,2.807h-5.445a2.807,2.807,0,1,0,0-5.613h5.445A2.808,2.808,0,0,1,463.967,461.807Z" transform="translate(-404.71 -458.999)" fill="#fb1466"/>
            </g>
          </g>
        </g>
        <g id="Group_1208502" data-name="Group 1208502" transform="translate(-0.001 12.193)">
          <g id="Group_1208497" data-name="Group 1208497" transform="translate(1.269 33.531)">
            <g id="Group_1208495" data-name="Group 1208495" transform="translate(0 10.739)">
              <path id="Path_1077100" data-name="Path 1077100" d="M44.458,278.389l-4.532-4.532L9.072,302.34a4.886,4.886,0,1,0,6.9,6.9Z" transform="translate(-7.5 -273.857)" fill="#873f30"/>
              <path id="Path_1077101" data-name="Path 1077101" d="M17.017,316.231a4.888,4.888,0,0,1-6.908,0,4.839,4.839,0,0,1-1.192-1.947,4.878,4.878,0,0,0,4.958-1.187c.047-.047.094-.1.139-.145L42.5,282.1l3.138,3.138L17.154,316.089C17.108,316.137,17.063,316.185,17.017,316.231Z" transform="translate(-8.678 -280.702)" fill="#6c3328"/>
            </g>
            <path id="Path_1077102" data-name="Path 1077102" d="M201.073,210.382l-10.437,12.45L194.9,227.1l12.449-10.437Z" transform="translate(-159.651 -210.382)" fill="#873f30"/>
            <path id="Path_1077103" data-name="Path 1077103" d="M209.319,210.382l-3.372,4.023,1.012,1.012a1.907,1.907,0,0,1,0,2.7l-6.4,6.4,2.584,2.584L215.6,216.658Z" transform="translate(-167.898 -210.382)" fill="#6c3328"/>
            <g id="Group_1208496" data-name="Group 1208496" transform="translate(27.531 9.9)">
              <path id="Path_1077104" data-name="Path 1077104" d="M175.258,278.268l-4.139-4.139a3.064,3.064,0,0,1,4.333-4.333l4.139,4.139a3.064,3.064,0,0,1-4.333,4.333Z" transform="translate(-170.222 -268.899)" fill="#ba5d4f"/>
              <path id="Path_1077105" data-name="Path 1077105" d="M188.911,287.593a3.064,3.064,0,0,1-4.333,0l-3.137-3.137a3.064,3.064,0,0,0,4.333-4.333l3.137,3.137A3.062,3.062,0,0,1,188.911,287.593Z" transform="translate(-179.543 -278.224)" fill="#a34f41"/>
            </g>
          </g>
          <g id="Group_1208498" data-name="Group 1208498" transform="translate(33.671 5.077)">
            <path id="Path_1077106" data-name="Path 1077106" d="M0,0H13V20.406H0Z" transform="translate(14.427 0) rotate(45)" fill="#ba5d4f"/>
            <path id="Path_1077107" data-name="Path 1077107" d="M0,0H13V20.406H0Z" transform="translate(29.319 43.759) rotate(-135)" fill="#a34f41"/>
          </g>
          <g id="Group_1208501" data-name="Group 1208501" transform="translate(0 0)">
            <path id="Path_1077108" data-name="Path 1077108" d="M177.707,41.1l-.319-.319a3.1,3.1,0,0,1,0-4.384L193.179,20.6a3.1,3.1,0,0,1,4.384,0l.319.319a3.1,3.1,0,0,1,0,4.384L182.09,41.1A3.1,3.1,0,0,1,177.707,41.1Z" transform="translate(-146.621 -18.425)" fill="#873f30"/>
            <path id="Path_1077109" data-name="Path 1077109" d="M349.151,212.54l.319.319a3.1,3.1,0,0,0,4.383,0l15.792-15.791a3.1,3.1,0,0,0,0-4.384l-.319-.319a3.1,3.1,0,0,0-4.384,0l-15.791,15.791A3.1,3.1,0,0,0,349.151,212.54Z" transform="translate(-289.324 -161.127)" fill="#6c3328"/>
            <g id="Group_1208500" data-name="Group 1208500">
              <path id="Path_1077110" data-name="Path 1077110" d="M0,0H14.6V30.82H0Z" transform="translate(61.276 10.891) rotate(45)" fill="#fcc16d"/>
              <path id="Path_1077111" data-name="Path 1077111" d="M0,0H30.82V7.388H0Z" transform="translate(44.577 37.789) rotate(-45)" fill="#fca62f"/>
              <path id="Path_1077112" data-name="Path 1077112" d="M247.139,68.072l-2.528-1.034a2.325,2.325,0,0,0-2.524.508L224.333,85.3a2.325,2.325,0,0,0-.508,2.524l1.034,2.528a1.55,1.55,0,0,0,2.53.509L247.648,70.6A1.55,1.55,0,0,0,247.139,68.072Z" transform="translate(-185.812 -57.616)" fill="#873f30"/>
              <path id="Path_1077113" data-name="Path 1077113" d="M311.664,132.6l1.034,2.528a2.325,2.325,0,0,1-.508,2.524L294.436,155.4a2.325,2.325,0,0,1-2.524.508l-2.528-1.034a1.55,1.55,0,0,1-.509-2.53l20.259-20.259A1.55,1.55,0,0,1,311.664,132.6Z" transform="translate(-239.623 -111.427)" fill="#6c3328"/>
              <g id="Group_1208499" data-name="Group 1208499">
                <path id="Path_1077114" data-name="Path 1077114" d="M82.547,86.518H81.6a13.123,13.123,0,0,1-1.093-2.083,1.269,1.269,0,0,0-2.345.971c.157.379.332.749.517,1.113H28.906a4.06,4.06,0,0,0-1.106.154,14.751,14.751,0,0,1-1.865-7.555c0-.553.025-1.1.072-1.633H50.319a1.269,1.269,0,1,0,0-2.538H27.076l2.982-3.23H78.675a15.84,15.84,0,0,0-1.222,3.23H60.775a1.269,1.269,0,0,0,0,2.538H77.01c-.05.516-.078,1.036-.081,1.561a1.269,1.269,0,0,0,1.264,1.274H78.2a1.269,1.269,0,0,0,1.269-1.264,13.578,13.578,0,0,1,2.134-7.34h.946a4.076,4.076,0,0,0,0-8.153H66.685L81.218,49.03a4.368,4.368,0,0,0,0-6.178l-.319-.32a4.366,4.366,0,0,0-5.953-.208L72.7,40.079l.765-.765a3.585,3.585,0,0,0,.786-3.9l-1.034-2.528a2.812,2.812,0,0,0-2.041-1.694l-1.765-1.765a1.269,1.269,0,0,0-1.795,1.794l.868.868-20,20L42.6,46.206l20-20,.778.778a1.269,1.269,0,1,0,1.794-1.794L63.5,23.517a2.813,2.813,0,0,0-1.694-2.042h0l-2.528-1.034a3.586,3.586,0,0,0-3.9.785l-.765.765-2.246-2.246a4.366,4.366,0,0,0-.208-5.953l-.319-.32a4.368,4.368,0,0,0-6.178,0L29.869,29.264a4.368,4.368,0,0,0,0,6.178l.319.319a4.366,4.366,0,0,0,5.954.208l2.246,2.246-.765.765a3.586,3.586,0,0,0-.785,3.9l1.034,2.528A2.811,2.811,0,0,0,39.883,47.1l-6.363,7.59a4.335,4.335,0,0,0-5.727,5.5l-2.886,2.664a1.269,1.269,0,0,0,1.722,1.865L29.3,62.25l3.144,3.144L8.812,90.989A3.617,3.617,0,1,1,3.7,85.878l18.534-17.11A1.269,1.269,0,1,0,20.514,66.9L1.979,84.014A6.155,6.155,0,0,0,6.15,94.691h.127a6.1,6.1,0,0,0,4.4-1.979l7.605-8.238a14.625,14.625,0,0,0,2.04,4.35,2.955,2.955,0,0,0,2.406,1.236h2.138a4.07,4.07,0,0,0,4.04,4.613H82.547a4.076,4.076,0,0,0,0-8.153ZM84.085,67.64a1.54,1.54,0,0,1-1.539,1.539H32.4l2.109-2.285a4.337,4.337,0,0,0,4.328-.792H82.547a1.54,1.54,0,0,1,1.538,1.539ZM45.8,53l-7.347,6.16-2.921-2.921,6.16-7.348ZM40.269,63.564A4.357,4.357,0,0,0,40,61.17l7.59-6.363a2.812,2.812,0,0,0,1.687,2.013l2.528,1.034a3.586,3.586,0,0,0,3.9-.785l.765-.765,2.246,2.246a4.377,4.377,0,0,0-.505,5.014H40.269ZM77.81,43.791a1.819,1.819,0,0,1,1.294.536l.319.32a1.83,1.83,0,0,1,0,2.589L63.632,63.027a1.83,1.83,0,0,1-2.589,0l-.319-.319a1.833,1.833,0,0,1,0-2.589L76.515,44.328A1.818,1.818,0,0,1,77.81,43.791Zm-4.667.32L60.508,56.746,58.27,54.508,70.9,41.874Zm-22.993,9.9L70.408,33.753a.267.267,0,0,1,.194-.083.31.31,0,0,1,.06.006.27.27,0,0,1,.2.169L71.9,36.374a1.053,1.053,0,0,1-.231,1.146L53.916,55.274a1.053,1.053,0,0,1-1.146.231l-2.528-1.034a.281.281,0,0,1-.093-.459ZM33.277,34.5a1.818,1.818,0,0,1-1.294-.536l-.319-.319a1.831,1.831,0,0,1,0-2.589L47.455,15.268a1.83,1.83,0,0,1,2.589,0l.319.32a1.831,1.831,0,0,1,0,2.589L34.571,33.967a1.82,1.82,0,0,1-1.294.536Zm4.667-.32L50.579,21.548l2.238,2.238L40.182,36.421Zm1.473,6.592L57.171,23.021a1.053,1.053,0,0,1,1.146-.231l2.528,1.034a.281.281,0,0,1,.092.458L40.679,44.542a.281.281,0,0,1-.459-.092l-1.034-2.528A1.054,1.054,0,0,1,39.417,40.775ZM30.068,58.689a1.795,1.795,0,0,1,3.064-1.269l4.139,4.139A1.795,1.795,0,0,1,34.732,64.1l-4.138-4.139a1.783,1.783,0,0,1-.526-1.269ZM22.39,87.352a12.8,12.8,0,0,1-2.032-5.128L23.4,78.929c0,.063,0,.125,0,.188a17.606,17.606,0,0,0,1.968,8.4H22.728A.413.413,0,0,1,22.39,87.352Zm60.157,4.781H28.906a1.539,1.539,0,1,1,0-3.077H82.547a1.539,1.539,0,0,1,0,3.077Z" transform="translate(0.001 -12.193)"/>
                <path id="Path_1077115" data-name="Path 1077115" d="M203.6,417.166a1.269,1.269,0,0,0,0,2.538h29.562a1.269,1.269,0,0,0,0-2.538Z" transform="translate(-168.095 -348.649)"/>
              </g>
            </g>
          </g>
        </g>
      </g>
    </g>
  </g>
</svg>
