<svg xmlns="http://www.w3.org/2000/svg" xmlns:xlink="http://www.w3.org/1999/xlink" width="93.934" height="93.934" viewBox="0 0 93.934 93.934">
  <defs>
    <filter id="Path_978624" x="0" y="0" width="93.934" height="93.934" filterUnits="userSpaceOnUse">
      <feOffset dy="3" input="SourceAlpha"/>
      <feGaussianBlur stdDeviation="3" result="blur"/>
      <feFlood flood-opacity="0.161"/>
      <feComposite operator="in" in2="blur"/>
      <feComposite in="SourceGraphic"/>
    </filter>
  </defs>
  <g id="Group_1209792" data-name="Group 1209792" transform="translate(-191 -5275.033)">
    <g id="Group_1209304" data-name="Group 1209304" transform="translate(0 29.445)">
      <g id="Group_1208071" data-name="Group 1208071" transform="translate(-6 3815.588)">
        <g id="Group_1144123" data-name="Group 1144123" transform="translate(206 1436)">
          <g transform="matrix(1, 0, 0, 1, -9, -6)" filter="url(#Path_978624)">
            <g id="Path_978624-2" data-name="Path 978624" transform="translate(9 6)" fill="#efeadd">
              <path d="M 37.966796875 74.43359375 C 33.04315185546875 74.43359375 28.26757431030273 73.46962738037109 23.77274131774902 71.56847381591797 C 19.43047523498535 69.73184967041016 15.53040790557861 67.10224914550781 12.18087482452393 63.75271987915039 C 8.831341743469238 60.4031867980957 6.201741218566895 56.50312042236328 4.365118980407715 52.16086196899414 C 2.463963508605957 47.66601943969727 1.499996900558472 42.89044189453125 1.499996900558472 37.966796875 C 1.499996900558472 33.04315185546875 2.463963508605957 28.26757431030273 4.365118980407715 23.77274131774902 C 6.201741218566895 19.43047523498535 8.831341743469238 15.53040790557861 12.18087482452393 12.18087482452393 C 15.53040790557861 8.831341743469238 19.43047523498535 6.201741218566895 23.77274131774902 4.365118980407715 C 28.26757431030273 2.463963508605957 33.04315185546875 1.499996900558472 37.966796875 1.499996900558472 C 42.89044189453125 1.499996900558472 47.66601943969727 2.463963508605957 52.16086196899414 4.365118980407715 C 56.50312042236328 6.201741218566895 60.4031867980957 8.831341743469238 63.75271987915039 12.18087482452393 C 67.10224914550781 15.53040790557861 69.73184967041016 19.43047523498535 71.56847381591797 23.77274131774902 C 73.46962738037109 28.26757431030273 74.43359375 33.04315185546875 74.43359375 37.966796875 C 74.43359375 42.89044189453125 73.46962738037109 47.66601943969727 71.56847381591797 52.16086196899414 C 69.73184967041016 56.50313186645508 67.10224914550781 60.4031867980957 63.75271987915039 63.75271987915039 C 60.4031867980957 67.10224914550781 56.50313186645508 69.73184967041016 52.16086196899414 71.56847381591797 C 47.66601943969727 73.46962738037109 42.89044189453125 74.43359375 37.966796875 74.43359375 Z" stroke="none"/>
              <path d="M 37.966796875 3 C 33.2449836730957 3 28.66600799560547 3.924095153808594 24.35705947875977 5.746635437011719 C 20.19359588623047 7.507621765136719 16.45379638671875 10.02927398681641 13.24153518676758 13.24153518676758 C 10.02927398681641 16.45379638671875 7.507621765136719 20.19359588623047 5.746635437011719 24.35705947875977 C 3.924095153808594 28.66600799560547 3 33.2449836730957 3 37.966796875 C 3 42.6886100769043 3.924095153808594 47.26758575439453 5.746635437011719 51.57653427124023 C 7.507621765136719 55.73999786376953 10.02927398681641 59.47979736328125 13.24153518676758 62.69205856323242 C 16.45379638671875 65.90431976318359 20.19359588623047 68.42597198486328 24.35705947875977 70.18695831298828 C 28.66600799560547 72.00949859619141 33.2449836730957 72.93359375 37.966796875 72.93359375 C 42.6886100769043 72.93359375 47.26758575439453 72.00949859619141 51.57653427124023 70.18695831298828 C 55.73999786376953 68.42597198486328 59.47979736328125 65.90431976318359 62.69205856323242 62.69205856323242 C 65.90431976318359 59.47979736328125 68.42597198486328 55.73999786376953 70.18695831298828 51.57653427124023 C 72.00949859619141 47.26758575439453 72.93359375 42.6886100769043 72.93359375 37.966796875 C 72.93359375 33.2449836730957 72.00949859619141 28.66600799560547 70.18695831298828 24.35705947875977 C 68.42597198486328 20.19359588623047 65.90431976318359 16.45379638671875 62.69205856323242 13.24153518676758 C 59.47979736328125 10.02927398681641 55.73999786376953 7.507621765136719 51.57653427124023 5.746635437011719 C 47.26758575439453 3.924095153808594 42.6886100769043 3 37.966796875 3 M 37.966796875 0 C 58.93528366088867 0 75.93359375 16.99831008911133 75.93359375 37.966796875 C 75.93359375 58.93528366088867 58.93528366088867 75.93359375 37.966796875 75.93359375 C 16.99831008911133 75.93359375 0 58.93528366088867 0 37.966796875 C 0 16.99831008911133 16.99831008911133 0 37.966796875 0 Z" stroke="none" fill="#847625"/>
            </g>
          </g>
        </g>
      </g>
      <g id="legitimidad" transform="translate(210.841 5260.302)">
        <g id="Group_1209303" data-name="Group 1209303" transform="translate(7.713 7.714)">
          <g id="Group_1209300" data-name="Group 1209300" transform="translate(0)">
            <path id="Path_1078255" data-name="Path 1078255" d="M16.006,15H42.279a.968.968,0,0,1,.708.293l4.767,4.767a.968.968,0,0,1,.293.708V56.826a1,1,0,0,1-1,1H16.006a1,1,0,0,1-1-1V16a1,1,0,0,1,1-1Z" transform="translate(-15.005 -15)" fill="#eceff1" fill-rule="evenodd"/>
            <path id="Path_1078256" data-name="Path 1078256" d="M325.348,15.964v4.767a.5.5,0,0,0,.5.5h4.767a1,1,0,0,0-.207-.293l-4.767-4.767A1.05,1.05,0,0,0,325.348,15.964Z" transform="translate(-297.659 -15.878)" fill="#a79ba7" fill-rule="evenodd"/>
            <path id="Path_1078257" data-name="Path 1078257" d="M16.006,15h1V57.825h-1a1,1,0,0,1-1-1V16a1,1,0,0,1,1-1Z" transform="translate(-15.005 -15)" fill="#d1d1d6" fill-rule="evenodd"/>
          </g>
          <g id="Group_1209301" data-name="Group 1209301" transform="translate(18.128 18.527)">
            <path id="Path_1078258" data-name="Path 1078258" d="M228.379,432.849l-.541-2.4a.682.682,0,0,0-.687-.517h-7.731a.682.682,0,0,0-.687.517l-.541,2.4Z" transform="translate(-218.193 -411.439)" fill="#837683" fill-rule="evenodd"/>
            <path id="Path_1078259" data-name="Path 1078259" d="M311.392,432.849l-.541-2.4a.682.682,0,0,0-.687-.517h-.827a.687.687,0,0,1,.687.517l.541,2.4Z" transform="translate(-301.206 -411.439)" fill="#685e68" fill-rule="evenodd"/>
            <path id="Path_1078260" data-name="Path 1078260" d="M332.641,309.631l-1.981,1.981,11.772,12.35a1.012,1.012,0,0,0,.7.328.843.843,0,0,0,.687-.255l1.252-1.252a.845.845,0,0,0,.249-.681,1,1,0,0,0-.328-.705Z" transform="translate(-320.626 -301.871)" fill="#e3a76f" fill-rule="evenodd"/>
            <path id="Path_1078261" data-name="Path 1078261" d="M346.849,309.631l-.59.583,12.35,11.772a1.031,1.031,0,0,1,.334.7.876.876,0,0,1-.255.687l.589-.59a.845.845,0,0,0,.249-.681,1,1,0,0,0-.328-.705Z" transform="translate(-334.833 -301.871)" fill="#c48958" fill-rule="evenodd"/>
            <path id="Path_1078262" data-name="Path 1078262" d="M274.89,251.856c.717-.614,1.58-1.27,2.79-2.17l-4.224-4.224a24.448,24.448,0,0,1-6.965,6.965l4.224,4.224c.9-1.209,1.562-2.079,2.17-2.79A16.036,16.036,0,0,1,274.89,251.856Z" transform="translate(-262.182 -243.427)" fill="#c48958" fill-rule="evenodd"/>
            <path id="Path_1078263" data-name="Path 1078263" d="M274.039,246.045l-.584-.583a24.447,24.447,0,0,1-6.965,6.965l.583.583A24.219,24.219,0,0,0,274.039,246.045Z" transform="translate(-262.182 -243.427)" fill="#ab7448" fill-rule="evenodd"/>
            <path id="Path_1078264" data-name="Path 1078264" d="M334.405,222.863l-1,1a.715.715,0,0,0,0,1l4.856,4.856a.715.715,0,0,0,1,0l1-1a.715.715,0,0,0,0-1l-4.856-4.856A.715.715,0,0,0,334.405,222.863Z" transform="translate(-322.937 -222.658)" fill="#e3a76f" fill-rule="evenodd"/>
            <path id="Path_1078265" data-name="Path 1078265" d="M340.78,222.863l-.583.59a.7.7,0,0,1,1,0l4.856,4.85a.7.7,0,0,1,0,1l.589-.584a.715.715,0,0,0,0-1l-4.856-4.856A.715.715,0,0,0,340.78,222.863Z" transform="translate(-329.312 -222.658)" fill="#c48958" fill-rule="evenodd"/>
            <path id="Path_1078266" data-name="Path 1078266" d="M244.911,312.374l-1,1a.7.7,0,0,0,0,1l4.85,4.85a.7.7,0,0,0,1,0l1-1a.715.715,0,0,0,0-1l-4.856-4.856a.715.715,0,0,0-1,0Z" transform="translate(-241.428 -304.182)" fill="#e3a76f" fill-rule="evenodd"/>
            <path id="Path_1078267" data-name="Path 1078267" d="M249.767,325.542l.583-.583a.708.708,0,0,1-1,0L244.5,320.1a.715.715,0,0,1,0-1l-.583.589a.7.7,0,0,0,0,1l4.85,4.85A.7.7,0,0,0,249.767,325.542Z" transform="translate(-241.428 -310.496)" fill="#c48958" fill-rule="evenodd"/>
          </g>
          <g id="Group_1209302" data-name="Group 1209302" transform="translate(3.239 4.562)">
            <path id="Path_1078268" data-name="Path 1078268" d="M56.689,76.886a5.375,5.375,0,1,0-5.375-5.375A5.386,5.386,0,0,0,56.689,76.886Z" transform="translate(-51.314 -66.136)" fill="#837683" fill-rule="evenodd"/>
            <path id="Path_1078269" data-name="Path 1078269" d="M111.1,71.511a5.374,5.374,0,0,1-4.9,5.354q.236.021.478.021a5.4,5.4,0,0,0,.769-.055l.1-.015a5.376,5.376,0,0,0-.866-10.681q-.242,0-.478.021a5.376,5.376,0,0,1,4.9,5.355Z" transform="translate(-101.308 -66.136)" fill="#685e68" fill-rule="evenodd"/>
            <path id="Path_1078270" data-name="Path 1078270" d="M73.461,132.193a3.755,3.755,0,0,0-3.732,3.35,5.374,5.374,0,0,0,7.464,0A3.754,3.754,0,0,0,73.461,132.193Z" transform="translate(-68.086 -126.299)" fill="#8ac9fe" fill-rule="evenodd"/>
            <path id="Path_1078271" data-name="Path 1078271" d="M106.212,132.224c2.234.284,3.134,1.974,3.341,4a5.343,5.343,0,0,0,.868-.681,3.754,3.754,0,0,0-3.732-3.35A3.7,3.7,0,0,0,106.212,132.224Z" transform="translate(-101.314 -126.299)" fill="#60b7ff" fill-rule="evenodd"/>
            <path id="Path_1078272" data-name="Path 1078272" d="M92.192,90.269a1.9,1.9,0,1,0-1.9-1.9A1.9,1.9,0,0,0,92.192,90.269Z" transform="translate(-86.816 -84.659)" fill="#f6dccd" fill-rule="evenodd"/>
            <path id="Path_1078273" data-name="Path 1078273" d="M110.547,88.372a1.9,1.9,0,0,1-1.659,1.883,1.988,1.988,0,0,0,.239.015,1.9,1.9,0,1,0,0-3.8,1.969,1.969,0,0,0-.239.015A1.9,1.9,0,0,1,110.547,88.372Z" transform="translate(-103.751 -84.659)" fill="#f1cbbc" fill-rule="evenodd"/>
          </g>
        </g>
        <path id="Path_1078274" data-name="Path 1078274" d="M41.469,42.884v6.793a1.581,1.581,0,0,1-1.576,1.576H8.579A1.58,1.58,0,0,1,7,49.676V8.58A1.58,1.58,0,0,1,8.579,7H35.044a1.527,1.527,0,0,1,1.114.462l4.848,4.848a1.527,1.527,0,0,1,.462,1.114V28.6l2.2,2.2a1.426,1.426,0,0,1,0,2.011l-1,1a1.427,1.427,0,0,1-1.956.052c-.4.3-.76.58-1.084.839L50.7,45.252a1.716,1.716,0,0,1,.551,1.178h0a1.548,1.548,0,0,1-.461,1.228l-1.252,1.252a1.547,1.547,0,0,1-1.229.461,1.716,1.716,0,0,1-1.178-.551ZM34.687,8.428H8.579a.152.152,0,0,0-.152.152v41.1a.151.151,0,0,0,.152.149H39.893a.149.149,0,0,0,.149-.149v-8.29l-3.463-3.633c-.259.324-.535.681-.839,1.084a1.427,1.427,0,0,1-.052,1.956l-1,1a1.426,1.426,0,0,1-2.011,0L27.82,36.94a1.426,1.426,0,0,1,0-2.011l1-1a1.426,1.426,0,0,1,1.956-.052A20.305,20.305,0,0,0,35.752,28.9a1.426,1.426,0,0,1,.052-1.956l1-1a1.426,1.426,0,0,1,2.011,0l1.225,1.224V13.782H35.833a1.153,1.153,0,0,1-1.147-1.147Zm4.345,3.927L36.114,9.437v2.918Zm.661,20.49L36.77,29.922A20.875,20.875,0,0,1,31.8,34.893l2.923,2.923c.477-.627,4.345-4.495,4.971-4.971Zm-1.159,2.785c-.365.332-.7.663-1.028,1.028l10.656,11.18a.331.331,0,0,0,.225.111h0a.174.174,0,0,0,.14-.045l1.252-1.252a.174.174,0,0,0,.046-.14.331.331,0,0,0-.111-.225Zm-1.716-7.679L41.664,32.8l.994-.994-4.846-4.846ZM10.952,45.628a.714.714,0,1,1,0-1.428H24.234a.714.714,0,0,1,0,1.428ZM24.466,19.17a.714.714,0,0,1,0-1.428h8.32a.714.714,0,1,1,0,1.428ZM26.03,31.624a.714.714,0,0,1,0-1.428h5.632a.714.714,0,0,1,0,1.428ZM10.952,40.96a.714.714,0,1,1,0-1.428H28.811a.714.714,0,1,1,0,1.428ZM36.03,48.365H25.84a.714.714,0,0,1-.7-.871l.541-2.4a1.4,1.4,0,0,1,1.384-1.072H34.8a1.4,1.4,0,0,1,1.384,1.072l.541,2.4a.714.714,0,0,1-.7.871Zm-8.963-2.917-.335,1.489h8.406L34.8,45.449H27.067ZM18.056,26.956a.714.714,0,0,1,0-1.428h14.73a.714.714,0,0,1,0,1.428ZM16.328,11.562a6.09,6.09,0,1,1-6.09,6.09,6.089,6.089,0,0,1,6.09-6.09ZM20.358,20a4.662,4.662,0,1,0-8.06,0,4.488,4.488,0,0,1,2.019-2.062,2.612,2.612,0,1,1,4.023,0A4.488,4.488,0,0,1,20.358,20ZM13.363,21.25a4.663,4.663,0,0,0,5.928,0,3.04,3.04,0,0,0-5.928,0Zm2.964-3.794a1.185,1.185,0,1,0-1.185-1.185A1.188,1.188,0,0,0,16.328,17.457Zm8.139,4.6a.714.714,0,1,1,0-1.428H36.521a.714.714,0,1,1,0,1.428Zm-13.515,4.9a.714.714,0,0,1,0-1.428h3.107a.714.714,0,1,1,0,1.428Zm0,4.668a.714.714,0,0,1,0-1.428h11.7a.714.714,0,0,1,0,1.428Zm7.1,4.668a.714.714,0,0,1,0-1.428h7.1a.714.714,0,1,1,0,1.428Zm-7.1,0a.714.714,0,1,1,0-1.428h3.755a.714.714,0,0,1,0,1.428ZM24.466,16.286a.714.714,0,1,1,0-1.428h4.659a.714.714,0,0,1,0,1.428Zm4.367,19.649,4.846,4.846.994-.994-4.846-4.846Z" fill-rule="evenodd"/>
      </g>
    </g>
  </g>
</svg>
