<svg xmlns="http://www.w3.org/2000/svg" xmlns:xlink="http://www.w3.org/1999/xlink" width="108" height="108" viewBox="0 0 108 108">
  <defs>
    <filter id="Path_978624" x="0" y="0" width="108" height="108" filterUnits="userSpaceOnUse">
      <feOffset dy="3" input="SourceAlpha"/>
      <feGaussianBlur stdDeviation="3" result="blur"/>
      <feFlood flood-opacity="0.161"/>
      <feComposite operator="in" in2="blur"/>
      <feComposite in="SourceGraphic"/>
    </filter>
    <filter id="Path_1076716" x="0" y="0" width="108" height="108" filterUnits="userSpaceOnUse">
      <feOffset dy="3" input="SourceAlpha"/>
      <feGaussianBlur stdDeviation="3" result="blur-2"/>
      <feFlood flood-opacity="0.161"/>
      <feComposite operator="in" in2="blur-2"/>
      <feComposite in="SourceGraphic"/>
    </filter>
  </defs>
  <g id="Group_1209807" data-name="Group 1209807" transform="translate(-617 -3492)">
    <g id="Group_1209415" data-name="Group 1209415" transform="translate(0 7)">
      <g id="Group_1208078" data-name="Group 1208078" transform="translate(1 2999)">
        <g id="Group_1181203" data-name="Group 1181203" transform="translate(625 492)">
          <g id="Group_1172348" data-name="Group 1172348" transform="translate(0)">
            <g id="Group_1171897" data-name="Group 1171897">
              <g id="Group_1171052" data-name="Group 1171052">
                <g id="Group_1164581" data-name="Group 1164581">
                  <g id="Group_1144123" data-name="Group 1144123">
                    <g transform="matrix(1, 0, 0, 1, -9, -6)" filter="url(#Path_978624)">
                      <g id="Path_978624-2" data-name="Path 978624" transform="translate(9 6)" fill="#edeef2">
                        <path d="M 45 88.5 C 39.12687683105469 88.5 33.43022537231445 87.35007476806641 28.06830024719238 85.08217620849609 C 22.88852500915527 82.89131164550781 18.23629951477051 79.75458526611328 14.2408504486084 75.75914764404297 C 10.24541282653809 71.76370239257812 7.108687400817871 67.11147308349609 4.917825222015381 61.93170166015625 C 2.649924993515015 56.56977462768555 1.5 50.87312316894531 1.5 45 C 1.5 39.12687683105469 2.649924993515015 33.43022537231445 4.917825222015381 28.06830024719238 C 7.108687400817871 22.88852500915527 10.24541282653809 18.23629951477051 14.2408504486084 14.2408504486084 C 18.23629951477051 10.24541282653809 22.88852500915527 7.108687400817871 28.06830024719238 4.917825222015381 C 33.43022537231445 2.649924993515015 39.12687683105469 1.5 45 1.5 C 50.87312316894531 1.5 56.56977462768555 2.649924993515015 61.93170166015625 4.917825222015381 C 67.11147308349609 7.108687400817871 71.76370239257812 10.24541282653809 75.75914764404297 14.2408504486084 C 79.75458526611328 18.23629951477051 82.89131164550781 22.88852500915527 85.08217620849609 28.06830024719238 C 87.35007476806641 33.43022537231445 88.5 39.12687683105469 88.5 45 C 88.5 50.87312316894531 87.35007476806641 56.56977462768555 85.08217620849609 61.93170166015625 C 82.89131164550781 67.11147308349609 79.75458526611328 71.76370239257812 75.75914764404297 75.75914764404297 C 71.76370239257812 79.75458526611328 67.11147308349609 82.89131164550781 61.93170166015625 85.08217620849609 C 56.56977462768555 87.35007476806641 50.87312316894531 88.5 45 88.5 Z" stroke="none"/>
                        <path d="M 45 3 C 39.32871246337891 3 33.82865524291992 4.110054016113281 28.65262985229492 6.299339294433594 C 23.65165710449219 8.414573669433594 19.15968322753906 11.44334411621094 15.301513671875 15.301513671875 C 11.44334411621094 19.15968322753906 8.414573669433594 23.65165710449219 6.299339294433594 28.65262985229492 C 4.110054016113281 33.82865524291992 3 39.32871246337891 3 45 C 3 50.67128753662109 4.110054016113281 56.17134475708008 6.299339294433594 61.34737396240234 C 8.414573669433594 66.34834289550781 11.44334411621094 70.84031677246094 15.301513671875 74.698486328125 C 19.15968322753906 78.55665588378906 23.65165710449219 81.58542633056641 28.65262985229492 83.70066070556641 C 33.82865524291992 85.88994598388672 39.32871246337891 87 45 87 C 50.67128753662109 87 56.17134475708008 85.88994598388672 61.34737396240234 83.70066070556641 C 66.34834289550781 81.58542633056641 70.84031677246094 78.55665588378906 74.698486328125 74.698486328125 C 78.55665588378906 70.84031677246094 81.58542633056641 66.34834289550781 83.70066070556641 61.34737396240234 C 85.88994598388672 56.17134475708008 87 50.67128753662109 87 45 C 87 39.32871246337891 85.88994598388672 33.82865524291992 83.70066070556641 28.65262985229492 C 81.58542633056641 23.65165710449219 78.55665588378906 19.15968322753906 74.698486328125 15.301513671875 C 70.84031677246094 11.44334411621094 66.34834289550781 8.414573669433594 61.34737396240234 6.299339294433594 C 56.17134475708008 4.110054016113281 50.67128753662109 3 45 3 M 45 0 C 69.85281372070312 0 90 20.14718627929688 90 45 C 90 69.85281372070312 69.85281372070312 90 45 90 C 20.14718627929688 90 0 69.85281372070312 0 45 C 0 20.14718627929688 20.14718627929688 0 45 0 Z" stroke="none" fill="#56678d"/>
                      </g>
                    </g>
                    <g transform="matrix(1, 0, 0, 1, -9, -6)" filter="url(#Path_1076716)">
                      <g id="Path_1076716-2" data-name="Path 1076716" transform="translate(9 6)" fill="#edeef2">
                        <path d="M 45 88.5 C 39.12687683105469 88.5 33.43022537231445 87.35007476806641 28.06830024719238 85.08217620849609 C 22.88852500915527 82.89131164550781 18.23629951477051 79.75458526611328 14.2408504486084 75.75914764404297 C 10.24541282653809 71.76370239257812 7.108687400817871 67.11147308349609 4.917825222015381 61.93170166015625 C 2.649924993515015 56.56977462768555 1.5 50.87312316894531 1.5 45 C 1.5 39.12687683105469 2.649924993515015 33.43022537231445 4.917825222015381 28.06830024719238 C 7.108687400817871 22.88852500915527 10.24541282653809 18.23629951477051 14.2408504486084 14.2408504486084 C 18.23629951477051 10.24541282653809 22.88852500915527 7.108687400817871 28.06830024719238 4.917825222015381 C 33.43022537231445 2.649924993515015 39.12687683105469 1.5 45 1.5 C 50.87312316894531 1.5 56.56977462768555 2.649924993515015 61.93170166015625 4.917825222015381 C 67.11147308349609 7.108687400817871 71.76370239257812 10.24541282653809 75.75914764404297 14.2408504486084 C 79.75458526611328 18.23629951477051 82.89131164550781 22.88852500915527 85.08217620849609 28.06830024719238 C 87.35007476806641 33.43022537231445 88.5 39.12687683105469 88.5 45 C 88.5 50.87312316894531 87.35007476806641 56.56977462768555 85.08217620849609 61.93170166015625 C 82.89131164550781 67.11147308349609 79.75458526611328 71.76370239257812 75.75914764404297 75.75914764404297 C 71.76370239257812 79.75458526611328 67.11147308349609 82.89131164550781 61.93170166015625 85.08217620849609 C 56.56977462768555 87.35007476806641 50.87312316894531 88.5 45 88.5 Z" stroke="none"/>
                        <path d="M 45 3 C 39.32871246337891 3 33.82865524291992 4.110054016113281 28.65262985229492 6.299339294433594 C 23.65165710449219 8.414573669433594 19.15968322753906 11.44334411621094 15.301513671875 15.301513671875 C 11.44334411621094 19.15968322753906 8.414573669433594 23.65165710449219 6.299339294433594 28.65262985229492 C 4.110054016113281 33.82865524291992 3 39.32871246337891 3 45 C 3 50.67128753662109 4.110054016113281 56.17134475708008 6.299339294433594 61.34737396240234 C 8.414573669433594 66.34834289550781 11.44334411621094 70.84031677246094 15.301513671875 74.698486328125 C 19.15968322753906 78.55665588378906 23.65165710449219 81.58542633056641 28.65262985229492 83.70066070556641 C 33.82865524291992 85.88994598388672 39.32871246337891 87 45 87 C 50.67128753662109 87 56.17134475708008 85.88994598388672 61.34737396240234 83.70066070556641 C 66.34834289550781 81.58542633056641 70.84031677246094 78.55665588378906 74.698486328125 74.698486328125 C 78.55665588378906 70.84031677246094 81.58542633056641 66.34834289550781 83.70066070556641 61.34737396240234 C 85.88994598388672 56.17134475708008 87 50.67128753662109 87 45 C 87 39.32871246337891 85.88994598388672 33.82865524291992 83.70066070556641 28.65262985229492 C 81.58542633056641 23.65165710449219 78.55665588378906 19.15968322753906 74.698486328125 15.301513671875 C 70.84031677246094 11.44334411621094 66.34834289550781 8.414573669433594 61.34737396240234 6.299339294433594 C 56.17134475708008 4.110054016113281 50.67128753662109 3 45 3 M 45 0 C 69.85281372070312 0 90 20.14718627929688 90 45 C 90 69.85281372070312 69.85281372070312 90 45 90 C 20.14718627929688 90 0 69.85281372070312 0 45 C 0 20.14718627929688 20.14718627929688 0 45 0 Z" stroke="none" fill="#56678d"/>
                      </g>
                    </g>
                  </g>
                </g>
              </g>
            </g>
          </g>
        </g>
      </g>
      <g id="ley_1_" data-name="ley (1)" transform="translate(618.931 3485.931)">
        <path id="Path_1078559" data-name="Path 1078559" d="M172.578,50.109a26.091,26.091,0,1,1-19.859-25.364A26.091,26.091,0,0,1,172.578,50.109Z" transform="translate(-89.576 -6.854)" fill="#8acce7"/>
        <path id="Path_1078560" data-name="Path 1078560" d="M146.118,72.492l-3.479,3.251-5.678-1.136-2.707,7.376A26.129,26.129,0,0,1,137.6,34.01l2.839,9.935-1.208,4.543-4.543,4.543h-2.271l-2.2,4.543,4.47,3.407,1.136-1.136,4.543,2.271,1.136,3.407,4.543,1.136Z" transform="translate(-89.236 -15.453)" fill="#4ba477"/>
        <path id="Path_1078561" data-name="Path 1078561" d="M330.119,54.684a26.035,26.035,0,0,1-7,17.8l-2.084-4.169-5.678,1.136L310.814,61.5l7.949-3.407-2.271-5.678-9.085,1.136,2.271-5.678L304,41.057l6.26-11.737A26.131,26.131,0,0,1,330.119,54.684Z" transform="translate(-247.117 -11.429)" fill="#4ba477"/>
        <rect id="Rectangle_418078" data-name="Rectangle 418078" width="3.212" height="4.818" transform="translate(39.848 60.29) rotate(-45)" fill="#eebe33"/>
        <path id="Path_1078562" data-name="Path 1078562" d="M28.543,456h15.9a4.543,4.543,0,0,1,4.543,4.543H24A4.543,4.543,0,0,1,28.543,456Z" transform="translate(-6.864 -377.54)" fill="#ad7d4d"/>
        <rect id="Rectangle_418079" data-name="Rectangle 418079" width="16" height="4" transform="translate(22 74)" fill="#c4965c"/>
        <path id="Path_1078563" data-name="Path 1078563" d="M64.706,308.113l8.809,8.809a2.409,2.409,0,0,0,1.7.706h0a2.409,2.409,0,0,0,2.409-2.409h0a2.409,2.409,0,0,0-.706-1.7l-8.809-8.809a2.409,2.409,0,0,0-1.7-.706h0A2.409,2.409,0,0,0,64,306.409h0A2.409,2.409,0,0,0,64.706,308.113Z" transform="translate(-41.186 -247.118)" fill="#eebe33"/>
        <path id="Path_1078564" data-name="Path 1078564" d="M176.706,196.112l8.809,8.809a2.409,2.409,0,0,0,1.7.706h0a2.409,2.409,0,0,0,2.409-2.409h0a2.409,2.409,0,0,0-.706-1.7l-8.809-8.809a2.409,2.409,0,0,0-1.7-.706h0A2.409,2.409,0,0,0,176,194.409h0a2.409,2.409,0,0,0,.706,1.7Z" transform="translate(-137.287 -151.016)" fill="#eebe33"/>
        <rect id="Rectangle_418080" data-name="Rectangle 418080" width="17.666" height="11.242" transform="translate(27.356 58.018) rotate(-45)" fill="#c4965c"/>
        <rect id="Rectangle_418081" data-name="Rectangle 418081" width="6.424" height="24.09" transform="translate(42.12 64.832) rotate(-45)" fill="#c4965c"/>
        <path id="Path_1078565" data-name="Path 1078565" d="M38.713,420.657v-3.521A1.136,1.136,0,0,0,37.577,416h-15.9a1.136,1.136,0,0,0-1.136,1.136v3.521A5.688,5.688,0,0,0,16,426.221a1.136,1.136,0,0,0,1.136,1.136H42.119a1.136,1.136,0,0,0,1.136-1.136,5.688,5.688,0,0,0-4.543-5.564Zm-2.271-2.386v2.271H22.814v-2.271Zm-17.975,6.814a3.413,3.413,0,0,1,3.212-2.271h15.9a3.413,3.413,0,0,1,3.212,2.271Z" transform="translate(0 -343.219)"/>
        <path id="Path_1078566" data-name="Path 1078566" d="M118.459,43.255a27.255,27.255,0,1,0-52.893,9.268L61.651,56.44A3.545,3.545,0,0,0,57.038,61.8l8.809,8.809A3.545,3.545,0,0,0,71.206,66l3.532-3.532L75.971,63.7l-.333.333a1.136,1.136,0,0,0,0,1.606L92.673,82.669a1.136,1.136,0,0,0,1.606,0l4.543-4.543a1.136,1.136,0,0,0,0-1.606l-6.056-6.056A27.289,27.289,0,0,0,118.459,43.255Zm-2.271,0a24.866,24.866,0,0,1-5.613,15.76l-1.32-2.641a1.136,1.136,0,0,0-1.238-.606l-4.875.975-3.5-6.133,6.779-2.905a1.136,1.136,0,0,0,.607-1.466l-2.271-5.678a1.134,1.134,0,0,0-1.2-.705l-7.175.9,1.556-3.891a1.135,1.135,0,0,0-.182-1.149l-5.189-6.227,5.475-10.266A25.029,25.029,0,0,1,116.188,43.255Zm-49.968,0a25.024,25.024,0,0,1,15.714-23.2L84.348,28.5l-1.073,4.033-2.867,3.906H77.5a1.136,1.136,0,0,0-1.022.641l-1.346,2.78A3.545,3.545,0,0,0,72.591,45.5l-5.233,5.233a24.922,24.922,0,0,1-1.138-7.477Zm14.76,15.508-.148.4a1.129,1.129,0,0,0-.652.321l-.333.333-1.233-1.233,3.532-3.532A3.545,3.545,0,0,0,86.759,49.7l-4.17-4.17h2.172l2.027,3.928a1.136,1.136,0,0,0,.37.418L90,51.81l.059,4.742-2.687,2.51L82.269,58.04A1.135,1.135,0,0,0,80.981,58.763Zm-17.7-.744L74.17,47.132l6.343,6.343L69.627,64.362ZM85.153,51.3a1.273,1.273,0,1,1-1.8,1.8l-8.809-8.809a1.273,1.273,0,1,1,1.8-1.8Zm-16.8,18.073a1.265,1.265,0,0,1-.9-.373l-8.809-8.809a1.273,1.273,0,1,1,1.8-1.8L69.254,67.2a1.273,1.273,0,0,1-.9,2.174Zm7.99-8.517.665-.665,1.233,1.233-.665.665Zm4.64,1.038,2.369,2.369L80.416,67.2l-2.369-2.369ZM92.461,73.373l-2.936,2.937-7.5-7.5,2.936-2.936Zm1.015,6.888-2.345-2.345,2.937-2.937,2.345,2.345ZM91.2,68.239c-.225,0-.45,0-.675-.01l-7.757-7.757.005-.014L87.5,61.4a1.136,1.136,0,0,0,1-.284l3.48-3.25a1.135,1.135,0,0,0,.36-.844l-.073-5.835a1.135,1.135,0,0,0-.5-.924l-3.1-2.109L86.463,43.87a1.136,1.136,0,0,0-1.009-.615H80.911a1.134,1.134,0,0,0-.483.109L77.95,40.886a3.58,3.58,0,0,0-.564-.459l.83-1.715h2.768a1.136,1.136,0,0,0,.916-.464l3.334-4.542a1.135,1.135,0,0,0,.182-.38l1.208-4.543a1.136,1.136,0,0,0-.006-.6l-2.535-8.873a25.024,25.024,0,0,1,11.669-.62L90.2,29.093a1.135,1.135,0,0,0,.13,1.261l5.245,6.294L93.557,41.7a1.136,1.136,0,0,0,1.2,1.549l8.215-1.027,1.534,3.835-6.931,2.97a1.136,1.136,0,0,0-.539,1.607l4.543,7.949a1.136,1.136,0,0,0,1.209.55l4.828-.966,1.332,2.664A24.907,24.907,0,0,1,91.2,68.239Z" transform="translate(-34.322)"/>
      </g>
    </g>
  </g>
</svg>
