<svg xmlns="http://www.w3.org/2000/svg" xmlns:xlink="http://www.w3.org/1999/xlink" width="108" height="108" viewBox="0 0 108 108">
  <defs>
    <filter id="Path_904820" x="0" y="0" width="108" height="108" filterUnits="userSpaceOnUse">
      <feOffset dy="3" input="SourceAlpha"/>
      <feGaussianBlur stdDeviation="3" result="blur"/>
      <feFlood flood-opacity="0.161"/>
      <feComposite operator="in" in2="blur"/>
      <feComposite in="SourceGraphic"/>
    </filter>
  </defs>
  <g id="Group_1209784" data-name="Group 1209784" transform="translate(-197 -2659.5)">
    <g id="Group_1209015" data-name="Group 1209015" transform="translate(0 -6.555)">
      <g id="Group_1207774" data-name="Group 1207774" transform="translate(206 2670.713)">
        <g id="Group_1206630" data-name="Group 1206630" transform="translate(0 1.342)">
          <g id="Group_1185091" data-name="Group 1185091" transform="translate(0 0)">
            <g id="Group_1179560" data-name="Group 1179560">
              <g id="Group_1173787" data-name="Group 1173787" transform="translate(0)">
                <g id="Group_1171910" data-name="Group 1171910">
                  <g id="Group_1167341" data-name="Group 1167341">
                    <g id="Group_1166792" data-name="Group 1166792">
                      <g transform="matrix(1, 0, 0, 1, -9, -6)" filter="url(#Path_904820)">
                        <g id="Path_904820-2" data-name="Path 904820" transform="translate(9 6)" fill="#fdfaeb">
                          <path d="M 44.99999618530273 88.50006866455078 C 39.12687301635742 88.50006866455078 33.43022155761719 87.35014343261719 28.06829643249512 85.08222961425781 C 22.88852119445801 82.89136505126953 18.23629570007324 79.75465393066406 14.24084663391113 75.75919342041016 C 10.24540901184082 71.76374053955078 7.108683586120605 67.11151885986328 4.917821407318115 61.93174362182617 C 2.649921178817749 56.56980514526367 1.499996185302734 50.87315368652344 1.499996185302734 45.00003051757812 C 1.499996185302734 39.12690734863281 2.649921178817749 33.43025588989258 4.917821407318115 28.06831741333008 C 7.108683586120605 22.88854217529297 10.24540901184082 18.23631858825684 14.24084663391113 14.24086761474609 C 18.23629570007324 10.24541759490967 22.88852119445801 7.10869312286377 28.06829643249512 4.917842864990234 C 33.43022155761719 2.649930477142334 39.12687301635742 1.500005483627319 44.99999618530273 1.500005483627319 C 50.87311935424805 1.500005483627319 56.56977081298828 2.649930477142334 61.93169784545898 4.917842864990234 C 67.11147308349609 7.10869312286377 71.76369476318359 10.24541759490967 75.75914764404297 14.24086761474609 C 79.75458526611328 18.23631858825684 82.89131164550781 22.88854217529297 85.08216857910156 28.06831741333008 C 87.35007476806641 33.43025588989258 88.5 39.12690734863281 88.5 45.00003051757812 C 88.5 50.87315368652344 87.35007476806641 56.56980514526367 85.08216857910156 61.93174362182617 C 82.89131164550781 67.11151885986328 79.75458526611328 71.76374053955078 75.75914764404297 75.75919342041016 C 71.76369476318359 79.75465393066406 67.11147308349609 82.89136505126953 61.93169784545898 85.08222961425781 C 56.56977081298828 87.35014343261719 50.87311935424805 88.50006866455078 44.99999618530273 88.50006866455078 Z" stroke="none"/>
                          <path d="M 44.99999618530273 3 C 39.32870864868164 3 33.82865142822266 4.110061645507812 28.65262603759766 6.299346923828125 C 23.65165710449219 8.414573669433594 19.15968322753906 11.44334411621094 15.301513671875 15.30152893066406 C 11.44333648681641 19.15969848632812 8.414566040039062 23.65167236328125 6.299339294433594 28.65264511108398 C 4.110054016113281 33.82868576049805 2.999992370605469 39.32874298095703 2.999992370605469 45.00003051757812 C 2.999992370605469 50.67131805419922 4.110054016113281 56.1713752746582 6.299339294433594 61.34741592407227 C 8.414566040039062 66.348388671875 11.44333648681641 70.84036254882812 15.301513671875 74.69853210449219 C 19.15968322753906 78.55671691894531 23.65165710449219 81.58548736572266 28.65262603759766 83.70071411132812 C 33.82865142822266 85.88999938964844 39.32870864868164 87.00006103515625 44.99999618530273 87.00006103515625 C 50.67128372192383 87.00006103515625 56.17134094238281 85.88999938964844 61.34736633300781 83.70071411132812 C 66.34834289550781 81.58548736572266 70.84030914306641 78.55671691894531 74.69847869873047 74.69853210449219 C 78.55665588378906 70.84036254882812 81.58542633056641 66.348388671875 83.70065307617188 61.34741592407227 C 85.88993835449219 56.1713752746582 87 50.67131805419922 87 45.00003051757812 C 87 39.32874298095703 85.88993835449219 33.82868576049805 83.70065307617188 28.65264511108398 C 81.58542633056641 23.65167236328125 78.55665588378906 19.15969848632812 74.69847869873047 15.30152893066406 C 70.84030914306641 11.44334411621094 66.34834289550781 8.414573669433594 61.34736633300781 6.299346923828125 C 56.17134094238281 4.110061645507812 50.67128372192383 3 44.99999618530273 3 M 44.99999618530273 0 C 69.85281372070312 0 90 20.14720153808594 90 45.00003051757812 C 90 69.85285949707031 69.85281372070312 90.00006103515625 44.99999618530273 90.00006103515625 C 20.14717864990234 90.00006103515625 -7.62939453125e-06 69.85285949707031 -7.62939453125e-06 45.00003051757812 C -7.62939453125e-06 20.14720153808594 20.14717864990234 0 44.99999618530273 0 Z" stroke="none" fill="#847625"/>
                        </g>
                      </g>
                    </g>
                  </g>
                </g>
              </g>
            </g>
          </g>
        </g>
      </g>
      <g id="la-politica-monetaria" transform="translate(207.809 2668.825)">
        <g id="Group_1209014" data-name="Group 1209014" transform="translate(0 6.061)">
          <g id="Group_1209009" data-name="Group 1209009" transform="translate(51.03 1.266)">
            <path id="Path_1077877" data-name="Path 1077877" d="M336.553,33.256v-5.3l-4.324-1.081a13.159,13.159,0,0,0-1.086-2.625l2.292-3.82-3.749-3.749-3.82,2.292a13.178,13.178,0,0,0-2.624-1.086l-1.081-4.324h-5.3l-1.081,4.324a13.169,13.169,0,0,0-2.625,1.086l-3.82-2.292-3.749,3.749,2.292,3.82a13.178,13.178,0,0,0-1.086,2.625l-4.324,1.081v5.3l4.324,1.081a13.16,13.16,0,0,0,1.086,2.625l-2.292,3.82,3.749,3.749,3.82-2.292a13.179,13.179,0,0,0,2.625,1.086l1.081,4.324h5.3l1.081-4.324a13.168,13.168,0,0,0,2.624-1.086l3.82,2.292,3.749-3.749-2.292-3.82a13.18,13.18,0,0,0,1.086-2.625ZM319.51,27.2A3.409,3.409,0,1,1,316.1,30.6,3.409,3.409,0,0,1,319.51,27.2Z" transform="translate(-302.467 -13.562)" fill="#528fd8"/>
            <path id="Path_1077878" data-name="Path 1077878" d="M318.828,109.865h-.663l-15.7-9.157V105.7l4.324,1.081a13.16,13.16,0,0,0,1.086,2.625l-2.292,3.82,3.749,3.749,3.82-2.292a13.178,13.178,0,0,0,2.625,1.086l1.081,4.324h5.3l1.081-4.324a13.24,13.24,0,0,0,1.93-.734A6.487,6.487,0,0,0,318.828,109.865Z" transform="translate(-302.467 -86.005)" fill="#0573ce"/>
          </g>
          <g id="Group_1209012" data-name="Group 1209012" transform="translate(1.265 18.308)">
            <g id="Group_1209010" data-name="Group 1209010" transform="translate(16.361)">
              <path id="Path_1077879" data-name="Path 1077879" d="M187.309,215.594h23.178v23.178H187.309Z" transform="translate(-173.334 -198.551)" fill="#ffd15b"/>
              <path id="Path_1077880" data-name="Path 1077880" d="M210.488,298.236a9.232,9.232,0,0,0-1.363-.1h-11.14l-1.22-.989a18.534,18.534,0,0,0-9.455-3.991v10.093h23.178v-5.011Z" transform="translate(-173.335 -263.026)" fill="#ffc344"/>
              <path id="Path_1077881" data-name="Path 1077881" d="M154.241,190.4h-48.4a1.363,1.363,0,0,1-1.363-1.363v-2.386a1.363,1.363,0,0,1,1.363-1.363h48.4a1.363,1.363,0,0,1,1.363,1.363v2.386A1.363,1.363,0,0,1,154.241,190.4Z" transform="translate(-104.476 -173.36)" fill="#c5d3dd"/>
              <path id="Path_1077882" data-name="Path 1077882" d="M374.251,185.289h-5.113a1.363,1.363,0,0,1,1.363,1.363v2.386a1.363,1.363,0,0,1-1.363,1.363h5.113a1.363,1.363,0,0,0,1.363-1.363v-2.386A1.364,1.364,0,0,0,374.251,185.289Z" transform="translate(-324.486 -173.359)" fill="#b6c4cf"/>
              <path id="Path_1077883" data-name="Path 1077883" d="M179.117,361.156H132.76v-8.181h44.311a2.045,2.045,0,0,1,2.045,2.045Z" transform="translate(-127.988 -312.754)" fill="#c5d3dd"/>
              <path id="Path_1077884" data-name="Path 1077884" d="M172.925,356.043a9.132,9.132,0,0,0-.906-3.068H132.76v8.181h40.165Z" transform="translate(-127.988 -312.754)" fill="#b6c4cf"/>
              <path id="Path_1077885" data-name="Path 1077885" d="M324.691,215.594h9.2v23.178h-9.2Z" transform="translate(-287.538 -198.551)" fill="#8d9ca8"/>
              <path id="Path_1077886" data-name="Path 1077886" d="M324.691,215.594h9.2v23.178h-9.2Z" transform="translate(-287.538 -198.551)" fill="#8d9ca8"/>
              <path id="Path_1077887" data-name="Path 1077887" d="M324.691,323.274v5.011h6.877A9.227,9.227,0,0,0,324.691,323.274Z" transform="translate(-287.538 -288.064)" fill="#7a8c98"/>
              <path id="Path_1077888" data-name="Path 1077888" d="M0,0H9.2V23.178H0Z" transform="translate(13.975 40.221) rotate(180)" fill="#8d9ca8"/>
              <path id="Path_1077889" data-name="Path 1077889" d="M141.963,292.5a18.259,18.259,0,0,0-9.2,1.263v8.83h9.2Z" transform="translate(-127.988 -262.37)" fill="#7a8c98"/>
              <path id="Path_1077890" data-name="Path 1077890" d="M168.99,126.508H124.679l20.054-11.7a1.7,1.7,0,0,1,.859-.232h2.487a1.7,1.7,0,0,1,.859.232Z" transform="translate(-121.271 -114.578)" fill="#8d9ca8"/>
              <path id="Path_1077891" data-name="Path 1077891" d="M245.961,157.541a2.556,2.556,0,1,0-5.113,0V160.1h5.113v-2.556Z" transform="translate(-217.84 -148.168)" fill="#596c76"/>
              <path id="Path_1077892" data-name="Path 1077892" d="M241.308,114.81a1.7,1.7,0,0,0-.859-.232h-2.487a1.7,1.7,0,0,0-.859.232l-1.306.762,18.747,10.936h6.817Z" transform="translate(-213.641 -114.578)" fill="#7a8c98"/>
            </g>
            <g id="Group_1209011" data-name="Group 1209011" transform="translate(0 34.346)">
              <path id="Path_1077893" data-name="Path 1077893" d="M72.15,352.975h6.135V374.79H72.15Z" transform="translate(-61.243 -347.1)" fill="#dff6fd"/>
              <path id="Path_1077894" data-name="Path 1077894" d="M174.128,319.352a4.09,4.09,0,0,0-5.785,0l-12.857,12.857h-11.86a4.09,4.09,0,1,0,0-8.181H130.674l-2.627-2.13a13.359,13.359,0,0,0-16.692-.109l-2.836,2.239v21.815l24.687,1.548a13.633,13.633,0,0,0,4.876-.58l19.179-5.923a6.816,6.816,0,0,0,2.809-1.693l14.059-14.059A4.09,4.09,0,0,0,174.128,319.352Z" transform="translate(-91.475 -318.154)" fill="#fed2a4"/>
              <path id="Path_1077895" data-name="Path 1077895" d="M294.863,319.352a4.09,4.09,0,0,0-5.785,0l-12.857,12.857h-2.44a50.053,50.053,0,0,1-4.1,4.638,45.784,45.784,0,0,1-15.924,10.532l.183.012a13.633,13.633,0,0,0,4.876-.58L278,340.888A6.815,6.815,0,0,0,280.8,339.2l14.059-14.059A4.09,4.09,0,0,0,294.863,319.352Z" transform="translate(-212.21 -318.154)" fill="#ffbd86"/>
              <path id="Path_1077896" data-name="Path 1077896" d="M7.5,336.812H18.407v27.269H7.5Z" transform="translate(-7.5 -333.664)" fill="#62dbfb"/>
              <path id="Path_1077897" data-name="Path 1077897" d="M45.886,336.812h4.431v27.269H45.886Z" transform="translate(-39.41 -333.664)" fill="#01d0fb"/>
            </g>
          </g>
          <g id="Group_1209013" data-name="Group 1209013" transform="translate(0)">
            <path id="Path_1077898" data-name="Path 1077898" d="M85.423,28.249a1.265,1.265,0,0,0,.959-1.228v-5.3a1.265,1.265,0,0,0-.958-1.227l-3.642-.912a14.558,14.558,0,0,0-.628-1.519l1.93-3.217a1.265,1.265,0,0,0-.19-1.546l-3.75-3.749a1.265,1.265,0,0,0-1.546-.19l-3.216,1.93a14.445,14.445,0,0,0-1.52-.628l-.91-3.641a1.265,1.265,0,0,0-1.228-.959h-5.3a1.265,1.265,0,0,0-1.228.959l-.91,3.641a14.448,14.448,0,0,0-1.52.628l-3.216-1.93A1.265,1.265,0,0,0,57,9.549L53.253,13.3a1.265,1.265,0,0,0-.19,1.546l1.93,3.216a14.593,14.593,0,0,0-.628,1.52l-3.642.912a1.265,1.265,0,0,0-.958,1.227v4.026l-3.834-2.237a2.972,2.972,0,0,0-1.5-.4H41.947a2.973,2.973,0,0,0-1.5.4L20.693,35.034h-1.7a2.632,2.632,0,0,0-2.629,2.629v2.386a2.632,2.632,0,0,0,2.629,2.629h2.143V60.793c-.263.181-.522.367-.773.566l-2.491,1.967H13.438V61.863A1.265,1.265,0,0,0,12.173,60.6H1.265A1.265,1.265,0,0,0,0,61.863v7.955a1.265,1.265,0,0,0,2.531,0v-6.69h8.377V87.867H2.531V75.723a1.265,1.265,0,0,0-2.531,0V89.132A1.265,1.265,0,0,0,1.265,90.4H12.173a1.265,1.265,0,0,0,1.265-1.265V87.67h4.83l24.648,1.546q.471.03.94.03a14.839,14.839,0,0,0,4.389-.664l19.179-5.923a8.114,8.114,0,0,0,3.33-2.008L84.813,66.593a5.356,5.356,0,1,0-7.574-7.574L70,66.26a3.314,3.314,0,0,0-3.288-2.935H65.249v-7.37a1.265,1.265,0,1,0-2.531,0v2.258H56.046V47.791h6.672V50.05a1.265,1.265,0,1,0,2.531,0V42.677h5.477a1.265,1.265,0,0,0,1.228-.959l.91-3.641a14.432,14.432,0,0,0,1.52-.628L77.6,39.38a1.266,1.266,0,0,0,1.546-.19l3.75-3.75a1.265,1.265,0,0,0,.19-1.546l-1.93-3.216a14.458,14.458,0,0,0,.628-1.52ZM17.043,85.14h-3.6V65.856h3.6ZM79.028,60.808a2.825,2.825,0,0,1,4,3.995L68.965,78.862a5.572,5.572,0,0,1-2.288,1.379L47.5,86.164a12.331,12.331,0,0,1-4.424.527l-23.5-1.474V65.2l2.355-1.859a12.145,12.145,0,0,1,7.487-2.6h.015a12.131,12.131,0,0,1,7.61,2.7l2.627,2.13a1.266,1.266,0,0,0,.8.282H53.416a2.825,2.825,0,1,1,0,5.65H38.759a1.265,1.265,0,0,0-.895.371l-1.79,1.79a1.265,1.265,0,1,0,1.789,1.789l1.419-1.419H65.276a1.265,1.265,0,0,0,.895-.371ZM30.336,47.79V58.212H23.664V47.79ZM23.664,45.26V42.677h6.673V45.26Zm9.2,13.369V42.677H53.515V63.327l-.1,0h-12.5l-2.279-1.848A14.662,14.662,0,0,0,32.867,58.629ZM66.71,65.856a.781.781,0,0,1,.78.78v2.133l-2.738,2.738H57.965a5.343,5.343,0,0,0,0-5.65Zm-3.992-5.113v2.582H56.045V60.743Zm0-15.483H56.045V42.677h6.672Zm4.771-5.212a.1.1,0,0,1-.1.1H18.99a.1.1,0,0,1-.1-.1V37.663a.1.1,0,0,1,.1-.1H30.04a1.265,1.265,0,1,0,0-2.531H25.716l16.011-9.34a.44.44,0,0,1,.221-.06h2.487a.441.441,0,0,1,.221.06l16.011,9.34H47.013V33.743a3.822,3.822,0,1,0-7.643,0v1.291H35.945a1.265,1.265,0,1,0,0,2.531H67.391a.1.1,0,0,1,.1.1ZM44.482,33.743v1.291H41.9V33.743a1.291,1.291,0,1,1,2.582,0Zm36-6.869a1.266,1.266,0,0,0-.908.872,11.923,11.923,0,0,1-.981,2.372,1.265,1.265,0,0,0,.025,1.259l1.784,2.972L78.054,36.7l-2.972-1.784a1.265,1.265,0,0,0-1.259-.025,11.908,11.908,0,0,1-2.372.981,1.266,1.266,0,0,0-.872.908l-.558,2.234V37.663a2.632,2.632,0,0,0-2.629-2.629h-1.7L57.642,30.34a1.261,1.261,0,0,0-.092-.222,11.913,11.913,0,0,1-.981-2.372,1.266,1.266,0,0,0-.908-.872L52.3,26.033V22.707l3.366-.842a1.265,1.265,0,0,0,.907-.872,12.006,12.006,0,0,1,.982-2.374,1.266,1.266,0,0,0-.025-1.258l-1.784-2.972,2.352-2.352,2.972,1.784a1.265,1.265,0,0,0,1.259.025,11.913,11.913,0,0,1,2.372-.981,1.265,1.265,0,0,0,.872-.908l.841-3.365h3.328l.841,3.365a1.266,1.266,0,0,0,.872.908,11.913,11.913,0,0,1,2.372.981,1.265,1.265,0,0,0,1.259-.025l2.972-1.784,2.352,2.352-1.784,2.972a1.265,1.265,0,0,0-.025,1.258,12,12,0,0,1,.982,2.374,1.265,1.265,0,0,0,.907.872l3.366.842v3.326Z" transform="translate(0 -6.061)"/>
            <path id="Path_1077899" data-name="Path 1077899" d="M380.454,86.875a4.674,4.674,0,1,0,4.674,4.674A4.679,4.679,0,0,0,380.454,86.875Zm0,6.817a2.143,2.143,0,1,1,2.143-2.143A2.146,2.146,0,0,1,380.454,93.692Z" transform="translate(-312.381 -73.241)"/>
            <circle id="Ellipse_11809" data-name="Ellipse 11809" cx="1.265" cy="1.265" r="1.265" transform="translate(5.453 59.991)"/>
            <circle id="Ellipse_11810" data-name="Ellipse 11810" cx="1.265" cy="1.265" r="1.265" transform="translate(5.453 65.445)"/>
          </g>
        </g>
        <path id="Path_1077900" data-name="Path 1077900" d="M235.676,241.01c-.191-.092-.375-.176-.555-.257v-2.846a4.875,4.875,0,0,1,.841.473,1.265,1.265,0,0,0,1.538-2.01,7.3,7.3,0,0,0-2.379-1.133v-.465a1.265,1.265,0,1,0-2.531,0v.4c-.064.015-.129.03-.193.048a3.686,3.686,0,0,0-2.692,2.92,3.5,3.5,0,0,0,1.409,3.495,8.3,8.3,0,0,0,1.476.786v4.2a3.394,3.394,0,0,1-1.1-.533,1.265,1.265,0,0,0-1.385,2.118,5.4,5.4,0,0,0,2.489.976v.481a1.265,1.265,0,1,0,2.531,0v-.594a4.389,4.389,0,0,0,3.245-3.237c.346-1.539-.179-3.614-2.69-4.822Zm-3.1-1.448a1,1,0,0,1-.375-1,1.116,1.116,0,0,1,.391-.67v1.676Zm3.322,5.716a1.776,1.776,0,0,1-.775,1.066v-2.734A1.6,1.6,0,0,1,235.9,245.278Z" transform="translate(-190.804 -189.072)"/>
      </g>
    </g>
  </g>
</svg>
