<svg xmlns="http://www.w3.org/2000/svg" xmlns:xlink="http://www.w3.org/1999/xlink" width="110" height="110" viewBox="0 0 110 110">
  <defs>
    <filter id="Path_982547" x="0" y="0" width="110" height="110" filterUnits="userSpaceOnUse">
      <feOffset dy="3" input="SourceAlpha"/>
      <feGaussianBlur stdDeviation="3" result="blur"/>
      <feFlood flood-opacity="0.161"/>
      <feComposite operator="in" in2="blur"/>
      <feComposite in="SourceGraphic"/>
    </filter>
  </defs>
  <g id="Group_1223844" data-name="Group 1223844" transform="translate(-3394 -2307.069)">
    <g id="Group_1223782" data-name="Group 1223782">
      <g id="Group_1221876" data-name="Group 1221876" transform="translate(3017 -3766.21)">
        <g id="Group_1200150" data-name="Group 1200150" transform="translate(386 6079.28)">
          <g id="Group_1185951" data-name="Group 1185951" transform="translate(0 0)">
            <g id="Group_1184083" data-name="Group 1184083" transform="translate(0 0)">
              <g id="Group_1183743" data-name="Group 1183743" transform="translate(0 0)">
                <g id="Group_1181545" data-name="Group 1181545">
                  <g id="Group_1177562" data-name="Group 1177562">
                    <g id="Group_1173147" data-name="Group 1173147" transform="translate(0 0)">
                      <g id="Group_1163801" data-name="Group 1163801" transform="translate(0 0)">
                        <g id="Group_1163014" data-name="Group 1163014" transform="translate(0 0)">
                          <g id="Group_1157015" data-name="Group 1157015" transform="translate(0 0)">
                            <g id="Group_1155792" data-name="Group 1155792" transform="translate(0 0)">
                              <g id="Group_1154703" data-name="Group 1154703" transform="translate(0 0)">
                                <g id="Group_1150789" data-name="Group 1150789">
                                  <g id="Group_1154212" data-name="Group 1154212">
                                    <g id="Group_1152583" data-name="Group 1152583">
                                      <g id="Group_1146973" data-name="Group 1146973">
                                        <g id="Group_1146954" data-name="Group 1146954">
                                          <g transform="matrix(1, 0, 0, 1, -9, -6)" filter="url(#Path_982547)">
                                            <g id="Path_982547-2" data-name="Path 982547" transform="translate(9 6)" fill="#f2d944">
                                              <path d="M 46.00000762939453 90.49988555908203 C 39.99188613891602 90.49988555908203 34.16427612304688 89.32352447509766 28.67906188964844 87.00347137451172 C 23.38020706176758 84.76226043701172 18.62104797363281 81.55342864990234 14.53375434875488 77.46615600585938 C 10.44647407531738 73.37887573242188 7.237647533416748 68.61971282958984 4.996420860290527 63.32085800170898 C 2.676367521286011 57.83565902709961 1.500007629394531 52.00806045532227 1.500007629394531 45.99993896484375 C 1.500007629394531 39.99181747436523 2.676367521286011 34.16421890258789 4.996420860290527 28.67901802062988 C 7.237647533416748 23.38017845153809 10.44647407531738 18.62101936340332 14.53375434875488 14.53373908996582 C 18.62104797363281 10.44645881652832 23.38020706176758 7.237632274627686 28.67906188964844 4.996418952941895 C 34.16427612304688 2.676365613937378 39.99188613891602 1.500005602836609 46.00000762939453 1.500005602836609 C 52.00812911987305 1.500005602836609 57.83573913574219 2.676365613937378 63.32095336914062 4.996418952941895 C 68.61980438232422 7.237632274627686 73.37896728515625 10.44645881652832 77.46626281738281 14.53373908996582 C 81.55354309082031 18.62101936340332 84.76236724853516 23.38017845153809 87.00359344482422 28.67901802062988 C 89.32364654541016 34.16421890258789 90.50000762939453 39.99181747436523 90.50000762939453 45.99993896484375 C 90.50000762939453 52.00806045532227 89.32364654541016 57.83565902709961 87.00359344482422 63.32085800170898 C 84.76236724853516 68.61971282958984 81.55354309082031 73.37887573242188 77.46626281738281 77.46615600585938 C 73.37896728515625 81.55342864990234 68.61980438232422 84.76226043701172 63.32095336914062 87.00347137451172 C 57.83573913574219 89.32352447509766 52.00812911987305 90.49988555908203 46.00000762939453 90.49988555908203 Z" stroke="none"/>
                                              <path d="M 46.00000762939453 2.999992370605469 C 40.19372177124023 2.999992370605469 34.56270599365234 4.136497497558594 29.26339340209961 6.377906799316406 C 24.14333343505859 8.543510437011719 19.54441833496094 11.64437866210938 15.59440612792969 15.59439849853516 C 11.6444091796875 19.54439544677734 8.543525695800781 24.14329528808594 6.377922058105469 29.26335144042969 C 4.136505126953125 34.56266784667969 3.000007629394531 40.19366836547852 3.000007629394531 45.99993896484375 C 3.000007629394531 51.80620956420898 4.136505126953125 57.43722534179688 6.377922058105469 62.73654174804688 C 8.543525695800781 67.85658264160156 11.6444091796875 72.45548248291016 15.59440612792969 76.40549468994141 C 19.54441833496094 80.35549926757812 24.14333343505859 83.45636749267578 29.26337814331055 85.62196350097656 C 34.56270599365234 87.86338043212891 40.19372177124023 88.9998779296875 46.00000762939453 88.9998779296875 C 51.80629348754883 88.9998779296875 57.43730926513672 87.86338043212891 62.73662185668945 85.62196350097656 C 67.85668182373047 83.45636749267578 72.45558166503906 80.35549926757812 76.40559387207031 76.40549468994141 C 80.35560607910156 72.45548248291016 83.45648193359375 67.85658264160156 85.62207794189453 62.73654174804688 C 87.86351013183594 57.43722534179688 89.00000762939453 51.80620956420898 89.00000762939453 45.99993896484375 C 89.00000762939453 40.19366836547852 87.86351013183594 34.56266784667969 85.62207794189453 29.26335144042969 C 83.45648193359375 24.14329528808594 80.35560607910156 19.54439544677734 76.40559387207031 15.59439849853516 C 72.45558166503906 11.64437866210938 67.85668182373047 8.543510437011719 62.73662185668945 6.377906799316406 C 57.43729400634766 4.136497497558594 51.80629348754883 2.999992370605469 46.00000762939453 2.999992370605469 M 46.00000762939453 -7.62939453125e-06 C 71.40509033203125 -7.62939453125e-06 92.00000762939453 20.59487915039062 92.00000762939453 45.99993896484375 C 92.00000762939453 71.40501403808594 71.40509033203125 91.99988555908203 46.00000762939453 91.99988555908203 C 20.59490966796875 91.99988555908203 7.62939453125e-06 71.40501403808594 7.62939453125e-06 45.99993896484375 C 7.62939453125e-06 20.59487915039062 20.59490966796875 -7.62939453125e-06 46.00000762939453 -7.62939453125e-06 Z" stroke="none" fill="#ba9c5a"/>
                                            </g>
                                          </g>
                                        </g>
                                      </g>
                                    </g>
                                  </g>
                                </g>
                              </g>
                            </g>
                          </g>
                        </g>
                      </g>
                    </g>
                  </g>
                </g>
              </g>
            </g>
          </g>
        </g>
      </g>
      <g id="Lawyer-Avatar-Occupation-Woman-Balance" transform="translate(3417 2324.256)">
        <path id="Path_1177346" data-name="Path 1177346" d="M55.573,52.3V68.23H3V52.3a10.5,10.5,0,0,1,7.373-10.028L24.029,38H34.544L48.2,42.272A10.5,10.5,0,0,1,55.573,52.3Z" transform="translate(0.314 11.316)" fill="#787680"/>
        <path id="Path_1177347" data-name="Path 1177347" d="M53.944,30.6a5.232,5.232,0,0,1-3.536,4.942,5.168,5.168,0,0,1,.907,2.944,5.257,5.257,0,0,1-5.257,5.257,5.184,5.184,0,0,1-2.931-.894,5.245,5.245,0,0,1-8.9,1.735H23.715a5.245,5.245,0,0,1-8.9-1.735,5.184,5.184,0,0,1-2.931.894,5.257,5.257,0,0,1-5.257-5.257,5.168,5.168,0,0,1,.907-2.944,5.243,5.243,0,0,1,1.722-10.2,4.816,4.816,0,0,1,1.314.2V21.4a18.4,18.4,0,1,1,36.8,0v4.14a4.816,4.816,0,0,1,1.314-.2A5.257,5.257,0,0,1,53.944,30.6Z" transform="translate(0.629 0.314)" fill="#57565c"/>
        <path id="Path_1177348" data-name="Path 1177348" d="M29.515,32V42.515a5.257,5.257,0,0,1-10.515,0V32Z" transform="translate(5.344 9.43)" fill="#ffc477"/>
        <path id="Path_1177349" data-name="Path 1177349" d="M29.515,32v4.166a13.214,13.214,0,0,1-10.515,0V32Z" transform="translate(5.344 9.43)" fill="#ffb655"/>
        <path id="Path_1177350" data-name="Path 1177350" d="M39.287,18.531v9.2a13.143,13.143,0,1,1-26.287,0v-9.2a23.67,23.67,0,0,0,16.455-6.4c1.5,2.97,5.336,5.086,9.831,5.086Z" transform="translate(3.458 3.184)" fill="#ffc477"/>
        <path id="Path_1177351" data-name="Path 1177351" d="M29.257,45.114,25.433,57.692,24,46.993l2.077-4.153Z" transform="translate(6.915 12.837)" fill="#e6e7e8"/>
        <path id="Path_1177352" data-name="Path 1177352" d="M23.082,58.956l2.747,9L15.314,53.5l1.314-3.943L14,46.93l2.247-7.847.723-.223,2.287,7.5,3.825,12.578Z" transform="translate(3.772 11.586)" fill="#acabb1"/>
        <path id="Path_1177353" data-name="Path 1177353" d="M32.581,39.083l2.247,7.847L32.2,49.559,33.515,53.5,23,67.959l2.747-9v-.013l3.825-12.578,2.287-7.5Z" transform="translate(6.601 11.586)" fill="#acabb1"/>
        <path id="Path_1177354" data-name="Path 1177354" d="M31.859,39.13l-2.287,7.5-3.181-2.274L23,41.943,28.257,38Z" transform="translate(6.601 11.316)" fill="#d1d3d4"/>
        <path id="Path_1177355" data-name="Path 1177355" d="M27.2,43.418l-2.077,4.153H22.5L20.42,43.418,23.811,41Z" transform="translate(5.79 12.259)" fill="#57565c"/>
        <path id="Path_1177356" data-name="Path 1177356" d="M24.971,46,26.4,56.7v.013l-2.747,9-2.747-9V56.7L22.343,46Z" transform="translate(5.944 13.83)" fill="#57565c"/>
        <path id="Path_1177357" data-name="Path 1177357" d="M25.119,41.943l-3.391,2.418-3.181,2.274-2.287-7.5,3.6-1.13Z" transform="translate(4.482 11.316)" fill="#d1d3d4"/>
        <path id="Path_1177358" data-name="Path 1177358" d="M21.181,42.84l2.077,4.153-1.433,10.7L18,45.114Z" transform="translate(5.029 12.837)" fill="#e6e7e8"/>
        <path id="Path_1177359" data-name="Path 1177359" d="M60.029,59.629v2.629H39V59.629A2.637,2.637,0,0,1,41.629,57H57.4A2.637,2.637,0,0,1,60.029,59.629Z" transform="translate(11.63 17.288)" fill="#57565c"/>
        <path id="Path_1177360" data-name="Path 1177360" d="M45,37V63.287h5.257V37Z" transform="translate(13.516 11.001)" fill="#acabb1"/>
        <circle id="Ellipse_14525" data-name="Ellipse 14525" cx="2.5" cy="2.5" r="2.5" transform="translate(59 45.86)" fill="#57565c"/>
        <path id="Path_1177361" data-name="Path 1177361" d="M33,46H43.515A5.257,5.257,0,0,1,33,46Z" transform="translate(9.744 13.83)" fill="#ee8700"/>
        <path id="Path_1177362" data-name="Path 1177362" d="M53,46H63.515A5.257,5.257,0,0,1,53,46Z" transform="translate(16.031 13.83)" fill="#ee8700"/>
        <path id="Path_1177363" data-name="Path 1177363" d="M80.741,59.291l-4.429-9.976h1.919V46.687H64.851a3.927,3.927,0,0,0-7.413,0H44.058v2.629h1.919l-3.536,7.965-1.327-4.626,1.235.381.789-2.51-6.966-2.182v-.894a6.56,6.56,0,0,0,8.175-2.5,6.648,6.648,0,0,0,2.339.421A6.572,6.572,0,0,0,53.259,38.8a6.44,6.44,0,0,0-.434-2.353,6.557,6.557,0,0,0-3.509-12.1V21.715a19.715,19.715,0,0,0-39.43,0v2.629a6.557,6.557,0,0,0-3.509,12.1A6.44,6.44,0,0,0,5.943,38.8a6.572,6.572,0,0,0,6.572,6.572,6.648,6.648,0,0,0,2.34-.421,6.56,6.56,0,0,0,8.175,2.5v.894L10.307,52.326A11.775,11.775,0,0,0,2,63.616v15.93A1.314,1.314,0,0,0,3.314,80.86H71.659a1.314,1.314,0,0,0,1.314-1.314V76.917a3.955,3.955,0,0,0-3.943-3.943H65.088V49.316h7.176l-4.429,9.976a1.286,1.286,0,0,0-.118.539,6.572,6.572,0,0,0,13.143,0,1.286,1.286,0,0,0-.118-.539Zm-19.6-12.6A1.314,1.314,0,1,1,59.83,48,1.314,1.314,0,0,1,61.145,46.687ZM59.83,51.708a3.769,3.769,0,0,0,2.629,0V72.974H59.83ZM48,51.235l3.233,7.281H44.768Zm3.693,9.91a3.909,3.909,0,0,1-7.387,0Zm-11.737-3.01-2.09,2.077a1.324,1.324,0,0,0-.315,1.354l1.1,3.3-5.52,7.584,5.625-18.479Zm-7.111,6.23-.578-4.311,1.209-2.405,1.17.828ZM29.6,42.744A11.847,11.847,0,0,1,17.772,30.915V23a25.282,25.282,0,0,0,14.865-5.678,12.444,12.444,0,0,0,8.793,4.337v9.253A11.847,11.847,0,0,1,29.6,42.744Zm3.943,2.063v3.851L29.6,51.616l-3.943-2.957V44.808A14.037,14.037,0,0,0,33.544,44.808ZM46.687,21.715v4.14a1.333,1.333,0,0,0,.526,1.051,1.275,1.275,0,0,0,1.143.21,3.867,3.867,0,0,1,.959-.145,3.955,3.955,0,0,1,3.943,3.943A3.9,3.9,0,0,1,50.6,34.608a1.36,1.36,0,0,0-.815.841,1.3,1.3,0,0,0,.171,1.157,3.9,3.9,0,0,1,.67,2.195,3.955,3.955,0,0,1-3.943,3.943,3.8,3.8,0,0,1-2.195-.67,1.314,1.314,0,0,0-1.971.657,3.952,3.952,0,0,1-3.72,2.642,3.894,3.894,0,0,1-2.629-1.038v-.552a14.476,14.476,0,0,0,7.886-12.867V20.4a1.314,1.314,0,0,0-1.314-1.314,10.154,10.154,0,0,1-8.175-3.575,7.908,7.908,0,0,0,.552-.6,19.934,19.934,0,0,0,4.114-7.281,17.053,17.053,0,0,1,7.452,14.09ZM20.4,45.373a3.952,3.952,0,0,1-3.72-2.642,1.314,1.314,0,0,0-1.971-.657,3.8,3.8,0,0,1-2.195.67A3.955,3.955,0,0,1,8.572,38.8a3.9,3.9,0,0,1,.67-2.195,1.3,1.3,0,0,0,.171-1.157,1.36,1.36,0,0,0-.815-.841,3.9,3.9,0,0,1-2.655-3.693,3.955,3.955,0,0,1,3.943-3.943,3.867,3.867,0,0,1,.959.145,1.275,1.275,0,0,0,1.143-.21,1.333,1.333,0,0,0,.526-1.051v-4.14A17.051,17.051,0,0,1,36.9,6.285a17.37,17.37,0,0,1-3.759,6.9,13.323,13.323,0,0,1-1.13,1.183A22.5,22.5,0,0,1,16.458,20.4a1.314,1.314,0,0,0-1.314,1.314v9.2a14.476,14.476,0,0,0,7.886,12.867v.552A3.894,3.894,0,0,1,20.4,45.373Zm.039,8.6,5.625,18.479-5.52-7.584,1.1-3.3a1.324,1.324,0,0,0-.315-1.354l-2.09-2.077Zm4.114,4.508,1.17-.828,1.209,2.405-.578,4.311ZM15.1,78.231a6.369,6.369,0,0,0-1.038-3.1,8.836,8.836,0,0,1-1.551-4.784,8.686,8.686,0,0,1,2.247-5.638L12.9,62.84a11.465,11.465,0,0,0-3.01,7.5,11.638,11.638,0,0,0,2,6.269,3.489,3.489,0,0,1,.591,1.617H4.629V63.616a9.153,9.153,0,0,1,6.453-8.78l7.005-2.182L16.51,58.148a1.352,1.352,0,0,0,.329,1.3L18.9,61.5l-1.065,3.168a1.335,1.335,0,0,0,.184,1.2l9,12.368Zm8.648-22.409-1.38-4.508,1.722-.539,3.286,2.458ZM29.6,75.037l-1.406-4.626,1.249-9.266h.315l1.249,9.266Zm.5-16.521h-1L27.892,56.1,29.6,54.875,31.309,56.1Zm5.008-7.741,1.722.539-1.38,4.508-3.628-2.589ZM49.316,76.917v1.314H46.727a3.437,3.437,0,0,1,.591-1.617,11.638,11.638,0,0,0,2-6.269,10.673,10.673,0,0,0-.46-3.01l-2.524.762a7.689,7.689,0,0,1,.355,2.248,8.836,8.836,0,0,1-1.551,4.784,6.369,6.369,0,0,0-1.038,3.1H32.177l9-12.368a1.335,1.335,0,0,0,.184-1.2L40.3,61.5l1.183-1.17a6.555,6.555,0,0,0,13.091-.5,1.286,1.286,0,0,0-.118-.539l-4.429-9.976H57.2V72.974H53.259a3.955,3.955,0,0,0-3.943,3.943ZM69.031,75.6a1.314,1.314,0,0,1,1.314,1.314v1.314h-18.4V76.917A1.314,1.314,0,0,1,53.259,75.6Zm5.257-24.368,3.233,7.281H71.055Zm0,12.539a3.927,3.927,0,0,1-3.693-2.629h7.387A3.927,3.927,0,0,1,74.288,63.773Z" transform="translate(0)"/>
        <ellipse id="Ellipse_14526" data-name="Ellipse 14526" cx="2.5" cy="3" rx="2.5" ry="3" transform="translate(22 23.86)"/>
        <ellipse id="Ellipse_14527" data-name="Ellipse 14527" cx="2.5" cy="3" rx="2.5" ry="3" transform="translate(32 23.86)"/>
        <path id="Path_1177364" data-name="Path 1177364" d="M21.312,26.118l-1.84,1.872a6.581,6.581,0,0,0,9.284,0l-1.84-1.872A4.051,4.051,0,0,1,21.312,26.118Z" transform="translate(5.492 7.581)"/>
      </g>
    </g>
  </g>
</svg>
