<svg xmlns="http://www.w3.org/2000/svg" xmlns:xlink="http://www.w3.org/1999/xlink" width="108" height="108" viewBox="0 0 108 108">
  <defs>
    <filter id="Path_978624" x="0" y="0" width="108" height="108" filterUnits="userSpaceOnUse">
      <feOffset dy="3" input="SourceAlpha"/>
      <feGaussianBlur stdDeviation="3" result="blur"/>
      <feFlood flood-opacity="0.161"/>
      <feComposite operator="in" in2="blur"/>
      <feComposite in="SourceGraphic"/>
    </filter>
    <filter id="Path_1076716" x="0" y="0" width="108" height="108" filterUnits="userSpaceOnUse">
      <feOffset dy="3" input="SourceAlpha"/>
      <feGaussianBlur stdDeviation="3" result="blur-2"/>
      <feFlood flood-opacity="0.161"/>
      <feComposite operator="in" in2="blur-2"/>
      <feComposite in="SourceGraphic"/>
    </filter>
  </defs>
  <g id="Group_1209804" data-name="Group 1209804" transform="translate(-614.624 -2346.973)">
    <g id="Group_1209414" data-name="Group 1209414" transform="translate(0 7)">
      <g id="Group_1208075" data-name="Group 1208075" transform="translate(-1.376 1853.973)">
        <g id="Group_1181203" data-name="Group 1181203" transform="translate(625 492)">
          <g id="Group_1172348" data-name="Group 1172348" transform="translate(0)">
            <g id="Group_1171897" data-name="Group 1171897">
              <g id="Group_1171052" data-name="Group 1171052">
                <g id="Group_1164581" data-name="Group 1164581">
                  <g id="Group_1144123" data-name="Group 1144123">
                    <g transform="matrix(1, 0, 0, 1, -9, -6)" filter="url(#Path_978624)">
                      <g id="Path_978624-2" data-name="Path 978624" transform="translate(9 6)" fill="#e5f0f6">
                        <path d="M 45 88.5 C 39.12687683105469 88.5 33.43022537231445 87.35007476806641 28.06830024719238 85.08217620849609 C 22.88852500915527 82.89131164550781 18.23629951477051 79.75458526611328 14.2408504486084 75.75914764404297 C 10.24541282653809 71.76370239257812 7.108687400817871 67.11147308349609 4.917825222015381 61.93170166015625 C 2.649924993515015 56.56977462768555 1.5 50.87312316894531 1.5 45 C 1.5 39.12687683105469 2.649924993515015 33.43022537231445 4.917825222015381 28.06830024719238 C 7.108687400817871 22.88852500915527 10.24541282653809 18.23629951477051 14.2408504486084 14.2408504486084 C 18.23629951477051 10.24541282653809 22.88852500915527 7.108687400817871 28.06830024719238 4.917825222015381 C 33.43022537231445 2.649924993515015 39.12687683105469 1.5 45 1.5 C 50.87312316894531 1.5 56.56977462768555 2.649924993515015 61.93170166015625 4.917825222015381 C 67.11147308349609 7.108687400817871 71.76370239257812 10.24541282653809 75.75914764404297 14.2408504486084 C 79.75458526611328 18.23629951477051 82.89131164550781 22.88852500915527 85.08217620849609 28.06830024719238 C 87.35007476806641 33.43022537231445 88.5 39.12687683105469 88.5 45 C 88.5 50.87312316894531 87.35007476806641 56.56977462768555 85.08217620849609 61.93170166015625 C 82.89131164550781 67.11147308349609 79.75458526611328 71.76370239257812 75.75914764404297 75.75914764404297 C 71.76370239257812 79.75458526611328 67.11147308349609 82.89131164550781 61.93170166015625 85.08217620849609 C 56.56977462768555 87.35007476806641 50.87312316894531 88.5 45 88.5 Z" stroke="none"/>
                        <path d="M 45 3 C 39.32871246337891 3 33.82865524291992 4.110054016113281 28.65262985229492 6.299339294433594 C 23.65165710449219 8.414573669433594 19.15968322753906 11.44334411621094 15.301513671875 15.301513671875 C 11.44334411621094 19.15968322753906 8.414573669433594 23.65165710449219 6.299339294433594 28.65262985229492 C 4.110054016113281 33.82865524291992 3 39.32871246337891 3 45 C 3 50.67128753662109 4.110054016113281 56.17134475708008 6.299339294433594 61.34737396240234 C 8.414573669433594 66.34834289550781 11.44334411621094 70.84031677246094 15.301513671875 74.698486328125 C 19.15968322753906 78.55665588378906 23.65165710449219 81.58542633056641 28.65262985229492 83.70066070556641 C 33.82865524291992 85.88994598388672 39.32871246337891 87 45 87 C 50.67128753662109 87 56.17134475708008 85.88994598388672 61.34737396240234 83.70066070556641 C 66.34834289550781 81.58542633056641 70.84031677246094 78.55665588378906 74.698486328125 74.698486328125 C 78.55665588378906 70.84031677246094 81.58542633056641 66.34834289550781 83.70066070556641 61.34737396240234 C 85.88994598388672 56.17134475708008 87 50.67128753662109 87 45 C 87 39.32871246337891 85.88994598388672 33.82865524291992 83.70066070556641 28.65262985229492 C 81.58542633056641 23.65165710449219 78.55665588378906 19.15968322753906 74.698486328125 15.301513671875 C 70.84031677246094 11.44334411621094 66.34834289550781 8.414573669433594 61.34737396240234 6.299339294433594 C 56.17134475708008 4.110054016113281 50.67128753662109 3 45 3 M 45 0 C 69.85281372070312 0 90 20.14718627929688 90 45 C 90 69.85281372070312 69.85281372070312 90 45 90 C 20.14718627929688 90 0 69.85281372070312 0 45 C 0 20.14718627929688 20.14718627929688 0 45 0 Z" stroke="none" fill="#1172b3"/>
                      </g>
                    </g>
                    <g transform="matrix(1, 0, 0, 1, -9, -6)" filter="url(#Path_1076716)">
                      <g id="Path_1076716-2" data-name="Path 1076716" transform="translate(9 6)" fill="#e5f0f6">
                        <path d="M 45 88.5 C 39.12687683105469 88.5 33.43022537231445 87.35007476806641 28.06830024719238 85.08217620849609 C 22.88852500915527 82.89131164550781 18.23629951477051 79.75458526611328 14.2408504486084 75.75914764404297 C 10.24541282653809 71.76370239257812 7.108687400817871 67.11147308349609 4.917825222015381 61.93170166015625 C 2.649924993515015 56.56977462768555 1.5 50.87312316894531 1.5 45 C 1.5 39.12687683105469 2.649924993515015 33.43022537231445 4.917825222015381 28.06830024719238 C 7.108687400817871 22.88852500915527 10.24541282653809 18.23629951477051 14.2408504486084 14.2408504486084 C 18.23629951477051 10.24541282653809 22.88852500915527 7.108687400817871 28.06830024719238 4.917825222015381 C 33.43022537231445 2.649924993515015 39.12687683105469 1.5 45 1.5 C 50.87312316894531 1.5 56.56977462768555 2.649924993515015 61.93170166015625 4.917825222015381 C 67.11147308349609 7.108687400817871 71.76370239257812 10.24541282653809 75.75914764404297 14.2408504486084 C 79.75458526611328 18.23629951477051 82.89131164550781 22.88852500915527 85.08217620849609 28.06830024719238 C 87.35007476806641 33.43022537231445 88.5 39.12687683105469 88.5 45 C 88.5 50.87312316894531 87.35007476806641 56.56977462768555 85.08217620849609 61.93170166015625 C 82.89131164550781 67.11147308349609 79.75458526611328 71.76370239257812 75.75914764404297 75.75914764404297 C 71.76370239257812 79.75458526611328 67.11147308349609 82.89131164550781 61.93170166015625 85.08217620849609 C 56.56977462768555 87.35007476806641 50.87312316894531 88.5 45 88.5 Z" stroke="none"/>
                        <path d="M 45 3 C 39.32871246337891 3 33.82865524291992 4.110054016113281 28.65262985229492 6.299339294433594 C 23.65165710449219 8.414573669433594 19.15968322753906 11.44334411621094 15.301513671875 15.301513671875 C 11.44334411621094 19.15968322753906 8.414573669433594 23.65165710449219 6.299339294433594 28.65262985229492 C 4.110054016113281 33.82865524291992 3 39.32871246337891 3 45 C 3 50.67128753662109 4.110054016113281 56.17134475708008 6.299339294433594 61.34737396240234 C 8.414573669433594 66.34834289550781 11.44334411621094 70.84031677246094 15.301513671875 74.698486328125 C 19.15968322753906 78.55665588378906 23.65165710449219 81.58542633056641 28.65262985229492 83.70066070556641 C 33.82865524291992 85.88994598388672 39.32871246337891 87 45 87 C 50.67128753662109 87 56.17134475708008 85.88994598388672 61.34737396240234 83.70066070556641 C 66.34834289550781 81.58542633056641 70.84031677246094 78.55665588378906 74.698486328125 74.698486328125 C 78.55665588378906 70.84031677246094 81.58542633056641 66.34834289550781 83.70066070556641 61.34737396240234 C 85.88994598388672 56.17134475708008 87 50.67128753662109 87 45 C 87 39.32871246337891 85.88994598388672 33.82865524291992 83.70066070556641 28.65262985229492 C 81.58542633056641 23.65165710449219 78.55665588378906 19.15968322753906 74.698486328125 15.301513671875 C 70.84031677246094 11.44334411621094 66.34834289550781 8.414573669433594 61.34737396240234 6.299339294433594 C 56.17134475708008 4.110054016113281 50.67128753662109 3 45 3 M 45 0 C 69.85281372070312 0 90 20.14718627929688 90 45 C 90 69.85281372070312 69.85281372070312 90 45 90 C 20.14718627929688 90 0 69.85281372070312 0 45 C 0 20.14718627929688 20.14718627929688 0 45 0 Z" stroke="none" fill="#1172b3"/>
                      </g>
                    </g>
                  </g>
                </g>
              </g>
            </g>
          </g>
        </g>
      </g>
      <g id="legal" transform="translate(625.971 2353.199)">
        <path id="Path_1078528" data-name="Path 1078528" d="M456.012,16.741V11.077a3.577,3.577,0,1,1,7.155,0v5.664Z" transform="translate(-388.725 -6.393)" fill="#fdd79b"/>
        <path id="Path_1078529" data-name="Path 1078529" d="M456.012,441.87v5.664a3.577,3.577,0,0,0,7.155,0V441.87Z" transform="translate(-388.725 -376.67)" fill="#fdd79b"/>
        <path id="Path_1078530" data-name="Path 1078530" d="M177.013,77.257V11.077A3.577,3.577,0,0,1,180.59,7.5H132.3a3.577,3.577,0,0,0-3.577,3.577v66.18a3.577,3.577,0,0,0,3.577,3.577H180.59A3.577,3.577,0,0,1,177.013,77.257Z" transform="translate(-109.726 -6.393)" fill="#fef1da"/>
        <path id="Path_1078531" data-name="Path 1078531" d="M428.457,77.257V11.077A3.577,3.577,0,0,1,432.034,7.5h-4.77a3.577,3.577,0,0,0-3.577,3.577v66.18a3.577,3.577,0,0,0,3.577,3.577h4.77A3.577,3.577,0,0,1,428.457,77.257Z" transform="translate(-361.17 -6.393)" fill="#fae2c0"/>
        <path id="Path_1078532" data-name="Path 1078532" d="M191.35,41.382V39a1.192,1.192,0,0,1,1.192-1.192h27.426A1.192,1.192,0,0,1,221.161,39v2.385a1.192,1.192,0,0,1-1.192,1.192H192.542A1.192,1.192,0,0,1,191.35,41.382Z" transform="translate(-163.115 -32.227)" fill="#0573ce"/>
        <g id="Group_1209412" data-name="Group 1209412" transform="translate(1.107 26.446)">
          <path id="Path_1078533" data-name="Path 1078533" d="M140.942,183.7h-11.03a1.192,1.192,0,0,1-1.192-1.192v-2.087a1.192,1.192,0,0,1,1.192-1.192h11.03a1.192,1.192,0,0,1,1.192,1.192v2.087A1.192,1.192,0,0,1,140.942,183.7Z" transform="translate(-110.834 -179.229)" fill="#ffd15b"/>
          <path id="Path_1078534" data-name="Path 1078534" d="M185.72,179.228h-4.472a1.192,1.192,0,0,1,1.192,1.192v2.087a1.192,1.192,0,0,1-1.192,1.192h4.472a1.192,1.192,0,0,0,1.192-1.192V180.42A1.192,1.192,0,0,0,185.72,179.228Z" transform="translate(-155.611 -179.228)" fill="#ffc344"/>
          <path id="Path_1078535" data-name="Path 1078535" d="M159.024,209.533H163.5V215.5h-4.472Z" transform="translate(-136.666 -205.061)" fill="#b6c4cf"/>
          <g id="Group_1209411" data-name="Group 1209411" transform="translate(0 8.943)">
            <path id="Path_1078536" data-name="Path 1078536" d="M0,0H4.472V10.583H0Z" transform="translate(21.613 2.236) rotate(90)" fill="#c5d3dd"/>
            <path id="Path_1078537" data-name="Path 1078537" d="M235.112,407.956H222.044a1.716,1.716,0,0,1-1.428-.764l-.693-1.039a1.715,1.715,0,0,1-.288-.952v-.822a.894.894,0,0,1,.894-.894h16.1a.894.894,0,0,1,.894.894v.822a1.717,1.717,0,0,1-.288.952l-.693,1.039A1.717,1.717,0,0,1,235.112,407.956Z" transform="translate(-188.334 -379.337)" fill="#ffd15b"/>
            <path id="Path_1078538" data-name="Path 1078538" d="M300.209,403.484h-4.472a.894.894,0,0,1,.894.894v.822a1.718,1.718,0,0,1-.288.952l-.693,1.039a1.716,1.716,0,0,1-1.428.764h4.472a1.716,1.716,0,0,0,1.428-.764l.693-1.039a1.716,1.716,0,0,0,.288-.952v-.822A.894.894,0,0,0,300.209,403.484Z" transform="translate(-251.916 -379.337)" fill="#ffc344"/>
            <path id="Path_1078539" data-name="Path 1078539" d="M101.779,478.668H74.353a1.192,1.192,0,0,1-1.192-1.192v-2.087a1.192,1.192,0,0,1,1.192-1.193h27.426a1.192,1.192,0,0,1,1.192,1.193v2.087A1.192,1.192,0,0,1,101.779,478.668Z" transform="translate(-63.473 -439.615)" fill="#8d9ca8"/>
            <path id="Path_1078540" data-name="Path 1078540" d="M241.279,474.2h-4.472A1.192,1.192,0,0,1,238,475.387v2.087a1.192,1.192,0,0,1-1.192,1.192h4.472a1.192,1.192,0,0,0,1.192-1.192v-2.087A1.192,1.192,0,0,0,241.279,474.2Z" transform="translate(-202.972 -439.614)" fill="#7a8c98"/>
            <path id="Path_1078541" data-name="Path 1078541" d="M0,0H4.472V27.128H0Z" transform="translate(26.83 34.581) rotate(180)" fill="#c5d3dd"/>
            <path id="Path_1078542" data-name="Path 1078542" d="M159.023,296.024a8.969,8.969,0,0,0,4.471,0v-5.679h-4.472v5.679Z" transform="translate(-136.665 -282.892)" fill="#b6c4cf"/>
            <path id="Path_1078543" data-name="Path 1078543" d="M0,0H4.472V10.583H0Z" transform="translate(38.158 2.236) rotate(90)" fill="#c5d3dd"/>
            <g id="Group_1209410" data-name="Group 1209410">
              <circle id="Ellipse_11822" data-name="Ellipse 11822" cx="4.472" cy="4.472" r="4.472" transform="translate(20.122)" fill="#ffd15b"/>
              <circle id="Ellipse_11823" data-name="Ellipse 11823" cx="3.577" cy="3.577" r="3.577" transform="translate(36.667 0.894)" fill="#ffd15b"/>
              <path id="Path_1078544" data-name="Path 1078544" d="M22.978,407.956H9.91a1.716,1.716,0,0,1-1.428-.764l-.693-1.039A1.716,1.716,0,0,1,7.5,405.2v-.822a.894.894,0,0,1,.894-.894h16.1a.894.894,0,0,1,.894.894v.822a1.717,1.717,0,0,1-.288.952l-.693,1.039A1.717,1.717,0,0,1,22.978,407.956Z" transform="translate(-7.501 -379.337)" fill="#ffd15b"/>
            </g>
            <path id="Path_1078545" data-name="Path 1078545" d="M88.076,403.484H83.6a.894.894,0,0,1,.894.894v.822a1.717,1.717,0,0,1-.288.952l-.693,1.039a1.716,1.716,0,0,1-1.428.764h4.472a1.716,1.716,0,0,0,1.428-.764l.693-1.039a1.716,1.716,0,0,0,.288-.952v-.822A.894.894,0,0,0,88.076,403.484Z" transform="translate(-71.084 -379.337)" fill="#ffc344"/>
            <circle id="Ellipse_11824" data-name="Ellipse 11824" cx="3.577" cy="3.577" r="3.577" transform="translate(5.366 0.894)" fill="#ffd15b"/>
          </g>
        </g>
        <g id="Group_1209413" data-name="Group 1209413" transform="translate(0 0)">
          <path id="Path_1078546" data-name="Path 1078546" d="M174.2,0H125.9a4.689,4.689,0,0,0-4.683,4.683V8.042a1.107,1.107,0,0,0,2.213,0V4.683a2.473,2.473,0,0,1,2.47-2.47h44.316a4.654,4.654,0,0,0-.706,2.47v45.45a1.107,1.107,0,0,0,2.213,0V11.455h6.048a1.107,1.107,0,0,0,1.107-1.107V4.684A4.689,4.689,0,0,0,174.2,0Zm2.469,9.241h-4.942V4.683a2.471,2.471,0,0,1,4.942,0Z" transform="translate(-103.333 0)"/>
          <path id="Path_1078547" data-name="Path 1078547" d="M74.441,133.994H68.393v-8.8a1.107,1.107,0,1,0-2.213,0v15.567a4.654,4.654,0,0,0,.706,2.47H41.708c0-.029,0-.057,0-.086v-2.087a2.3,2.3,0,0,0-2.3-2.3H29.043V126.951a1.107,1.107,0,1,0-2.213,0v11.812H24.571V115.225a5.6,5.6,0,0,0,2.258,0v6.562a1.107,1.107,0,1,0,2.213,0v-7.562a5.622,5.622,0,0,0,1.121-1.121h7.911a4.72,4.72,0,0,0,.788.623L34,128.33H33.3a2,2,0,0,0-2,2v.822a2.815,2.815,0,0,0,.474,1.566l.693,1.039a2.817,2.817,0,0,0,2.349,1.257H47.886a2.817,2.817,0,0,0,2.349-1.257l.693-1.039a2.814,2.814,0,0,0,.474-1.566v-.822a2,2,0,0,0-2-2h-.693l-4.868-14.6a4.682,4.682,0,1,0-5.765-7.308H30.164a5.628,5.628,0,0,0-1.121-1.121v-3.373h2.173a2.3,2.3,0,0,0,2.3-2.3V97.539a2.3,2.3,0,0,0-2.3-2.3H20.186c-.029,0-.057,0-.086,0V83.107a1.107,1.107,0,0,0-2.213,0v23.312h-4.56a4.682,4.682,0,1,0-5.766,7.308l-4.868,14.6H2a2,2,0,0,0-2,2v.822a2.814,2.814,0,0,0,.474,1.566l.693,1.039a2.817,2.817,0,0,0,2.349,1.257H16.584a2.819,2.819,0,0,0,1.3-.319v4.067h-5.9a2.3,2.3,0,0,0-2.3,2.3v2.087a2.3,2.3,0,0,0,2.3,2.3H70.865a4.689,4.689,0,0,0,4.683-4.684V135.1A1.107,1.107,0,0,0,74.441,133.994ZM14.6,110.891a4.675,4.675,0,0,0,0-2.258h5.642a5.6,5.6,0,0,0,0,2.258Zm7.74-1.129a3.365,3.365,0,1,1,3.365,3.365A3.369,3.369,0,0,1,22.336,109.761Zm26.852,21.391a.609.609,0,0,1-.1.338l-.693,1.039a.608.608,0,0,1-.507.271H34.817a.609.609,0,0,1-.507-.271l-.693-1.039a.608.608,0,0,1-.1-.338v-.61H49.188v.609Zm-2.814-2.823H36.328l4.633-13.9c.129.011.258.017.39.017s.26-.007.389-.017Zm-5.023-21.039a2.471,2.471,0,1,1-2.471,2.471A2.473,2.473,0,0,1,41.351,107.291Zm-4.546,1.342a4.675,4.675,0,0,0,0,2.258H31.164a5.6,5.6,0,0,0,0-2.258ZM26.83,104.3a5.6,5.6,0,0,0-2.258,0v-2.373H26.83V104.3Zm-6.644-6.845h11.03a.086.086,0,0,1,.086.086v2.087a.086.086,0,0,1-.086.086H20.186a.086.086,0,0,1-.086-.085V97.539A.086.086,0,0,1,20.186,97.453ZM20.1,101.92c.029,0,.057,0,.086,0h2.173V105.3a5.629,5.629,0,0,0-1.121,1.121H20.1v-4.5Zm-10.05,5.37a2.471,2.471,0,1,1-2.471,2.471A2.473,2.473,0,0,1,10.05,107.291Zm-.39,7.137c.129.011.258.017.39.017s.261-.007.39-.017l4.634,13.9H5.026Zm8.226,16.725a.608.608,0,0,1-.1.338l-.693,1.039a.608.608,0,0,1-.507.271H3.516a.609.609,0,0,1-.507-.271l-.693-1.039a.608.608,0,0,1-.1-.338v-.61H17.887Zm-.48-2.823-4.868-14.6a4.72,4.72,0,0,0,.788-.623h4.56V128.33ZM20.1,113.1h1.138a5.629,5.629,0,0,0,1.121,1.121v24.539H20.1Zm19.313,30.131H11.988a.086.086,0,0,1-.086-.086v-2.087a.086.086,0,0,1,.086-.086H39.414a.086.086,0,0,1,.086.086v2.087a.086.086,0,0,1-.086.086Zm33.921-2.471a2.471,2.471,0,0,1-4.942,0v-4.558h4.942Z" transform="translate(0 -69.901)"/>
          <path id="Path_1078548" data-name="Path 1078548" d="M151.524,124.347a1.107,1.107,0,0,0,1.107,1.107h39.35a1.107,1.107,0,1,0,0-2.213h-39.35A1.107,1.107,0,0,0,151.524,124.347Z" transform="translate(-129.166 -105.055)"/>
          <path id="Path_1078549" data-name="Path 1078549" d="M182.936,95.148h34.879a1.107,1.107,0,1,0,0-2.213H182.936a1.107,1.107,0,0,0,0,2.213Z" transform="translate(-154.999 -79.222)"/>
          <path id="Path_1078550" data-name="Path 1078550" d="M312.537,153.545H294.055a1.107,1.107,0,1,0,0,2.213h18.483a1.107,1.107,0,0,0,0-2.213Z" transform="translate(-249.722 -130.889)"/>
          <path id="Path_1078551" data-name="Path 1078551" d="M243.546,155.758h2.981a1.107,1.107,0,1,0,0-2.213h-2.981a1.107,1.107,0,1,0,0,2.213Z" transform="translate(-206.666 -130.889)"/>
          <path id="Path_1078552" data-name="Path 1078552" d="M402.092,183.85h-2.981a1.107,1.107,0,0,0,0,2.213h2.981a1.107,1.107,0,0,0,0-2.213Z" transform="translate(-339.277 -156.722)"/>
          <path id="Path_1078553" data-name="Path 1078553" d="M243.546,186.063h18.483a1.107,1.107,0,0,0,0-2.213H243.546a1.107,1.107,0,1,0,0,2.213Z" transform="translate(-206.666 -156.722)"/>
          <path id="Path_1078554" data-name="Path 1078554" d="M304.156,216.367h2.832a1.107,1.107,0,1,0,0-2.213h-2.832a1.107,1.107,0,0,0,0,2.213Z" transform="translate(-258.333 -182.555)"/>
          <path id="Path_1078555" data-name="Path 1078555" d="M363.342,214.154h-9.689a1.107,1.107,0,0,0,0,2.213h9.689a1.107,1.107,0,1,0,0-2.213Z" transform="translate(-300.527 -182.555)"/>
          <path id="Path_1078556" data-name="Path 1078556" d="M330.286,246.672h5.693a1.107,1.107,0,0,0,0-2.213h-5.693a1.107,1.107,0,1,0,0,2.213Z" transform="translate(-280.607 -208.388)"/>
          <path id="Path_1078557" data-name="Path 1078557" d="M402.144,244.459h-2.972a1.107,1.107,0,1,0,0,2.213h2.972a1.107,1.107,0,1,0,0-2.213Z" transform="translate(-339.329 -208.388)"/>
          <path id="Path_1078558" data-name="Path 1078558" d="M186.149,37.287h27.426a2.3,2.3,0,0,0,2.3-2.3V32.6a2.3,2.3,0,0,0-2.3-2.3H186.149a2.3,2.3,0,0,0-2.3,2.3v2.385A2.3,2.3,0,0,0,186.149,37.287Zm-.086-4.684a.086.086,0,0,1,.086-.086h27.426a.086.086,0,0,1,.086.086v2.385a.086.086,0,0,1-.086.086H186.149a.086.086,0,0,1-.086-.086Z" transform="translate(-156.722 -25.832)"/>
          <circle id="Ellipse_11825" data-name="Ellipse 11825" cx="1.107" cy="1.107" r="1.107" transform="translate(24.594 38.732)"/>
        </g>
      </g>
    </g>
  </g>
</svg>
