<svg xmlns="http://www.w3.org/2000/svg" xmlns:xlink="http://www.w3.org/1999/xlink" width="110" height="110" viewBox="0 0 110 110">
  <defs>
    <filter id="Path_982547" x="0" y="0" width="110" height="110" filterUnits="userSpaceOnUse">
      <feOffset dy="3" input="SourceAlpha"/>
      <feGaussianBlur stdDeviation="3" result="blur"/>
      <feFlood flood-opacity="0.161"/>
      <feComposite operator="in" in2="blur"/>
      <feComposite in="SourceGraphic"/>
    </filter>
  </defs>
  <g id="Group_1223845" data-name="Group 1223845" transform="translate(-3709 -2308.069)">
    <g id="Group_1223784" data-name="Group 1223784">
      <g id="Group_1221877" data-name="Group 1221877" transform="translate(3017 -3766.21)">
        <g id="Group_1200151" data-name="Group 1200151" transform="translate(701 6080.28)">
          <g id="Group_1185952" data-name="Group 1185952" transform="translate(0 0)">
            <g id="Group_1184115" data-name="Group 1184115">
              <g id="Group_1183744" data-name="Group 1183744" transform="translate(0 0)">
                <g id="Group_1181546" data-name="Group 1181546">
                  <g id="Group_1177563" data-name="Group 1177563">
                    <g id="Group_1173148" data-name="Group 1173148" transform="translate(0 0)">
                      <g id="Group_1163803" data-name="Group 1163803" transform="translate(0 0)">
                        <g id="Group_1163015" data-name="Group 1163015" transform="translate(0 0)">
                          <g id="Group_1157017" data-name="Group 1157017" transform="translate(0 0)">
                            <g id="Group_1155793" data-name="Group 1155793" transform="translate(0 0)">
                              <g id="Group_1154704" data-name="Group 1154704" transform="translate(0 0)">
                                <g id="Group_1150790" data-name="Group 1150790">
                                  <g id="Group_1154214" data-name="Group 1154214">
                                    <g id="Group_1152583" data-name="Group 1152583">
                                      <g id="Group_1146973" data-name="Group 1146973">
                                        <g id="Group_1146954" data-name="Group 1146954">
                                          <g transform="matrix(1, 0, 0, 1, -9, -6)" filter="url(#Path_982547)">
                                            <g id="Path_982547-2" data-name="Path 982547" transform="translate(9 6)" fill="#f2d944">
                                              <path d="M 46.00000762939453 90.49988555908203 C 39.99188613891602 90.49988555908203 34.16427612304688 89.32352447509766 28.67906188964844 87.00347137451172 C 23.38020706176758 84.76226043701172 18.62104797363281 81.55342864990234 14.53375434875488 77.46615600585938 C 10.44647407531738 73.37887573242188 7.237647533416748 68.61971282958984 4.996420860290527 63.32085800170898 C 2.676367521286011 57.83565902709961 1.500007629394531 52.00806045532227 1.500007629394531 45.99993896484375 C 1.500007629394531 39.99181747436523 2.676367521286011 34.16421890258789 4.996420860290527 28.67901802062988 C 7.237647533416748 23.38017845153809 10.44647407531738 18.62101936340332 14.53375434875488 14.53373908996582 C 18.62104797363281 10.44645881652832 23.38020706176758 7.237632274627686 28.67906188964844 4.996418952941895 C 34.16427612304688 2.676365613937378 39.99188613891602 1.500005602836609 46.00000762939453 1.500005602836609 C 52.00812911987305 1.500005602836609 57.83573913574219 2.676365613937378 63.32095336914062 4.996418952941895 C 68.61980438232422 7.237632274627686 73.37896728515625 10.44645881652832 77.46626281738281 14.53373908996582 C 81.55354309082031 18.62101936340332 84.76236724853516 23.38017845153809 87.00359344482422 28.67901802062988 C 89.32364654541016 34.16421890258789 90.50000762939453 39.99181747436523 90.50000762939453 45.99993896484375 C 90.50000762939453 52.00806045532227 89.32364654541016 57.83565902709961 87.00359344482422 63.32085800170898 C 84.76236724853516 68.61971282958984 81.55354309082031 73.37887573242188 77.46626281738281 77.46615600585938 C 73.37896728515625 81.55342864990234 68.61980438232422 84.76226043701172 63.32095336914062 87.00347137451172 C 57.83573913574219 89.32352447509766 52.00812911987305 90.49988555908203 46.00000762939453 90.49988555908203 Z" stroke="none"/>
                                              <path d="M 46.00000762939453 2.999992370605469 C 40.19372177124023 2.999992370605469 34.56270599365234 4.136497497558594 29.26339340209961 6.377906799316406 C 24.14333343505859 8.543510437011719 19.54441833496094 11.64437866210938 15.59440612792969 15.59439849853516 C 11.6444091796875 19.54439544677734 8.543525695800781 24.14329528808594 6.377922058105469 29.26335144042969 C 4.136505126953125 34.56266784667969 3.000007629394531 40.19366836547852 3.000007629394531 45.99993896484375 C 3.000007629394531 51.80620956420898 4.136505126953125 57.43722534179688 6.377922058105469 62.73654174804688 C 8.543525695800781 67.85658264160156 11.6444091796875 72.45548248291016 15.59440612792969 76.40549468994141 C 19.54441833496094 80.35549926757812 24.14333343505859 83.45636749267578 29.26337814331055 85.62196350097656 C 34.56270599365234 87.86338043212891 40.19372177124023 88.9998779296875 46.00000762939453 88.9998779296875 C 51.80629348754883 88.9998779296875 57.43730926513672 87.86338043212891 62.73662185668945 85.62196350097656 C 67.85668182373047 83.45636749267578 72.45558166503906 80.35549926757812 76.40559387207031 76.40549468994141 C 80.35560607910156 72.45548248291016 83.45648193359375 67.85658264160156 85.62207794189453 62.73654174804688 C 87.86351013183594 57.43722534179688 89.00000762939453 51.80620956420898 89.00000762939453 45.99993896484375 C 89.00000762939453 40.19366836547852 87.86351013183594 34.56266784667969 85.62207794189453 29.26335144042969 C 83.45648193359375 24.14329528808594 80.35560607910156 19.54439544677734 76.40559387207031 15.59439849853516 C 72.45558166503906 11.64437866210938 67.85668182373047 8.543510437011719 62.73662185668945 6.377906799316406 C 57.43729400634766 4.136497497558594 51.80629348754883 2.999992370605469 46.00000762939453 2.999992370605469 M 46.00000762939453 -7.62939453125e-06 C 71.40509033203125 -7.62939453125e-06 92.00000762939453 20.59487915039062 92.00000762939453 45.99993896484375 C 92.00000762939453 71.40501403808594 71.40509033203125 91.99988555908203 46.00000762939453 91.99988555908203 C 20.59490966796875 91.99988555908203 7.62939453125e-06 71.40501403808594 7.62939453125e-06 45.99993896484375 C 7.62939453125e-06 20.59487915039062 20.59490966796875 -7.62939453125e-06 46.00000762939453 -7.62939453125e-06 Z" stroke="none" fill="#ba9c5a"/>
                                            </g>
                                          </g>
                                        </g>
                                      </g>
                                    </g>
                                  </g>
                                </g>
                              </g>
                            </g>
                          </g>
                        </g>
                      </g>
                    </g>
                  </g>
                </g>
              </g>
            </g>
          </g>
        </g>
      </g>
      <g id="Layer_7" data-name="Layer 7" transform="translate(3727.31 2330.817)">
        <path id="Path_1177365" data-name="Path 1177365" d="M16,40V66.127H54V40" transform="translate(1.688 7.317)" fill="#442518"/>
        <path id="Path_1177366" data-name="Path 1177366" d="M44,40h4.75V66.127H44Z" transform="translate(6.941 7.317)" fill="#976947"/>
        <path id="Path_1177367" data-name="Path 1177367" d="M46.375,62.565V40H44V63.752h1.188A1.188,1.188,0,0,0,46.375,62.565Z" transform="translate(6.941 7.317)" fill="#c18e59"/>
        <path id="Path_1177368" data-name="Path 1177368" d="M16,40h4.75V66.127H16Z" transform="translate(1.688 7.317)" fill="#976947"/>
        <path id="Path_1177369" data-name="Path 1177369" d="M14,36v4.75H56.754V36" transform="translate(1.313 6.566)" fill="#674025"/>
        <path id="Path_1177370" data-name="Path 1177370" d="M54.379,37.188V36H14v2.375H53.191A1.188,1.188,0,0,0,54.379,37.188Z" transform="translate(1.313 6.566)" fill="#754b2f"/>
        <path id="Path_1177371" data-name="Path 1177371" d="M12,30H59.5v7.126H12Z" transform="translate(0.938 5.441)" fill="#976947"/>
        <path id="Path_1177372" data-name="Path 1177372" d="M55.941,31.188V30H12v3.563H53.566A2.375,2.375,0,0,0,55.941,31.188Z" transform="translate(0.938 5.441)" fill="#c18e59"/>
        <path id="Path_1177373" data-name="Path 1177373" d="M38.777,12.508A10.717,10.717,0,0,0,34.127,21a9.325,9.325,0,0,0,.1,1.368A15.97,15.97,0,0,1,30.6,24.4l-1.221,6.1-5.938-4.75C14.912,25.752,8,20.435,8,13.876S14.912,2,23.439,2C31.364,2,37.894,6.594,38.777,12.508Z" transform="translate(0.188 0.188)" fill="#5e87ca"/>
        <path id="Path_1177374" data-name="Path 1177374" d="M38.28,30.4,39.5,36.5l5.938-4.75c8.527,0,15.439-5.317,15.439-11.876S53.966,8,45.439,8,30,13.317,30,19.876C30,24.448,33.359,28.416,38.28,30.4Z" transform="translate(4.315 1.313)" fill="#f9d266"/>
        <path id="Path_1177375" data-name="Path 1177375" d="M58.5,16.314a9.4,9.4,0,0,0-.689-3.518A17.264,17.264,0,0,0,45.439,8C36.912,8,30,13.318,30,19.877a9.369,9.369,0,0,0,.7,3.53A17.263,17.263,0,0,0,43.064,28.19C51.591,28.19,58.5,22.873,58.5,16.314Z" transform="translate(4.315 1.312)" fill="#fce797"/>
        <path id="Path_1177376" data-name="Path 1177376" d="M36.5,10.314A9.4,9.4,0,0,0,35.814,6.8,17.264,17.264,0,0,0,23.439,2C14.912,2,8,7.318,8,13.877a9.369,9.369,0,0,0,.7,3.53A17.263,17.263,0,0,0,21.064,22.19C29.591,22.19,36.5,16.873,36.5,10.314Z" transform="translate(0.188 0.187)" fill="#78a0d4"/>
        <g id="Group_1223783" data-name="Group 1223783" transform="translate(40.253 20.002)">
          <circle id="Ellipse_14528" data-name="Ellipse 14528" cx="2.5" cy="2.5" r="2.5" transform="translate(0.127 -0.37)" fill="#f0ae42"/>
          <circle id="Ellipse_14529" data-name="Ellipse 14529" cx="2.5" cy="2.5" r="2.5" transform="translate(7.127 -0.37)" fill="#f0ae42"/>
          <circle id="Ellipse_14530" data-name="Ellipse 14530" cx="2.5" cy="2.5" r="2.5" transform="translate(14.127 -0.37)" fill="#f0ae42"/>
        </g>
        <ellipse id="Ellipse_14531" data-name="Ellipse 14531" cx="2" cy="2.5" rx="2" ry="2.5" transform="translate(14.38 11.632)" fill="#c0dafc"/>
        <circle id="Ellipse_14532" data-name="Ellipse 14532" cx="2.5" cy="2.5" r="2.5" transform="translate(21.38 11.632)" fill="#c0dafc"/>
        <circle id="Ellipse_14533" data-name="Ellipse 14533" cx="2.5" cy="2.5" r="2.5" transform="translate(28.38 11.632)" fill="#c0dafc"/>
        <path id="Path_1177377" data-name="Path 1177377" d="M24,40V56.626H43V40" transform="translate(3.189 7.317)" fill="#f0ae42"/>
        <path id="Path_1177378" data-name="Path 1177378" d="M39.439,50.688V40H24V53.064H37.064A2.375,2.375,0,0,0,39.439,50.688Z" transform="translate(3.189 7.317)" fill="#f9d266"/>
        <path id="Path_1177379" data-name="Path 1177379" d="M18.375,62.565V40H16V63.752h1.188A1.188,1.188,0,0,0,18.375,62.565Z" transform="translate(1.688 7.317)" fill="#c18e59"/>
        <path id="Path_1177380" data-name="Path 1177380" d="M66.38,21.189c0-7.2-7.458-13.064-16.626-13.064A19.6,19.6,0,0,0,39.715,10.8C37.859,5.109,31.3,1,23.626,1,14.458,1,7,6.861,7,14.064c0,7.092,7.231,12.883,16.2,13.064l5.617,4.494a1.192,1.192,0,0,0,1.906-.694l1.1-5.485a17.409,17.409,0,0,0,1.836-.956,13.914,13.914,0,0,0,7.9,8.077l.333,1.69H12.938a1.188,1.188,0,0,0-1.188,1.188v7.126a1.188,1.188,0,0,0,1.188,1.188h1.188v3.563A1.188,1.188,0,0,0,15.313,48.5H16.5v24.94a1.188,1.188,0,0,0,1.188,1.188h38a1.188,1.188,0,0,0,1.188-1.188V48.5h1.188a1.188,1.188,0,0,0,1.188-1.188V43.754h1.188a1.188,1.188,0,0,0,1.188-1.188V35.441a1.188,1.188,0,0,0-1.188-1.188H50.171C59.149,34.072,66.38,28.282,66.38,21.189Zm-36.04,2.3a1.188,1.188,0,0,0-.72.868l-.837,4.189-4.414-3.532a1.188,1.188,0,0,0-.742-.26c-7.858,0-14.251-4.8-14.251-10.688S15.768,3.375,23.626,3.375c6.987,0,12.87,3.777,14.032,8.879a11.7,11.7,0,0,0-4.531,8.936c0,.259.013.515.032.772a14.946,14.946,0,0,1-2.819,1.526Zm5.163-2.3C35.5,15.3,41.9,10.5,49.754,10.5s14.251,4.8,14.251,10.688S57.612,31.878,49.754,31.878a1.188,1.188,0,0,0-.742.26L44.6,35.67l-.831-4.189a1.188,1.188,0,0,0-.72-.868C38.391,28.738,35.5,25.127,35.5,21.189ZM18.876,48.5h2.375V72.256H18.876Zm9.5,0H45V62.756H28.377ZM27.189,65.131h19a1.188,1.188,0,0,0,1.188-1.188V48.5h2.375V72.256H23.626V48.5H26V63.943A1.188,1.188,0,0,0,27.189,65.131ZM54.5,72.256H52.129V48.5H54.5Zm2.375-26.127H16.5V43.754H56.879Zm2.375-9.5v4.75H14.126v-4.75H42.367l.285,1.425a1.188,1.188,0,0,0,1.9.695l2.65-2.12Z" transform="translate(0)"/>
        <circle id="Ellipse_14534" data-name="Ellipse 14534" cx="2.5" cy="2.5" r="2.5" transform="translate(40.38 19.632)"/>
        <circle id="Ellipse_14535" data-name="Ellipse 14535" cx="2.5" cy="2.5" r="2.5" transform="translate(47.38 19.632)"/>
        <circle id="Ellipse_14536" data-name="Ellipse 14536" cx="2.5" cy="2.5" r="2.5" transform="translate(54.38 19.632)"/>
        <ellipse id="Ellipse_14537" data-name="Ellipse 14537" cx="2" cy="2.5" rx="2" ry="2.5" transform="translate(14.38 11.632)"/>
        <circle id="Ellipse_14538" data-name="Ellipse 14538" cx="2.5" cy="2.5" r="2.5" transform="translate(21.38 11.632)"/>
        <circle id="Ellipse_14539" data-name="Ellipse 14539" cx="2.5" cy="2.5" r="2.5" transform="translate(28.38 11.632)"/>
      </g>
    </g>
  </g>
</svg>
