<svg xmlns="http://www.w3.org/2000/svg" xmlns:xlink="http://www.w3.org/1999/xlink" width="113" height="113" viewBox="0 0 113 113">
  <defs>
    <filter id="Path_982547" x="0" y="0" width="113" height="113" filterUnits="userSpaceOnUse">
      <feOffset dy="3" input="SourceAlpha"/>
      <feGaussianBlur stdDeviation="3" result="blur"/>
      <feFlood flood-opacity="0.161"/>
      <feComposite operator="in" in2="blur"/>
      <feComposite in="SourceGraphic"/>
    </filter>
  </defs>
  <g id="Group_1223821" data-name="Group 1223821" transform="translate(-1216 -4035.033)">
    <g id="Group_1223678" data-name="Group 1223678">
      <g id="Group_1221846" data-name="Group 1221846" transform="translate(0 -2216.811)">
        <g id="Group_1219118" data-name="Group 1219118" transform="translate(0 -838)">
          <g id="Group_1217927" data-name="Group 1217927" transform="translate(-1.234 -2607)">
            <g id="Group_1216308" data-name="Group 1216308" transform="translate(1226.234 9702.844)">
              <g id="Group_1208705" data-name="Group 1208705">
                <g id="Group_1148633" data-name="Group 1148633">
                  <g id="Group_1148525" data-name="Group 1148525">
                    <g transform="matrix(1, 0, 0, 1, -9, -6)" filter="url(#Path_982547)">
                      <g id="Path_982547-2" data-name="Path 982547" transform="translate(9 6)" fill="#e6d567">
                        <path d="M 47.5 93.5 C 41.28937149047852 93.5 35.26533508300781 92.28397369384766 29.59518623352051 89.88570404052734 C 24.11771965026855 87.56893157958984 19.19813346862793 84.25196075439453 14.97309303283691 80.02691650390625 C 10.74804019927979 75.80186462402344 7.431066513061523 70.88229370117188 5.114293098449707 65.40481567382812 C 2.716026782989502 59.73468017578125 1.5 53.71062850952148 1.5 47.5 C 1.5 41.28937149047852 2.716026782989502 35.26533508300781 5.114293098449707 29.59518623352051 C 7.431066513061523 24.11771965026855 10.74804019927979 19.19813346862793 14.97309303283691 14.97309303283691 C 19.19813346862793 10.74804019927979 24.11771965026855 7.431066513061523 29.59518623352051 5.114293098449707 C 35.26533508300781 2.716026782989502 41.28937149047852 1.5 47.5 1.5 C 53.71062850952148 1.5 59.73468017578125 2.716026782989502 65.40481567382812 5.114293098449707 C 70.88229370117188 7.431066513061523 75.80186462402344 10.74804019927979 80.02691650390625 14.97309303283691 C 84.25196075439453 19.19813346862793 87.56893157958984 24.11771965026855 89.88570404052734 29.59518623352051 C 92.28397369384766 35.26533508300781 93.5 41.28937149047852 93.5 47.5 C 93.5 53.71062850952148 92.28397369384766 59.73468017578125 89.88570404052734 65.40481567382812 C 87.56893157958984 70.88229370117188 84.25196075439453 75.80186462402344 80.02691650390625 80.02691650390625 C 75.80186462402344 84.25196075439453 70.88229370117188 87.56893157958984 65.40481567382812 89.88570404052734 C 59.73468017578125 92.28397369384766 53.71062850952148 93.5 47.5 93.5 Z" stroke="none"/>
                        <path d="M 47.5 3 C 41.49121475219727 3 35.66376876831055 4.176155090332031 30.17950439453125 6.495796203613281 C 24.88084411621094 8.736953735351562 20.12152099609375 11.94598388671875 16.03375244140625 16.03375244140625 C 11.94598388671875 20.12152099609375 8.736953735351562 24.88084411621094 6.495796203613281 30.17950439453125 C 4.176155090332031 35.66376876831055 3 41.49121475219727 3 47.5 C 3 53.50878524780273 4.176155090332031 59.33623123168945 6.495796203613281 64.82049560546875 C 8.736953735351562 70.11915588378906 11.94598388671875 74.87847900390625 16.03375244140625 78.96624755859375 C 20.12152099609375 83.05401611328125 24.88084411621094 86.26304626464844 30.17950439453125 88.50419616699219 C 35.66376876831055 90.82384490966797 41.49121475219727 92 47.5 92 C 53.50878524780273 92 59.33623123168945 90.82384490966797 64.82049560546875 88.50419616699219 C 70.11915588378906 86.26304626464844 74.87847900390625 83.05401611328125 78.96624755859375 78.96624755859375 C 83.05401611328125 74.87847900390625 86.26304626464844 70.11915588378906 88.50419616699219 64.82049560546875 C 90.82384490966797 59.33623123168945 92 53.50878524780273 92 47.5 C 92 41.49121475219727 90.82384490966797 35.66376876831055 88.50419616699219 30.17950439453125 C 86.26304626464844 24.88084411621094 83.05401611328125 20.12152099609375 78.96624755859375 16.03375244140625 C 74.87847900390625 11.94598388671875 70.11915588378906 8.736953735351562 64.82049560546875 6.495796203613281 C 59.33623123168945 4.176155090332031 53.50878524780273 3 47.5 3 M 47.5 0 C 73.7335205078125 0 95 21.2664794921875 95 47.5 C 95 73.7335205078125 73.7335205078125 95 47.5 95 C 21.2664794921875 95 0 73.7335205078125 0 47.5 C 0 21.2664794921875 21.2664794921875 0 47.5 0 Z" stroke="none" fill="#ba9c5a"/>
                      </g>
                    </g>
                  </g>
                </g>
              </g>
            </g>
          </g>
        </g>
      </g>
      <g id="teamwork_7110577" transform="translate(1225.438 4043.874)">
        <g id="Group_1223676" data-name="Group 1223676" transform="translate(5.303 2.151)">
          <circle id="Ellipse_14513" data-name="Ellipse 14513" cx="30.452" cy="30.452" r="30.452" transform="translate(12.688 12.689)" fill="#5b92f2"/>
          <path id="Path_1177156" data-name="Path 1177156" d="M113.85,172.778a29.887,29.887,0,0,1-22.421-49.651,29.887,29.887,0,1,0,42.183,42.183A29.774,29.774,0,0,1,113.85,172.778Z" transform="translate(-68.683 -103.039)" fill="#006dee"/>
          <path id="Path_1177157" data-name="Path 1177157" d="M204.346,15.943,192.457,4.054v-1.9H176.285V6.059a17.183,17.183,0,0,0-4.981,12.1V34.106a3.1,3.1,0,0,0,3.1,3.1h.042a3.1,3.1,0,0,0,3.1-3.1v4.973a3.1,3.1,0,0,0,3.1,3.1h0a3.1,3.1,0,0,0,3.1-3.1l0,2.485a3.1,3.1,0,0,0,3.1,3.1h.039a3.1,3.1,0,0,0,3.1-3.1V36.579a3.1,3.1,0,0,0,3.1,3.046h.011a3.1,3.1,0,0,0,3.1-3.1V16.737l3.691,3.658a3.143,3.143,0,0,0,4.42.013h0A3.143,3.143,0,0,0,204.346,15.943Z" transform="translate(-143.74 -2.151)" fill="#ffdaaa"/>
          <g id="Group_1223674" data-name="Group 1223674" transform="translate(51.231 8.381)">
            <path id="Path_1177158" data-name="Path 1177158" d="M321.481,60.239l-7.649-7.616v4.936l4.936,4.927a3.143,3.143,0,0,0,4.42.013h0a3.127,3.127,0,0,0,.813-1.36A3.137,3.137,0,0,1,321.481,60.239Z" transform="translate(-313.832 -52.623)" fill="#ffb680"/>
          </g>
          <path id="Path_1177159" data-name="Path 1177159" d="M212.652,140.836V123.173h-3.727v16.832a3.1,3.1,0,0,0,3.1,3.1h0a3.086,3.086,0,0,0,1.33-.3A3.091,3.091,0,0,1,212.652,140.836Z" transform="translate(-175.114 -103.077)" fill="#ffb680"/>
          <path id="Path_1177160" data-name="Path 1177160" d="M287.63,138.267v-15.1H283.9v14.265a3.1,3.1,0,0,0,3.1,3.1h0a3.086,3.086,0,0,0,1.33-.3A3.09,3.09,0,0,1,287.63,138.267Z" transform="translate(-237.642 -103.077)" fill="#ffb680"/>
          <path id="Path_1177161" data-name="Path 1177161" d="M249.673,143.314V123.173h-3.727v19.31a3.1,3.1,0,0,0,3.1,3.1h0a3.086,3.086,0,0,0,1.33-.3A3.09,3.09,0,0,1,249.673,143.314Z" transform="translate(-205.988 -103.077)" fill="#ffb680"/>
          <path id="Path_1177162" data-name="Path 1177162" d="M180.013,6.89V2.151h-3.727V6.059a17.183,17.183,0,0,0-4.981,12.1V34.106a3.1,3.1,0,0,0,3.1,3.1h.042a3.086,3.086,0,0,0,1.3-.289,3.089,3.089,0,0,1-.717-1.983V18.988A17.182,17.182,0,0,1,180.013,6.89Z" transform="translate(-143.74 -2.151)" fill="#ffb680"/>
          <path id="Path_1177163" data-name="Path 1177163" d="M292.427,305.664H309.24l3.666,3.666h8.762V295.222l-2.411-2.411a17.182,17.182,0,0,0-5.033-12.077l-11.277-11.277a3.1,3.1,0,0,0-4.388,0l-.029.03a3.1,3.1,0,0,0,0,4.388l-3.516-3.516a3.1,3.1,0,0,0-4.388,0h0a3.1,3.1,0,0,0,0,4.388l-1.758-1.756a3.1,3.1,0,0,0-4.388,0l-.027.027a3.1,3.1,0,0,0,0,4.388l3.525,3.525a3.1,3.1,0,0,0-4.346.038l-.008.008a3.1,3.1,0,0,0,0,4.388l13.99,13.99h-5.2a3.164,3.164,0,0,0-3.135,3.14h0A3.143,3.143,0,0,0,292.427,305.664Z" transform="translate(-236.651 -224.313)" fill="#fef2e2"/>
          <path id="Path_1177164" data-name="Path 1177164" d="M303.947,359.983,285.09,341.125a3.09,3.09,0,0,1-.71-1.107,3.1,3.1,0,0,0-.749.552l-.008.008a3.1,3.1,0,0,0,0,4.388l15.023,15.017C298.681,359.981,303.947,359.983,303.947,359.983Z" transform="translate(-236.651 -283.916)" fill="#ffe1ba"/>
          <path id="Path_1177165" data-name="Path 1177165" d="M303.776,306.959,288.92,292.1a3.09,3.09,0,0,1-.71-1.107,3.1,3.1,0,0,0-.749.552l-.008.008a3.1,3.1,0,0,0,0,4.388l13.67,13.664C301.158,309.607,303.776,306.959,303.776,306.959Z" transform="translate(-239.845 -243.034)" fill="#ffe1ba"/>
          <path id="Path_1177166" data-name="Path 1177166" d="M338.989,288.777l-13.161-13.161a3.089,3.089,0,0,1-.71-1.107,3.1,3.1,0,0,0-.749.552l-.008.008a3.1,3.1,0,0,0,0,4.388l11.974,11.968C336.371,291.424,338.989,288.777,338.989,288.777Z" transform="translate(-270.625 -229.284)" fill="#ffe1ba"/>
          <path id="Path_1177167" data-name="Path 1177167" d="M382.976,279.539l-9.7-9.7a3.087,3.087,0,0,1-.71-1.107,3.1,3.1,0,0,0-.749.552l-.008.008a3.1,3.1,0,0,0,0,4.388l8.515,8.509C380.358,282.187,382.976,279.539,382.976,279.539Z" transform="translate(-310.193 -224.466)" fill="#ffe1ba"/>
          <path id="Path_1177168" data-name="Path 1177168" d="M348.718,463.479l-5.025-5.025H326.879a3.142,3.142,0,0,1-2.958-2.088,3.18,3.18,0,0,0-1.652,2.759h0a3.143,3.143,0,0,0,3.143,3.17h16.814l3.666,3.667h8.762v-2.482h-5.937Z" transform="translate(-269.637 -380.944)" fill="#ffe1ba"/>
          <path id="Path_1177169" data-name="Path 1177169" d="M34.545,305.664H17.731l-3.666,3.666H5.3V295.222l2.411-2.411a17.182,17.182,0,0,1,5.033-12.077l11.277-11.277a3.1,3.1,0,0,1,4.388,0l.029.03a3.1,3.1,0,0,1,0,4.388l3.516-3.516a3.1,3.1,0,0,1,4.388,0h0a3.1,3.1,0,0,1,0,4.388l1.758-1.756a3.1,3.1,0,0,1,4.388,0l.027.027a3.1,3.1,0,0,1,0,4.388l-3.525,3.525a3.1,3.1,0,0,1,4.346.038l.008.008a3.1,3.1,0,0,1,0,4.388l-13.99,13.99,5.2.023a3.143,3.143,0,0,1,3.134,3.117h0A3.143,3.143,0,0,1,34.545,305.664Z" transform="translate(-5.303 -224.313)" fill="#eb975d"/>
          <g id="Group_1223675" data-name="Group 1223675" transform="translate(0 44.235)">
            <path id="Path_1177170" data-name="Path 1177170" d="M10.772,294.808A17.182,17.182,0,0,1,15.8,282.731l11.277-11.277a3.088,3.088,0,0,1,2.054-.9,3.088,3.088,0,0,0-.7-1.065l-.029-.03a3.1,3.1,0,0,0-4.388,0L12.746,280.734a17.183,17.183,0,0,0-5.033,12.077L5.3,295.222V309.33h8.762l2.519-2.519H7.822v-9.053Z" transform="translate(-5.303 -268.548)" fill="#b25e1e"/>
          </g>
          <path id="Path_1177171" data-name="Path 1177171" d="M112.025,273.572l-.029-.029a3.1,3.1,0,0,0-4.388,0L95.726,285.424l2.538,2.516,12.4-12.4a3.087,3.087,0,0,1,2.054-.9A3.089,3.089,0,0,0,112.025,273.572Z" transform="translate(-80.711 -227.721)" fill="#b25e1e"/>
          <path id="Path_1177172" data-name="Path 1177172" d="M140.233,289.287l-.029-.03a3.1,3.1,0,0,0-4.388,0l-13.66,13.661,2.538,2.516,14.181-14.181a3.088,3.088,0,0,1,2.054-.9A3.089,3.089,0,0,0,140.233,289.287Z" transform="translate(-102.752 -240.827)" fill="#b25e1e"/>
          <path id="Path_1177173" data-name="Path 1177173" d="M163.082,337.028l-.029-.029a3.1,3.1,0,0,0-4.388,0l-10.115,10.116,2.538,2.516L161.723,339a3.088,3.088,0,0,1,2.054-.9A3.089,3.089,0,0,0,163.082,337.028Z" transform="translate(-124.763 -280.64)" fill="#b25e1e"/>
        </g>
        <g id="Group_1223677" data-name="Group 1223677" transform="translate(5.303 2.151)">
          <path id="Path_1177174" data-name="Path 1177174" d="M171.3,28.516v5.59a3.1,3.1,0,0,0,3.1,3.1h.042a3.1,3.1,0,0,0,3.1-3.1v4.973a3.1,3.1,0,0,0,3.1,3.1h0a3.1,3.1,0,0,0,3.1-3.1v2.485a3.1,3.1,0,0,0,3.1,3.1h.039a3.1,3.1,0,0,0,3.1-3.1V22.254l0,14.267a3.1,3.1,0,0,0,3.1,3.1h.011a3.1,3.1,0,0,0,3.1-3.1V16.737l3.691,3.658a3.143,3.143,0,0,0,4.42.013h0a3.143,3.143,0,0,0,.019-4.464L192.456,4.054v-1.9" transform="translate(-143.739 -2.151)" fill="none" stroke="#000" stroke-miterlimit="10" stroke-width="2"/>
          <path id="Path_1177175" data-name="Path 1177175" d="M176.284,2.151V6.059h0a17.182,17.182,0,0,0-4.981,12.1v7.776" transform="translate(-143.739 -2.151)" fill="none" stroke="#000" stroke-miterlimit="10" stroke-width="2"/>
          <line id="Line_685" data-name="Line 685" y1="2.491" transform="translate(46.261 15.122)" fill="none" stroke="#000" stroke-miterlimit="10" stroke-width="2"/>
          <line id="Line_686" data-name="Line 686" y1="2.491" transform="translate(40.018 15.122)" fill="none" stroke="#000" stroke-miterlimit="10" stroke-width="2"/>
          <line id="Line_687" data-name="Line 687" y1="2.491" transform="translate(33.811 15.122)" fill="none" stroke="#000" stroke-miterlimit="10" stroke-width="2"/>
          <path id="Path_1177176" data-name="Path 1177176" d="M310.69,277.1l-8.742-8.742a3.1,3.1,0,0,0-4.388,0l-.029.03a3.1,3.1,0,0,0,0,4.388l8.38,8.38-11.9-11.9a3.1,3.1,0,0,0-4.388,0h0a3.1,3.1,0,0,0,0,4.388l11.9,11.9-13.654-13.653a3.1,3.1,0,0,0-4.388,0l-.027.027a3.1,3.1,0,0,0,0,4.388l13.654,13.653-10.087-10.09a3.1,3.1,0,0,0-4.388,0l-.008.008a3.1,3.1,0,0,0,0,4.388l13.99,13.99-5.2.023a3.143,3.143,0,0,0-3.135,3.117h0a3.143,3.143,0,0,0,3.143,3.17H308.24l3.682,3.682" transform="translate(-235.817 -223.4)" fill="none" stroke="#000" stroke-miterlimit="10" stroke-width="2"/>
          <path id="Path_1177177" data-name="Path 1177177" d="M475.36,351.77l-2.411-2.411h0a17.182,17.182,0,0,0-5.033-12.077l-.709-.709" transform="translate(-390.509 -281.043)" fill="none" stroke="#000" stroke-miterlimit="10" stroke-width="2"/>
          <line id="Line_688" data-name="Line 688" x2="1.761" y2="1.761" transform="translate(63.051 68.324)" fill="none" stroke="#000" stroke-miterlimit="10" stroke-width="2"/>
          <line id="Line_689" data-name="Line 689" x2="1.761" y2="1.761" transform="translate(67.466 63.909)" fill="none" stroke="#000" stroke-miterlimit="10" stroke-width="2"/>
          <line id="Line_690" data-name="Line 690" x2="1.761" y2="1.761" transform="translate(71.854 59.52)" fill="none" stroke="#000" stroke-miterlimit="10" stroke-width="2"/>
          <path id="Path_1177178" data-name="Path 1177178" d="M59.232,278.13,69,268.363a3.1,3.1,0,0,1,4.388,0l.029.029a3.1,3.1,0,0,1,0,4.388l-8.38,8.38,11.9-11.9a3.1,3.1,0,0,1,4.388,0h0a3.1,3.1,0,0,1,0,4.388l-11.9,11.9L83.079,271.9a3.1,3.1,0,0,1,4.388,0l.027.027a3.1,3.1,0,0,1,0,4.388L73.84,289.964l10.087-10.09a3.1,3.1,0,0,1,4.388,0l.008.008a3.1,3.1,0,0,1,0,4.388l-13.99,13.99,5.2.023a3.144,3.144,0,0,1,3.134,3.117h0a3.143,3.143,0,0,1-3.143,3.17H62.707l-3.848,3.848" transform="translate(-49.966 -223.401)" fill="none" stroke="#000" stroke-miterlimit="10" stroke-width="2"/>
          <path id="Path_1177179" data-name="Path 1177179" d="M5.3,357.233l2.724-2.723,0-.448a16.1,16.1,0,0,1,4.714-11.313h0" transform="translate(-5.303 -286.193)" fill="none" stroke="#000" stroke-miterlimit="10" stroke-width="2"/>
          <line id="Line_691" data-name="Line 691" x1="1.761" y2="1.761" transform="translate(20.352 68.324)" fill="none" stroke="#000" stroke-miterlimit="10" stroke-width="2"/>
          <line id="Line_692" data-name="Line 692" x1="1.761" y2="1.761" transform="translate(15.937 63.909)" fill="none" stroke="#000" stroke-miterlimit="10" stroke-width="2"/>
          <line id="Line_693" data-name="Line 693" x1="1.761" y2="1.761" transform="translate(11.548 59.52)" fill="none" stroke="#000" stroke-miterlimit="10" stroke-width="2"/>
          <path id="Path_1177180" data-name="Path 1177180" d="M379.6,145.274a29.937,29.937,0,0,0-11.082-31.726" transform="translate(-308.203 -95.051)" fill="none" stroke="#000" stroke-miterlimit="10" stroke-width="2"/>
          <path id="Path_1177181" data-name="Path 1177181" d="M184.184,420.6a29.96,29.96,0,0,0,25.71-.047" transform="translate(-154.481 -351.081)" fill="none" stroke="#000" stroke-miterlimit="10" stroke-width="2"/>
          <path id="Path_1177182" data-name="Path 1177182" d="M96.248,102.233a29.937,29.937,0,0,0-13.939,33.6" transform="translate(-68.684 -85.615)" fill="none" stroke="#000" stroke-miterlimit="10" stroke-width="2"/>
        </g>
      </g>
    </g>
  </g>
</svg>
