<svg xmlns="http://www.w3.org/2000/svg" xmlns:xlink="http://www.w3.org/1999/xlink" width="93.934" height="93.934" viewBox="0 0 93.934 93.934">
  <defs>
    <filter id="Path_982547" x="0" y="0" width="93.934" height="93.934" filterUnits="userSpaceOnUse">
      <feOffset dy="3" input="SourceAlpha"/>
      <feGaussianBlur stdDeviation="3" result="blur"/>
      <feFlood flood-opacity="0.161"/>
      <feComposite operator="in" in2="blur"/>
      <feComposite in="SourceGraphic"/>
    </filter>
    <clipPath id="clip-path">
      <path id="path1462" d="M0-682.665H60.291v60.291H0Z" transform="translate(0 682.665)"/>
    </clipPath>
  </defs>
  <g id="Group_1223815" data-name="Group 1223815" transform="translate(-191.066 -2378.044)">
    <g id="Group_1223642" data-name="Group 1223642">
      <g id="Group_1220448" data-name="Group 1220448" transform="translate(0 -5689.956)">
        <g id="Group_1219553" data-name="Group 1219553" transform="translate(0 -381.729)">
          <g id="Group_1214711" data-name="Group 1214711" transform="translate(-0.229 3321.729)">
            <g id="Group_1214432" data-name="Group 1214432" transform="translate(-0.771 -2738.674)">
              <g id="Group_1183196" data-name="Group 1183196" transform="translate(1 1016.674)">
                <g id="Group_1179610" data-name="Group 1179610" transform="translate(8 4723.467)">
                  <g id="Group_1175227" data-name="Group 1175227" transform="translate(-5.967 140.533)">
                    <g id="Group_1167337" data-name="Group 1167337" transform="translate(198.033 1992)">
                      <g id="Group_1166720" data-name="Group 1166720">
                        <g id="Group_1164305" data-name="Group 1164305">
                          <g id="Group_1163948" data-name="Group 1163948">
                            <g id="Group_1158168" data-name="Group 1158168">
                              <g id="Group_1152576" data-name="Group 1152576">
                                <g id="Group_1148633" data-name="Group 1148633">
                                  <g id="Group_1148525" data-name="Group 1148525">
                                    <g transform="matrix(1, 0, 0, 1, -9, -6)" filter="url(#Path_982547)">
                                      <g id="Path_982547-2" data-name="Path 982547" transform="translate(9 6)" fill="#f7f4ed">
                                        <path d="M 37.966796875 74.43359375 C 33.04315185546875 74.43359375 28.26757431030273 73.46962738037109 23.77274131774902 71.56847381591797 C 19.43047523498535 69.73184967041016 15.53040790557861 67.10224914550781 12.18087482452393 63.75271987915039 C 8.831341743469238 60.4031867980957 6.201741218566895 56.50312042236328 4.365118980407715 52.16086196899414 C 2.463963508605957 47.66601943969727 1.499996900558472 42.89044189453125 1.499996900558472 37.966796875 C 1.499996900558472 33.04315185546875 2.463963508605957 28.26757431030273 4.365118980407715 23.77274131774902 C 6.201741218566895 19.43047523498535 8.831341743469238 15.53040790557861 12.18087482452393 12.18087482452393 C 15.53040790557861 8.831341743469238 19.43047523498535 6.201741218566895 23.77274131774902 4.365118980407715 C 28.26757431030273 2.463963508605957 33.04315185546875 1.499996900558472 37.966796875 1.499996900558472 C 42.89044189453125 1.499996900558472 47.66601943969727 2.463963508605957 52.16086196899414 4.365118980407715 C 56.50312042236328 6.201741218566895 60.4031867980957 8.831341743469238 63.75271987915039 12.18087482452393 C 67.10224914550781 15.53040790557861 69.73184967041016 19.43047523498535 71.56847381591797 23.77274131774902 C 73.46962738037109 28.26757431030273 74.43359375 33.04315185546875 74.43359375 37.966796875 C 74.43359375 42.89044189453125 73.46962738037109 47.66601943969727 71.56847381591797 52.16086196899414 C 69.73184967041016 56.50313186645508 67.10224914550781 60.4031867980957 63.75271987915039 63.75271987915039 C 60.4031867980957 67.10224914550781 56.50313186645508 69.73184967041016 52.16086196899414 71.56847381591797 C 47.66601943969727 73.46962738037109 42.89044189453125 74.43359375 37.966796875 74.43359375 Z" stroke="none"/>
                                        <path d="M 37.966796875 3 C 33.2449836730957 3 28.66600799560547 3.924095153808594 24.35705947875977 5.746635437011719 C 20.19359588623047 7.507637023925781 16.45379638671875 10.02928161621094 13.24153518676758 13.24153518676758 C 10.02927398681641 16.45379638671875 7.507621765136719 20.19359588623047 5.746635437011719 24.35705947875977 C 3.924095153808594 28.66600799560547 3 33.2449836730957 3 37.966796875 C 3 42.6886100769043 3.924095153808594 47.26758575439453 5.746635437011719 51.57653427124023 C 7.507621765136719 55.73999786376953 10.02927398681641 59.47979736328125 13.24153518676758 62.69205856323242 C 16.45379638671875 65.90431976318359 20.19359588623047 68.42597198486328 24.35705947875977 70.18695831298828 C 28.66600799560547 72.00949859619141 33.2449836730957 72.93359375 37.966796875 72.93359375 C 42.6886100769043 72.93359375 47.26758575439453 72.00949859619141 51.57653427124023 70.18695831298828 C 55.73999786376953 68.42597198486328 59.47979736328125 65.90431976318359 62.69205856323242 62.69205856323242 C 65.90431976318359 59.47979736328125 68.42597198486328 55.73999786376953 70.18695831298828 51.57653427124023 C 72.00949859619141 47.26758575439453 72.93359375 42.6886100769043 72.93359375 37.966796875 C 72.93359375 33.2449836730957 72.00949859619141 28.66600799560547 70.18695831298828 24.35705947875977 C 68.42597198486328 20.19359588623047 65.90431976318359 16.45379638671875 62.69205856323242 13.24153518676758 C 59.47979736328125 10.02928161621094 55.73999786376953 7.507637023925781 51.57653427124023 5.746635437011719 C 47.26758575439453 3.924095153808594 42.6886100769043 3 37.966796875 3 M 37.966796875 0 C 58.93528366088867 0 75.93359375 16.99832153320312 75.93359375 37.966796875 C 75.93359375 58.93528366088867 58.93528366088867 75.93359375 37.966796875 75.93359375 C 16.99831008911133 75.93359375 0 58.93528366088867 0 37.966796875 C 0 16.99832153320312 16.99831008911133 0 37.966796875 0 Z" stroke="none" fill="#655531"/>
                                      </g>
                                    </g>
                                  </g>
                                </g>
                              </g>
                            </g>
                          </g>
                        </g>
                      </g>
                    </g>
                  </g>
                </g>
              </g>
            </g>
          </g>
        </g>
      </g>
      <g id="g1446" transform="translate(207.888 3082.351)">
        <path id="path1448" d="M286.632-384.169h-5.3v-28.5h5.3Z" transform="translate(-256.486 -246.154)" fill="#fff5de"/>
        <path id="path1450" d="M346.632-384.169h-5.3v-28.5h5.3Z" transform="translate(-311.187 -246.154)" fill="#ffd478"/>
        <path id="path1452" d="M324.865-384.169h-3.533v-28.5h3.533Z" transform="translate(-292.953 -246.154)" fill="#ffe7ad"/>
        <path id="path1454" d="M306.632-540.3h-5.3v-12.364h5.3Z" transform="translate(-274.72 -118.518)" fill="#ffa061"/>
        <path id="path1456" d="M344.865-540.3h-3.533v-12.364h3.533Z" transform="translate(-311.187 -118.518)" fill="#ff8053"/>
        <g id="g1458" transform="translate(0 -682.665)">
          <g id="g1460" transform="translate(0 0)" clip-path="url(#clip-path)">
            <g id="g1466" transform="translate(45.66 11.481)">
              <path id="path1468" d="M-36.467,0H-40V3.533h3.533A1.766,1.766,0,0,0-34.7,1.766,1.766,1.766,0,0,0-36.467,0" transform="translate(40)" fill="#ffa061"/>
            </g>
            <g id="g1470" transform="translate(9.332 0.883)">
              <path id="path1472" d="M-393.238-127.635A1.766,1.766,0,0,0-395-129.4h-6.683l-3.719-7.438a5.716,5.716,0,0,0-5.112-3.16,5.716,5.716,0,0,0-5.113,3.16l-3.719,7.438h-10.215a1.766,1.766,0,0,0-1.766,1.766,1.766,1.766,0,0,0,1.766,1.766H-395a1.766,1.766,0,0,0,1.766-1.766" transform="translate(431.332 140)" fill="#ffbb6e"/>
            </g>
            <g id="g1474" transform="translate(50.576 39.978)">
              <path id="path1476" d="M-54.7,0-60,5.3h3.533a5.3,5.3,0,0,0,5.3-5.3Z" transform="translate(60)" fill="#ffbb6e"/>
            </g>
            <g id="g1478" transform="translate(38.977 39.978)">
              <path id="path1480" d="M-174.435,0h-16.9a5.3,5.3,0,0,0,5.3,5.3h6.3a5.3,5.3,0,0,0,5.3-5.3" transform="translate(191.333)" fill="#ffd478"/>
            </g>
            <g id="g1482" transform="translate(12.482 39.978)">
              <path id="path1484" d="M-54.7,0-60,5.3h3.533a5.3,5.3,0,0,0,5.3-5.3Z" transform="translate(60)" fill="#ffbb6e"/>
            </g>
            <g id="g1486" transform="translate(0.883 39.978)">
              <path id="path1488" d="M-174.435,0h-16.9a5.3,5.3,0,0,0,5.3,5.3h6.3a5.3,5.3,0,0,0,5.3-5.3" transform="translate(191.333)" fill="#ffd478"/>
            </g>
            <g id="g1490" transform="translate(10.215 50.576)">
              <path id="path1492" d="M-320.3,0h-25.73l-2.553,3.829a3.3,3.3,0,0,1-2.746,1.47V7.065h38.451Z" transform="translate(351.332)" fill="#ffbb6e"/>
            </g>
            <g id="g1494" transform="translate(40.531 50.576)">
              <path id="path1496" d="M-70.181-39.529l-2.553-3.829H-76.98l2.553,3.829a3.3,3.3,0,0,0,2.746,1.47l2.123,1.766,2.123-1.766a3.3,3.3,0,0,1-2.746-1.47" transform="translate(76.98 43.359)" fill="#ffa061"/>
            </g>
            <g id="g1498" transform="translate(31.912 22.079)">
              <path id="path1500" d="M-36.467,0H-40V3.533h3.533A1.766,1.766,0,0,0-34.7,1.766,1.766,1.766,0,0,0-36.467,0" transform="translate(40)" fill="#ffa061"/>
            </g>
            <g id="g1502" transform="translate(23.102 22.079)">
              <path id="path1504" d="M-109.178-18.234A1.766,1.766,0,0,0-110.944-20h-7.044a1.766,1.766,0,0,0-1.766,1.766,1.766,1.766,0,0,0,1.766,1.766h7.044a1.766,1.766,0,0,0,1.766-1.766" transform="translate(119.754 20)" fill="#ffbb6e"/>
            </g>
            <g id="g1506" transform="translate(46.543 55.875)">
              <path id="path1508" d="M-36.467,0H-40l3.533,3.533h3.533A3.533,3.533,0,0,0-36.467,0" transform="translate(40)" fill="#ff8053"/>
            </g>
            <g id="g1510" transform="translate(6.683 55.875)">
              <path id="path1512" d="M-411.472,0H-447.8a3.533,3.533,0,0,0-3.533,3.533h43.393A3.533,3.533,0,0,0-411.472,0" transform="translate(451.332)" fill="#ffa061"/>
            </g>
            <g id="g1514" transform="translate(28.379 4.416)">
              <path id="path1516" d="M-36.467-18.234a1.766,1.766,0,0,1-1.766,1.766A1.766,1.766,0,0,1-40-18.234,1.766,1.766,0,0,1-38.234-20a1.766,1.766,0,0,1,1.766,1.766" transform="translate(40 20)" fill="#ffd478"/>
            </g>
            <g id="g1518" transform="translate(23.08 22.079)">
              <path id="path1520" d="M-127.635-36.467h-10.6A1.766,1.766,0,0,1-140-38.234,1.766,1.766,0,0,1-138.233-40h10.6a1.766,1.766,0,0,1,1.766,1.766A1.766,1.766,0,0,1-127.635-36.467Z" transform="translate(140 40)" fill="none" stroke="#000" stroke-linecap="round" stroke-linejoin="round" stroke-miterlimit="10" stroke-width="2"/>
            </g>
            <g id="g1522" transform="translate(10.215 50.576)">
              <path id="path1524" d="M0-54.7a3.3,3.3,0,0,0,2.746-1.47L5.3-60H34.561l2.553,3.829a3.3,3.3,0,0,0,2.746,1.47" transform="translate(0 60)" fill="none" stroke="#000" stroke-linecap="round" stroke-linejoin="round" stroke-miterlimit="10" stroke-width="2"/>
            </g>
            <g id="g1526" transform="translate(35.445 25.612)">
              <path id="path1528" d="M0,0V24.964" fill="none" stroke="#000" stroke-linecap="round" stroke-linejoin="round" stroke-miterlimit="10" stroke-width="2"/>
            </g>
            <g id="g1530" transform="translate(28.379 46.029)">
              <path id="path1532" d="M0,0V4.547" fill="none" stroke="#000" stroke-linecap="round" stroke-linejoin="round" stroke-miterlimit="10" stroke-width="2"/>
            </g>
            <g id="g1534" transform="translate(28.379 25.612)">
              <path id="path1536" d="M0,0V16.885" fill="none" stroke="#000" stroke-linecap="round" stroke-linejoin="round" stroke-miterlimit="10" stroke-width="2"/>
            </g>
            <g id="g1538" transform="translate(31.912 25.612)">
              <path id="path1540" d="M0,0V24.964" fill="none" stroke="#000" stroke-linecap="round" stroke-linejoin="round" stroke-miterlimit="10" stroke-width="2"/>
            </g>
            <g id="g1542" transform="translate(24.847 25.612)">
              <path id="path1544" d="M0-257.7v-24.964" transform="translate(0 282.666)" fill="none" stroke="#000" stroke-linecap="round" stroke-linejoin="round" stroke-miterlimit="10" stroke-width="2"/>
            </g>
            <g id="g1546" transform="translate(6.683 55.875)">
              <path id="path1548" d="M-36.467,0A3.533,3.533,0,0,0-40,3.533H6.926A3.533,3.533,0,0,0,3.393,0Z" transform="translate(40)" fill="none" stroke="#000" stroke-linecap="round" stroke-linejoin="round" stroke-miterlimit="10" stroke-width="2"/>
            </g>
            <g id="g1550" transform="translate(0.883 18.547)">
              <path id="path1552" d="M-156.2-275.935h-9.833a5.3,5.3,0,0,1-5.3-5.3l10.215-21.432,10.215,21.432A5.3,5.3,0,0,1-156.2-275.935Z" transform="translate(171.333 302.666)" fill="none" stroke="#000" stroke-linecap="round" stroke-linejoin="round" stroke-miterlimit="10" stroke-width="2"/>
            </g>
            <g id="g1554" transform="translate(0.883 39.978)">
              <path id="path1556" d="M0,0H20.431" fill="none" stroke="#000" stroke-linecap="round" stroke-linejoin="round" stroke-miterlimit="10" stroke-width="2"/>
            </g>
            <g id="g1558" transform="translate(38.977 18.547)">
              <path id="path1560" d="M-156.2-275.935h-9.833a5.3,5.3,0,0,1-5.3-5.3l10.215-21.432,10.215,21.432A5.3,5.3,0,0,1-156.2-275.935Z" transform="translate(171.333 302.666)" fill="none" stroke="#000" stroke-linecap="round" stroke-linejoin="round" stroke-miterlimit="10" stroke-width="2"/>
            </g>
            <g id="g1562" transform="translate(38.977 39.978)">
              <path id="path1564" d="M0,0H20.431" fill="none" stroke="#000" stroke-linecap="round" stroke-linejoin="round" stroke-miterlimit="10" stroke-width="2"/>
            </g>
            <g id="g1566" transform="translate(26.613 15.014)">
              <path id="path1568" d="M0,0V7.065" fill="none" stroke="#000" stroke-linecap="round" stroke-linejoin="round" stroke-miterlimit="10" stroke-width="2"/>
            </g>
            <g id="g1570" transform="translate(33.678 15.014)">
              <path id="path1572" d="M0-72.934V-80" transform="translate(0 80)" fill="none" stroke="#000" stroke-linecap="round" stroke-linejoin="round" stroke-miterlimit="10" stroke-width="2"/>
            </g>
            <g id="g1574" transform="translate(9.332 0.883)">
              <path id="path1576" d="M-411.472-109.4h-10.215l-3.719-7.438a5.716,5.716,0,0,0-5.113-3.16,5.716,5.716,0,0,0-5.113,3.16l-3.719,7.438h-10.215a1.766,1.766,0,0,0-1.766,1.766,1.766,1.766,0,0,0,1.766,1.766h38.094a1.766,1.766,0,0,0,1.766-1.766A1.766,1.766,0,0,0-411.472-109.4Z" transform="translate(451.332 120)" fill="none" stroke="#000" stroke-linecap="round" stroke-linejoin="round" stroke-miterlimit="10" stroke-width="2"/>
            </g>
            <g id="g1578" transform="translate(28.379 4.416)">
              <path id="path1580" d="M-36.467-18.234a1.766,1.766,0,0,1-1.766,1.766A1.766,1.766,0,0,1-40-18.234,1.766,1.766,0,0,1-38.234-20,1.766,1.766,0,0,1-36.467-18.234Z" transform="translate(40 20)" fill="none" stroke="#000" stroke-linecap="round" stroke-linejoin="round" stroke-miterlimit="10" stroke-width="2"/>
            </g>
            <g id="g1582" transform="translate(49.193 18.547)">
              <path id="path1584" d="M0,0V21.432" fill="none" stroke="#000" stroke-linecap="round" stroke-linejoin="round" stroke-miterlimit="10" stroke-width="2"/>
            </g>
            <g id="g1586" transform="translate(11.099 18.547)">
              <path id="path1588" d="M0,0V21.432" fill="none" stroke="#000" stroke-linecap="round" stroke-linejoin="round" stroke-miterlimit="10" stroke-width="2"/>
            </g>
          </g>
        </g>
      </g>
    </g>
  </g>
</svg>
