<svg xmlns="http://www.w3.org/2000/svg" xmlns:xlink="http://www.w3.org/1999/xlink" width="93.934" height="93.934" viewBox="0 0 93.934 93.934">
  <defs>
    <filter id="Path_978624" x="0" y="0" width="93.934" height="93.934" filterUnits="userSpaceOnUse">
      <feOffset dy="3" input="SourceAlpha"/>
      <feGaussianBlur stdDeviation="3" result="blur"/>
      <feFlood flood-opacity="0.161"/>
      <feComposite operator="in" in2="blur"/>
      <feComposite in="SourceGraphic"/>
    </filter>
  </defs>
  <g id="Group_1209782" data-name="Group 1209782" transform="translate(-609 -2036.165)">
    <g id="Group_1208657" data-name="Group 1208657" transform="translate(0 -6.555)">
      <g id="Group_1208063" data-name="Group 1208063" transform="translate(412 612.719)">
        <g id="Group_1144123" data-name="Group 1144123" transform="translate(206 1436)">
          <g transform="matrix(1, 0, 0, 1, -9, -6)" filter="url(#Path_978624)">
            <g id="Path_978624-2" data-name="Path 978624" transform="translate(9 6)" fill="#efeadd">
              <path d="M 37.966796875 74.43359375 C 33.04315185546875 74.43359375 28.26757431030273 73.46962738037109 23.77274131774902 71.56847381591797 C 19.43047523498535 69.73184967041016 15.53040790557861 67.10224914550781 12.18087482452393 63.75271987915039 C 8.831341743469238 60.4031867980957 6.201741218566895 56.50312042236328 4.365118980407715 52.16086196899414 C 2.463963508605957 47.66601943969727 1.499996900558472 42.89044189453125 1.499996900558472 37.966796875 C 1.499996900558472 33.04315185546875 2.463963508605957 28.26757431030273 4.365118980407715 23.77274131774902 C 6.201741218566895 19.43047523498535 8.831341743469238 15.53040790557861 12.18087482452393 12.18087482452393 C 15.53040790557861 8.831341743469238 19.43047523498535 6.201741218566895 23.77274131774902 4.365118980407715 C 28.26757431030273 2.463963508605957 33.04315185546875 1.499996900558472 37.966796875 1.499996900558472 C 42.89044189453125 1.499996900558472 47.66601943969727 2.463963508605957 52.16086196899414 4.365118980407715 C 56.50312042236328 6.201741218566895 60.4031867980957 8.831341743469238 63.75271987915039 12.18087482452393 C 67.10224914550781 15.53040790557861 69.73184967041016 19.43047523498535 71.56847381591797 23.77274131774902 C 73.46962738037109 28.26757431030273 74.43359375 33.04315185546875 74.43359375 37.966796875 C 74.43359375 42.89044189453125 73.46962738037109 47.66601943969727 71.56847381591797 52.16086196899414 C 69.73184967041016 56.50313186645508 67.10224914550781 60.4031867980957 63.75271987915039 63.75271987915039 C 60.4031867980957 67.10224914550781 56.50313186645508 69.73184967041016 52.16086196899414 71.56847381591797 C 47.66601943969727 73.46962738037109 42.89044189453125 74.43359375 37.966796875 74.43359375 Z" stroke="none"/>
              <path d="M 37.966796875 3 C 33.2449836730957 3 28.66600799560547 3.924095153808594 24.35705947875977 5.746635437011719 C 20.19359588623047 7.507621765136719 16.45379638671875 10.02927398681641 13.24153518676758 13.24153518676758 C 10.02927398681641 16.45379638671875 7.507621765136719 20.19359588623047 5.746635437011719 24.35705947875977 C 3.924095153808594 28.66600799560547 3 33.2449836730957 3 37.966796875 C 3 42.6886100769043 3.924095153808594 47.26758575439453 5.746635437011719 51.57653427124023 C 7.507621765136719 55.73999786376953 10.02927398681641 59.47979736328125 13.24153518676758 62.69205856323242 C 16.45379638671875 65.90431976318359 20.19359588623047 68.42597198486328 24.35705947875977 70.18695831298828 C 28.66600799560547 72.00949859619141 33.2449836730957 72.93359375 37.966796875 72.93359375 C 42.6886100769043 72.93359375 47.26758575439453 72.00949859619141 51.57653427124023 70.18695831298828 C 55.73999786376953 68.42597198486328 59.47979736328125 65.90431976318359 62.69205856323242 62.69205856323242 C 65.90431976318359 59.47979736328125 68.42597198486328 55.73999786376953 70.18695831298828 51.57653427124023 C 72.00949859619141 47.26758575439453 72.93359375 42.6886100769043 72.93359375 37.966796875 C 72.93359375 33.2449836730957 72.00949859619141 28.66600799560547 70.18695831298828 24.35705947875977 C 68.42597198486328 20.19359588623047 65.90431976318359 16.45379638671875 62.69205856323242 13.24153518676758 C 59.47979736328125 10.02927398681641 55.73999786376953 7.507621765136719 51.57653427124023 5.746635437011719 C 47.26758575439453 3.924095153808594 42.6886100769043 3 37.966796875 3 M 37.966796875 0 C 58.93528366088867 0 75.93359375 16.99831008911133 75.93359375 37.966796875 C 75.93359375 58.93528366088867 58.93528366088867 75.93359375 37.966796875 75.93359375 C 16.99831008911133 75.93359375 0 58.93528366088867 0 37.966796875 C 0 16.99831008911133 16.99831008911133 0 37.966796875 0 Z" stroke="none" fill="#847625"/>
            </g>
          </g>
        </g>
      </g>
      <g id="mundo_1_" data-name="mundo (1)" transform="translate(630.264 2058.071)">
        <path id="Path_1077303" data-name="Path 1077303" d="M62.192,49.935A22.656,22.656,0,0,0,39.536,72.591c5.914,6.358,12.177,13.357,16.673,21.856a22.658,22.658,0,1,0,5.984-44.513Z" transform="translate(-35.566 -42.009)" fill="#8cade0"/>
        <path id="Path_1077304" data-name="Path 1077304" d="M61.892,57.208a6.09,6.09,0,0,0-5.41-1.693q-.125-.213-.257-.429l3.755-2.629a4.158,4.158,0,0,0,1.538-2.009A22.659,22.659,0,0,0,40.466,71a4.165,4.165,0,0,0,2.686-1.718l2.629-3.755q.214.131.425.255A6.087,6.087,0,0,0,47.9,71.2a3.951,3.951,0,0,0,6.025-.527l3.032-4.33c.058-.083-.17.1,4.4-3.107A3.948,3.948,0,0,0,61.892,57.208Z" transform="translate(-36.403 -42.469)" fill="#7c91db"/>
        <path id="Path_1077305" data-name="Path 1077305" d="M39.536,108.525a22.665,22.665,0,0,0,16.673,21.856c1.587-2.292,3.487-4.865,2.141-8.425-.766-2.026-6.661-3.847-4.906-6.823.619-1.05,2.094-3.185,1.579-5.019s-4.036-1.9-5.639-.113c-1.468,1.637-4.544-.885-4.53-3.272.019-3.1,5.771-2.367,6.447-5.468.742-3.4,1.7-6.892-.056-8.966-.624-.738-1.242-1.6-1.922-2.416A22.63,22.63,0,0,0,39.536,108.525Z" transform="translate(-35.566 -77.942)" fill="#96d78d"/>
        <path id="Path_1077306" data-name="Path 1077306" d="M40.461,106.475a4.165,4.165,0,0,0,2.687-1.718L45.777,101q.214.131.425.255a6.072,6.072,0,0,0,.484,3.688c1.683-1.195,4.948-1.395,5.447-3.684.742-3.4,1.7-6.892-.056-8.966-.624-.738-1.242-1.6-1.922-2.416A22.64,22.64,0,0,0,40.461,106.475Z" transform="translate(-36.399 -77.943)" fill="#6fcb8e"/>
        <path id="Path_1077307" data-name="Path 1077307" d="M281.785,93c-1.445,1.931-3.087,4.431-5.941,4.008-4.66-.691-5.767,1.769-6.657,4.634-.922,2.97.09,5.923,1.69,6.657,1.843.845,4.48,1.357,5.377-.666.405-.915.467-3.032,2.919-2.944s4.116-.794,5.3,1.58c1.683,3.364,2.886,6.783-1.667,6.929s-6.58.1-7.543,1.411-1.86,3.612-1,5.57c1.222,2.788-.435,7.672,3.9,11.639A22.66,22.66,0,0,0,281.785,93Z" transform="translate(-241.847 -80.748)" fill="#96d78d"/>
        <path id="Path_1077308" data-name="Path 1077308" d="M149.926,158.937c3.679,3.281,21.859,12.746,34.847,10.429a.906.906,0,0,0,.1-1.763c-11.895-3.376-23.491-8.376-28.915-14.438Z" transform="translate(-134.874 -134.875)" fill="#f4ec84"/>
        <path id="Path_1077309" data-name="Path 1077309" d="M166.393,167.146a11.842,11.842,0,0,1-2.835-8.093,31.664,31.664,0,0,1-7.6-5.888l-6.028,5.772C151.995,160.782,158.652,164.584,166.393,167.146Z" transform="translate(-134.873 -134.875)" fill="#f0d78b"/>
        <g id="Group_1208656" data-name="Group 1208656" transform="translate(0.758 3.996)">
          <path id="Path_1077310" data-name="Path 1077310" d="M8.056,89.048l4.491-8.6,4.937,4.937-6.414,9.16a1.177,1.177,0,0,1-1.8.157l-.414-.414A4.482,4.482,0,0,1,8.056,89.048Z" transform="translate(-7.547 -73.458)" fill="#8cade0"/>
          <path id="Path_1077311" data-name="Path 1077311" d="M85.809,11.295l-8.6,4.491,4.937,4.937,9.16-6.414a1.177,1.177,0,0,0,.157-1.8l-.414-.414a4.481,4.481,0,0,0-5.244-.8Z" transform="translate(-70.219 -10.785)" fill="#8cade0"/>
          <path id="Path_1077312" data-name="Path 1077312" d="M30.285,41.7l3.032-4.33a3.318,3.318,0,0,1,.815-.815l4.33-3.032a.936.936,0,0,0,.125-1.429,3.1,3.1,0,0,0-3.631-.556l-1.089.569C32.42,28.493,28.7,24.184,26.48,21.961c-2.142-2.142-5.973-2.5-8.116-.358s-1.784,5.973.358,8.116c2.223,2.223,6.532,5.94,10.146,7.385L28.3,38.193a3.1,3.1,0,0,0,.556,3.631.936.936,0,0,0,1.429-.125Z" transform="translate(-15.984 -19.223)" fill="#cbe7f8"/>
        </g>
        <path id="Path_1077313" data-name="Path 1077313" d="M50.2,32l-.206-.059A23.378,23.378,0,0,0,37.588,9.894a.753.753,0,0,0-.706,1.33,22.113,22.113,0,0,1,1.992,1.2c-1.283,1.724-2.641,3.41-4.767,3.094-5.193-.77-6.546,2.125-7.486,5.156a8.533,8.533,0,0,0-.269,1.141,30.3,30.3,0,0,1-3.216-2.524l.531-.372a1.689,1.689,0,0,0,.225-2.578,3.84,3.84,0,0,0-4.512-.691l-.372.195a24.967,24.967,0,0,0-2.284-3.811l3.361-2.353a22,22,0,0,1,13.58.16.753.753,0,0,0,.484-1.426,23.513,23.513,0,0,0-11.277-.934,1.929,1.929,0,0,0-.332-2.284l-.414-.414A5.213,5.213,0,0,0,16,3.838L11.676,6.1c-2.553-2.438-6.753-2.569-9.07-.253s-2.185,6.517.253,9.07L.6,19.237a5.213,5.213,0,0,0,.938,6.125l.414.414a1.924,1.924,0,0,0,1.654.543A23.411,23.411,0,0,0,14.73,50.748a.753.753,0,1,0,.766-1.3A21.918,21.918,0,0,1,5.558,24.578L8.79,19.962A24.975,24.975,0,0,0,12.6,22.245a4.1,4.1,0,0,0-.526,3.073c-1.657.642-3.528,1.374-3.541,3.463-.018,3.006,3.836,6.019,5.843,3.78,1.255-1.4,4.031-1.336,4.354-.186.4,1.438-.8,3.242-1.5,4.433-2.155,3.656,4.219,5.8,4.85,7.472,1.124,2.972-.288,5.177-1.748,7.287q-.881-.264-1.742-.6a.753.753,0,0,0-.553,1.4A23.429,23.429,0,0,0,49.557,35.311c.158-.025.316-.05.474-.078A1.659,1.659,0,0,0,50.2,32ZM28.059,21.115c.864-2.786,1.788-4.712,5.827-4.113,3,.444,4.783-1.785,6.207-3.7a21.863,21.863,0,0,1,8.415,18.208q-1.863-.554-3.633-1.138c.128-1.518-.666-3.379-1.573-5.192-1.126-2.25-2.786-2.144-4.39-2.041a15.26,15.26,0,0,1-1.56.045c-2.573-.091-3.149,1.83-3.457,2.863l0,.008a58.041,58.041,0,0,1-6.133-3.322A7,7,0,0,1,28.059,21.115ZM43.38,29.87c-2.921-1.006-5.633-2.07-8.107-3.178.391-1.266.611-2.05,2.025-2,2.611.094,3.717-.713,4.657,1.165A12.113,12.113,0,0,1,43.38,29.87ZM16.7,5.173a3.713,3.713,0,0,1,4.363.668l.414.414a.424.424,0,0,1-.057.648l-5.589,3.914c-.922-1.2-2-2.461-3.055-3.594ZM3.665,24.655a.424.424,0,0,1-.648.057L2.6,24.3a3.713,3.713,0,0,1-.668-4.363l2.05-3.924c1.133,1.06,2.394,2.133,3.594,3.055Zm.364-10.7c-1.939-1.939-2.109-5.3-.358-7.051,1.775-1.775,5.138-1.555,7.051.358,2.508,2.508,5.9,6.6,7.218,9.893a.753.753,0,0,0,1.048.388l1.089-.569a2.34,2.34,0,0,1,2.75.421.183.183,0,0,1-.024.28l-4.33,3.032a4.058,4.058,0,0,0-1,1l-3.032,4.33a.183.183,0,0,1-.28.024,2.341,2.341,0,0,1-.421-2.75l.569-1.089a.753.753,0,0,0-.388-1.048c-3.289-1.315-7.385-4.71-9.893-7.218Zm22.6,38.526a21.959,21.959,0,0,1-4.746-.516c1.453-2.147,2.91-4.779,1.608-8.223a6.979,6.979,0,0,0-2.565-2.572c-2.226-1.631-3.051-2.492-2.4-3.6.807-1.37,2.247-3.5,1.655-5.6-.7-2.488-4.961-2.6-6.924-.412-.891.992-3.227-.966-3.217-2.765.006-1.019.99-1.452,2.594-2.074l.081-.032a3.914,3.914,0,0,0,.382.445,1.689,1.689,0,0,0,2.578-.226l.66-.942a68.409,68.409,0,0,0,16.443,7.5c-1.1,1.523-2.022,4.059-1.051,6.273,1.055,2.405-.3,7.069,3.283,11.086a21.92,21.92,0,0,1-8.384,1.669Zm9.829-2.33c-3.621-3.682-2.073-8.121-3.349-11.029-.677-1.543-.026-3.534.919-4.823a1.5,1.5,0,0,1,.395-.372A39.706,39.706,0,0,0,47.973,35.5,21.926,21.926,0,0,1,36.455,50.156ZM49.766,33.75c-6.415,1.144-13.867-.742-18.988-2.526a65.111,65.111,0,0,1-13.579-6.5l1.508-2.153a2.557,2.557,0,0,1,.63-.63l2.536-1.776c7.135,6.678,20.49,11.174,27.917,13.282a.13.13,0,0,1,.109.15.143.143,0,0,1-.133.148ZM7.46,8.479A6.817,6.817,0,0,0,5.241,10.7a.753.753,0,1,0,1.266.816A5.324,5.324,0,0,1,8.275,9.745.753.753,0,0,0,7.46,8.479Z" transform="translate(0 0)"/>
      </g>
    </g>
  </g>
</svg>
