<svg xmlns="http://www.w3.org/2000/svg" xmlns:xlink="http://www.w3.org/1999/xlink" width="93.934" height="93.934" viewBox="0 0 93.934 93.934">
  <defs>
    <filter id="Path_978624" x="0" y="0" width="93.934" height="93.934" filterUnits="userSpaceOnUse">
      <feOffset dy="3" input="SourceAlpha"/>
      <feGaussianBlur stdDeviation="3" result="blur"/>
      <feFlood flood-opacity="0.161"/>
      <feComposite operator="in" in2="blur"/>
      <feComposite in="SourceGraphic"/>
    </filter>
  </defs>
  <g id="Group_1209781" data-name="Group 1209781" transform="translate(-609 -1894.165)">
    <g id="Group_1208655" data-name="Group 1208655" transform="translate(0 -6.555)">
      <g id="Group_1208068" data-name="Group 1208068" transform="translate(412 470.719)">
        <g id="Group_1144123" data-name="Group 1144123" transform="translate(206 1436)">
          <g transform="matrix(1, 0, 0, 1, -9, -6)" filter="url(#Path_978624)">
            <g id="Path_978624-2" data-name="Path 978624" transform="translate(9 6)" fill="#efeadd">
              <path d="M 37.966796875 74.43359375 C 33.04315185546875 74.43359375 28.26757431030273 73.46962738037109 23.77274131774902 71.56847381591797 C 19.43047523498535 69.73184967041016 15.53040790557861 67.10224914550781 12.18087482452393 63.75271987915039 C 8.831341743469238 60.4031867980957 6.201741218566895 56.50312042236328 4.365118980407715 52.16086196899414 C 2.463963508605957 47.66601943969727 1.499996900558472 42.89044189453125 1.499996900558472 37.966796875 C 1.499996900558472 33.04315185546875 2.463963508605957 28.26757431030273 4.365118980407715 23.77274131774902 C 6.201741218566895 19.43047523498535 8.831341743469238 15.53040790557861 12.18087482452393 12.18087482452393 C 15.53040790557861 8.831341743469238 19.43047523498535 6.201741218566895 23.77274131774902 4.365118980407715 C 28.26757431030273 2.463963508605957 33.04315185546875 1.499996900558472 37.966796875 1.499996900558472 C 42.89044189453125 1.499996900558472 47.66601943969727 2.463963508605957 52.16086196899414 4.365118980407715 C 56.50312042236328 6.201741218566895 60.4031867980957 8.831341743469238 63.75271987915039 12.18087482452393 C 67.10224914550781 15.53040790557861 69.73184967041016 19.43047523498535 71.56847381591797 23.77274131774902 C 73.46962738037109 28.26757431030273 74.43359375 33.04315185546875 74.43359375 37.966796875 C 74.43359375 42.89044189453125 73.46962738037109 47.66601943969727 71.56847381591797 52.16086196899414 C 69.73184967041016 56.50313186645508 67.10224914550781 60.4031867980957 63.75271987915039 63.75271987915039 C 60.4031867980957 67.10224914550781 56.50313186645508 69.73184967041016 52.16086196899414 71.56847381591797 C 47.66601943969727 73.46962738037109 42.89044189453125 74.43359375 37.966796875 74.43359375 Z" stroke="none"/>
              <path d="M 37.966796875 3 C 33.2449836730957 3 28.66600799560547 3.924095153808594 24.35705947875977 5.746635437011719 C 20.19359588623047 7.507621765136719 16.45379638671875 10.02927398681641 13.24153518676758 13.24153518676758 C 10.02927398681641 16.45379638671875 7.507621765136719 20.19359588623047 5.746635437011719 24.35705947875977 C 3.924095153808594 28.66600799560547 3 33.2449836730957 3 37.966796875 C 3 42.6886100769043 3.924095153808594 47.26758575439453 5.746635437011719 51.57653427124023 C 7.507621765136719 55.73999786376953 10.02927398681641 59.47979736328125 13.24153518676758 62.69205856323242 C 16.45379638671875 65.90431976318359 20.19359588623047 68.42597198486328 24.35705947875977 70.18695831298828 C 28.66600799560547 72.00949859619141 33.2449836730957 72.93359375 37.966796875 72.93359375 C 42.6886100769043 72.93359375 47.26758575439453 72.00949859619141 51.57653427124023 70.18695831298828 C 55.73999786376953 68.42597198486328 59.47979736328125 65.90431976318359 62.69205856323242 62.69205856323242 C 65.90431976318359 59.47979736328125 68.42597198486328 55.73999786376953 70.18695831298828 51.57653427124023 C 72.00949859619141 47.26758575439453 72.93359375 42.6886100769043 72.93359375 37.966796875 C 72.93359375 33.2449836730957 72.00949859619141 28.66600799560547 70.18695831298828 24.35705947875977 C 68.42597198486328 20.19359588623047 65.90431976318359 16.45379638671875 62.69205856323242 13.24153518676758 C 59.47979736328125 10.02927398681641 55.73999786376953 7.507621765136719 51.57653427124023 5.746635437011719 C 47.26758575439453 3.924095153808594 42.6886100769043 3 37.966796875 3 M 37.966796875 0 C 58.93528366088867 0 75.93359375 16.99831008911133 75.93359375 37.966796875 C 75.93359375 58.93528366088867 58.93528366088867 75.93359375 37.966796875 75.93359375 C 16.99831008911133 75.93359375 0 58.93528366088867 0 37.966796875 C 0 16.99831008911133 16.99831008911133 0 37.966796875 0 Z" stroke="none" fill="#847625"/>
            </g>
          </g>
        </g>
      </g>
      <g id="ciudadano" transform="translate(629.365 1918.085)">
        <g id="Group_1208654" data-name="Group 1208654" transform="translate(0.779 0.779)">
          <g id="Group_1208652" data-name="Group 1208652">
            <path id="Path_1077282" data-name="Path 1077282" d="M190.645,158.547a3.143,3.143,0,0,0-2.381-3.112l-3.107-.955a3.085,3.085,0,1,1-6.169,0l-3.107.955a3.144,3.144,0,0,0-2.381,3.112v6.483h17.145Z" transform="translate(-156.251 -139.208)" fill="#acc5e3" fill-rule="evenodd"/>
            <path id="Path_1077283" data-name="Path 1077283" d="M229.4,136.266a3.085,3.085,0,0,0,3.085-3.085l-.683-2.47a5.684,5.684,0,0,1-4.8,0l-.683,2.47A3.085,3.085,0,0,0,229.4,136.266Z" transform="translate(-203.577 -117.908)" fill="#fbdfba" fill-rule="evenodd"/>
            <path id="Path_1077284" data-name="Path 1077284" d="M206.715,61.907a5.732,5.732,0,0,0,5.715-5.715,2.866,2.866,0,0,0-2.858-2.858h-5.715A2.866,2.866,0,0,0,201,56.192,5.732,5.732,0,0,0,206.715,61.907Z" transform="translate(-180.893 -48.571)" fill="#fbf2e1" fill-rule="evenodd"/>
            <path id="Path_1077285" data-name="Path 1077285" d="M203.858,12.263h5.715a2.866,2.866,0,0,1,2.858,2.858v-1.9a5.715,5.715,0,0,0-11.43,0v1.905A2.866,2.866,0,0,1,203.858,12.263Z" transform="translate(-180.893 -7.501)" fill="#fdef8e" fill-rule="evenodd"/>
            <path id="Path_1077286" data-name="Path 1077286" d="M52.528,182.286a2.572,2.572,0,0,0-1.948-2.546l-2.542-.781a2.524,2.524,0,0,1-5.048,0l-2.542.781a2.572,2.572,0,0,0-1.948,2.546v4.679H52.528Z" transform="translate(-35.279 -161.142)" fill="#fdef8e" fill-rule="evenodd"/>
            <path id="Path_1077287" data-name="Path 1077287" d="M65.676,103.216a4.69,4.69,0,0,0,4.676-4.676A2.345,2.345,0,0,0,68.014,96.2H63.338A2.345,2.345,0,0,0,61,98.54,4.69,4.69,0,0,0,65.676,103.216Zm31.174,0a4.69,4.69,0,0,0,4.676-4.676A2.345,2.345,0,0,0,99.188,96.2H94.512a2.345,2.345,0,0,0-2.338,2.338A4.69,4.69,0,0,0,96.85,103.216Z" transform="translate(-55.441 -86.985)" fill="#f6d9ad" fill-rule="evenodd"/>
            <path id="Path_1077288" data-name="Path 1077288" d="M63.338,62.6h4.676a2.345,2.345,0,0,1,2.338,2.338V63.378a4.676,4.676,0,0,0-9.352,0v1.559A2.345,2.345,0,0,1,63.338,62.6Zm31.174,0h4.676a2.345,2.345,0,0,1,2.338,2.338V63.378a4.676,4.676,0,0,0-9.352,0v1.559A2.345,2.345,0,0,1,94.512,62.6Z" transform="translate(-55.441 -53.382)" fill="#acc5e3" fill-rule="evenodd"/>
            <path id="Path_1077289" data-name="Path 1077289" d="M57.5,259.117a2.345,2.345,0,0,0-2.338,2.338v7.51a3.9,3.9,0,1,1-7.793,0v-4.509a2.345,2.345,0,0,0-2.338-2.338H42.976a2.345,2.345,0,0,0-2.338,2.338v4.435a25.839,25.839,0,0,0,35.1,9.582,2.345,2.345,0,0,0-2.335-2.211,2.338,2.338,0,0,1,0-4.676h1.52a2.338,2.338,0,1,0,0-4.676H72.756a3.9,3.9,0,1,1,0-7.793h5.952a2.345,2.345,0,0,0,2.338-2.338V256H62.133c0,2.065-1.143,3.117-2.494,3.117Z" transform="translate(-37.195 -230.178)" fill="#acf3f9" fill-rule="evenodd"/>
            <path id="Path_1077290" data-name="Path 1077290" d="M43.061,259.117a3.9,3.9,0,1,0,0,7.793h2.171a2.338,2.338,0,1,1,0,4.676h-1.52a2.338,2.338,0,1,0,0,4.676,2.345,2.345,0,0,1,2.335,2.211A25.813,25.813,0,0,0,59.144,256H51.351v.779a2.345,2.345,0,0,1-2.338,2.338ZM7.5,256a25.7,25.7,0,0,0,3.443,12.892v-4.435a2.345,2.345,0,0,1,2.338-2.338h2.051a2.345,2.345,0,0,1,2.338,2.338v4.509a3.9,3.9,0,1,0,7.793,0v-7.51a2.345,2.345,0,0,1,2.338-2.338h2.143c1.351,0,2.494-1.052,2.494-3.117Z" transform="translate(-7.5 -230.178)" fill="#a9e899" fill-rule="evenodd"/>
            <path id="Path_1077291" data-name="Path 1077291" d="M7.5,256a25.7,25.7,0,0,0,3.443,12.892v-4.435a2.318,2.318,0,0,1,.1-.661,25.79,25.79,0,0,1-1.2-7.8Z" transform="translate(-7.5 -230.178)" fill="#6bd24d" fill-rule="evenodd"/>
            <path id="Path_1077292" data-name="Path 1077292" d="M40.734,331.025a2.318,2.318,0,0,0-.1.661v4.435a25.812,25.812,0,0,0,22.379,12.93q.6,0,1.184-.027A25.824,25.824,0,0,1,40.734,331.025Z" transform="translate(-37.195 -297.407)" fill="#5ceaee" fill-rule="evenodd"/>
            <path id="Path_1077293" data-name="Path 1077293" d="M40.838,185.323l-.39.12a2.572,2.572,0,0,0-1.948,2.546v4.679h2.338Z" transform="translate(-35.279 -166.845)" fill="#fee026" fill-rule="evenodd"/>
            <path id="Path_1077294" data-name="Path 1077294" d="M352.528,182.286a2.572,2.572,0,0,0-1.948-2.546l-2.542-.781a2.524,2.524,0,1,1-5.048,0l-2.542.781a2.572,2.572,0,0,0-1.948,2.546v4.679h14.028Z" transform="translate(-304.105 -161.142)" fill="#fff" fill-rule="evenodd"/>
            <path id="Path_1077295" data-name="Path 1077295" d="M115.409,164.055a2.524,2.524,0,0,0,2.524-2.524l-.559-2.021a4.65,4.65,0,0,1-3.93,0l-.559,2.021A2.524,2.524,0,0,0,115.409,164.055Zm-31.174,0a2.524,2.524,0,0,0,2.524-2.524L86.2,159.51a4.65,4.65,0,0,1-3.93,0l-.559,2.021A2.524,2.524,0,0,0,84.236,164.055Z" transform="translate(-74 -143.714)" fill="#eeae7e" fill-rule="evenodd"/>
            <path id="Path_1077296" data-name="Path 1077296" d="M96.85,103.216a4.64,4.64,0,0,0,1.169-.149,4.693,4.693,0,0,1-3.507-4.527V96.981a4.658,4.658,0,0,1,.066-.779h-.066a2.345,2.345,0,0,0-2.338,2.338A4.69,4.69,0,0,0,96.85,103.216Zm-31.174,0a4.64,4.64,0,0,0,1.169-.149,4.693,4.693,0,0,1-3.507-4.527V96.981A4.657,4.657,0,0,1,63.4,96.2h-.066A2.345,2.345,0,0,0,61,98.54,4.69,4.69,0,0,0,65.676,103.216Z" transform="translate(-55.441 -86.985)" fill="#eeae7e" fill-rule="evenodd"/>
            <path id="Path_1077297" data-name="Path 1077297" d="M94.512,62.6h.066a4.7,4.7,0,0,1,3.441-3.748,4.675,4.675,0,0,0-5.845,4.527v1.559A2.345,2.345,0,0,1,94.512,62.6Zm-31.174,0H63.4a4.7,4.7,0,0,1,3.441-3.748A4.675,4.675,0,0,0,61,63.378v1.559A2.345,2.345,0,0,1,63.338,62.6Z" transform="translate(-55.441 -53.382)" fill="#6696c4" fill-rule="evenodd"/>
            <path id="Path_1077298" data-name="Path 1077298" d="M206.715,62.208a5.676,5.676,0,0,0,1.169-.122,5.736,5.736,0,0,1-4.546-5.594V54.588a5.7,5.7,0,0,1,.075-.918A2.868,2.868,0,0,0,201,56.493,5.732,5.732,0,0,0,206.715,62.208Z" transform="translate(-180.893 -48.872)" fill="#fbdfba" fill-rule="evenodd"/>
            <path id="Path_1077299" data-name="Path 1077299" d="M207.884,7.621A5.713,5.713,0,0,0,201,13.215V15.12a2.868,2.868,0,0,1,2.413-2.823A5.747,5.747,0,0,1,207.884,7.621Z" transform="translate(-180.893 -7.5)" fill="#fee026" fill-rule="evenodd"/>
            <path id="Path_1077300" data-name="Path 1077300" d="M176.282,162.483l-.4.123a3.144,3.144,0,0,0-2.381,3.112V172.2h2.338v-8.042A3.221,3.221,0,0,1,176.282,162.483Z" transform="translate(-156.251 -146.378)" fill="#6696c4" fill-rule="evenodd"/>
          </g>
          <g id="Group_1208653" data-name="Group 1208653" transform="translate(45.794 28.16)">
            <path id="Path_1077301" data-name="Path 1077301" d="M449.762,283.176H448.2v-1.559h1.559Zm1.559-3.117h-1.559V278.5h1.559Z" transform="translate(-448.203 -278.5)" fill="#fff"/>
          </g>
        </g>
        <path id="Path_1077302" data-name="Path 1077302" d="M49.982,25.822v-3.9a3.336,3.336,0,0,0-2.5-3.291l-2.134-.655-.28-1.012a5.456,5.456,0,0,0,2.574-4.629V10.776a5.455,5.455,0,1,0-10.911,0v1.559a5.456,5.456,0,0,0,2.574,4.629l-.28,1.012-2.134.655a3.937,3.937,0,0,0-1.052.5,3.933,3.933,0,0,0-2.819-2.866l-2.7-.829-.4-1.454A6.5,6.5,0,0,0,33.1,8.4V6.495a6.495,6.495,0,1,0-12.989,0V8.4a6.5,6.5,0,0,0,3.175,5.579l-.4,1.454-2.7.829a3.933,3.933,0,0,0-2.82,2.866,3.937,3.937,0,0,0-1.052-.5l-2.134-.655-.28-1.012a5.456,5.456,0,0,0,2.574-4.629V10.776a5.455,5.455,0,1,0-10.911,0v1.559a5.455,5.455,0,0,0,2.574,4.629l-.28,1.012-2.134.655a3.336,3.336,0,0,0-2.5,3.291v3.9H0V26.6A26.6,26.6,0,0,0,44.815,45.988l-1.067-1.136a25.156,25.156,0,0,1-3.933,3.025,3.118,3.118,0,0,0-2.823-1.792,1.559,1.559,0,0,1,0-3.117h1.52a3.117,3.117,0,1,0,0-6.235H36.341a3.117,3.117,0,1,1,0-6.235h5.952a3.121,3.121,0,0,0,3.117-3.117h6.223a24.938,24.938,0,0,1-6.78,16.367l1.136,1.067A26.5,26.5,0,0,0,53.2,26.6v-.779ZM42.188,6.879a3.9,3.9,0,0,1,3.69,2.647,3.1,3.1,0,0,0-1.352-.309H39.85a3.1,3.1,0,0,0-1.352.309A3.9,3.9,0,0,1,42.188,6.879Zm-3.9,5.455a1.561,1.561,0,0,1,1.559-1.559h4.676a1.56,1.56,0,0,1,1.559,1.559,3.9,3.9,0,1,1-7.793,0Zm3.9,5.455a5.442,5.442,0,0,0,1.439-.194l.3,1.089a1.742,1.742,0,0,1-3.48,0l.3-1.089A5.443,5.443,0,0,0,42.188,17.79Zm-4.837,2.332,1.691-.52a3.3,3.3,0,0,0,6.292,0l1.691.52a1.8,1.8,0,0,1,1.4,1.8v3.9H35.954v-3.9A1.8,1.8,0,0,1,37.351,20.122ZM26.6,1.559A4.944,4.944,0,0,1,31.4,5.323a3.614,3.614,0,0,0-1.937-.561H23.744a3.614,3.614,0,0,0-1.937.561A4.944,4.944,0,0,1,26.6,1.559ZM21.666,8.4a2.081,2.081,0,0,1,2.078-2.078h5.715A2.081,2.081,0,0,1,31.537,8.4a4.936,4.936,0,1,1-9.872,0ZM26.6,14.894a6.469,6.469,0,0,0,1.879-.278l.424,1.533a2.3,2.3,0,0,1-4.606,0l.424-1.533a6.467,6.467,0,0,0,1.879.278Zm-7.793,5.224a2.362,2.362,0,0,1,1.831-2.367l2.234-.686a3.863,3.863,0,0,0,7.457,0l2.234.686a2.362,2.362,0,0,1,1.831,2.367v5.7H18.808ZM11.015,6.879A3.9,3.9,0,0,1,14.7,9.526a3.1,3.1,0,0,0-1.352-.309H8.677a3.1,3.1,0,0,0-1.352.309A3.9,3.9,0,0,1,11.015,6.879Zm-3.9,5.455a1.561,1.561,0,0,1,1.559-1.559h4.676a1.56,1.56,0,0,1,1.559,1.559,3.9,3.9,0,0,1-7.793,0Zm3.9,5.455a5.442,5.442,0,0,0,1.439-.194l.3,1.089a1.742,1.742,0,0,1-3.48,0l.3-1.089A5.443,5.443,0,0,0,11.015,17.79Zm-.779,9.591V25.822H4.78v-3.9a1.8,1.8,0,0,1,1.4-1.8l1.691-.52a3.3,3.3,0,0,0,6.292,0l1.691.52a1.8,1.8,0,0,1,1.4,1.8v3.9H11.794v1.559h13.07a1.686,1.686,0,0,1-1.64,1.559H21.081a3.121,3.121,0,0,0-3.117,3.117v7.51a3.117,3.117,0,0,1-6.235,0V35.058a3.121,3.121,0,0,0-3.117-3.117H6.561a3.121,3.121,0,0,0-3.117,3.117v1.106a24.958,24.958,0,0,1-1.873-8.784Zm32.057,1.559H36.341a4.676,4.676,0,1,0,0,9.352h2.171a1.559,1.559,0,0,1,0,3.117h-1.52a3.117,3.117,0,0,0,0,6.235,1.559,1.559,0,0,1,1.464,1.023A25.09,25.09,0,0,1,5,39.292V35.058A1.56,1.56,0,0,1,6.561,33.5H8.611a1.56,1.56,0,0,1,1.559,1.559v4.509a4.676,4.676,0,0,0,9.352,0v-7.51A1.56,1.56,0,0,1,21.081,30.5h2.143a3.258,3.258,0,0,0,3.223-3.117h17.4a1.56,1.56,0,0,1-1.559,1.559Z"/>
      </g>
    </g>
  </g>
</svg>
