<svg xmlns="http://www.w3.org/2000/svg" xmlns:xlink="http://www.w3.org/1999/xlink" width="103" height="103" viewBox="0 0 103 103">
  <defs>
    <filter id="Path_978624" x="0" y="0" width="103" height="103" filterUnits="userSpaceOnUse">
      <feOffset dy="3" input="SourceAlpha"/>
      <feGaussianBlur stdDeviation="3" result="blur"/>
      <feFlood flood-opacity="0.161"/>
      <feComposite operator="in" in2="blur"/>
      <feComposite in="SourceGraphic"/>
    </filter>
  </defs>
  <g id="Group_1209744" data-name="Group 1209744" transform="translate(-192 -338)">
    <g id="Group_1208646" data-name="Group 1208646" transform="translate(0 24)">
      <g id="Group_1180764" data-name="Group 1180764" transform="translate(1 -4144)">
        <g id="Group_1179463" data-name="Group 1179463" transform="translate(200 4464)">
          <g id="Group_1144531" data-name="Group 1144531">
            <g transform="matrix(1, 0, 0, 1, -9, -6)" filter="url(#Path_978624)">
              <g id="Path_978624-2" data-name="Path 978624" transform="translate(9 6)" fill="#edeef2">
                <path d="M 42.5 83.5 C 36.96437835693359 83.5 31.59512901306152 82.41617584228516 26.54141235351562 80.27863311767578 C 21.65934181213379 78.21369171142578 17.27447128295898 75.25723266601562 13.50862312316895 71.49137878417969 C 9.742764472961426 67.72553253173828 6.786305904388428 63.34066009521484 4.721364498138428 58.45858764648438 C 2.583823442459106 53.40486907958984 1.5 48.03562164306641 1.5 42.5 C 1.5 36.96437835693359 2.583823442459106 31.59512901306152 4.721364498138428 26.54141235351562 C 6.786305904388428 21.65934181213379 9.742764472961426 17.27447128295898 13.50862312316895 13.50862312316895 C 17.27447128295898 9.742764472961426 21.65934181213379 6.786305904388428 26.54141235351562 4.721364498138428 C 31.59512901306152 2.583823442459106 36.96437835693359 1.5 42.5 1.5 C 48.03562164306641 1.5 53.40486907958984 2.583823442459106 58.45858764648438 4.721364498138428 C 63.34066009521484 6.786305904388428 67.72553253173828 9.742764472961426 71.49137878417969 13.50862312316895 C 75.25723266601562 17.27447128295898 78.21369171142578 21.65934181213379 80.27863311767578 26.54141235351562 C 82.41617584228516 31.59512901306152 83.5 36.96437835693359 83.5 42.5 C 83.5 48.03562164306641 82.41617584228516 53.40486907958984 80.27863311767578 58.45858764648438 C 78.21369171142578 63.34066009521484 75.25723266601562 67.72553253173828 71.49137878417969 71.49137878417969 C 67.72553253173828 75.25723266601562 63.34066009521484 78.21369171142578 58.45858764648438 80.27863311767578 C 53.40486907958984 82.41617584228516 48.03562164306641 83.5 42.5 83.5 Z" stroke="none"/>
                <path d="M 42.5 3 C 37.16621398925781 3 31.99356079101562 4.043960571289062 27.125732421875 6.102882385253906 C 22.42246627807617 8.092185974121094 18.19785308837891 10.94070434570312 14.56928253173828 14.56928253173828 C 10.94070434570312 18.19785308837891 8.092185974121094 22.42246627807617 6.102882385253906 27.125732421875 C 4.043960571289062 31.99356079101562 3 37.16621398925781 3 42.5 C 3 47.83378601074219 4.043960571289062 53.00643920898438 6.102882385253906 57.87425231933594 C 8.092185974121094 62.57753372192383 10.94070434570312 66.80213165283203 14.56928253173828 70.43071746826172 C 18.19786834716797 74.05929565429688 22.42246627807617 76.90781402587891 27.125732421875 78.89711761474609 C 31.99356079101562 80.95603942871094 37.16621398925781 82 42.5 82 C 47.83378601074219 82 53.00642395019531 80.95603942871094 57.87425231933594 78.89711761474609 C 62.57753372192383 76.90781402587891 66.80213165283203 74.05929565429688 70.43071746826172 70.43071746826172 C 74.05929565429688 66.80213165283203 76.90781402587891 62.57753372192383 78.89711761474609 57.87425231933594 C 80.95603942871094 53.00642395019531 82 47.83378601074219 82 42.5 C 82 37.16621398925781 80.95603942871094 31.99356079101562 78.89711761474609 27.125732421875 C 76.90781402587891 22.42246627807617 74.05929565429688 18.19786834716797 70.43071746826172 14.56928253173828 C 66.80213165283203 10.94070434570312 62.57753372192383 8.092185974121094 57.87425231933594 6.102882385253906 C 53.00643920898438 4.043960571289062 47.83378601074219 3 42.5 3 M 42.5 0 C 65.97209167480469 0 85 19.02789306640625 85 42.5 C 85 65.97209167480469 65.97209167480469 85 42.5 85 C 19.02789306640625 85 0 65.97209167480469 0 42.5 C 0 19.02789306640625 19.02789306640625 0 42.5 0 Z" stroke="none" fill="#56678d"/>
              </g>
            </g>
          </g>
        </g>
      </g>
      <g id="gobierno" transform="translate(151.386 280.595)">
        <g id="Group_1208645" data-name="Group 1208645" transform="translate(67.808 50.821)">
          <path id="Path_1077245" data-name="Path 1077245" d="M245.6,56.1h2.114V66.994H245.6Z" transform="translate(-222.358 -56.1)" fill="gray" fill-rule="evenodd"/>
          <path id="Path_1077246" data-name="Path 1077246" d="M153.54,123.2c8.322,0,15.122,7.258,15.54,16.4H138C138.431,130.458,145.218,123.2,153.54,123.2Z" transform="translate(-129.247 -114.164)" fill="#e6e6e6" fill-rule="evenodd"/>
          <path id="Path_1077247" data-name="Path 1077247" d="M93.2,236.1h43.171v4.2H93.2Z" transform="translate(-90.48 -211.862)" fill="#e6e6e6" fill-rule="evenodd"/>
          <path id="Path_1077248" data-name="Path 1077248" d="M114.772,162l10.8,5,10.786,4.982H93.2L103.986,167Z" transform="translate(-90.48 -147.74)" fill="#b3b4b4" fill-rule="evenodd"/>
          <path id="Path_1077249" data-name="Path 1077249" d="M113.1,267.2h8.255v3.6H113.1Zm14.772,0h8.255v3.6h-8.255Zm14.759,0h8.255v3.6h-8.255Z" transform="translate(-107.7 -238.774)" fill="#b3b4b4" fill-rule="evenodd"/>
          <path id="Path_1077250" data-name="Path 1077250" d="M122.7,293.9h5.629V309H122.7Zm29.584,0h5.629V309h-5.629Zm-14.8,0h5.629V309h-5.629Z" transform="translate(-116.008 -261.878)" fill="gray" fill-rule="evenodd"/>
          <path id="Path_1077251" data-name="Path 1077251" d="M261.3,63.9h9.143l-2.478,2.545,2.478,2.464H261.3Z" transform="translate(-235.944 -62.85)" fill="#ed2024" fill-rule="evenodd"/>
          <path id="Path_1077252" data-name="Path 1077252" d="M73,430.7h48.6v3.42H73Z" transform="translate(-73 -380.257)" fill="gray" fill-rule="evenodd"/>
          <path id="Path_1077253" data-name="Path 1077253" d="M363.376,339.4a2.976,2.976,0,1,0,2.962,2.976A2.977,2.977,0,0,0,363.376,339.4Z" transform="translate(-321.699 -301.251)" fill="#fbc6b3" fill-rule="evenodd"/>
          <path id="Path_1077254" data-name="Path 1077254" d="M345.662,384.5h-3.353A4.319,4.319,0,0,0,338,388.8v1.912h11.958V388.8A4.29,4.29,0,0,0,345.662,384.5Z" transform="translate(-302.316 -340.278)" fill="#80311a" fill-rule="evenodd"/>
          <path id="Path_1077255" data-name="Path 1077255" d="M105.276,339.4a2.976,2.976,0,1,0,2.976,2.976A2.977,2.977,0,0,0,105.276,339.4Z" transform="translate(-98.355 -301.251)" fill="#fbc6b3" fill-rule="evenodd"/>
          <path id="Path_1077256" data-name="Path 1077256" d="M87.649,384.5h-3.34A4.319,4.319,0,0,0,80,388.8v1.912H91.958V388.8A4.31,4.31,0,0,0,87.649,384.5Z" transform="translate(-79.057 -340.278)" fill="#80311a" fill-rule="evenodd"/>
          <path id="Path_1077257" data-name="Path 1077257" d="M164,332.4a3.2,3.2,0,1,0,3.2,3.2A3.2,3.2,0,0,0,164,332.4Z" transform="translate(-148.977 -295.194)" fill="#fbc6b3" fill-rule="evenodd"/>
          <path id="Path_1077258" data-name="Path 1077258" d="M145.041,380.9h-3.609a4.649,4.649,0,0,0-4.632,4.632v2.06h12.873v-2.06A4.649,4.649,0,0,0,145.041,380.9Z" transform="translate(-128.209 -337.163)" fill="#bb572e" fill-rule="evenodd"/>
          <path id="Path_1077259" data-name="Path 1077259" d="M301.7,332.4a3.2,3.2,0,1,0,3.2,3.2A3.2,3.2,0,0,0,301.7,332.4Z" transform="translate(-268.135 -295.194)" fill="#fbc6b3" fill-rule="evenodd"/>
          <path id="Path_1077260" data-name="Path 1077260" d="M282.741,380.9h-3.609a4.649,4.649,0,0,0-4.632,4.632v2.06h12.873v-2.06A4.649,4.649,0,0,0,282.741,380.9Z" transform="translate(-247.366 -337.163)" fill="#bb572e" fill-rule="evenodd"/>
          <path id="Path_1077261" data-name="Path 1077261" d="M230.641,321.6a3.548,3.548,0,1,0,3.555,3.555A3.549,3.549,0,0,0,230.641,321.6Z" transform="translate(-206.349 -285.848)" fill="#fbc6b3" fill-rule="evenodd"/>
          <path id="Path_1077262" data-name="Path 1077262" d="M209.543,375.5h-4a5.161,5.161,0,0,0-5.144,5.144v2.289h14.287v-2.289A5.152,5.152,0,0,0,209.543,375.5Z" transform="translate(-183.245 -332.49)" fill="#dd6e42" fill-rule="evenodd"/>
        </g>
        <path id="Path_1077263" data-name="Path 1077263" d="M98.443,100.456V98.975a4.35,4.35,0,0,0-4.336-4.336h-4a4.35,4.35,0,0,0-4.336,4.336v1.481Zm-14.287,0V98.975a6,6,0,0,1,1.172-3.542,3.711,3.711,0,0,0-.687-.067H81.031a3.839,3.839,0,0,0-3.824,3.824v1.252h6.948Zm2.478-6.315a6,6,0,0,1,1.845-.889v-.7a4.4,4.4,0,0,1,0-4.848V83.651h-.5a.81.81,0,0,1-.808-.808V80.056H82.284v2.787a.81.81,0,0,1-.808.808h-.525v4.04a4.011,4.011,0,0,1,5.9,3.528,4.061,4.061,0,0,1-1.01,2.666Zm9.089-.9a6,6,0,0,1,1.845.889l.808-.242a4.008,4.008,0,0,1,2.989-6.666,4.086,4.086,0,0,1,1.9.471v-4.04h-.525a.81.81,0,0,1-.808-.808V80.056h-4.9v2.787a.81.81,0,0,1-.808.808h-.5V87.7a4.253,4.253,0,0,1,.727,2.424,4.424,4.424,0,0,1-.727,2.424Zm3.164,2.195a5.855,5.855,0,0,1,1.172,3.542v1.481h6.948V99.2a3.839,3.839,0,0,0-3.824-3.824H99.574A2.843,2.843,0,0,0,98.887,95.434ZM92.1,87.381a2.737,2.737,0,1,0,2.734,2.734A2.74,2.74,0,0,0,92.1,87.381ZM90.094,86.25a4.395,4.395,0,0,1,4.013,0v-2.6H90.094Zm14.8,7.77a5.42,5.42,0,0,1,1.131.525,4.113,4.113,0,0,1,.579-.175,3.779,3.779,0,0,1,2.3-6.167V83.651h-4.013v5.642a3.97,3.97,0,0,1,0,3.851Zm2.585,1.845a5.442,5.442,0,0,1,1.145,3.34v1.252h6.033v-1.1a3.509,3.509,0,0,0-3.488-3.5H107.8a2.593,2.593,0,0,0-.323.013Zm-6.1-7.029a2.39,2.39,0,1,0,2.383,2.383A2.395,2.395,0,0,0,101.378,88.835Zm-25.8,11.621V99.2a5.471,5.471,0,0,1,1.145-3.34c-.5-.04-2.922-.013-3.676-.013a3.511,3.511,0,0,0-3.5,3.5v1.1Zm2.612-5.9a5.42,5.42,0,0,1,1.131-.525v-.875a3.944,3.944,0,0,1-.5-1.926,3.868,3.868,0,0,1,.5-1.926V83.664H75.308v4.551a3.776,3.776,0,0,1,2.3,6.167A4.116,4.116,0,0,1,78.19,94.558Zm4.646-5.723a2.39,2.39,0,1,0,2.383,2.383A2.4,2.4,0,0,0,82.836,88.835ZM67.943,100.456v-1.1a5.132,5.132,0,0,1,3.905-4.969,3.785,3.785,0,0,1,1.845-6.073V83.651h-.485a.81.81,0,0,1-.808-.808V80.056H70.515a.81.81,0,0,1-.808-.808v-4.2a.8.8,0,0,1,.525-.754l6.356-2.936c1.926-6.329,7.083-11.379,13.654-12.2V50.808A.81.81,0,0,1,91.05,50h2.114a.81.81,0,0,1,.808.808v.256h8.335a.809.809,0,0,1,.539,1.414L100.974,54.4l1.912,1.912a.8.8,0,0,1-.566,1.374H93.985v1.468c6.571.821,11.715,5.871,13.641,12.2l6.356,2.936a.8.8,0,0,1,.525.754v4.2a.81.81,0,0,1-.808.808h-1.885v2.787a.81.81,0,0,1-.808.808h-.485V88.31a3.782,3.782,0,0,1,1.858,6.073,5.135,5.135,0,0,1,3.905,4.969v1.1h.135a.81.81,0,0,1,.808.808v3.407a.81.81,0,0,1-.808.808H67.808a.81.81,0,0,1-.808-.808v-3.42a.81.81,0,0,1,.808-.808h.135Zm6.787-10.678a2.161,2.161,0,1,0,2.155,2.168A2.167,2.167,0,0,0,74.729,89.778Zm34.755,0a2.161,2.161,0,1,0,2.155,2.168A2.167,2.167,0,0,0,109.485,89.778ZM68.616,102.072v1.8H115.6v-1.8ZM100.4,52.68H93.972v3.393h6.383l-1.091-1.091a.793.793,0,0,1-.013-1.131ZM74.5,82.035h6.154V80.056H74.016v1.979Zm29.571,0h6.113V80.056h-6.639v1.979Zm-14.785,0h6.14V80.056H88.788v1.979ZM78.634,70.414l13.129-6.06a.786.786,0,0,1,.673,0l13.129,6.06c-2.249-5.6-7.325-9.763-13.466-9.763S80.883,64.826,78.634,70.414Zm31.389,3.838L92.114,65.97,74.2,74.252Zm2.855,1.616H71.323V78.44h41.555ZM91.858,59.049h.5v-7.42h-.5Z"/>
      </g>
    </g>
  </g>
</svg>
