<svg xmlns="http://www.w3.org/2000/svg" xmlns:xlink="http://www.w3.org/1999/xlink" width="103" height="103" viewBox="0 0 103 103">
  <defs>
    <filter id="Path_978624" x="0" y="0" width="103" height="103" filterUnits="userSpaceOnUse">
      <feOffset dy="3" input="SourceAlpha"/>
      <feGaussianBlur stdDeviation="3" result="blur"/>
      <feFlood flood-opacity="0.161"/>
      <feComposite operator="in" in2="blur"/>
      <feComposite in="SourceGraphic"/>
    </filter>
  </defs>
  <g id="Group_1209778" data-name="Group 1209778" transform="translate(-165.5 -1070)">
    <g id="Group_1208651" data-name="Group 1208651" transform="translate(0 12)">
      <g id="Group_1178144" data-name="Group 1178144" transform="translate(-19.5 -2004)">
        <g id="Group_1177896" data-name="Group 1177896" transform="translate(14 196)">
          <g id="Group_1176881" data-name="Group 1176881">
            <g id="Group_1175148" data-name="Group 1175148" transform="translate(0 1580)">
              <g id="Group_1173798" data-name="Group 1173798" transform="translate(-3 -3520)">
                <g id="Group_1171925" data-name="Group 1171925" transform="translate(-22 -2246)">
                  <g id="Group_1164524" data-name="Group 1164524" transform="translate(205 7058)">
                    <g id="Group_1144123" data-name="Group 1144123">
                      <g transform="matrix(1, 0, 0, 1, -9, -6)" filter="url(#Path_978624)">
                        <g id="Path_978624-2" data-name="Path 978624" transform="translate(9 6)" fill="#edeef2">
                          <path d="M 42.5 83.5 C 36.96437835693359 83.5 31.59512901306152 82.41617584228516 26.54141235351562 80.27863311767578 C 21.65934181213379 78.21369171142578 17.27447128295898 75.25723266601562 13.50862312316895 71.49137878417969 C 9.742764472961426 67.72553253173828 6.786305904388428 63.34066009521484 4.721364498138428 58.45858764648438 C 2.583823442459106 53.40486907958984 1.5 48.03562164306641 1.5 42.5 C 1.5 36.96437835693359 2.583823442459106 31.59512901306152 4.721364498138428 26.54141235351562 C 6.786305904388428 21.65934181213379 9.742764472961426 17.27447128295898 13.50862312316895 13.50862312316895 C 17.27447128295898 9.742764472961426 21.65934181213379 6.786305904388428 26.54141235351562 4.721364498138428 C 31.59512901306152 2.583823442459106 36.96437835693359 1.5 42.5 1.5 C 48.03562164306641 1.5 53.40486907958984 2.583823442459106 58.45858764648438 4.721364498138428 C 63.34066009521484 6.786305904388428 67.72553253173828 9.742764472961426 71.49137878417969 13.50862312316895 C 75.25723266601562 17.27447128295898 78.21369171142578 21.65934181213379 80.27863311767578 26.54141235351562 C 82.41617584228516 31.59512901306152 83.5 36.96437835693359 83.5 42.5 C 83.5 48.03562164306641 82.41617584228516 53.40486907958984 80.27863311767578 58.45858764648438 C 78.21369171142578 63.34066009521484 75.25723266601562 67.72553253173828 71.49137878417969 71.49137878417969 C 67.72553253173828 75.25723266601562 63.34066009521484 78.21369171142578 58.45858764648438 80.27863311767578 C 53.40486907958984 82.41617584228516 48.03562164306641 83.5 42.5 83.5 Z" stroke="none"/>
                          <path d="M 42.5 3 C 37.16621398925781 3 31.99356079101562 4.043960571289062 27.125732421875 6.102882385253906 C 22.42246627807617 8.092185974121094 18.19785308837891 10.94070434570312 14.56928253173828 14.56928253173828 C 10.94070434570312 18.19785308837891 8.092185974121094 22.42246627807617 6.102882385253906 27.125732421875 C 4.043960571289062 31.99356079101562 3 37.16621398925781 3 42.5 C 3 47.83378601074219 4.043960571289062 53.00643920898438 6.102882385253906 57.87425231933594 C 8.092185974121094 62.57753372192383 10.94070434570312 66.80213165283203 14.56928253173828 70.43071746826172 C 18.19786834716797 74.05929565429688 22.42246627807617 76.90781402587891 27.125732421875 78.89711761474609 C 31.99356079101562 80.95603942871094 37.16621398925781 82 42.5 82 C 47.83378601074219 82 53.00642395019531 80.95603942871094 57.87425231933594 78.89711761474609 C 62.57753372192383 76.90781402587891 66.80213165283203 74.05929565429688 70.43071746826172 70.43071746826172 C 74.05929565429688 66.80213165283203 76.90781402587891 62.57753372192383 78.89711761474609 57.87425231933594 C 80.95603942871094 53.00642395019531 82 47.83378601074219 82 42.5 C 82 37.16621398925781 80.95603942871094 31.99356079101562 78.89711761474609 27.125732421875 C 76.90781402587891 22.42246627807617 74.05929565429688 18.19786834716797 70.43071746826172 14.56928253173828 C 66.80213165283203 10.94070434570312 62.57753372192383 8.092185974121094 57.87425231933594 6.102882385253906 C 53.00643920898438 4.043960571289062 47.83378601074219 3 42.5 3 M 42.5 0 C 65.97209167480469 0 85 19.02789306640625 85 42.5 C 85 65.97209167480469 65.97209167480469 85 42.5 85 C 19.02789306640625 85 0 65.97209167480469 0 42.5 C 0 19.02789306640625 19.02789306640625 0 42.5 0 Z" stroke="none" fill="#9ec6e0"/>
                        </g>
                      </g>
                    </g>
                  </g>
                </g>
              </g>
            </g>
          </g>
        </g>
      </g>
      <g id="mundo" transform="translate(172.601 1048.314)">
        <g id="Group_1208650" data-name="Group 1208650" transform="translate(2.528 32.922)">
          <path id="Path_1077268" data-name="Path 1077268" d="M113.923,106.62a25.226,25.226,0,1,0,33.145-13.2A25.225,25.225,0,0,0,113.923,106.62Z" transform="translate(-95.616 -91.361)" fill="#00b2ca" fill-rule="evenodd"/>
          <path id="Path_1077269" data-name="Path 1077269" d="M148.56,138.444a19.848,19.848,0,1,0,26.086-10.373A19.858,19.858,0,0,0,148.56,138.444Z" transform="translate(-125.312 -121.068)" fill="#33c1d4" fill-rule="evenodd"/>
          <path id="Path_1077270" data-name="Path 1077270" d="M204.455,189.714a11.177,11.177,0,1,0,14.685-5.846A11.173,11.173,0,0,0,204.455,189.714Z" transform="translate(-173.228 -168.9)" fill="#5fc8d8" fill-rule="evenodd"/>
          <path id="Path_1077271" data-name="Path 1077271" d="M285.55,283.875a25.236,25.236,0,0,0,21.667-15.207,24.983,24.983,0,0,0,2.056-9.468c-8.808,7.626-.706,9.836-8.332,9.9-1.228.015-3.207-2.563-4.3-2.471-7.473.691-9.729,3.514-3.99,4.65,2.225.445,3.422.568,3.836,3.852.153,1.166-.767,3.345-3.176,4.619C290.905,281.036,284.583,280.99,285.55,283.875Z" transform="translate(-242.569 -233.445)" fill="#99ca3c" fill-rule="evenodd"/>
          <path id="Path_1077272" data-name="Path 1077272" d="M243.236,98.581A25.319,25.319,0,0,0,226.295,91.4c-1.151,2.532,7.811,4.312,4.573,6.936-.982.8-6.383,3.468-6.936-.859-.215-1.734-5.094-7.78-6.169,2.148-.583,5.355,2.471-2.21-1.366,8.608-.046.138,3.391,12.69,9.575-2.532,3.023-7.442,4.818,1.366,10.465-4.373,1.289-1.32,8.179,3.468,6.8-2.747Z" transform="translate(-184.112 -91.394)" fill="#99ca3c" fill-rule="evenodd"/>
          <path id="Path_1077273" data-name="Path 1077273" d="M214.6,270.386c.6,3.545-2.225,1.995-2.01,5.6.153,2.716,2.9,7.089,1.274,8.593-2.44,2.256-8.025,3.713-4.7-.8a1.773,1.773,0,0,0-1.289-2.839c-3.222-.123-7.995-4.65-3.176-6.184,2.946-.936,2.854,2.225,5.294-.138,1.642-1.6-.737-2.44.2-4.174C211.467,268.084,213.676,264.985,214.6,270.386Z" transform="translate(-172.475 -240.381)" fill="#99ca3c" fill-rule="evenodd"/>
          <path id="Path_1077274" data-name="Path 1077274" d="M8.654,221.29l7.933-.092a1.222,1.222,0,0,1,1.243,1.212c.031,2.685.092,7.8.123,10.5a1.231,1.231,0,0,1-1.212,1.243l-7.918.092a2.7,2.7,0,0,1-2.716-2.655L6,224.006A2.7,2.7,0,0,1,8.654,221.29Z" transform="translate(-5.999 -201.275)" fill="#b45a35" fill-rule="evenodd"/>
          <path id="Path_1077275" data-name="Path 1077275" d="M22.707,221.29l7.933-.092a1.222,1.222,0,0,1,1.243,1.212l.077,7.151-6.583.077a2.7,2.7,0,0,1-2.716-2.655L22.6,221.29Z" transform="translate(-20.053 -201.275)" fill="#dd6e42" fill-rule="evenodd"/>
          <path id="Path_1077276" data-name="Path 1077276" d="M83.1,197.8l10.91-6,.107,10.849.123,10.864-11.033-5.754-.046-4.987Z" transform="translate(-71.269 -176.388)" fill="#fdb614" fill-rule="evenodd"/>
          <path id="Path_1077277" data-name="Path 1077277" d="M94.618,279.7l.046,4.926-11.033-5.754L83.6,275.8Z" transform="translate(-71.692 -247.498)" fill="#cd962b" fill-rule="evenodd"/>
          <path id="Path_1077278" data-name="Path 1077278" d="M154.6,231.6a5.271,5.271,0,0,1,.107,9.5Z" transform="translate(-131.797 -210.08)" fill="#dd6e42" fill-rule="evenodd"/>
          <path id="Path_1077279" data-name="Path 1077279" d="M35.737,305.7c-3.176,3.944,1.381,8.624-2.823,8.655-1.043.015-2.24.184-2.087-1.089l.875-7.534Z" transform="translate(-27.005 -272.81)" fill="#dd6e42" fill-rule="evenodd"/>
          <path id="Path_1077280" data-name="Path 1077280" d="M57.528,305.6l-.368,4.02-2.194.031v-.015a5.726,5.726,0,0,1,1.212-4.02Z" transform="translate(-47.446 -272.725)" fill="#dd6e42" fill-rule="evenodd"/>
        </g>
        <path id="Path_1077281" data-name="Path 1077281" d="M13.684,77.306a.611.611,0,0,1,1.028-.66,34.62,34.62,0,1,0-3.867-28.4.617.617,0,0,1-1.182-.353,35.861,35.861,0,1,1,4.02,29.416Zm-.522-10.895-.307,3.468a.627.627,0,0,1-.6.568l-1.581.015c.2,2.21,1.059,4.649-2.256,4.68a12.043,12.043,0,0,1-1.289-.015c-.921-.107-1.565-.491-1.427-1.749l.8-6.89L5.321,66.5a3.3,3.3,0,0,1-3.33-3.268v-.046L1.9,55.67a3.3,3.3,0,0,1,3.268-3.33l7.933-.092a1.821,1.821,0,0,1,1.719,1.136l4.358-2.394c.138-.476.292-.951.445-1.412a25.881,25.881,0,1,1,.445,18.337l-5.11-2.67a1.849,1.849,0,0,1-1.8,1.166Zm-2.517,2.823,1.043-.015.246-2.808h-.353A4.924,4.924,0,0,0,10.646,69.235ZM29.628,54.411a.615.615,0,1,1-.721-1l2.133-1.519a.615.615,0,0,1,.721,1Zm-.583,10.373a.613.613,0,0,1,.691-1.013L31.546,65a.613.613,0,0,1-.691,1.013Zm1.995-5.064a.614.614,0,0,1-.015-1.228l2.072-.031a.614.614,0,0,1,.015,1.228ZM7.746,66.472l-.813,7.043c-.061.506.6.414,1.136.414.982-.031,1.642-.046,1.627-1.059A11.012,11.012,0,0,0,9.572,71.6a8.086,8.086,0,0,1,.537-5.141Zm18.2-12.414a5.878,5.878,0,0,1,.107,10.235l.061,5.739a.612.612,0,0,1-.905.537L21.817,68.8A24.628,24.628,0,0,0,44.788,82.753c-.077-2.9,6.015-2.916,8.225-4.1a6.027,6.027,0,0,0,2.133-1.872,3.254,3.254,0,0,0,.706-2.133c-.368-2.839-1.427-2.946-3.361-3.33-1.887-.368-4.128-1.212-3.683-2.823.506-1.857,4.542-2.747,7.734-3.038,1.427-.138,3.422,2.471,4.343,2.471,3.084-.015,3.084-.4,3.1-1.35.031-1.581.061-4.189,4.619-8.209A24.674,24.674,0,0,0,62.4,41.8a2,2,0,0,1-1.657,2.087c-1.765.4-5.064-1.089-5.509-.629C52.2,46.34,50.159,45.6,48.486,44.99c-1.274-.46-2.256-.813-3.575,2.455-2.041,5.033-4.634,9.023-7.488,7.626-2.363-1.151-3.253-5.432-3.222-5.54,1.979-5.57,2.578-5.54,2.317-5.555-.522-.015-1.289-.046-.982-2.9.353-3.284,1.32-6.337,3.621-6.107,1.887.184,3.606,2.777,3.759,3.944.184,1.534,1.074,2.026,2.5,1.841a8.079,8.079,0,0,0,3.437-1.381c.552-.445.537-.829.246-1.182-1.136-1.412-4.987-2.7-5.141-4.68A24.621,24.621,0,0,0,20.712,50.1l4.235-2.332a.609.609,0,0,1,.905.568Zm.092,8.777a4.649,4.649,0,0,0-.077-7.3ZM13.746,54.381c-.015-.246.061-.491-.184-.737a.653.653,0,0,0-.445-.184L5.2,53.552a2.106,2.106,0,0,0-2.056,2.1l.077,7.519v.061a2.083,2.083,0,0,0,2.1,2.041l7.918-.092a.629.629,0,0,0,.614-.629Zm1.335,9.545,9.805,5.11-.215-19.672-9.7,5.34Zm30.183-1.089c.368,2.148-.338,2.747-1.1,3.376a2.277,2.277,0,0,0-.905,2.3c.153,2.639,3.084,7.212,1.074,9.069-1.274,1.182-4.389,2.823-5.954,2.148a1.222,1.222,0,0,1-.8-1.136,4.435,4.435,0,0,1,1.151-2.624,1.154,1.154,0,0,0-.829-1.857c-2.793-.107-6.828-3.222-5.586-5.739a3.532,3.532,0,0,1,2.256-1.642,3.294,3.294,0,0,1,3.161.43c.506.307.89.537,1.872-.414,1.212-1.182-1.013-2.01.077-4.02.691-1.274,1.642-2.747,2.624-3.207,1.258-.614,2.394,0,2.962,3.314ZM43.377,65.26c.476-.4.921-.767.675-2.225-.368-2.1-.8-2.624-1.212-2.424A6.958,6.958,0,0,0,40.768,63.3c-.721,1.335,1.688,2.378-.307,4.327-1.657,1.611-2.424,1.151-3.376.583a2.26,2.26,0,0,0-2.164-.307c-1.136.368-1.857.921-1.534,1.9.506,1.534,2.931,3.023,4.557,3.084a2.383,2.383,0,0,1,1.765,3.806,3.657,3.657,0,0,0-.905,1.826c.015.184.506.153.737.123A8.233,8.233,0,0,0,43.5,76.677c1.2-1.1-1.32-5.478-1.473-8.1a3.313,3.313,0,0,1,1.35-3.314Zm1.857-31.7c.368,1.1,3.683,2.44,4.849,3.882.737.921.829,1.887-.445,2.916-.905.737-3.759,2.072-5.724,1.55a3.033,3.033,0,0,1-2.194-2.823c-.107-.89-2.164-3.775-3.453-2.578-.644.6-1.2,2.01-1.488,4.726-.169,1.55-.2,1.55-.184,1.55,1,.031,1.335.046-1.2,7.181-.015.061,1.136,3.315,2.593,4.02C39.863,54.9,42.026,51.4,43.822,47c1.765-4.358,3.238-3.821,5.125-3.13,1.35.491,2.977,1.074,5.463-1.442,1.212-1.228,4.45.675,6.123.307.583-.138.89-.721.568-2.317a24.472,24.472,0,0,0-7.335-4.864,25.032,25.032,0,0,0-8.532-1.995ZM68.558,60.135c-3.268,3.176-3.3,5.217-3.314,6.476-.031,1.841-.046,2.532-4.327,2.563-1.473.015-3.545-2.532-4.235-2.471-3.054.276-5.171.905-6.184,1.627-.414.292-.629.522-.368.8a5.7,5.7,0,0,0,2.823,1.059c2.378.46,3.667.721,4.128,4.327a4.561,4.561,0,0,1-.921,2.977,7.284,7.284,0,0,1-2.578,2.271c-2.1,1.12-7.243,1.366-7.534,2.946A24.676,24.676,0,0,0,68.558,60.135Z" transform="translate(0 0)"/>
      </g>
    </g>
  </g>
</svg>
