<svg xmlns="http://www.w3.org/2000/svg" xmlns:xlink="http://www.w3.org/1999/xlink" width="93.934" height="93.934" viewBox="0 0 93.934 93.934">
  <defs>
    <filter id="Path_982547" x="0" y="0" width="93.934" height="93.934" filterUnits="userSpaceOnUse">
      <feOffset dy="3" input="SourceAlpha"/>
      <feGaussianBlur stdDeviation="3" result="blur"/>
      <feFlood flood-opacity="0.161"/>
      <feComposite operator="in" in2="blur"/>
      <feComposite in="SourceGraphic"/>
    </filter>
  </defs>
  <g id="Group_1223814" data-name="Group 1223814" transform="translate(-1031.066 -2217.561)">
    <g id="Group_1223641" data-name="Group 1223641">
      <g id="Group_1220447" data-name="Group 1220447" transform="translate(840 -5850.439)">
        <g id="Group_1219553" data-name="Group 1219553" transform="translate(0 -381.729)">
          <g id="Group_1214711" data-name="Group 1214711" transform="translate(-0.229 3321.729)">
            <g id="Group_1214432" data-name="Group 1214432" transform="translate(-0.771 -2738.674)">
              <g id="Group_1183196" data-name="Group 1183196" transform="translate(1 1016.674)">
                <g id="Group_1179610" data-name="Group 1179610" transform="translate(8 4723.467)">
                  <g id="Group_1175227" data-name="Group 1175227" transform="translate(-5.967 140.533)">
                    <g id="Group_1167337" data-name="Group 1167337" transform="translate(198.033 1992)">
                      <g id="Group_1166720" data-name="Group 1166720">
                        <g id="Group_1164305" data-name="Group 1164305">
                          <g id="Group_1163948" data-name="Group 1163948">
                            <g id="Group_1158168" data-name="Group 1158168">
                              <g id="Group_1152576" data-name="Group 1152576">
                                <g id="Group_1148633" data-name="Group 1148633">
                                  <g id="Group_1148525" data-name="Group 1148525">
                                    <g transform="matrix(1, 0, 0, 1, -9, -6)" filter="url(#Path_982547)">
                                      <g id="Path_982547-2" data-name="Path 982547" transform="translate(9 6)" fill="#f7f4ed">
                                        <path d="M 37.966796875 74.43359375 C 33.04315185546875 74.43359375 28.26757431030273 73.46962738037109 23.77274131774902 71.56847381591797 C 19.43047523498535 69.73184967041016 15.53040790557861 67.10224914550781 12.18087482452393 63.75271987915039 C 8.831341743469238 60.4031867980957 6.201741218566895 56.50312042236328 4.365118980407715 52.16086196899414 C 2.463963508605957 47.66601943969727 1.499996900558472 42.89044189453125 1.499996900558472 37.966796875 C 1.499996900558472 33.04315185546875 2.463963508605957 28.26757431030273 4.365118980407715 23.77274131774902 C 6.201741218566895 19.43047523498535 8.831341743469238 15.53040790557861 12.18087482452393 12.18087482452393 C 15.53040790557861 8.831341743469238 19.43047523498535 6.201741218566895 23.77274131774902 4.365118980407715 C 28.26757431030273 2.463963508605957 33.04315185546875 1.499996900558472 37.966796875 1.499996900558472 C 42.89044189453125 1.499996900558472 47.66601943969727 2.463963508605957 52.16086196899414 4.365118980407715 C 56.50312042236328 6.201741218566895 60.4031867980957 8.831341743469238 63.75271987915039 12.18087482452393 C 67.10224914550781 15.53040790557861 69.73184967041016 19.43047523498535 71.56847381591797 23.77274131774902 C 73.46962738037109 28.26757431030273 74.43359375 33.04315185546875 74.43359375 37.966796875 C 74.43359375 42.89044189453125 73.46962738037109 47.66601943969727 71.56847381591797 52.16086196899414 C 69.73184967041016 56.50313186645508 67.10224914550781 60.4031867980957 63.75271987915039 63.75271987915039 C 60.4031867980957 67.10224914550781 56.50313186645508 69.73184967041016 52.16086196899414 71.56847381591797 C 47.66601943969727 73.46962738037109 42.89044189453125 74.43359375 37.966796875 74.43359375 Z" stroke="none"/>
                                        <path d="M 37.966796875 3 C 33.2449836730957 3 28.66600799560547 3.924095153808594 24.35705947875977 5.746635437011719 C 20.19359588623047 7.507637023925781 16.45379638671875 10.02928161621094 13.24153518676758 13.24153518676758 C 10.02927398681641 16.45379638671875 7.507621765136719 20.19359588623047 5.746635437011719 24.35705947875977 C 3.924095153808594 28.66600799560547 3 33.2449836730957 3 37.966796875 C 3 42.6886100769043 3.924095153808594 47.26758575439453 5.746635437011719 51.57653427124023 C 7.507621765136719 55.73999786376953 10.02927398681641 59.47979736328125 13.24153518676758 62.69205856323242 C 16.45379638671875 65.90431976318359 20.19359588623047 68.42597198486328 24.35705947875977 70.18695831298828 C 28.66600799560547 72.00949859619141 33.2449836730957 72.93359375 37.966796875 72.93359375 C 42.6886100769043 72.93359375 47.26758575439453 72.00949859619141 51.57653427124023 70.18695831298828 C 55.73999786376953 68.42597198486328 59.47979736328125 65.90431976318359 62.69205856323242 62.69205856323242 C 65.90431976318359 59.47979736328125 68.42597198486328 55.73999786376953 70.18695831298828 51.57653427124023 C 72.00949859619141 47.26758575439453 72.93359375 42.6886100769043 72.93359375 37.966796875 C 72.93359375 33.2449836730957 72.00949859619141 28.66600799560547 70.18695831298828 24.35705947875977 C 68.42597198486328 20.19359588623047 65.90431976318359 16.45379638671875 62.69205856323242 13.24153518676758 C 59.47979736328125 10.02928161621094 55.73999786376953 7.507637023925781 51.57653427124023 5.746635437011719 C 47.26758575439453 3.924095153808594 42.6886100769043 3 37.966796875 3 M 37.966796875 0 C 58.93528366088867 0 75.93359375 16.99832153320312 75.93359375 37.966796875 C 75.93359375 58.93528366088867 58.93528366088867 75.93359375 37.966796875 75.93359375 C 16.99831008911133 75.93359375 0 58.93528366088867 0 37.966796875 C 0 16.99832153320312 16.99831008911133 0 37.966796875 0 Z" stroke="none" fill="#655531"/>
                                      </g>
                                    </g>
                                  </g>
                                </g>
                              </g>
                            </g>
                          </g>
                        </g>
                      </g>
                    </g>
                  </g>
                </g>
              </g>
            </g>
          </g>
        </g>
      </g>
      <g id="democracia_3_" data-name="democracia (3)" transform="translate(1048.542 2240.511)">
        <g id="Group_1223639" data-name="Group 1223639" transform="translate(0.864 0.864)">
          <g id="Group_1223626" data-name="Group 1223626" transform="translate(20.409)">
            <path id="Path_1177035" data-name="Path 1177035" d="M235.36,104.612h4.735v5.9H235.36Z" transform="translate(-229.519 -93.425)" fill="#ae6c6c"/>
            <path id="Path_1177036" data-name="Path 1177036" d="M202.846,132.559v3.632H195.5l-.864-.23-.864.23H186.66v-3.4a2.367,2.367,0,0,1,2.051-2.347l.126-.279,3.434-.464,1.5,1.208.1.424.756.262.732-.238.142-.459,1.5-1.2,3.79.513A2.367,2.367,0,0,1,202.846,132.559Z" transform="translate(-186.43 -115.622)" fill="#6a7682"/>
            <path id="Path_1177037" data-name="Path 1177037" d="M187.067,133.731v6.027H184.66v-3.632a2.367,2.367,0,0,1,2.051-2.347Z" transform="translate(-184.66 -119.189)" fill="#5d6875"/>
            <path id="Path_1177038" data-name="Path 1177038" d="M225.925,32.844v2.738a3.157,3.157,0,0,1-1.091,2.387l-1.228,1.063a3.315,3.315,0,0,1-4.339,0l-1.228-1.063a3.157,3.157,0,0,1-1.091-2.387V32.844C219.945,29.1,222.937,29.09,225.925,32.844Z" transform="translate(-213.228 -27.437)" fill="#b98080"/>
            <path id="Path_1177039" data-name="Path 1177039" d="M224.906,10.855l-.481,2.075a3.467,3.467,0,0,0-1.905-.567,3.823,3.823,0,0,0-2.055.673.923.923,0,0,1-1.059,0,3.865,3.865,0,0,0-1.74-.657s-.251-.256-.356-.257a2.83,2.83,0,0,0-1.722.5l-.28-1.917a1.326,1.326,0,0,1,.238-1.239A3.841,3.841,0,0,1,217.6,8.053,4.893,4.893,0,0,0,218.2,7.7a7.167,7.167,0,0,1,1.742-.2A5.726,5.726,0,0,1,224.6,9.518,1.564,1.564,0,0,1,224.906,10.855Z" transform="translate(-211.728 -7.5)" fill="#6a7682"/>
            <path id="Path_1177040" data-name="Path 1177040" d="M214.77,11.8l.394,2.158c-.1-.012-.207-.018-.312-.02a3.461,3.461,0,0,0-1.905.568l-.48-2.071a1.569,1.569,0,0,1,.305-1.343A5.427,5.427,0,0,1,215.7,9.28a6.058,6.058,0,0,0-.628.814,2.416,2.416,0,0,0-.305,1.706Z" transform="translate(-209.226 -9.075)" fill="#5d6875"/>
          </g>
          <g id="Group_1223627" data-name="Group 1223627" transform="translate(0.116 6.631)">
            <path id="Path_1177041" data-name="Path 1177041" d="M8.672,72.208a3.855,3.855,0,0,0,2.9.446.747.747,0,0,1,.28.058c1.681-.388,3.362-1.315,5.044-1.136a3.307,3.307,0,0,1,1.5.408V66.143a.35.35,0,0,0-.17-.3,3.88,3.88,0,0,0-1.216-.628c-.036-.008-.112-.132-.112-.132-1.678-.178-3.358.742-5.033,1.134a.759.759,0,0,1-.219.165A3.781,3.781,0,0,1,9,66.125a.345.345,0,0,0-.5.31V71.91a.349.349,0,0,0,.17.3Z" transform="translate(-8.502 -65.062)" fill="#c1e9af"/>
          </g>
          <g id="Group_1223628" data-name="Group 1223628" transform="translate(47.246 6.687)">
            <path id="Path_1177042" data-name="Path 1177042" d="M427.455,72.751c-2.78,1.685-5.561-1.043-8.341-.747a1.671,1.671,0,0,0-1.383.063l-.115-5.5a.35.35,0,0,1,.17-.3,7.79,7.79,0,0,1,1.246-.7h0c2.672-.284,5.425,2.167,8.1.869a.345.345,0,0,1,.5.31v5.705A.35.35,0,0,1,427.455,72.751Z" transform="translate(-417.616 -65.545)" fill="#c1e9af"/>
          </g>
          <g id="Group_1223629" data-name="Group 1223629" transform="translate(7.431 21.657)">
            <path id="Path_1177043" data-name="Path 1177043" d="M118.308,242.281l-.058-33.764-40.67-.247.268,34.011H81.79l.306.115h8.732l.351-.115,10.578,0,.442.12h8.732l.261-.115Z" transform="translate(-76.937 -206.798)" fill="#7e8b96"/>
            <path id="Path_1177044" data-name="Path 1177044" d="M72,195.489v35.342h3.9l-.047-26.63a1.776,1.776,0,0,1,1.776-1.776H89.6l.79,2.3,4.747.355L96,202.425h13.535l1.846,2.278,2.994-2.34v-6.874H72Z" transform="translate(-72 -195.489)" fill="#6a7682"/>
          </g>
          <path id="Path_1177045" data-name="Path 1177045" d="M95.078,179.462H53.131l-.635.13-4.42-.015a.576.576,0,0,0-.576.576v2.886a.576.576,0,0,0,.576.576l4.192-.02.864.135H95.078a.576.576,0,0,0,.576-.576v-3.117A.576.576,0,0,0,95.078,179.462Z" transform="translate(-42.892 -159.652)" fill="#909ba6"/>
          <g id="Group_1223632" data-name="Group 1223632" transform="translate(0 26.486)">
            <path id="Path_1177046" data-name="Path 1177046" d="M24.543,249.409a2.234,2.234,0,0,0-2.169,1.474l-.228.609a17.97,17.97,0,0,0-.677,2.587v-12.9a1.634,1.634,0,0,0-1.54-1.631s-.05.127-.082.127a1.556,1.556,0,0,0-1.586,1.479c0,.034-.06.025-.06.025v-2.109a1.63,1.63,0,0,0-1.531-1.627s-.095.073-.128.073a1.475,1.475,0,0,0-1.487,1.584l-.008,1.881-.1.013a1.631,1.631,0,0,0-1.533-1.628l-.1.112a1.441,1.441,0,0,0-1.516,1.516v2.453l-.115.015a1.542,1.542,0,0,0-1.356-1.531l-.192.067a1.353,1.353,0,0,0-1.393,1.46l.089,11.706a6.357,6.357,0,0,0,1,3.267,8.331,8.331,0,0,1,.875,4.138v.346h9.619l.132-.346v-.142a4.063,4.063,0,0,1,2.081-3.546,4.063,4.063,0,0,0,2.081-3.546v-1.462a4.061,4.061,0,0,1,.314-1.565l.629-1.506a1.078,1.078,0,0,0-.789-1.473.808.808,0,0,1-.231.084Z" transform="translate(-8.597 -237.437)" fill="#ffdfd4"/>
            <path id="Path_1177047" data-name="Path 1177047" d="M9.926,292.256a9.248,9.248,0,0,1,1.152,4.442v.261l-.324.319-1.17-.013-.137-.307a7.691,7.691,0,0,0-.226-1.889,7.854,7.854,0,0,0-.8-1.961,7.066,7.066,0,0,1-.923-3.49V277.851a1.542,1.542,0,0,1,1.541-1.541,1.42,1.42,0,0,1,.187.012v13.3a5.363,5.363,0,0,0,.7,2.637Z" transform="translate(-7.5 -271.829)" fill="#feccbc"/>
            <path id="Path_1177048" data-name="Path 1177048" d="M36.42,459.693H26.779l.359-3.664,1-.475H36.42Z" transform="translate(-24.558 -430.423)" fill="#f2fbff"/>
            <path id="Path_1177049" data-name="Path 1177049" d="M24.4,455.554h1.632v4.139H24.4Z" transform="translate(-22.45 -430.423)" fill="#dfeef4"/>
            <path id="Path_1177050" data-name="Path 1177050" d="M15.079,486.485v-.628a.576.576,0,0,1,.576-.576l1.8-.08.328-.151H26.8a.576.576,0,0,1,.576.576v1.089a.576.576,0,0,1-.576.576H17.784l-.281-.146-1.848-.085A.576.576,0,0,1,15.079,486.485Z" transform="translate(-14.206 -456.522)" fill="#ade194"/>
            <path id="Path_1177051" data-name="Path 1177051" d="M16.015,485.05v2.241H13.656a.576.576,0,0,1-.576-.576v-1.089a.576.576,0,0,1,.576-.576Z" transform="translate(-12.437 -456.521)" fill="#97da7b"/>
            <g id="Group_1223630" data-name="Group 1223630" transform="translate(3.084)">
              <path id="Path_1177052" data-name="Path 1177052" d="M36,254.113v7.676a1.382,1.382,0,0,1-1.382,1.382.345.345,0,0,1-.346-.346v-7.085a1.632,1.632,0,0,1,1.63-1.631C35.934,254.11,35.966,254.111,36,254.113Z" transform="translate(-34.27 -252.186)" fill="#feccbc"/>
              <path id="Path_1177053" data-name="Path 1177053" d="M64.308,237.413v9.6a1.382,1.382,0,0,1-1.382,1.382.345.345,0,0,1-.346-.346v-9.01a1.63,1.63,0,0,1,1.63-1.63c.033,0,.066,0,.1,0Z" transform="translate(-59.319 -237.41)" fill="#feccbc"/>
              <path id="Path_1177054" data-name="Path 1177054" d="M92.6,255.693v7.494a1.382,1.382,0,0,1-1.382,1.382.346.346,0,0,1-.346-.346v-6.9A1.632,1.632,0,0,1,92.5,255.69c.032,0,.063,0,.094,0Z" transform="translate(-84.35 -253.584)" fill="#feccbc"/>
            </g>
            <g id="Group_1223631" data-name="Group 1223631" transform="translate(12.873 11.87)">
              <path id="Path_1177055" data-name="Path 1177055" d="M122.544,340.47l-.309.673-.873,2.1a5.136,5.136,0,0,0-.394,1.978v1a1.73,1.73,0,0,1-1.3,1.675.345.345,0,0,1-.426-.336v-2.341a6.874,6.874,0,0,1,.526-2.64l.238-.575a2.528,2.528,0,0,1,2.334-1.558A1.086,1.086,0,0,1,122.544,340.47Z" transform="translate(-119.24 -340.45)" fill="#feccbc"/>
            </g>
          </g>
          <g id="Group_1223635" data-name="Group 1223635" transform="translate(20.103 26.486)">
            <path id="Path_1177056" data-name="Path 1177056" d="M199.043,249.409a2.234,2.234,0,0,0-2.169,1.474l-.228.609a17.969,17.969,0,0,0-.677,2.587v-12.9a1.634,1.634,0,0,0-1.54-1.631s-.064.079-.1.079a1.552,1.552,0,0,0-1.545,1.537c0,.03-.087.015-.087.015v-2.109a1.63,1.63,0,0,0-1.531-1.627s-.095.073-.128.073a1.475,1.475,0,0,0-1.487,1.584l-.008,1.881-.1.013a1.631,1.631,0,0,0-1.533-1.628l-.1.112a1.441,1.441,0,0,0-1.516,1.516v2.453l-.115.015a1.542,1.542,0,0,0-1.356-1.531l-.192.067a1.353,1.353,0,0,0-1.393,1.46l.089,11.706a6.357,6.357,0,0,0,1,3.267,8.331,8.331,0,0,1,.875,4.138v.346h9.619l.132-.346v-.142a4.063,4.063,0,0,1,2.081-3.546,4.063,4.063,0,0,0,2.081-3.546v-1.462a4.061,4.061,0,0,1,.314-1.565l.629-1.506a1.078,1.078,0,0,0-.789-1.473A.809.809,0,0,1,199.043,249.409Z" transform="translate(-183.097 -237.437)" fill="#c59191"/>
            <path id="Path_1177057" data-name="Path 1177057" d="M184.426,292.256a9.247,9.247,0,0,1,1.152,4.442v.261l-.21.34-1.307-.029-.114-.312a7.691,7.691,0,0,0-.226-1.889,7.854,7.854,0,0,0-.8-1.961,7.066,7.066,0,0,1-.923-3.489V277.851a1.542,1.542,0,0,1,1.541-1.541,1.425,1.425,0,0,1,.187.012v13.3A5.364,5.364,0,0,0,184.426,292.256Z" transform="translate(-182 -271.829)" fill="#b98080"/>
            <path id="Path_1177058" data-name="Path 1177058" d="M210.92,459.693h-9.641l.359-3.664,1-.475h8.284Z" transform="translate(-199.058 -430.423)" fill="#f2fbff"/>
            <path id="Path_1177059" data-name="Path 1177059" d="M198.9,455.554h1.632v4.139H198.9Z" transform="translate(-196.95 -430.423)" fill="#dfeef4"/>
            <path id="Path_1177060" data-name="Path 1177060" d="M189.579,486.485v-.628a.576.576,0,0,1,.576-.576l1.8-.08.328-.151H201.3a.576.576,0,0,1,.576.576v1.089a.576.576,0,0,1-.576.576h-9.011l-.281-.146-1.848-.085A.576.576,0,0,1,189.579,486.485Z" transform="translate(-188.706 -456.522)" fill="#94d8e6"/>
            <path id="Path_1177061" data-name="Path 1177061" d="M190.515,485.05v2.241h-2.359a.576.576,0,0,1-.576-.576v-1.089a.576.576,0,0,1,.576-.576Z" transform="translate(-186.937 -456.521)" fill="#75c5d8"/>
            <g id="Group_1223633" data-name="Group 1223633" transform="translate(3.084)">
              <path id="Path_1177062" data-name="Path 1177062" d="M210.5,254.113v7.676a1.382,1.382,0,0,1-1.382,1.382.345.345,0,0,1-.346-.346v-7.085a1.632,1.632,0,0,1,1.63-1.631C210.434,254.11,210.466,254.111,210.5,254.113Z" transform="translate(-208.77 -252.186)" fill="#b98080"/>
              <path id="Path_1177063" data-name="Path 1177063" d="M238.808,237.413v9.6a1.382,1.382,0,0,1-1.382,1.382.345.345,0,0,1-.346-.346v-9.01a1.63,1.63,0,0,1,1.63-1.63c.033,0,.066,0,.1,0Z" transform="translate(-233.819 -237.41)" fill="#b98080"/>
              <path id="Path_1177064" data-name="Path 1177064" d="M267.1,255.693v7.494a1.382,1.382,0,0,1-1.382,1.382.346.346,0,0,1-.346-.346v-6.9A1.632,1.632,0,0,1,267,255.69c.032,0,.063,0,.094,0Z" transform="translate(-258.85 -253.584)" fill="#b98080"/>
            </g>
            <g id="Group_1223634" data-name="Group 1223634" transform="translate(12.873 11.87)">
              <path id="Path_1177065" data-name="Path 1177065" d="M297.044,340.47l-.309.673-.873,2.1a5.136,5.136,0,0,0-.394,1.978v1a1.73,1.73,0,0,1-1.3,1.675.345.345,0,0,1-.426-.336v-2.341a6.874,6.874,0,0,1,.526-2.64l.238-.575a2.528,2.528,0,0,1,2.334-1.558A1.087,1.087,0,0,1,297.044,340.47Z" transform="translate(-293.74 -340.45)" fill="#b98080"/>
            </g>
          </g>
          <g id="Group_1223638" data-name="Group 1223638" transform="translate(40.206 26.486)">
            <path id="Path_1177066" data-name="Path 1177066" d="M373.542,249.409a2.234,2.234,0,0,0-2.169,1.474l-.228.609a17.971,17.971,0,0,0-.677,2.587v-12.9a1.634,1.634,0,0,0-1.54-1.631s-.071.118-.1.118a1.513,1.513,0,0,0-1.475,1.468l-.15.044v-2.109a1.63,1.63,0,0,0-1.531-1.627s-.095.073-.128.073a1.475,1.475,0,0,0-1.487,1.584l-.008,1.881-.1.013a1.631,1.631,0,0,0-1.533-1.628l-.1.112a1.441,1.441,0,0,0-1.516,1.516v2.453l-.115.015a1.542,1.542,0,0,0-1.356-1.531l-.192.067a1.353,1.353,0,0,0-1.393,1.46l.089,11.706a6.357,6.357,0,0,0,1,3.267,8.331,8.331,0,0,1,.875,4.138v.346h9.619l.132-.346v-.142a4.063,4.063,0,0,1,2.081-3.546,4.063,4.063,0,0,0,2.081-3.546v-1.462a4.062,4.062,0,0,1,.314-1.565l.629-1.506a1.078,1.078,0,0,0-.789-1.473A.807.807,0,0,1,373.542,249.409Z" transform="translate(-357.596 -237.437)" fill="#ffdfd4"/>
            <path id="Path_1177067" data-name="Path 1177067" d="M358.926,292.256a9.246,9.246,0,0,1,1.152,4.442v.261l-.208.345-1.055-.032-.368-.314a7.69,7.69,0,0,0-.226-1.889,7.852,7.852,0,0,0-.8-1.961,7.066,7.066,0,0,1-.923-3.49V277.851a1.542,1.542,0,0,1,1.541-1.541,1.419,1.419,0,0,1,.187.012v13.3A5.364,5.364,0,0,0,358.926,292.256Z" transform="translate(-356.5 -271.829)" fill="#feccbc"/>
            <path id="Path_1177068" data-name="Path 1177068" d="M385.42,459.693h-9.641l.359-3.664,1-.475h8.284Z" transform="translate(-373.558 -430.423)" fill="#f2fbff"/>
            <path id="Path_1177069" data-name="Path 1177069" d="M373.4,455.554h1.632v4.139H373.4Z" transform="translate(-371.45 -430.423)" fill="#dfeef4"/>
            <path id="Path_1177070" data-name="Path 1177070" d="M364.079,486.485v-.628a.576.576,0,0,1,.576-.576l1.8-.08.328-.151H375.8a.576.576,0,0,1,.576.576v1.089a.576.576,0,0,1-.576.576h-9.011l-.281-.146-1.848-.085A.576.576,0,0,1,364.079,486.485Z" transform="translate(-363.206 -456.522)" fill="#ffd15b"/>
            <path id="Path_1177071" data-name="Path 1177071" d="M365.015,485.05v2.241h-2.359a.576.576,0,0,1-.576-.576v-1.089a.576.576,0,0,1,.576-.576Z" transform="translate(-361.437 -456.521)" fill="#ffc344"/>
            <g id="Group_1223636" data-name="Group 1223636" transform="translate(3.084)">
              <path id="Path_1177072" data-name="Path 1177072" d="M385,254.113v7.676a1.382,1.382,0,0,1-1.382,1.382.345.345,0,0,1-.346-.346v-7.085a1.632,1.632,0,0,1,1.63-1.631C384.934,254.11,384.966,254.111,385,254.113Z" transform="translate(-383.27 -252.186)" fill="#feccbc"/>
              <path id="Path_1177073" data-name="Path 1177073" d="M413.308,237.413v9.6a1.382,1.382,0,0,1-1.382,1.382.345.345,0,0,1-.346-.346v-9.01a1.63,1.63,0,0,1,1.63-1.63c.033,0,.066,0,.1,0Z" transform="translate(-408.319 -237.41)" fill="#feccbc"/>
              <path id="Path_1177074" data-name="Path 1177074" d="M441.6,255.693v7.494a1.382,1.382,0,0,1-1.382,1.382.346.346,0,0,1-.346-.346v-6.9a1.632,1.632,0,0,1,1.634-1.634c.032,0,.063,0,.094,0Z" transform="translate(-433.35 -253.584)" fill="#feccbc"/>
            </g>
            <g id="Group_1223637" data-name="Group 1223637" transform="translate(12.873 11.87)">
              <path id="Path_1177075" data-name="Path 1177075" d="M471.544,340.47l-.309.673-.873,2.1a5.136,5.136,0,0,0-.394,1.978v1a1.73,1.73,0,0,1-1.3,1.675.345.345,0,0,1-.426-.336v-2.341a6.874,6.874,0,0,1,.526-2.64l.238-.575a2.528,2.528,0,0,1,2.334-1.558A1.087,1.087,0,0,1,471.544,340.47Z" transform="translate(-468.24 -340.45)" fill="#feccbc"/>
            </g>
          </g>
          <path id="Path_1177076" data-name="Path 1177076" d="M52.246,179.46v4.269h-5.17a.576.576,0,0,1-.576-.576v-3.117a.576.576,0,0,1,.576-.576Z" transform="translate(-42.007 -159.65)" fill="#7e8b96"/>
          <path id="Path_1177077" data-name="Path 1177077" d="M10.977,73.226l-.01,6.494a4.193,4.193,0,0,1-3.3-.389.349.349,0,0,1-.17-.3v-5.7a.345.345,0,0,1,.5-.31,4.338,4.338,0,0,0,2.981.208Z" transform="translate(-7.499 -65.439)" fill="#ade194"/>
        </g>
        <g id="Group_1223640" data-name="Group 1223640" transform="translate(0 0)">
          <path id="Path_1177078" data-name="Path 1177078" d="M191.337,241.784a3.382,3.382,0,0,0-2.235.84v-8.107a2.5,2.5,0,0,0-3.281-2.372,2.494,2.494,0,0,0-4.935-.174,2.5,2.5,0,0,0-3.3,2.362v.159a2.409,2.409,0,0,0-3.084,2.31v11.768a7.956,7.956,0,0,0,1.035,3.915,6.688,6.688,0,0,1,.911,3.425v2.534h-.44a.864.864,0,0,0-.864.864v2.241a.864.864,0,0,0,1.728,0V260.17h10.795v1.377a.864.864,0,0,0,1.728,0v-2.241a.864.864,0,0,0-.864-.864h-.44v-2.676a3.249,3.249,0,0,1,1.638-2.792,4.931,4.931,0,0,0,2.523-4.3v-1.462a3.184,3.184,0,0,1,.247-1.232l.629-1.506a1.941,1.941,0,0,0-1.791-2.689Zm-13.161,16.659v-1.67h8.187v1.67Zm13.358-14.635-.629,1.507a4.9,4.9,0,0,0-.38,1.9v1.462a3.2,3.2,0,0,1-1.638,2.792,4.932,4.932,0,0,0-2.468,3.579h-8.283a8.468,8.468,0,0,0-1.095-3.413,6.224,6.224,0,0,1-.811-3.063V236.8a.678.678,0,0,1,1.356,0v4.622a.864.864,0,1,0,1.728,0v-7.09a.767.767,0,0,1,1.534,0v7.09a.864.864,0,1,0,1.728,0v-9.015a.766.766,0,0,1,1.531,0v9.015a.864.864,0,0,0,1.728,0v-6.906a.77.77,0,0,1,1.539,0v13.906a.864.864,0,1,0,1.728,0v-1a5.992,5.992,0,0,1,.46-2.309l.238-.574a1.659,1.659,0,0,1,1.537-1.026.213.213,0,0,1,.2.3Z" transform="translate(-154.398 -203.427)"/>
          <path id="Path_1177079" data-name="Path 1177079" d="M52.724,15.467a10.309,10.309,0,0,0,3.242.708,4.592,4.592,0,0,0,2.635-.81.864.864,0,0,0,.382-.717V8.156a.864.864,0,0,0-1.346-.717c-1.353.909-2.748.441-4.363-.1-1.789-.6-3.817-1.282-5.877.1a.864.864,0,0,0-.382.717V19.81h-3.9V16.3a2.023,2.023,0,0,0-.643-1.476l-2.733-2.543a.864.864,0,1,0-1.177,1.265L41.3,16.091a.289.289,0,0,1,.092.211v3.509H38.564V18.492a3.243,3.243,0,0,0-2.8-3.2l-3.041-.411V12.694c0-.007,0-.013,0-.02l.722-.625a4.018,4.018,0,0,0,1.389-3.04V6.393l.458-1.98a2.412,2.412,0,0,0-.47-2.075A6.6,6.6,0,0,0,29.492,0a6.642,6.642,0,0,0-5.343,2.335,2.444,2.444,0,0,0-.478,2.084l.457,1.976V9.008a4.019,4.019,0,0,0,1.389,3.04l.742.642s0,0,0,0v2.184l-3.042.411a3.243,3.243,0,0,0-2.8,3.2V19.81H17.592V16.3a.289.289,0,0,1,.092-.211l2.733-2.543a.864.864,0,0,0-1.177-1.265l-2.733,2.543a2.023,2.023,0,0,0-.643,1.476V19.81h-3.9V8.156a.864.864,0,0,0-.382-.717,4.711,4.711,0,0,0-3.274-.773A.864.864,0,1,0,8.5,8.383a3.022,3.022,0,0,1,1.739.267V13.3a7.548,7.548,0,0,0-4.531.533c-1.463.492-2.746.922-3.981.322V9.5a5.685,5.685,0,0,0,2.958-.046A.864.864,0,1,0,4.269,7.78a3.328,3.328,0,0,1-2.923-.341A.864.864,0,0,0,0,8.156v6.492a.864.864,0,0,0,.382.717,4.592,4.592,0,0,0,2.635.81,10.314,10.314,0,0,0,3.242-.708c1.464-.492,2.746-.922,3.981-.322V19.81H5.357a.864.864,0,0,0-.864.864v3.693a.864.864,0,0,0,.864.864H7.431v1.694a2.5,2.5,0,0,0-1.047,1.618,2.5,2.5,0,0,0-3.3,2.362v.159A2.409,2.409,0,0,0,0,33.373V45.141a7.956,7.956,0,0,0,1.035,3.915,6.688,6.688,0,0,1,.911,3.425v2.534h-.44a.864.864,0,0,0-.864.864v2.241a.864.864,0,0,0,1.728,0V56.743H13.166v1.377a.864.864,0,0,0,1.728,0V55.879a.864.864,0,0,0-.864-.864h-.44V52.339a3.2,3.2,0,0,1,1.638-2.792,4.931,4.931,0,0,0,2.523-4.3V43.784A3.184,3.184,0,0,1,18,42.552l.629-1.506a1.941,1.941,0,0,0-1.791-2.689,3.382,3.382,0,0,0-2.235.84V36.44a.864.864,0,0,0-1.728,0V45A.864.864,0,1,0,14.6,45v-1a5.992,5.992,0,0,1,.46-2.309l.238-.574a1.659,1.659,0,0,1,1.537-1.026.213.213,0,0,1,.2.3L16.4,41.886a4.9,4.9,0,0,0-.38,1.9v1.462a3.2,3.2,0,0,1-1.638,2.792,4.932,4.932,0,0,0-2.468,3.579H3.633A8.468,8.468,0,0,0,2.539,48.2a6.224,6.224,0,0,1-.811-3.063V33.373a.678.678,0,0,1,1.356,0V38a.864.864,0,0,0,1.728,0V30.9a.767.767,0,1,1,1.534,0V38a.864.864,0,0,0,1.728,0V28.98a.766.766,0,1,1,1.531,0V38a.864.864,0,0,0,1.728,0V31.09a.77.77,0,0,1,1.539,0v1.318a.864.864,0,0,0,1.728,0V31.09a2.5,2.5,0,0,0-3.281-2.372,2.5,2.5,0,0,0-2.161-2.208V25.231H49.825v1.383a2.486,2.486,0,0,0-3.235,1.929,2.5,2.5,0,0,0-3.3,2.362v.159a2.409,2.409,0,0,0-3.084,2.31v6.92a.864.864,0,0,0,1.728,0v-6.92a.678.678,0,0,1,1.356,0V38a.864.864,0,0,0,1.728,0V30.9a.767.767,0,1,1,1.534,0V38a.864.864,0,0,0,1.728,0V28.98a.766.766,0,0,1,1.531,0V38a.864.864,0,1,0,1.728,0V31.09a.77.77,0,1,1,1.539,0V45a.864.864,0,0,0,1.728,0v-1a5.992,5.992,0,0,1,.46-2.309l.238-.574a1.659,1.659,0,0,1,1.537-1.026.213.213,0,0,1,.2.3l-.629,1.506a4.9,4.9,0,0,0-.38,1.9v1.462a3.2,3.2,0,0,1-1.638,2.792,4.932,4.932,0,0,0-2.468,3.579H43.839A8.468,8.468,0,0,0,42.744,48.2a6.224,6.224,0,0,1-.811-3.063v-.816a.864.864,0,1,0-1.728,0v.816a7.956,7.956,0,0,0,1.035,3.915,6.688,6.688,0,0,1,.911,3.425v2.534h-.44a.864.864,0,0,0-.864.864v2.241a.864.864,0,0,0,1.728,0V56.743H53.371v1.377a.864.864,0,0,0,1.728,0V55.879a.864.864,0,0,0-.864-.864H53.8V52.339a3.2,3.2,0,0,1,1.638-2.792,4.931,4.931,0,0,0,2.523-4.3V43.784a3.184,3.184,0,0,1,.247-1.232l.629-1.506a1.941,1.941,0,0,0-1.791-2.689,3.382,3.382,0,0,0-2.235.84V31.09a2.5,2.5,0,0,0-3.253-2.38V25.231h2.074a.864.864,0,0,0,.864-.864V20.674a.864.864,0,0,0-.864-.864H48.744V15.144c1.235-.6,2.517-.169,3.981.322ZM11.862,55.015H3.674v-1.67h8.187v1.67Zm32.018,0v-1.67h8.187v1.67Zm-14.4-38.594-1.5-1.2V13.851A4.218,4.218,0,0,0,31,13.843v1.374Zm-4-12.993a4.9,4.9,0,0,1,4-1.7,4.851,4.851,0,0,1,3.986,1.7.7.7,0,0,1,.131.6h0l-.241,1.039a4.35,4.35,0,0,0-1.3-.2,4.935,4.935,0,0,0-2.558.835.061.061,0,0,1-.062,0,4.672,4.672,0,0,0-2.534-.83,4.926,4.926,0,0,0-1.316.2l-.239-1.034a.7.7,0,0,1,.133-.6Zm.369,3.381a2.606,2.606,0,0,1,1.035-.217,2.946,2.946,0,0,1,1.566.521,1.791,1.791,0,0,0,1.023.32A1.77,1.77,0,0,0,30.514,7.1a2.982,2.982,0,0,1,1.571-.511,2.611,2.611,0,0,1,1.021.217v2.2a2.291,2.291,0,0,1-.792,1.734L31.086,11.8a2.464,2.464,0,0,1-3.208,0l-1.228-1.063a2.292,2.292,0,0,1-.792-1.734Zm-3.71,11.683A1.509,1.509,0,0,1,23.45,17l3.422-.462,1.756,1.411V19.81h-6.48V18.492ZM52.762,23.5H6.221V21.538h25.4a.864.864,0,1,0,0-1.728H30.356V17.936l1.754-1.4L35.534,17a1.509,1.509,0,0,1,1.3,1.49V19.81H35.651a.864.864,0,0,0,0,1.728H52.762ZM48.744,8.653c1.235-.6,2.518-.169,3.981.322a7.55,7.55,0,0,0,4.531.533v4.643c-1.235.6-2.517.169-3.981-.322a10.309,10.309,0,0,0-3.242-.708,4.655,4.655,0,0,0-1.289.176Z" transform="translate(0 0)"/>
        </g>
      </g>
    </g>
  </g>
</svg>
