<svg xmlns="http://www.w3.org/2000/svg" xmlns:xlink="http://www.w3.org/1999/xlink" width="110" height="110" viewBox="0 0 110 110">
  <defs>
    <filter id="Path_982547" x="0" y="0" width="110" height="110" filterUnits="userSpaceOnUse">
      <feOffset dy="3" input="SourceAlpha"/>
      <feGaussianBlur stdDeviation="3" result="blur"/>
      <feFlood flood-opacity="0.161"/>
      <feComposite operator="in" in2="blur"/>
      <feComposite in="SourceGraphic"/>
    </filter>
  </defs>
  <g id="Group_1223843" data-name="Group 1223843" transform="translate(-3709 -1960.069)">
    <g id="Group_1223781" data-name="Group 1223781">
      <g id="Group_1221875" data-name="Group 1221875" transform="translate(3017 -4114.21)">
        <g id="Group_1200151" data-name="Group 1200151" transform="translate(701 6080.28)">
          <g id="Group_1185952" data-name="Group 1185952" transform="translate(0 0)">
            <g id="Group_1184115" data-name="Group 1184115">
              <g id="Group_1183744" data-name="Group 1183744" transform="translate(0 0)">
                <g id="Group_1181546" data-name="Group 1181546">
                  <g id="Group_1177563" data-name="Group 1177563">
                    <g id="Group_1173148" data-name="Group 1173148" transform="translate(0 0)">
                      <g id="Group_1163803" data-name="Group 1163803" transform="translate(0 0)">
                        <g id="Group_1163015" data-name="Group 1163015" transform="translate(0 0)">
                          <g id="Group_1157017" data-name="Group 1157017" transform="translate(0 0)">
                            <g id="Group_1155793" data-name="Group 1155793" transform="translate(0 0)">
                              <g id="Group_1154704" data-name="Group 1154704" transform="translate(0 0)">
                                <g id="Group_1150790" data-name="Group 1150790">
                                  <g id="Group_1154214" data-name="Group 1154214">
                                    <g id="Group_1152583" data-name="Group 1152583">
                                      <g id="Group_1146973" data-name="Group 1146973">
                                        <g id="Group_1146954" data-name="Group 1146954">
                                          <g transform="matrix(1, 0, 0, 1, -9, -6)" filter="url(#Path_982547)">
                                            <g id="Path_982547-2" data-name="Path 982547" transform="translate(9 6)" fill="#f2d944">
                                              <path d="M 46.00000762939453 90.49988555908203 C 39.99188613891602 90.49988555908203 34.16427612304688 89.32352447509766 28.67906188964844 87.00347137451172 C 23.38020706176758 84.76226043701172 18.62104797363281 81.55342864990234 14.53375434875488 77.46615600585938 C 10.44647407531738 73.37887573242188 7.237647533416748 68.61971282958984 4.996420860290527 63.32085800170898 C 2.676367521286011 57.83565902709961 1.500007629394531 52.00806045532227 1.500007629394531 45.99993896484375 C 1.500007629394531 39.99181747436523 2.676367521286011 34.16421890258789 4.996420860290527 28.67901802062988 C 7.237647533416748 23.38017845153809 10.44647407531738 18.62101936340332 14.53375434875488 14.53373908996582 C 18.62104797363281 10.44645881652832 23.38020706176758 7.237632274627686 28.67906188964844 4.996418952941895 C 34.16427612304688 2.676365613937378 39.99188613891602 1.500005602836609 46.00000762939453 1.500005602836609 C 52.00812911987305 1.500005602836609 57.83573913574219 2.676365613937378 63.32095336914062 4.996418952941895 C 68.61980438232422 7.237632274627686 73.37896728515625 10.44645881652832 77.46626281738281 14.53373908996582 C 81.55354309082031 18.62101936340332 84.76236724853516 23.38017845153809 87.00359344482422 28.67901802062988 C 89.32364654541016 34.16421890258789 90.50000762939453 39.99181747436523 90.50000762939453 45.99993896484375 C 90.50000762939453 52.00806045532227 89.32364654541016 57.83565902709961 87.00359344482422 63.32085800170898 C 84.76236724853516 68.61971282958984 81.55354309082031 73.37887573242188 77.46626281738281 77.46615600585938 C 73.37896728515625 81.55342864990234 68.61980438232422 84.76226043701172 63.32095336914062 87.00347137451172 C 57.83573913574219 89.32352447509766 52.00812911987305 90.49988555908203 46.00000762939453 90.49988555908203 Z" stroke="none"/>
                                              <path d="M 46.00000762939453 2.999992370605469 C 40.19372177124023 2.999992370605469 34.56270599365234 4.136497497558594 29.26339340209961 6.377906799316406 C 24.14333343505859 8.543510437011719 19.54441833496094 11.64437866210938 15.59440612792969 15.59439849853516 C 11.6444091796875 19.54439544677734 8.543525695800781 24.14329528808594 6.377922058105469 29.26335144042969 C 4.136505126953125 34.56266784667969 3.000007629394531 40.19366836547852 3.000007629394531 45.99993896484375 C 3.000007629394531 51.80620956420898 4.136505126953125 57.43722534179688 6.377922058105469 62.73654174804688 C 8.543525695800781 67.85658264160156 11.6444091796875 72.45548248291016 15.59440612792969 76.40549468994141 C 19.54441833496094 80.35549926757812 24.14333343505859 83.45636749267578 29.26337814331055 85.62196350097656 C 34.56270599365234 87.86338043212891 40.19372177124023 88.9998779296875 46.00000762939453 88.9998779296875 C 51.80629348754883 88.9998779296875 57.43730926513672 87.86338043212891 62.73662185668945 85.62196350097656 C 67.85668182373047 83.45636749267578 72.45558166503906 80.35549926757812 76.40559387207031 76.40549468994141 C 80.35560607910156 72.45548248291016 83.45648193359375 67.85658264160156 85.62207794189453 62.73654174804688 C 87.86351013183594 57.43722534179688 89.00000762939453 51.80620956420898 89.00000762939453 45.99993896484375 C 89.00000762939453 40.19366836547852 87.86351013183594 34.56266784667969 85.62207794189453 29.26335144042969 C 83.45648193359375 24.14329528808594 80.35560607910156 19.54439544677734 76.40559387207031 15.59439849853516 C 72.45558166503906 11.64437866210938 67.85668182373047 8.543510437011719 62.73662185668945 6.377906799316406 C 57.43729400634766 4.136497497558594 51.80629348754883 2.999992370605469 46.00000762939453 2.999992370605469 M 46.00000762939453 -7.62939453125e-06 C 71.40509033203125 -7.62939453125e-06 92.00000762939453 20.59487915039062 92.00000762939453 45.99993896484375 C 92.00000762939453 71.40501403808594 71.40509033203125 91.99988555908203 46.00000762939453 91.99988555908203 C 20.59490966796875 91.99988555908203 7.62939453125e-06 71.40501403808594 7.62939453125e-06 45.99993896484375 C 7.62939453125e-06 20.59487915039062 20.59490966796875 -7.62939453125e-06 46.00000762939453 -7.62939453125e-06 Z" stroke="none" fill="#ba9c5a"/>
                                            </g>
                                          </g>
                                        </g>
                                      </g>
                                    </g>
                                  </g>
                                </g>
                              </g>
                            </g>
                          </g>
                        </g>
                      </g>
                    </g>
                  </g>
                </g>
              </g>
            </g>
          </g>
        </g>
      </g>
      <g id="team-leader_8339999" transform="translate(3707.444 1917.438)">
        <g id="Group_1223779" data-name="Group 1223779" transform="translate(10 53.323)">
          <path id="Path_1177332" data-name="Path 1177332" d="M215.406,53.323l3.228,5.448,6.178,1.386-4.183,4.753.591,6.3-5.813-2.51-5.813,2.51.591-6.3L206,60.157l6.178-1.386Z" transform="translate(-169.128 -53.323)" fill="#ffee79"/>
          <path id="Path_1177333" data-name="Path 1177333" d="M172.606,341.169H154.286A12.286,12.286,0,0,0,142,353.455v7.938a1.881,1.881,0,0,0,1.881,1.881h39.129a1.881,1.881,0,0,0,1.881-1.881v-7.938A12.286,12.286,0,0,0,172.606,341.169Z" transform="translate(-117.168 -287.019)" fill="#ff7e98"/>
          <path id="Path_1177334" data-name="Path 1177334" d="M199.361,209.421a11.5,11.5,0,0,1,7.118-3.225q.4-.028.808-.028h0a11.287,11.287,0,0,1,11.287,11.287v2.822a11.287,11.287,0,0,1-11.287,11.287h0A11.287,11.287,0,0,1,196,220.277v-2.822q0-.165,0-.328A11.566,11.566,0,0,1,199.361,209.421Z" transform="translate(-161.009 -177.415)" fill="#ffd0c7"/>
          <path id="Path_1177335" data-name="Path 1177335" d="M387.719,350.646H377.113A7.113,7.113,0,0,0,370,357.759v5.685h22.951a1.881,1.881,0,0,0,1.881-1.881v-3.8A7.113,7.113,0,0,0,387.719,350.646Z" transform="translate(-302.276 -294.713)" fill="#60b6ff"/>
          <path id="Path_1177336" data-name="Path 1177336" d="M407.8,287.19h0a6.535,6.535,0,0,1-6.535-6.535v-1.634a6.535,6.535,0,0,1,6.535-6.535h0a6.535,6.535,0,0,1,6.535,6.535v1.634A6.535,6.535,0,0,1,407.8,287.19Z" transform="translate(-327.658 -231.257)" fill="#ffd0c7"/>
          <path id="Path_1177337" data-name="Path 1177337" d="M17.113,350.646H27.719a7.113,7.113,0,0,1,7.113,7.113v5.685H11.881A1.881,1.881,0,0,1,10,361.563v-3.8A7.113,7.113,0,0,1,17.113,350.646Z" transform="translate(-10 -294.713)" fill="#9eecba"/>
          <path id="Path_1177338" data-name="Path 1177338" d="M47.8,287.19h0a6.535,6.535,0,0,0,6.535-6.535v-1.634a6.535,6.535,0,0,0-6.535-6.535h0a6.535,6.535,0,0,0-6.535,6.535v1.634A6.535,6.535,0,0,0,47.8,287.19Z" transform="translate(-35.382 -231.257)" fill="#ffd0c7"/>
        </g>
        <g id="Group_1223780" data-name="Group 1223780" transform="translate(10 53.323)">
          <path id="Path_1177339" data-name="Path 1177339" d="M215.406,53.323l3.228,5.448,6.178,1.386-4.183,4.753.591,6.3-5.813-2.51-5.813,2.51.591-6.3L206,60.157l6.178-1.386Z" transform="translate(-169.128 -53.323)" fill="none" stroke="#000" stroke-linecap="round" stroke-linejoin="round" stroke-miterlimit="10" stroke-width="2"/>
          <line id="Line_713" data-name="Line 713" x2="5.321" transform="translate(67.085 9.406)" fill="none" stroke="#000" stroke-linecap="round" stroke-linejoin="round" stroke-miterlimit="10" stroke-width="2"/>
          <line id="Line_714" data-name="Line 714" x2="4.31" y2="3.12" transform="translate(63.326 15.692)" fill="none" stroke="#000" stroke-linecap="round" stroke-linejoin="round" stroke-miterlimit="10" stroke-width="2"/>
          <line id="Line_715" data-name="Line 715" y1="3.12" x2="4.31" transform="translate(63.326 0)" fill="none" stroke="#000" stroke-linecap="round" stroke-linejoin="round" stroke-miterlimit="10" stroke-width="2"/>
          <line id="Line_716" data-name="Line 716" x1="5.321" transform="translate(20.15 9.406)" fill="none" stroke="#000" stroke-linecap="round" stroke-linejoin="round" stroke-miterlimit="10" stroke-width="2"/>
          <line id="Line_717" data-name="Line 717" x1="4.31" y2="3.12" transform="translate(24.919 15.692)" fill="none" stroke="#000" stroke-linecap="round" stroke-linejoin="round" stroke-miterlimit="10" stroke-width="2"/>
          <line id="Line_718" data-name="Line 718" x1="4.31" y1="3.12" transform="translate(24.919 0)" fill="none" stroke="#000" stroke-linecap="round" stroke-linejoin="round" stroke-miterlimit="10" stroke-width="2"/>
          <path id="Path_1177340" data-name="Path 1177340" d="M172.606,341.169H154.286A12.286,12.286,0,0,0,142,353.455v7.938a1.881,1.881,0,0,0,1.881,1.881h39.129a1.881,1.881,0,0,0,1.881-1.881v-7.938A12.286,12.286,0,0,0,172.606,341.169Z" transform="translate(-117.168 -287.019)" fill="none" stroke="#000" stroke-linecap="round" stroke-linejoin="round" stroke-miterlimit="10" stroke-width="2"/>
          <line id="Line_719" data-name="Line 719" y2="6.499" transform="translate(55.713 69.757)" fill="none" stroke="#000" stroke-linecap="round" stroke-linejoin="round" stroke-miterlimit="10" stroke-width="2"/>
          <line id="Line_720" data-name="Line 720" y1="6.499" transform="translate(36.843 69.757)" fill="none" stroke="#000" stroke-linecap="round" stroke-linejoin="round" stroke-miterlimit="10" stroke-width="2"/>
          <path id="Path_1177341" data-name="Path 1177341" d="M206.48,206.2q.4-.028.808-.028h0a11.287,11.287,0,0,1,11.287,11.287v2.822a11.287,11.287,0,0,1-11.287,11.287h0A11.287,11.287,0,0,1,196,220.278v-2.822q0-.165,0-.328" transform="translate(-161.009 -177.415)" fill="none" stroke="#000" stroke-linecap="round" stroke-linejoin="round" stroke-miterlimit="10" stroke-width="2"/>
          <line id="Line_721" data-name="Line 721" transform="translate(38.352 32.007)" fill="none" stroke="#000" stroke-linecap="round" stroke-linejoin="round" stroke-miterlimit="10" stroke-width="2"/>
          <path id="Path_1177342" data-name="Path 1177342" d="M387.719,350.646H377.113A7.113,7.113,0,0,0,370,357.759v5.685h22.951a1.881,1.881,0,0,0,1.881-1.881v-3.8A7.113,7.113,0,0,0,387.719,350.646Z" transform="translate(-302.276 -294.713)" fill="none" stroke="#000" stroke-linecap="round" stroke-linejoin="round" stroke-miterlimit="10" stroke-width="2"/>
          <line id="Line_722" data-name="Line 722" y2="3.762" transform="translate(85.602 64.969)" fill="none" stroke="#000" stroke-linecap="round" stroke-linejoin="round" stroke-miterlimit="10" stroke-width="2"/>
          <line id="Line_723" data-name="Line 723" y1="3.762" transform="translate(74.677 64.969)" fill="none" stroke="#000" stroke-linecap="round" stroke-linejoin="round" stroke-miterlimit="10" stroke-width="2"/>
          <path id="Path_1177343" data-name="Path 1177343" d="M407.8,287.19h0a6.535,6.535,0,0,1-6.535-6.535v-1.634a6.535,6.535,0,0,1,6.535-6.535h0a6.535,6.535,0,0,1,6.535,6.535v1.634A6.535,6.535,0,0,1,407.8,287.19Z" transform="translate(-327.658 -231.257)" fill="none" stroke="#000" stroke-linecap="round" stroke-linejoin="round" stroke-miterlimit="10" stroke-width="2"/>
          <path id="Path_1177344" data-name="Path 1177344" d="M17.113,350.646H27.719a7.113,7.113,0,0,1,7.113,7.113v5.685H11.881A1.881,1.881,0,0,1,10,361.563v-3.8A7.113,7.113,0,0,1,17.113,350.646Z" transform="translate(-10 -294.713)" fill="none" stroke="#000" stroke-linecap="round" stroke-linejoin="round" stroke-miterlimit="10" stroke-width="2"/>
          <line id="Line_724" data-name="Line 724" y2="3.762" transform="translate(6.954 64.969)" fill="none" stroke="#000" stroke-linecap="round" stroke-linejoin="round" stroke-miterlimit="10" stroke-width="2"/>
          <line id="Line_725" data-name="Line 725" y1="3.762" transform="translate(17.878 64.969)" fill="none" stroke="#000" stroke-linecap="round" stroke-linejoin="round" stroke-miterlimit="10" stroke-width="2"/>
          <path id="Path_1177345" data-name="Path 1177345" d="M47.8,287.19h0a6.535,6.535,0,0,0,6.535-6.535v-1.634a6.535,6.535,0,0,0-6.535-6.535h0a6.535,6.535,0,0,0-6.535,6.535v1.634A6.535,6.535,0,0,0,47.8,287.19Z" transform="translate(-35.382 -231.257)" fill="none" stroke="#000" stroke-linecap="round" stroke-linejoin="round" stroke-miterlimit="10" stroke-width="2"/>
        </g>
      </g>
    </g>
  </g>
</svg>
