<svg xmlns="http://www.w3.org/2000/svg" xmlns:xlink="http://www.w3.org/1999/xlink" width="93.934" height="93.934" viewBox="0 0 93.934 93.934">
  <defs>
    <filter id="Path_978624" x="0" y="0" width="93.934" height="93.934" filterUnits="userSpaceOnUse">
      <feOffset dy="3" input="SourceAlpha"/>
      <feGaussianBlur stdDeviation="3" result="blur"/>
      <feFlood flood-opacity="0.161"/>
      <feComposite operator="in" in2="blur"/>
      <feComposite in="SourceGraphic"/>
    </filter>
  </defs>
  <g id="Group_1209793" data-name="Group 1209793" transform="translate(-610 -5275.033)">
    <g id="Group_1209306" data-name="Group 1209306" transform="translate(0 29.445)">
      <g id="Group_1208072" data-name="Group 1208072" transform="translate(413 3815.588)">
        <g id="Group_1144123" data-name="Group 1144123" transform="translate(206 1436)">
          <g transform="matrix(1, 0, 0, 1, -9, -6)" filter="url(#Path_978624)">
            <g id="Path_978624-2" data-name="Path 978624" transform="translate(9 6)" fill="#efeadd">
              <path d="M 37.966796875 74.43359375 C 33.04315185546875 74.43359375 28.26757431030273 73.46962738037109 23.77274131774902 71.56847381591797 C 19.43047523498535 69.73184967041016 15.53040790557861 67.10224914550781 12.18087482452393 63.75271987915039 C 8.831341743469238 60.4031867980957 6.201741218566895 56.50312042236328 4.365118980407715 52.16086196899414 C 2.463963508605957 47.66601943969727 1.499996900558472 42.89044189453125 1.499996900558472 37.966796875 C 1.499996900558472 33.04315185546875 2.463963508605957 28.26757431030273 4.365118980407715 23.77274131774902 C 6.201741218566895 19.43047523498535 8.831341743469238 15.53040790557861 12.18087482452393 12.18087482452393 C 15.53040790557861 8.831341743469238 19.43047523498535 6.201741218566895 23.77274131774902 4.365118980407715 C 28.26757431030273 2.463963508605957 33.04315185546875 1.499996900558472 37.966796875 1.499996900558472 C 42.89044189453125 1.499996900558472 47.66601943969727 2.463963508605957 52.16086196899414 4.365118980407715 C 56.50312042236328 6.201741218566895 60.4031867980957 8.831341743469238 63.75271987915039 12.18087482452393 C 67.10224914550781 15.53040790557861 69.73184967041016 19.43047523498535 71.56847381591797 23.77274131774902 C 73.46962738037109 28.26757431030273 74.43359375 33.04315185546875 74.43359375 37.966796875 C 74.43359375 42.89044189453125 73.46962738037109 47.66601943969727 71.56847381591797 52.16086196899414 C 69.73184967041016 56.50313186645508 67.10224914550781 60.4031867980957 63.75271987915039 63.75271987915039 C 60.4031867980957 67.10224914550781 56.50313186645508 69.73184967041016 52.16086196899414 71.56847381591797 C 47.66601943969727 73.46962738037109 42.89044189453125 74.43359375 37.966796875 74.43359375 Z" stroke="none"/>
              <path d="M 37.966796875 3 C 33.2449836730957 3 28.66600799560547 3.924095153808594 24.35705947875977 5.746635437011719 C 20.19359588623047 7.507621765136719 16.45379638671875 10.02927398681641 13.24153518676758 13.24153518676758 C 10.02927398681641 16.45379638671875 7.507621765136719 20.19359588623047 5.746635437011719 24.35705947875977 C 3.924095153808594 28.66600799560547 3 33.2449836730957 3 37.966796875 C 3 42.6886100769043 3.924095153808594 47.26758575439453 5.746635437011719 51.57653427124023 C 7.507621765136719 55.73999786376953 10.02927398681641 59.47979736328125 13.24153518676758 62.69205856323242 C 16.45379638671875 65.90431976318359 20.19359588623047 68.42597198486328 24.35705947875977 70.18695831298828 C 28.66600799560547 72.00949859619141 33.2449836730957 72.93359375 37.966796875 72.93359375 C 42.6886100769043 72.93359375 47.26758575439453 72.00949859619141 51.57653427124023 70.18695831298828 C 55.73999786376953 68.42597198486328 59.47979736328125 65.90431976318359 62.69205856323242 62.69205856323242 C 65.90431976318359 59.47979736328125 68.42597198486328 55.73999786376953 70.18695831298828 51.57653427124023 C 72.00949859619141 47.26758575439453 72.93359375 42.6886100769043 72.93359375 37.966796875 C 72.93359375 33.2449836730957 72.00949859619141 28.66600799560547 70.18695831298828 24.35705947875977 C 68.42597198486328 20.19359588623047 65.90431976318359 16.45379638671875 62.69205856323242 13.24153518676758 C 59.47979736328125 10.02927398681641 55.73999786376953 7.507621765136719 51.57653427124023 5.746635437011719 C 47.26758575439453 3.924095153808594 42.6886100769043 3 37.966796875 3 M 37.966796875 0 C 58.93528366088867 0 75.93359375 16.99831008911133 75.93359375 37.966796875 C 75.93359375 58.93528366088867 58.93528366088867 75.93359375 37.966796875 75.93359375 C 16.99831008911133 75.93359375 0 58.93528366088867 0 37.966796875 C 0 16.99831008911133 16.99831008911133 0 37.966796875 0 Z" stroke="none" fill="#847625"/>
            </g>
          </g>
        </g>
      </g>
      <g id="ley-internacional" transform="translate(635.18 5265.927)">
        <g id="Group_1209305" data-name="Group 1209305" transform="translate(-0.001 0.018)">
          <path id="Path_1078275" data-name="Path 1078275" d="M378.547,152.989a1.7,1.7,0,0,0-1.563-2.4H372.5c-2.86,0-3.332,1.277-2.818,2.4a4.846,4.846,0,0,0,5.059,3.186A5.782,5.782,0,0,0,378.547,152.989Z" transform="translate(-338.055 -137.775)" fill="#f7e74b"/>
          <path id="Path_1078276" data-name="Path 1078276" d="M353.724,152.989a1.7,1.7,0,0,1,1.563-2.4H352.4a1.7,1.7,0,0,0-1.563,2.4,5.771,5.771,0,0,0,6.689,3.186A5.782,5.782,0,0,1,353.724,152.989Z" transform="translate(-320.841 -137.775)" fill="#ffc140"/>
          <path id="Path_1078277" data-name="Path 1078277" d="M62.277,152.989a1.7,1.7,0,0,0-1.563-2.4H56.23c-2.86,0-3.332,1.277-2.818,2.4a4.846,4.846,0,0,0,5.059,3.186A5.782,5.782,0,0,0,62.277,152.989Z" transform="translate(-48.701 -137.775)" fill="#f7e74b"/>
          <path id="Path_1078278" data-name="Path 1078278" d="M37.454,152.989a1.7,1.7,0,0,1,1.563-2.4H36.133a1.7,1.7,0,0,0-1.563,2.4,5.774,5.774,0,0,0,6.689,3.186A5.782,5.782,0,0,1,37.454,152.989Z" transform="translate(-31.487 -137.775)" fill="#ffc140"/>
          <path id="Path_1078279" data-name="Path 1078279" d="M298.52,34.3a1.385,1.385,0,0,0-1.278-1.38l-13.419-1.032-.961.3v4.144l.961.383,13.419-1.032A1.386,1.386,0,0,0,298.52,34.3Z" transform="translate(-258.789 -29.173)" fill="#df6d2b"/>
          <path id="Path_1078280" data-name="Path 1078280" d="M257.285,30.108H256V35.27l1.282-.035,1.965-.151V30.259Z" transform="translate(-234.216 -27.547)" fill="#c75418"/>
          <path id="Path_1078281" data-name="Path 1078281" d="M46.435,32.916a1.384,1.384,0,0,0,0,2.76l13.419,1.032,1.111-.4V32.16l-1.111-.276Z" transform="translate(-41.314 -29.172)" fill="#df6d2b"/>
          <path id="Path_1078282" data-name="Path 1078282" d="M221.1,35.27V30.108h-1.282l-1.965.151v4.824l1.965.151Z" transform="translate(-199.31 -27.547)" fill="#c75418"/>
          <path id="Path_1078283" data-name="Path 1078283" d="M243.506,153.636v-3.354c0-1.1-2.564-1.1-2.564,0v3.354A4.5,4.5,0,0,1,243.506,153.636Z" transform="translate(-220.437 -136.742)" fill="#df6d2b"/>
          <path id="Path_1078284" data-name="Path 1078284" d="M243.506,20.421V8.8a1.282,1.282,0,0,0-2.564,0V20.421a6.468,6.468,0,0,1,2.564,0Z" transform="translate(-220.437 -6.88)" fill="#f68953"/>
          <path id="Path_1078285" data-name="Path 1078285" d="M212.3,185.03a5.833,5.833,0,0,1-4.334,1.946h-.324a5.879,5.879,0,0,1-4.308-1.945,4.486,4.486,0,0,1,8.965,0Z" transform="translate(-186.027 -165.331)" fill="#6e788a"/>
          <path id="Path_1078286" data-name="Path 1078286" d="M150.677,250.307a21.447,21.447,0,0,0,.028-4.882l-17.686-18.567q-.821-.13-1.661-.2c-9.227,1.048-14.875,6.385-13.1,15.288l6.044,8.358h26.377Z" transform="translate(-107.895 -207.372)" fill="#00d9a5"/>
          <path id="Path_1078287" data-name="Path 1078287" d="M68.868,234.025a21.591,21.591,0,0,1,9.733-8.073A21.118,21.118,0,0,0,60.267,234L65.5,241.24a25.918,25.918,0,0,1,3.368-7.215h0Z" transform="translate(-55.138 -206.663)" fill="#00c284"/>
          <path id="Path_1078288" data-name="Path 1078288" d="M312.9,247.54c-4.9.4-4.624.4-4.918.4a3.925,3.925,0,0,1-3.845-3.155,3.926,3.926,0,0,0-3.2-3.1l-1.645-.274a3.924,3.924,0,0,1-3.263-3.516l-.811-8.916A21.159,21.159,0,0,1,312.9,247.54Z" transform="translate(-270.087 -209.488)" fill="#6292e1"/>
          <path id="Path_1078289" data-name="Path 1078289" d="M93.893,405.814a3.116,3.116,0,0,0-1.5-4.98l-3.364-1.009a2.973,2.973,0,0,1-1.689-1.306c-3.915,1.223-4.627,7.154-1.32,9.02h7.162a3.1,3.1,0,0,1,.711-1.725Z" transform="translate(-76.777 -364.604)" fill="#6292e1"/>
          <path id="Path_1078290" data-name="Path 1078290" d="M17.421,327.854a2.975,2.975,0,0,1-.377-2.134,2.981,2.981,0,0,0-1.981-3.413l-3.077-1.026h0A21.11,21.11,0,0,0,7.65,336.874H16.1A28.055,28.055,0,0,1,17.421,327.854Z" transform="translate(-6.857 -293.94)" fill="#1478d7"/>
          <path id="Path_1078291" data-name="Path 1078291" d="M26.865,19.2a5.1,5.1,0,0,0-3.159-4.072V8.3l8.956-.689-.834,4.586h-.267a2.343,2.343,0,0,0-2.143,3.3,6.409,6.409,0,0,0,11.654,0,2.343,2.343,0,0,0-2.143-3.3h-.267l-.905-4.978c.733-.057.716-.054.746-.058h0a2.022,2.022,0,0,0,0-4.033L31.85,2.614a.638.638,0,0,0-.1,1.273L38.4,4.4a.746.746,0,0,1,0,1.487L23.706,7.016V3.268l5.063.39a.638.638,0,1,0,.1-1.273l-5.161-.4v-.05a1.92,1.92,0,0,0-3.84,0v.05L5.071,3.126a2.022,2.022,0,0,0,0,4.033l.745.057-.905,4.978H4.644A2.343,2.343,0,0,0,2.5,15.5a6.409,6.409,0,0,0,11.654,0,2.343,2.343,0,0,0-2.143-3.3h-.267L10.91,7.607l8.956.689v6.829A5.1,5.1,0,0,0,16.707,19.2,21.811,21.811,0,0,0,.857,34.317a.638.638,0,1,0,1.226.355,20.319,20.319,0,0,1,3.275-6.564L8,28.991A2.346,2.346,0,0,1,9.56,31.673a3.6,3.6,0,0,0,2.509,4.177l3.364,1.009a2.475,2.475,0,0,1,1.191,3.96,3.738,3.738,0,0,0-.759,1.5H1.365a20.774,20.774,0,0,1,.112-4.808.638.638,0,1,0-1.264-.177,22.036,22.036,0,0,0-.054,5.7.638.638,0,0,0,.634.562h41.99a.638.638,0,0,0,.634-.562A21.8,21.8,0,0,0,26.865,19.2Zm13.046-4.232a5.132,5.132,0,0,1-9.333,0,1.066,1.066,0,0,1,.983-1.5h7.367a1.066,1.066,0,0,1,.983,1.5Zm-2.547-2.772H33.125l.853-4.688,2.5-.192ZM42.1,37.488l-3.938.328a3.281,3.281,0,0,1-3.494-2.63,4.589,4.589,0,0,0-3.724-3.606L29.3,31.306a3.287,3.287,0,0,1-2.732-2.944l-.735-8.083A20.4,20.4,0,0,1,42.1,37.488ZM4.48,5.142A.75.75,0,0,1,5.169,4.4l14.7-1.131V7.016L5.17,5.886a.75.75,0,0,1-.69-.744Zm8.514,9.824a5.132,5.132,0,0,1-9.333,0,1.066,1.066,0,0,1,.983-1.5h7.367a1.066,1.066,0,0,1,.983,1.5ZM6.209,12.194,7.1,7.314l2.5.192.853,4.688ZM21.143,1.938a.643.643,0,0,1,1.287,0V14.8a5.067,5.067,0,0,0-1.287,0Zm-.5,14.266a.647.647,0,0,0,.066-.019,3.9,3.9,0,0,1,2.145,0,.63.63,0,0,0,.067.019,3.826,3.826,0,0,1,2.588,2.718,21.91,21.91,0,0,0-7.455,0A3.826,3.826,0,0,1,20.647,16.2Zm21.561,26.11h-25a2.482,2.482,0,0,1,.4-.678,3.755,3.755,0,0,0-1.806-6l-3.364-1.009a2.333,2.333,0,0,1-1.624-2.7,3.625,3.625,0,0,0-2.4-4.143l-2.2-.733a20.385,20.385,0,0,1,18.324-6.985l.765,8.416a4.564,4.564,0,0,0,3.794,4.088l1.645.274a3.305,3.305,0,0,1,2.683,2.6,4.554,4.554,0,0,0,4.853,3.652l3.966-.331a20.883,20.883,0,0,1-.031,3.556Z" transform="translate(0.001 -0.018)"/>
        </g>
      </g>
    </g>
  </g>
</svg>
