<svg xmlns="http://www.w3.org/2000/svg" xmlns:xlink="http://www.w3.org/1999/xlink" width="113" height="113" viewBox="0 0 113 113">
  <defs>
    <filter id="Path_982547" x="0" y="0" width="113" height="113" filterUnits="userSpaceOnUse">
      <feOffset dy="3" input="SourceAlpha"/>
      <feGaussianBlur stdDeviation="3" result="blur"/>
      <feFlood flood-opacity="0.161"/>
      <feComposite operator="in" in2="blur"/>
      <feComposite in="SourceGraphic"/>
    </filter>
  </defs>
  <g id="Group_1223818" data-name="Group 1223818" transform="translate(-272 -4035.033)">
    <g id="Group_1223670" data-name="Group 1223670">
      <g id="Group_1221843" data-name="Group 1221843" transform="translate(0 -2216.811)">
        <g id="Group_1219059" data-name="Group 1219059" transform="translate(0 -838)">
          <g id="Group_1217866" data-name="Group 1217866" transform="translate(-0.234 -2607)">
            <g id="Group_1216305" data-name="Group 1216305" transform="translate(281.234 9702.844)">
              <g id="Group_1208705" data-name="Group 1208705">
                <g id="Group_1148633" data-name="Group 1148633">
                  <g id="Group_1148525" data-name="Group 1148525">
                    <g transform="matrix(1, 0, 0, 1, -9, -6)" filter="url(#Path_982547)">
                      <g id="Path_982547-2" data-name="Path 982547" transform="translate(9 6)" fill="#e6d567">
                        <path d="M 47.5 93.5 C 41.28937149047852 93.5 35.26533508300781 92.28397369384766 29.59518623352051 89.88570404052734 C 24.11771965026855 87.56893157958984 19.19813346862793 84.25196075439453 14.97309303283691 80.02691650390625 C 10.74804019927979 75.80186462402344 7.431066513061523 70.88229370117188 5.114293098449707 65.40481567382812 C 2.716026782989502 59.73468017578125 1.5 53.71062850952148 1.5 47.5 C 1.5 41.28937149047852 2.716026782989502 35.26533508300781 5.114293098449707 29.59518623352051 C 7.431066513061523 24.11771965026855 10.74804019927979 19.19813346862793 14.97309303283691 14.97309303283691 C 19.19813346862793 10.74804019927979 24.11771965026855 7.431066513061523 29.59518623352051 5.114293098449707 C 35.26533508300781 2.716026782989502 41.28937149047852 1.5 47.5 1.5 C 53.71062850952148 1.5 59.73468017578125 2.716026782989502 65.40481567382812 5.114293098449707 C 70.88229370117188 7.431066513061523 75.80186462402344 10.74804019927979 80.02691650390625 14.97309303283691 C 84.25196075439453 19.19813346862793 87.56893157958984 24.11771965026855 89.88570404052734 29.59518623352051 C 92.28397369384766 35.26533508300781 93.5 41.28937149047852 93.5 47.5 C 93.5 53.71062850952148 92.28397369384766 59.73468017578125 89.88570404052734 65.40481567382812 C 87.56893157958984 70.88229370117188 84.25196075439453 75.80186462402344 80.02691650390625 80.02691650390625 C 75.80186462402344 84.25196075439453 70.88229370117188 87.56893157958984 65.40481567382812 89.88570404052734 C 59.73468017578125 92.28397369384766 53.71062850952148 93.5 47.5 93.5 Z" stroke="none"/>
                        <path d="M 47.5 3 C 41.49121475219727 3 35.66376876831055 4.176155090332031 30.17950439453125 6.495796203613281 C 24.88084411621094 8.736953735351562 20.12152099609375 11.94598388671875 16.03375244140625 16.03375244140625 C 11.94598388671875 20.12152099609375 8.736953735351562 24.88084411621094 6.495796203613281 30.17950439453125 C 4.176155090332031 35.66376876831055 3 41.49121475219727 3 47.5 C 3 53.50878524780273 4.176155090332031 59.33623123168945 6.495796203613281 64.82049560546875 C 8.736953735351562 70.11915588378906 11.94598388671875 74.87847900390625 16.03375244140625 78.96624755859375 C 20.12152099609375 83.05401611328125 24.88084411621094 86.26304626464844 30.17950439453125 88.50419616699219 C 35.66376876831055 90.82384490966797 41.49121475219727 92 47.5 92 C 53.50878524780273 92 59.33623123168945 90.82384490966797 64.82049560546875 88.50419616699219 C 70.11915588378906 86.26304626464844 74.87847900390625 83.05401611328125 78.96624755859375 78.96624755859375 C 83.05401611328125 74.87847900390625 86.26304626464844 70.11915588378906 88.50419616699219 64.82049560546875 C 90.82384490966797 59.33623123168945 92 53.50878524780273 92 47.5 C 92 41.49121475219727 90.82384490966797 35.66376876831055 88.50419616699219 30.17950439453125 C 86.26304626464844 24.88084411621094 83.05401611328125 20.12152099609375 78.96624755859375 16.03375244140625 C 74.87847900390625 11.94598388671875 70.11915588378906 8.736953735351562 64.82049560546875 6.495796203613281 C 59.33623123168945 4.176155090332031 53.50878524780273 3 47.5 3 M 47.5 0 C 73.7335205078125 0 95 21.2664794921875 95 47.5 C 95 73.7335205078125 73.7335205078125 95 47.5 95 C 21.2664794921875 95 0 73.7335205078125 0 47.5 C 0 21.2664794921875 21.2664794921875 0 47.5 0 Z" stroke="none" fill="#ba9c5a"/>
                      </g>
                    </g>
                  </g>
                </g>
              </g>
            </g>
          </g>
        </g>
      </g>
      <g id="levantar-la-mano_1_" data-name="levantar-la-mano (1)" transform="translate(289.218 4058.494)">
        <g id="Group_1223668" data-name="Group 1223668" transform="translate(1.747 1.138)">
          <g id="XMLID_223_" transform="translate(45.418 22.626)">
            <g id="Group_1223657" data-name="Group 1223657">
              <path id="Path_1177093" data-name="Path 1177093" d="M322.485,162.245a2.527,2.527,0,0,1,2.546-2.529,2.572,2.572,0,0,1,2.511,2.595v16.017a.7.7,0,0,0,1.143.553l4.021-3.2a2.625,2.625,0,0,1,3.97,3.252l-.782,1.521a52.431,52.431,0,0,1-11.777,15.205v11.925a1.6,1.6,0,0,1-1.6,1.6H310.8a1.6,1.6,0,0,1-1.6-1.6V194.088l-.492-1.248a20.014,20.014,0,0,1-1.4-7.352V160.519a2.528,2.528,0,0,1,4.72-1.262h3.555a2.529,2.529,0,0,1,1.838,2.43V159.13a2.569,2.569,0,0,1,2.5-2.592,2.529,2.529,0,0,1,2.554,2.527Z" transform="translate(-307.315 -156.538)" fill="#ffcfbf"/>
            </g>
          </g>
          <g id="Group_1223658" data-name="Group 1223658" transform="translate(45.418 24.077)">
            <path id="Path_1177094" data-name="Path 1177094" d="M312.409,201.471l-.492-1.248a20.014,20.014,0,0,1-1.4-7.352V167.9a2.513,2.513,0,0,1,.5-1.511,2.528,2.528,0,0,0-3.707,2.236V193.6a20.014,20.014,0,0,0,1.4,7.352l.492,1.248v13.491a1.6,1.6,0,0,0,1.6,1.6h1.607V201.471Z" transform="translate(-307.316 -166.098)" fill="#ffb09e"/>
          </g>
          <path id="Path_1177095" data-name="Path 1177095" d="M340.85,174.448H338.4a2.519,2.519,0,0,1,.337,1.262v12.753a2.445,2.445,0,0,0,2.445-2.445V175.71A2.519,2.519,0,0,0,340.85,174.448Z" transform="translate(-288.267 -149.104)" fill="#ffb09e"/>
          <path id="Path_1177096" data-name="Path 1177096" d="M376.463,159.3a2.529,2.529,0,0,1,1.464-2.292,2.517,2.517,0,0,0-1.572-.465,2.571,2.571,0,0,0-2.421,2.591v14.141a2.528,2.528,0,0,0,2.528-2.528Z" transform="translate(-318.403 -133.913)" fill="#ffb09e"/>
          <g id="Group_1223659" data-name="Group 1223659" transform="translate(18.903 0)">
            <path id="Path_1177097" data-name="Path 1177097" d="M150.473,14.2a2.969,2.969,0,1,1,5.939,0V33.091a.828.828,0,0,0,1.344.647l4.723-3.762A3.083,3.083,0,0,1,167.14,33.8l-.918,1.785A61.7,61.7,0,0,1,152.39,53.441v8.147H132.655V17.86a2.969,2.969,0,1,1,5.939,0V13.548a2.97,2.97,0,0,1,5.94,0v-3.08a2.969,2.969,0,0,1,5.939,0Z" transform="translate(-132.655 -7.498)" fill="#f1b0a2"/>
          </g>
          <g id="Group_1223660" data-name="Group 1223660" transform="translate(18.903 7.393)">
            <path id="Path_1177098" data-name="Path 1177098" d="M135.973,102.214V58.486a2.954,2.954,0,0,1,.823-2.048,2.97,2.97,0,0,0-4.14,2.729V102.9H152.39v-.681Z" transform="translate(-132.655 -56.198)" fill="#eb9c8d"/>
          </g>
          <path id="Path_1177099" data-name="Path 1177099" d="M306.624,153.9a3.253,3.253,0,0,1,3.305-.407,3.082,3.082,0,0,0-4.912-1.675l-4.311,3.434a2.43,2.43,0,0,0,3.5.537Z" transform="translate(-256.291 -129.341)" fill="#eb9c8d"/>
          <g id="Group_1223665" data-name="Group 1223665" transform="translate(0 25.955)">
            <g id="XMLID_225_">
              <g id="XMLID_230_" transform="translate(23.821 24.306)">
                <g id="Group_1223661" data-name="Group 1223661">
                  <path id="Path_1177100" data-name="Path 1177100" d="M179.669,338.578H165.045v6.8l1.686,2.705h14.426l1.61-2.705v-3.7A3.1,3.1,0,0,0,179.669,338.578Z" transform="translate(-165.045 -338.578)" fill="#c8effe"/>
                  <path id="Path_1177101" data-name="Path 1177101" d="M182.767,383.378v16.3a1.9,1.9,0,0,1-1.9,1.9H165.045v-18.2h17.722Z" transform="translate(-165.045 -376.577)" fill="#99e6fc"/>
                </g>
              </g>
              <g id="Group_1223662" data-name="Group 1223662" transform="translate(0)">
                <path id="Path_1177102" data-name="Path 1177102" d="M31.953,187.013a2.449,2.449,0,1,1,4.9,0v19.5a19.405,19.405,0,0,1-1.353,7.12l-.478,1.21v10.569H20.664l-.088-9.051A50.907,50.907,0,0,1,9.171,201.629l-.758-1.474a2.542,2.542,0,0,1,3.845-3.15l3.894,3.1a.682.682,0,0,0,1.108-.533V184a2.449,2.449,0,1,1,4.9,0v-3.079a2.449,2.449,0,1,1,4.9,0v2.538a2.449,2.449,0,1,1,4.9,0Z" transform="translate(-8.132 -178.468)" fill="#ffe5c2"/>
              </g>
              <g id="Group_1223663" data-name="Group 1223663" transform="translate(0 17.983)">
                <path id="Path_1177103" data-name="Path 1177103" d="M23.335,325.081l-.074-8.21a3.679,3.679,0,0,0-1.147-2.64,50.911,50.911,0,0,1-10.273-13.687l-.758-1.474a2.539,2.539,0,0,1-.092-2.121,2.539,2.539,0,0,0-2.579,3.682l.758,1.474a50.907,50.907,0,0,0,11.405,14.727l.088,9.051H35.019v-.8Z" transform="translate(-8.132 -296.928)" fill="#fed2a4"/>
              </g>
              <g id="XMLID_226_" transform="translate(9.129 0)">
                <path id="Path_1177104" data-name="Path 1177104" d="M103.119,184v-3.079a2.474,2.474,0,0,1,1.149-2.08,2.448,2.448,0,0,0-3.026.348,2.449,2.449,0,0,0-.717,1.732v14.451a2.593,2.593,0,0,0,2.593-2.593Z" transform="translate(-95.629 -178.468)" fill="#fed2a4"/>
                <g id="Group_1223664" data-name="Group 1223664" transform="translate(0 2.54)">
                  <g id="XMLID_227_">
                    <path id="Path_1177105" data-name="Path 1177105" d="M135.85,195.916a2.468,2.468,0,0,1,.5-.389,2.449,2.449,0,0,0-3.676,2.119l-.02,11.912a2.463,2.463,0,0,0,2.463-2.459l.016-9.454A2.445,2.445,0,0,1,135.85,195.916Z" transform="translate(-122.88 -195.198)" fill="#fed2a4"/>
                    <g id="XMLID_228_" transform="translate(0 0.54)">
                      <path id="Path_1177106" data-name="Path 1177106" d="M167.5,221.377a2.454,2.454,0,0,1,1.479-2.253,2.433,2.433,0,0,0-1.672-.489,2.489,2.489,0,0,0-2.256,2.5v9.582a2.449,2.449,0,0,0,2.449-2.449v-6.893Z" transform="translate(-150.354 -215.611)" fill="#fed2a4"/>
                      <path id="Path_1177107" data-name="Path 1177107" d="M72.1,199.188a2.423,2.423,0,0,0-1.463-.429,2.5,2.5,0,0,0-2.374,2.52v14.86a2.782,2.782,0,0,0,2.782-2.782v-12.15A2.449,2.449,0,0,1,72.1,199.188Z" transform="translate(-68.266 -198.758)" fill="#fed2a4"/>
                    </g>
                  </g>
                </g>
              </g>
            </g>
          </g>
          <g id="XMLID_224_" transform="translate(60.588 25.803)">
            <path id="Path_1177108" data-name="Path 1177108" d="M409.773,180a2.5,2.5,0,0,1,1.258-2.183,2.5,2.5,0,0,0-1.259-.346A2.527,2.527,0,0,0,407.245,180v11.742a2.528,2.528,0,0,0,2.528-2.528Z" transform="translate(-407.245 -177.468)" fill="#ffb09e"/>
          </g>
          <path id="Path_1177109" data-name="Path 1177109" d="M452.869,279.627a2.623,2.623,0,0,0-3.511-.217l-4.021,3.2a.689.689,0,0,1-.492.151,2.719,2.719,0,0,0,4.142.372l3.071-3.045A1.793,1.793,0,0,1,452.869,279.627Z" transform="translate(-378.548 -237.646)" fill="#ffb09e"/>
          <path id="Path_1177110" data-name="Path 1177110" d="M90.9,451.492H76.354a2.4,2.4,0,0,0-2.4,2.4v4.519a.938.938,0,0,0,.938.938h17.48a.938.938,0,0,0,.938-.938v-4.519A2.4,2.4,0,0,0,90.9,451.492Z" transform="translate(-63.959 -384.09)" fill="#91deb6"/>
          <path id="Path_1177111" data-name="Path 1177111" d="M78.02,458.848v-5.065a2.772,2.772,0,0,1,1.145-2.291H76.354a2.4,2.4,0,0,0-2.4,2.4v4.519a.938.938,0,0,0,.938.938h3.246a1.145,1.145,0,0,1-.115-.5Z" transform="translate(-63.959 -384.09)" fill="#6ed5a1"/>
          <g id="XMLID_229_" transform="translate(24.842)">
            <g id="Group_1223667" data-name="Group 1223667">
              <path id="Path_1177112" data-name="Path 1177112" d="M252.994,35.067a2.957,2.957,0,0,1,.87-2.1,2.988,2.988,0,0,1,.615-.472,2.97,2.97,0,0,0-4.454,2.571v13.79a2.969,2.969,0,0,0,2.969-2.969Z" transform="translate(-238.146 -28.363)" fill="#eb9c8d"/>
              <path id="Path_1177113" data-name="Path 1177113" d="M213.874,10.466A2.971,2.971,0,0,1,215.361,7.9a2.96,2.96,0,0,0-1.78-.385,3.015,3.015,0,0,0-2.676,3.023V27.151a2.969,2.969,0,0,0,2.969-2.969Z" transform="translate(-204.965 -7.497)" fill="#eb9c8d"/>
              <g id="XMLID_233_" transform="translate(0 3.08)">
                <g id="Group_1223666" data-name="Group 1223666">
                  <path id="Path_1177114" data-name="Path 1177114" d="M177.715,38.04v6.323h-5.94v-13.6a2.97,2.97,0,0,1,5.94,0Z" transform="translate(-171.775 -27.788)" fill="#f1b0a2"/>
                </g>
              </g>
              <path id="Path_1177115" data-name="Path 1177115" d="M175.156,30.757a2.969,2.969,0,0,1,1.277-2.444,2.943,2.943,0,0,0-1.836-.522,3.021,3.021,0,0,0-2.821,3.042V44.362a3.381,3.381,0,0,0,3.381-3.381Z" transform="translate(-171.775 -24.707)" fill="#eb9c8d"/>
            </g>
          </g>
        </g>
        <g id="Group_1223669" data-name="Group 1223669" transform="translate(0.605 0)">
          <path id="Path_1177116" data-name="Path 1177116" d="M126.3,19.506a1.139,1.139,0,0,0,1.139-1.139V11.5a1.831,1.831,0,1,1,3.662,0v9.293a1.139,1.139,0,1,0,2.277,0V7.188a1.831,1.831,0,1,1,3.662,0V20.793a1.139,1.139,0,0,0,2.277,0V4.108a1.831,1.831,0,1,1,3.662,0V21.632a1.139,1.139,0,1,0,2.277,0V7.841a1.831,1.831,0,1,1,3.662,0v4.664a1.139,1.139,0,0,0,2.277,0V7.841a4.105,4.105,0,0,0-5.939-3.676V4.108a4.108,4.108,0,0,0-8.175-.575,4.105,4.105,0,0,0-5.98,3.655v.637a4.105,4.105,0,0,0-5.939,3.676v6.867a1.139,1.139,0,0,0,1.139,1.138Z" transform="translate(-106.25 0)"/>
          <path id="Path_1177117" data-name="Path 1177117" d="M414.551,382.691a51.52,51.52,0,0,1-3.673,3.622,1.139,1.139,0,0,0-.381.85v13.52a1.139,1.139,0,1,0,2.277,0V387.671c1.188-1.079,2.348-2.234,3.455-3.44a1.139,1.139,0,0,0-1.677-1.54Z" transform="translate(-348.272 -324.283)"/>
          <path id="Path_1177118" data-name="Path 1177118" d="M76.417,132.542a3.771,3.771,0,0,0-4.57.091l-3.317,2.642V120.092a3.666,3.666,0,0,0-5.063-3.39,3.666,3.666,0,0,0-7.022-1.252,4.229,4.229,0,0,0-6.682-2.1l-4.218,3.36V107.98a1.139,1.139,0,0,0-2.277,0v9.373a1.966,1.966,0,0,0,3.191,1.538l4.722-3.762a1.944,1.944,0,0,1,2.94,2.409l-.918,1.786a60.3,60.3,0,0,1-13.576,17.529,1.139,1.139,0,0,0-.381.85v3.178H31.6V126.26a3.585,3.585,0,0,0-4.9-3.339V122.7a3.585,3.585,0,0,0-4.921-3.329c0-.025,0-.05,0-.076v-5.457a1.139,1.139,0,0,0-2.277,0v2.977a3.584,3.584,0,0,0-4.868,3.09,3.585,3.585,0,0,0-4.908,3.334v14.631l-3.154-2.513a3.681,3.681,0,0,0-5.567,4.562l.757,1.473a51.782,51.782,0,0,0,11.28,14.714V158.2a3.547,3.547,0,0,0-2.453,3.37v5.457a1.139,1.139,0,0,0,2.277,0v-5.457a1.266,1.266,0,0,1,1.265-1.264h14.55a1.266,1.266,0,0,1,1.264,1.264v5.457a1.139,1.139,0,0,0,2.277,0v-5.457a3.547,3.547,0,0,0-2.459-3.372V154.3l.4-1.008a20.543,20.543,0,0,0,1-3.333H42.151v17.063a1.139,1.139,0,0,0,2.277,0v-21.9a4.244,4.244,0,0,0-2.9-4.021v-2.886a63.03,63.03,0,0,0,4.5-4.515v9.639A21.082,21.082,0,0,0,47.5,151.1l.413,1.047v14.87a1.139,1.139,0,0,0,2.277,0V151.935a1.137,1.137,0,0,0-.079-.418l-.493-1.249a18.814,18.814,0,0,1-1.318-6.933v-12.3q1.46-1.813,2.78-3.735v3.823a1.139,1.139,0,0,0,2.277,0v-7.381q.982-1.654,1.869-3.373l.754-1.467a1.378,1.378,0,0,1,.157.636v11.584a1.139,1.139,0,0,0,2.277,0V116.913a1.39,1.39,0,1,1,2.78,0v14.921a1.139,1.139,0,0,0,2.277,0V120.092a1.39,1.39,0,0,1,2.78,0v16.083a1.843,1.843,0,0,0,2.992,1.442l4.021-3.2a1.486,1.486,0,0,1,2.248,1.842l-.782,1.521a51.5,51.5,0,0,1-4.8,7.612,1.139,1.139,0,1,0,1.812,1.379,53.793,53.793,0,0,0,5.016-7.949l.782-1.521a3.746,3.746,0,0,0-1.121-4.755ZM3.8,140.354l-.757-1.473a1.4,1.4,0,0,1,2.123-1.739l3.894,3.1a1.821,1.821,0,0,0,2.956-1.424V123.243a1.31,1.31,0,0,1,2.62,0v11.372a1.139,1.139,0,0,0,2.277,0V120.164a1.31,1.31,0,0,1,2.62,0v13.759a1.139,1.139,0,0,0,2.277,0V122.7a1.31,1.31,0,1,1,2.62,0v11.22a1.139,1.139,0,0,0,2.277,0V126.26a1.31,1.31,0,0,1,2.62,0v19.495a18.186,18.186,0,0,1-1.274,6.7l-.477,1.21a1.137,1.137,0,0,0-.079.418v3.939H15.331V155.6a1.139,1.139,0,0,0-.381-.85,49.518,49.518,0,0,1-11.15-14.4Zm38.352,4.764v2.563H31.515q.09-.958.09-1.927v-2.6h8.586A1.963,1.963,0,0,1,42.151,145.119Z" transform="translate(-0.605 -90.622)"/>
        </g>
      </g>
    </g>
  </g>
</svg>
