<svg xmlns="http://www.w3.org/2000/svg" xmlns:xlink="http://www.w3.org/1999/xlink" width="108" height="108" viewBox="0 0 108 108">
  <defs>
    <filter id="Path_978624" x="0" y="0" width="108" height="108" filterUnits="userSpaceOnUse">
      <feOffset dy="3" input="SourceAlpha"/>
      <feGaussianBlur stdDeviation="3" result="blur"/>
      <feFlood flood-opacity="0.161"/>
      <feComposite operator="in" in2="blur"/>
      <feComposite in="SourceGraphic"/>
    </filter>
    <filter id="Path_1076716" x="0" y="0" width="108" height="108" filterUnits="userSpaceOnUse">
      <feOffset dy="3" input="SourceAlpha"/>
      <feGaussianBlur stdDeviation="3" result="blur-2"/>
      <feFlood flood-opacity="0.161"/>
      <feComposite operator="in" in2="blur-2"/>
      <feComposite in="SourceGraphic"/>
    </filter>
  </defs>
  <g id="Group_1223804" data-name="Group 1223804" transform="translate(-616 -296)">
    <g id="Group_1221946" data-name="Group 1221946">
      <g id="Group_1208503" data-name="Group 1208503" transform="translate(0 -190)">
        <g id="Group_1200660" data-name="Group 1200660">
          <g id="Group_1181203" data-name="Group 1181203" transform="translate(625 492)">
            <g id="Group_1172348" data-name="Group 1172348" transform="translate(0)">
              <g id="Group_1171897" data-name="Group 1171897">
                <g id="Group_1171052" data-name="Group 1171052">
                  <g id="Group_1164581" data-name="Group 1164581">
                    <g id="Group_1144123" data-name="Group 1144123">
                      <g transform="matrix(1, 0, 0, 1, -9, -6)" filter="url(#Path_978624)">
                        <g id="Path_978624-2" data-name="Path 978624" transform="translate(9 6)" fill="#f7f4ed">
                          <path d="M 45 88.5 C 39.12687683105469 88.5 33.43022537231445 87.35007476806641 28.06830024719238 85.08217620849609 C 22.88852500915527 82.89131164550781 18.23629951477051 79.75458526611328 14.2408504486084 75.75914764404297 C 10.24541282653809 71.76370239257812 7.108687400817871 67.11147308349609 4.917825222015381 61.93170166015625 C 2.649924993515015 56.56977462768555 1.5 50.87312316894531 1.5 45 C 1.5 39.12687683105469 2.649924993515015 33.43022537231445 4.917825222015381 28.06830024719238 C 7.108687400817871 22.88852500915527 10.24541282653809 18.23629951477051 14.2408504486084 14.2408504486084 C 18.23629951477051 10.24541282653809 22.88852500915527 7.108687400817871 28.06830024719238 4.917825222015381 C 33.43022537231445 2.649924993515015 39.12687683105469 1.5 45 1.5 C 50.87312316894531 1.5 56.56977462768555 2.649924993515015 61.93170166015625 4.917825222015381 C 67.11147308349609 7.108687400817871 71.76370239257812 10.24541282653809 75.75914764404297 14.2408504486084 C 79.75458526611328 18.23629951477051 82.89131164550781 22.88852500915527 85.08217620849609 28.06830024719238 C 87.35007476806641 33.43022537231445 88.5 39.12687683105469 88.5 45 C 88.5 50.87312316894531 87.35007476806641 56.56977462768555 85.08217620849609 61.93170166015625 C 82.89131164550781 67.11147308349609 79.75458526611328 71.76370239257812 75.75914764404297 75.75914764404297 C 71.76370239257812 79.75458526611328 67.11147308349609 82.89131164550781 61.93170166015625 85.08217620849609 C 56.56977462768555 87.35007476806641 50.87312316894531 88.5 45 88.5 Z" stroke="none"/>
                          <path d="M 45 3 C 39.32871246337891 3 33.82865524291992 4.110054016113281 28.65262985229492 6.299339294433594 C 23.65165710449219 8.414573669433594 19.15968322753906 11.44334411621094 15.301513671875 15.301513671875 C 11.44334411621094 19.15968322753906 8.414573669433594 23.65165710449219 6.299339294433594 28.65262985229492 C 4.110054016113281 33.82865524291992 3 39.32871246337891 3 45 C 3 50.67128753662109 4.110054016113281 56.17134475708008 6.299339294433594 61.34737396240234 C 8.414573669433594 66.34834289550781 11.44334411621094 70.84031677246094 15.301513671875 74.698486328125 C 19.15968322753906 78.55665588378906 23.65165710449219 81.58542633056641 28.65262985229492 83.70066070556641 C 33.82865524291992 85.88994598388672 39.32871246337891 87 45 87 C 50.67128753662109 87 56.17134475708008 85.88994598388672 61.34737396240234 83.70066070556641 C 66.34834289550781 81.58542633056641 70.84031677246094 78.55665588378906 74.698486328125 74.698486328125 C 78.55665588378906 70.84031677246094 81.58542633056641 66.34834289550781 83.70066070556641 61.34737396240234 C 85.88994598388672 56.17134475708008 87 50.67128753662109 87 45 C 87 39.32871246337891 85.88994598388672 33.82865524291992 83.70066070556641 28.65262985229492 C 81.58542633056641 23.65165710449219 78.55665588378906 19.15968322753906 74.698486328125 15.301513671875 C 70.84031677246094 11.44334411621094 66.34834289550781 8.414573669433594 61.34737396240234 6.299339294433594 C 56.17134475708008 4.110054016113281 50.67128753662109 3 45 3 M 45 0 C 69.85281372070312 0 90 20.14718627929688 90 45 C 90 69.85281372070312 69.85281372070312 90 45 90 C 20.14718627929688 90 0 69.85281372070312 0 45 C 0 20.14718627929688 20.14718627929688 0 45 0 Z" stroke="none" fill="#ba9c5a"/>
                        </g>
                      </g>
                      <g transform="matrix(1, 0, 0, 1, -9, -6)" filter="url(#Path_1076716)">
                        <g id="Path_1076716-2" data-name="Path 1076716" transform="translate(9 6)" fill="#f7f4ed">
                          <path d="M 45 88.5 C 39.12687683105469 88.5 33.43022537231445 87.35007476806641 28.06830024719238 85.08217620849609 C 22.88852500915527 82.89131164550781 18.23629951477051 79.75458526611328 14.2408504486084 75.75914764404297 C 10.24541282653809 71.76370239257812 7.108687400817871 67.11147308349609 4.917825222015381 61.93170166015625 C 2.649924993515015 56.56977462768555 1.5 50.87312316894531 1.5 45 C 1.5 39.12687683105469 2.649924993515015 33.43022537231445 4.917825222015381 28.06830024719238 C 7.108687400817871 22.88852500915527 10.24541282653809 18.23629951477051 14.2408504486084 14.2408504486084 C 18.23629951477051 10.24541282653809 22.88852500915527 7.108687400817871 28.06830024719238 4.917825222015381 C 33.43022537231445 2.649924993515015 39.12687683105469 1.5 45 1.5 C 50.87312316894531 1.5 56.56977462768555 2.649924993515015 61.93170166015625 4.917825222015381 C 67.11147308349609 7.108687400817871 71.76370239257812 10.24541282653809 75.75914764404297 14.2408504486084 C 79.75458526611328 18.23629951477051 82.89131164550781 22.88852500915527 85.08217620849609 28.06830024719238 C 87.35007476806641 33.43022537231445 88.5 39.12687683105469 88.5 45 C 88.5 50.87312316894531 87.35007476806641 56.56977462768555 85.08217620849609 61.93170166015625 C 82.89131164550781 67.11147308349609 79.75458526611328 71.76370239257812 75.75914764404297 75.75914764404297 C 71.76370239257812 79.75458526611328 67.11147308349609 82.89131164550781 61.93170166015625 85.08217620849609 C 56.56977462768555 87.35007476806641 50.87312316894531 88.5 45 88.5 Z" stroke="none"/>
                          <path d="M 45 3 C 39.32871246337891 3 33.82865524291992 4.110054016113281 28.65262985229492 6.299339294433594 C 23.65165710449219 8.414573669433594 19.15968322753906 11.44334411621094 15.301513671875 15.301513671875 C 11.44334411621094 19.15968322753906 8.414573669433594 23.65165710449219 6.299339294433594 28.65262985229492 C 4.110054016113281 33.82865524291992 3 39.32871246337891 3 45 C 3 50.67128753662109 4.110054016113281 56.17134475708008 6.299339294433594 61.34737396240234 C 8.414573669433594 66.34834289550781 11.44334411621094 70.84031677246094 15.301513671875 74.698486328125 C 19.15968322753906 78.55665588378906 23.65165710449219 81.58542633056641 28.65262985229492 83.70066070556641 C 33.82865524291992 85.88994598388672 39.32871246337891 87 45 87 C 50.67128753662109 87 56.17134475708008 85.88994598388672 61.34737396240234 83.70066070556641 C 66.34834289550781 81.58542633056641 70.84031677246094 78.55665588378906 74.698486328125 74.698486328125 C 78.55665588378906 70.84031677246094 81.58542633056641 66.34834289550781 83.70066070556641 61.34737396240234 C 85.88994598388672 56.17134475708008 87 50.67128753662109 87 45 C 87 39.32871246337891 85.88994598388672 33.82865524291992 83.70066070556641 28.65262985229492 C 81.58542633056641 23.65165710449219 78.55665588378906 19.15968322753906 74.698486328125 15.301513671875 C 70.84031677246094 11.44334411621094 66.34834289550781 8.414573669433594 61.34737396240234 6.299339294433594 C 56.17134475708008 4.110054016113281 50.67128753662109 3 45 3 M 45 0 C 69.85281372070312 0 90 20.14718627929688 90 45 C 90 69.85281372070312 69.85281372070312 90 45 90 C 20.14718627929688 90 0 69.85281372070312 0 45 C 0 20.14718627929688 20.14718627929688 0 45 0 Z" stroke="none" fill="#ba9c5a"/>
                        </g>
                      </g>
                    </g>
                  </g>
                </g>
              </g>
            </g>
          </g>
        </g>
      </g>
      <g id="ley_17_" data-name="ley (17)" transform="translate(634.75 314)">
        <g id="Group_1221926" data-name="Group 1221926" transform="translate(7.156 5.372)">
          <g id="Group_1221904" data-name="Group 1221904" transform="translate(0 36.598)">
            <g id="Group_1221902" data-name="Group 1221902">
              <path id="Path_1175536" data-name="Path 1175536" d="M49.134,34.94H9.091a2.1,2.1,0,0,0,0,4.194H49.134a4.592,4.592,0,0,1,4.569,5.04,4.724,4.724,0,0,1-4.762,4.134H46.209V52.5h2.623A8.982,8.982,0,0,0,57.9,44.307a8.789,8.789,0,0,0-8.763-9.367Z" transform="translate(-7 -34.94)" fill="#ffab03"/>
            </g>
            <g id="Group_1221903" data-name="Group 1221903" transform="translate(0 13.368)">
              <path id="Path_1175537" data-name="Path 1175537" d="M35.947,46H9.091a2.1,2.1,0,0,0,0,4.194H35.935V46Z" transform="translate(-7 -46)" fill="#ffab03"/>
            </g>
          </g>
          <g id="Group_1221905" data-name="Group 1221905" transform="translate(40.321 36.598)" opacity="0.3">
            <path id="Path_1175538" data-name="Path 1175538" d="M42.173,34.94H40.36a1.811,1.811,0,0,0,1.813,1.813,6.952,6.952,0,0,1,6.95,7.433,1.806,1.806,0,0,0,1.5,1.9,7.813,7.813,0,0,0,.314-1.777,8.789,8.789,0,0,0-8.763-9.367Z" transform="translate(-40.36 -34.94)" fill="#fff"/>
          </g>
          <g id="Group_1221906" data-name="Group 1221906" transform="translate(2.091 40.792)">
            <path id="Path_1175539" data-name="Path 1175539" d="M48.773,38.41H8.73a6.478,6.478,0,0,1,0,9.174H48.773a4.587,4.587,0,1,0,0-9.174Z" transform="translate(-8.73 -38.41)" fill="#e2e2e2"/>
          </g>
          <g id="Group_1221907" data-name="Group 1221907" transform="translate(14.842 40.792)" opacity="0.5">
            <path id="Path_1175540" data-name="Path 1175540" d="M46.572,38.41H19.28A4.591,4.591,0,0,0,23.873,43H51.164A4.591,4.591,0,0,0,46.572,38.41Z" transform="translate(-19.28 -38.41)" fill="#fff"/>
          </g>
          <g id="Group_1221910" data-name="Group 1221910" transform="translate(3.232 54.16)">
            <g id="Group_1221908" data-name="Group 1221908">
              <path id="Path_1175541" data-name="Path 1175541" d="M67.2,62.838H18.456a4.592,4.592,0,0,1-4.569-5.04,4.724,4.724,0,0,1,4.762-4.134H35.39V49.47H18.758a8.982,8.982,0,0,0-9.065,8.195,8.782,8.782,0,0,0,8.763,9.367H67.2a2.1,2.1,0,0,0,0-4.194Z" transform="translate(-9.674 -49.47)" fill="#7cb5e8"/>
            </g>
            <g id="Group_1221909" data-name="Group 1221909" transform="translate(35.977)">
              <path id="Path_1175542" data-name="Path 1175542" d="M60.99,49.47H39.44v4.194H60.99a2.1,2.1,0,0,0,0-4.194Z" transform="translate(-39.44 -49.47)" fill="#7cb5e8"/>
            </g>
          </g>
          <g id="Group_1221911" data-name="Group 1221911" transform="translate(7.421 58.354)">
            <path id="Path_1175543" data-name="Path 1175543" d="M66.478,52.94H17.733a4.593,4.593,0,0,0,0,9.186H66.478a6.492,6.492,0,0,1,0-9.186Z" transform="translate(-13.14 -52.94)" fill="#e2e2e2"/>
          </g>
          <g id="Group_1221912" data-name="Group 1221912" transform="translate(12.195 58.354)" opacity="0.5">
            <path id="Path_1175544" data-name="Path 1175544" d="M65.654,52.94H17.235a4.729,4.729,0,0,0-.145,1.1,4.591,4.591,0,0,0,4.593,4.593H63.865A6.423,6.423,0,0,1,65.654,52.94Z" transform="translate(-17.09 -52.94)" fill="#fff"/>
          </g>
          <g id="Group_1221913" data-name="Group 1221913" transform="translate(31.401 20.233)">
            <path id="Path_1175545" data-name="Path 1175545" d="M32.98,21.4a8.362,8.362,0,0,0,16.68,0Z" transform="translate(-32.98 -21.4)" fill="#ffab03"/>
          </g>
          <g id="Group_1221914" data-name="Group 1221914" transform="translate(1.378 20.233)">
            <path id="Path_1175546" data-name="Path 1175546" d="M8.14,21.4a8.362,8.362,0,0,0,16.68,0Z" transform="translate(-8.14 -21.4)" fill="#ffab03"/>
          </g>
          <g id="Group_1221915" data-name="Group 1221915" transform="translate(13.211 30.627)">
            <path id="Path_1175547" data-name="Path 1175547" d="M35.9,30h-12a5.968,5.968,0,0,0-5.971,5.971H41.886A5.986,5.986,0,0,0,35.9,30Z" transform="translate(-17.93 -30)" fill="#ef4a51"/>
          </g>
          <g id="Group_1221916" data-name="Group 1221916" transform="translate(20.68 0)">
            <path id="Path_1175548" data-name="Path 1175548" d="M33.1,9.156a4.5,4.5,0,1,1-4.5-4.5A4.5,4.5,0,0,1,33.1,9.156Z" transform="translate(-24.11 -4.66)" fill="#ef4a51"/>
          </g>
          <g id="Group_1221917" data-name="Group 1221917" transform="translate(23.085)" opacity="0.3">
            <path id="Path_1175549" data-name="Path 1175549" d="M28.191,4.66a4.389,4.389,0,0,0-1.74.351,4.389,4.389,0,0,0-.351,1.74,4.5,4.5,0,0,0,4.5,4.5,4.389,4.389,0,0,0,1.74-.351,4.389,4.389,0,0,0,.351-1.74,4.5,4.5,0,0,0-4.5-4.5Z" transform="translate(-26.1 -4.66)" fill="#fff"/>
          </g>
          <g id="Group_1221918" data-name="Group 1221918" transform="translate(35.063 20.245)" opacity="0.3">
            <path id="Path_1175550" data-name="Path 1175550" d="M43.588,26.245a8.3,8.3,0,0,0,4.279-1.184,8.363,8.363,0,0,0,1.148-3.65H36.01a8.357,8.357,0,0,0,7.578,4.835Z" transform="translate(-36.01 -21.41)" fill="#fff"/>
          </g>
          <g id="Group_1221919" data-name="Group 1221919" transform="translate(5.04 20.245)" opacity="0.3">
            <path id="Path_1175551" data-name="Path 1175551" d="M18.76,26.245a8.3,8.3,0,0,0,4.279-1.184,8.363,8.363,0,0,0,1.148-3.65H11.17A8.388,8.388,0,0,0,18.76,26.245Z" transform="translate(-11.17 -21.41)" fill="#fff"/>
          </g>
          <g id="Group_1221920" data-name="Group 1221920" transform="translate(21.49 30.627)" opacity="0.3">
            <path id="Path_1175552" data-name="Path 1175552" d="M34.473,30H24.78v1.209A2.424,2.424,0,0,0,27.2,33.626H39.973A6,6,0,0,0,34.473,30Z" transform="translate(-24.78 -30)" fill="#fff"/>
          </g>
          <g id="Group_1221921" data-name="Group 1221921" transform="translate(28.947 47.476)">
            <path id="Path_1175553" data-name="Path 1175553" d="M41.212,59.411l-5.137-3.275L30.95,59.411V43.94H41.212Z" transform="translate(-30.95 -43.94)" fill="#4e6575"/>
          </g>
          <g id="Group_1221922" data-name="Group 1221922" transform="translate(32.356 47.476)" opacity="0.3">
            <path id="Path_1175554" data-name="Path 1175554" d="M33.77,49.584A3.621,3.621,0,0,0,37.4,53.21h3.227V43.94H33.77Z" transform="translate(-33.77 -43.94)" fill="#e2e2e2"/>
          </g>
          <g id="Group_1221925" data-name="Group 1221925" transform="translate(57.133 54.16)" opacity="0.3">
            <g id="Group_1221923" data-name="Group 1221923">
              <path id="Path_1175555" data-name="Path 1175555" d="M57.9,49.47H54.27a2.091,2.091,0,1,1,0,4.182H57.9a2.091,2.091,0,1,0,0-4.182Z" transform="translate(-54.27 -49.47)" fill="#fff"/>
            </g>
            <g id="Group_1221924" data-name="Group 1221924" transform="translate(0 13.368)">
              <path id="Path_1175556" data-name="Path 1175556" d="M57.9,60.53H54.27a2.091,2.091,0,1,1,0,4.182H57.9a2.091,2.091,0,1,0,0-4.182Z" transform="translate(-54.27 -60.53)" fill="#fff"/>
            </g>
          </g>
        </g>
        <g id="Group_1221945" data-name="Group 1221945" transform="translate(6.25 1.25)">
          <g id="Group_1221927" data-name="Group 1221927" transform="translate(0 39.825)">
            <path id="Path_1175557" data-name="Path 1175557" d="M48.988,53.563H46.365a.913.913,0,0,1-.906-.906V48.462a.913.913,0,0,1,.906-.906H49.1a3.815,3.815,0,0,0,3.856-3.312,3.648,3.648,0,0,0-.943-2.84,3.719,3.719,0,0,0-2.719-1.209H9.247a3,3,0,1,1,0-5.995H49.29A9.681,9.681,0,0,1,58.96,44.522a9.872,9.872,0,0,1-9.971,9.041ZM47.272,51.75h1.716A8.051,8.051,0,0,0,57.147,44.4,7.881,7.881,0,0,0,49.29,36H9.247a1.184,1.184,0,1,0,0,2.369H49.29a5.475,5.475,0,0,1,4.061,1.8,5.531,5.531,0,0,1,1.4,4.23,5.645,5.645,0,0,1-5.669,4.956H47.26V51.75Z" transform="translate(-6.25 -34.2)"/>
          </g>
          <g id="Group_1221928" data-name="Group 1221928" transform="translate(0 53.193)">
            <path id="Path_1175558" data-name="Path 1175558" d="M36.1,51.255H9.247a3,3,0,0,1,0-5.995H36.092a.906.906,0,1,1,0,1.813H9.247a1.184,1.184,0,1,0,0,2.369H36.092a.913.913,0,0,1,.906.906A.9.9,0,0,1,36.1,51.255Z" transform="translate(-6.25 -45.26)"/>
          </g>
          <g id="Group_1221929" data-name="Group 1221929" transform="translate(2.094 43.998)">
            <path id="Path_1175559" data-name="Path 1175559" d="M8.886,48.648a.9.9,0,0,1-.641-.266.912.912,0,0,1,0-1.281,5.6,5.6,0,0,0,0-7.9.906.906,0,1,1,1.281-1.281,7.33,7.33,0,0,1,2.164,5.234,7.38,7.38,0,0,1-2.164,5.234.858.858,0,0,1-.641.266Z" transform="translate(-7.982 -37.652)"/>
          </g>
          <g id="Group_1221930" data-name="Group 1221930" transform="translate(28.96 50.691)">
            <path id="Path_1175560" data-name="Path 1175560" d="M41.366,60.474a.872.872,0,0,1-.483-.145l-4.641-2.961L31.6,60.329a.9.9,0,0,1-1.39-.761V44.1a.913.913,0,0,1,.906-.906H41.378a.913.913,0,0,1,.906.906V59.555a.915.915,0,0,1-.471.8A1.034,1.034,0,0,1,41.366,60.474Zm-5.137-5.088a.872.872,0,0,1,.483.145l3.735,2.381V45H32.011V57.911l3.735-2.381a.785.785,0,0,1,.483-.145Z" transform="translate(-30.21 -43.19)"/>
          </g>
          <g id="Group_1221931" data-name="Group 1221931" transform="translate(7.433 61.581)">
            <path id="Path_1175561" data-name="Path 1175561" d="M66.633,67.369H17.887a.906.906,0,1,1,0-1.813H66.633a1.184,1.184,0,0,0,0-2.369H17.887a5.475,5.475,0,0,1-4.061-1.8,5.531,5.531,0,0,1-1.4-4.23A5.645,5.645,0,0,1,18.093,52.2h16.74a.906.906,0,1,1,0,1.813H18.081a3.815,3.815,0,0,0-3.856,3.312,3.648,3.648,0,0,0,.943,2.84,3.719,3.719,0,0,0,2.719,1.209H66.633a3,3,0,1,1,0,5.995Z" transform="translate(-12.4 -52.2)"/>
          </g>
          <g id="Group_1221932" data-name="Group 1221932" transform="translate(3.231 57.375)">
            <path id="Path_1175562" data-name="Path 1175562" d="M14.721,67.188a.809.809,0,0,1-.4-.1,9.686,9.686,0,0,1-5.379-9.331,9.855,9.855,0,0,1,9.971-9.041H35.546a.906.906,0,0,1,0,1.813H18.915a8.051,8.051,0,0,0-8.158,7.349,7.878,7.878,0,0,0,4.375,7.59.9.9,0,0,1,.411,1.209.917.917,0,0,1-.822.508Z" transform="translate(-8.923 -48.72)"/>
          </g>
          <g id="Group_1221933" data-name="Group 1221933" transform="translate(39.209 57.375)">
            <path id="Path_1175563" data-name="Path 1175563" d="M61.147,54.727H39.6a.913.913,0,0,1-.906-.906V49.626a.913.913,0,0,1,.906-.906h21.55a3,3,0,0,1,0,6.007ZM40.5,52.914H61.147a1.184,1.184,0,0,0,0-2.369H40.5Z" transform="translate(-38.69 -48.72)"/>
          </g>
          <g id="Group_1221934" data-name="Group 1221934" transform="translate(58.859 61.572)">
            <path id="Path_1175564" data-name="Path 1175564" d="M57.755,63.176a.9.9,0,0,1-.641-.266,7.39,7.39,0,0,1,0-10.455A.906.906,0,0,1,58.4,53.737a5.588,5.588,0,0,0,0,7.893.912.912,0,0,1,0,1.281.9.9,0,0,1-.641.266Z" transform="translate(-54.948 -52.192)"/>
          </g>
          <g id="Group_1221935" data-name="Group 1221935" transform="translate(25.176 12.207)">
            <path id="Path_1175565" data-name="Path 1175565" d="M27.986,34.8a.913.913,0,0,1-.906-.907V12.256a.906.906,0,1,1,1.813,0V33.892A.913.913,0,0,1,27.986,34.8Z" transform="translate(-27.08 -11.35)"/>
          </g>
          <g id="Group_1221936" data-name="Group 1221936" transform="translate(25.176)">
            <path id="Path_1175566" data-name="Path 1175566" d="M27.986,6.278a.913.913,0,0,1-.906-.906V2.156a.906.906,0,1,1,1.813,0V5.372A.913.913,0,0,1,27.986,6.278Z" transform="translate(-27.08 -1.25)"/>
          </g>
          <g id="Group_1221937" data-name="Group 1221937" transform="translate(31.388 7.711)">
            <path id="Path_1175567" data-name="Path 1175567" d="M49.818,25.18A.915.915,0,0,1,49,24.66l-6.66-14.19L33.912,24.733a.916.916,0,0,1-1.245.314.9.9,0,0,1-.314-1.245L41.648,8.077a.908.908,0,0,1,.822-.447.881.881,0,0,1,.774.52l7.385,15.737a.914.914,0,0,1-.435,1.209.81.81,0,0,1-.375.085Z" transform="translate(-32.22 -7.629)"/>
          </g>
          <g id="Group_1221938" data-name="Group 1221938" transform="translate(31.4 23.46)">
            <path id="Path_1175568" data-name="Path 1175568" d="M41.476,30.221a9.3,9.3,0,0,1-9.246-8.594.91.91,0,0,1,.906-.967h16.68a.914.914,0,0,1,.665.29.937.937,0,0,1,.242.677,9.31,9.31,0,0,1-9.246,8.594Zm-7.3-7.76a7.457,7.457,0,0,0,14.6,0Z" transform="translate(-32.229 -20.66)"/>
          </g>
          <g id="Group_1221939" data-name="Group 1221939" transform="translate(1.371 7.711)">
            <path id="Path_1175569" data-name="Path 1175569" d="M24.977,25.18a.915.915,0,0,1-.822-.52L17.5,10.47,9.071,24.733a.916.916,0,0,1-1.245.314A.9.9,0,0,1,7.512,23.8L16.807,8.077a.921.921,0,0,1,.822-.447.881.881,0,0,1,.774.52l7.385,15.737a.914.914,0,0,1-.435,1.209.777.777,0,0,1-.375.085Z" transform="translate(-7.384 -7.629)"/>
          </g>
          <g id="Group_1221940" data-name="Group 1221940" transform="translate(1.377 23.448)">
            <path id="Path_1175570" data-name="Path 1175570" d="M16.636,30.223A9.3,9.3,0,0,1,7.39,21.629a.966.966,0,0,1,.242-.689.914.914,0,0,1,.665-.29h16.68a.914.914,0,0,1,.665.29.947.947,0,0,1,.242.689,9.31,9.31,0,0,1-9.246,8.594Zm-7.3-7.76a7.457,7.457,0,0,0,14.6,0Z" transform="translate(-7.389 -20.65)"/>
          </g>
          <g id="Group_1221941" data-name="Group 1221941" transform="translate(13.199 33.843)">
            <path id="Path_1175571" data-name="Path 1175571" d="M42.032,37.034H18.076a.913.913,0,0,1-.906-.906,6.881,6.881,0,0,1,6.877-6.877h12a.906.906,0,0,1,0,1.813h-12a5.086,5.086,0,0,0-4.992,4.158H41.041a5.071,5.071,0,0,0-2.031-3.215.908.908,0,0,1-.205-1.269.919.919,0,0,1,1.269-.205,6.923,6.923,0,0,1,2.865,5.584.908.908,0,0,1-.906.919Z" transform="translate(-17.17 -29.25)"/>
          </g>
          <g id="Group_1221942" data-name="Group 1221942" transform="translate(20.68 3.215)">
            <path id="Path_1175572" data-name="Path 1175572" d="M28.763,14.715a5.4,5.4,0,1,1,5.4-5.4A5.416,5.416,0,0,1,28.763,14.715Zm0-8.992a3.59,3.59,0,1,0,3.59,3.59,3.59,3.59,0,0,0-3.59-3.59Z" transform="translate(-23.36 -3.91)"/>
          </g>
          <g id="Group_1221943" data-name="Group 1221943" transform="translate(10.672 7.711)">
            <path id="Path_1175573" data-name="Path 1175573" d="M25.994,9.443H15.986a.906.906,0,0,1,0-1.813H25.994a.906.906,0,1,1,0,1.813Z" transform="translate(-15.08 -7.63)"/>
          </g>
          <g id="Group_1221944" data-name="Group 1221944" transform="translate(29.673 7.711)">
            <path id="Path_1175574" data-name="Path 1175574" d="M42.729,9.443H31.706a.906.906,0,0,1,0-1.813H42.729a.906.906,0,1,1,0,1.813Z" transform="translate(-30.8 -7.63)"/>
          </g>
        </g>
      </g>
    </g>
  </g>
</svg>
