<svg xmlns="http://www.w3.org/2000/svg" width="33.966" height="33.966" viewBox="0 0 33.966 33.966">
  <g id="Group_1223826" data-name="Group 1223826" transform="translate(-396.227 -873.583)">
    <g id="equilibrar_1_" data-name="equilibrar (1)" transform="translate(396.225 873.584)">
      <g id="Group_1215370" data-name="Group 1215370" transform="translate(0.002 -0.001)">
        <path id="Path_1087906" data-name="Path 1087906" d="M33.911,20.711l.005,0L28.339,8.541l1.352-.673-.506-1.013-1.318.657-.178-.389a.566.566,0,0,0-1.029,0L26.5,7.47a7.282,7.282,0,0,0-3.063-.678H18.683V5.661h1.132V4.528h-.973L19.249,2.9a2.334,2.334,0,1,0-4.529,0l.407,1.629h-.973V5.66h1.132V6.793H10.534a7.282,7.282,0,0,0-3.065.679L7.31,7.124a.566.566,0,0,0-1.029,0L6.1,7.513,4.784,6.854,4.278,7.868l1.352.676L.053,20.709A.553.553,0,0,0,0,20.945a3.967,3.967,0,0,0,3.963,3.963H9.625a3.967,3.967,0,0,0,3.963-3.963.553.553,0,0,0-.057-.234L7.94,8.5a6.157,6.157,0,0,1,2.594-.572h4.752V28.636l-1.933,1.933h-2.03a2.834,2.834,0,0,0-2.83,2.83.566.566,0,0,0,.566.566H24.91a.566.566,0,0,0,.566-.566,2.834,2.834,0,0,0-2.83-2.83h-2.03l-1.933-1.933V7.925h4.755a6.157,6.157,0,0,1,2.594.572l-5.6,12.212a.553.553,0,0,0-.052.236,3.967,3.967,0,0,0,3.963,3.963H30a3.967,3.967,0,0,0,3.963-3.963A.551.551,0,0,0,33.911,20.711ZM9.625,23.775H3.965a2.835,2.835,0,0,1-2.774-2.264H12.4A2.835,2.835,0,0,1,9.625,23.775Zm2.515-3.4H1.45L6.65,9.034a.559.559,0,0,0,.29,0Zm3.9-18.785a1.239,1.239,0,0,1,1.894,0,1.2,1.2,0,0,1,.219,1.031l-.476,1.9h-1.38l-.476-1.9A1.2,1.2,0,0,1,16.038,1.594Zm.381,5.2V5.661h1.132V6.793Zm1.132,1.132V28.3H16.419V7.925ZM22.646,31.7a1.7,1.7,0,0,1,1.6,1.132H9.722a1.7,1.7,0,0,1,1.6-1.132Zm-3.631-1.132h-4.06l1.132-1.132h1.8ZM27.028,9.036a.386.386,0,0,0,.286-.012l5.2,11.355H21.829ZM30,23.775H24.344a2.835,2.835,0,0,1-2.774-2.264H32.779A2.835,2.835,0,0,1,30,23.775Z" transform="translate(-0.002 0.001)"/>
      </g>
    </g>
  </g>
</svg>
