<svg xmlns="http://www.w3.org/2000/svg" xmlns:xlink="http://www.w3.org/1999/xlink" width="113" height="113" viewBox="0 0 113 113">
  <defs>
    <filter id="Path_982547" x="0" y="0" width="113" height="113" filterUnits="userSpaceOnUse">
      <feOffset dy="3" input="SourceAlpha"/>
      <feGaussianBlur stdDeviation="3" result="blur"/>
      <feFlood flood-opacity="0.161"/>
      <feComposite operator="in" in2="blur"/>
      <feComposite in="SourceGraphic"/>
    </filter>
  </defs>
  <g id="Group_1223819" data-name="Group 1223819" transform="translate(-586 -4035.033)">
    <g id="Group_1223671" data-name="Group 1223671">
      <g id="Group_1221844" data-name="Group 1221844" transform="translate(0 -2216.811)">
        <g id="Group_1219079" data-name="Group 1219079" transform="translate(0 -838)">
          <g id="Group_1217874" data-name="Group 1217874" transform="translate(-1.234 -2607)">
            <g id="Group_1216306" data-name="Group 1216306" transform="translate(596.234 9702.844)">
              <g id="Group_1208705" data-name="Group 1208705">
                <g id="Group_1148633" data-name="Group 1148633">
                  <g id="Group_1148525" data-name="Group 1148525">
                    <g transform="matrix(1, 0, 0, 1, -9, -6)" filter="url(#Path_982547)">
                      <g id="Path_982547-2" data-name="Path 982547" transform="translate(9 6)" fill="#e6d567">
                        <path d="M 47.5 93.5 C 41.28937149047852 93.5 35.26533508300781 92.28397369384766 29.59518623352051 89.88570404052734 C 24.11771965026855 87.56893157958984 19.19813346862793 84.25196075439453 14.97309303283691 80.02691650390625 C 10.74804019927979 75.80186462402344 7.431066513061523 70.88229370117188 5.114293098449707 65.40481567382812 C 2.716026782989502 59.73468017578125 1.5 53.71062850952148 1.5 47.5 C 1.5 41.28937149047852 2.716026782989502 35.26533508300781 5.114293098449707 29.59518623352051 C 7.431066513061523 24.11771965026855 10.74804019927979 19.19813346862793 14.97309303283691 14.97309303283691 C 19.19813346862793 10.74804019927979 24.11771965026855 7.431066513061523 29.59518623352051 5.114293098449707 C 35.26533508300781 2.716026782989502 41.28937149047852 1.5 47.5 1.5 C 53.71062850952148 1.5 59.73468017578125 2.716026782989502 65.40481567382812 5.114293098449707 C 70.88229370117188 7.431066513061523 75.80186462402344 10.74804019927979 80.02691650390625 14.97309303283691 C 84.25196075439453 19.19813346862793 87.56893157958984 24.11771965026855 89.88570404052734 29.59518623352051 C 92.28397369384766 35.26533508300781 93.5 41.28937149047852 93.5 47.5 C 93.5 53.71062850952148 92.28397369384766 59.73468017578125 89.88570404052734 65.40481567382812 C 87.56893157958984 70.88229370117188 84.25196075439453 75.80186462402344 80.02691650390625 80.02691650390625 C 75.80186462402344 84.25196075439453 70.88229370117188 87.56893157958984 65.40481567382812 89.88570404052734 C 59.73468017578125 92.28397369384766 53.71062850952148 93.5 47.5 93.5 Z" stroke="none"/>
                        <path d="M 47.5 3 C 41.49121475219727 3 35.66376876831055 4.176155090332031 30.17950439453125 6.495796203613281 C 24.88084411621094 8.736953735351562 20.12152099609375 11.94598388671875 16.03375244140625 16.03375244140625 C 11.94598388671875 20.12152099609375 8.736953735351562 24.88084411621094 6.495796203613281 30.17950439453125 C 4.176155090332031 35.66376876831055 3 41.49121475219727 3 47.5 C 3 53.50878524780273 4.176155090332031 59.33623123168945 6.495796203613281 64.82049560546875 C 8.736953735351562 70.11915588378906 11.94598388671875 74.87847900390625 16.03375244140625 78.96624755859375 C 20.12152099609375 83.05401611328125 24.88084411621094 86.26304626464844 30.17950439453125 88.50419616699219 C 35.66376876831055 90.82384490966797 41.49121475219727 92 47.5 92 C 53.50878524780273 92 59.33623123168945 90.82384490966797 64.82049560546875 88.50419616699219 C 70.11915588378906 86.26304626464844 74.87847900390625 83.05401611328125 78.96624755859375 78.96624755859375 C 83.05401611328125 74.87847900390625 86.26304626464844 70.11915588378906 88.50419616699219 64.82049560546875 C 90.82384490966797 59.33623123168945 92 53.50878524780273 92 47.5 C 92 41.49121475219727 90.82384490966797 35.66376876831055 88.50419616699219 30.17950439453125 C 86.26304626464844 24.88084411621094 83.05401611328125 20.12152099609375 78.96624755859375 16.03375244140625 C 74.87847900390625 11.94598388671875 70.11915588378906 8.736953735351562 64.82049560546875 6.495796203613281 C 59.33623123168945 4.176155090332031 53.50878524780273 3 47.5 3 M 47.5 0 C 73.7335205078125 0 95 21.2664794921875 95 47.5 C 95 73.7335205078125 73.7335205078125 95 47.5 95 C 21.2664794921875 95 0 73.7335205078125 0 47.5 C 0 21.2664794921875 21.2664794921875 0 47.5 0 Z" stroke="none" fill="#ba9c5a"/>
                      </g>
                    </g>
                  </g>
                </g>
              </g>
            </g>
          </g>
        </g>
      </g>
      <g id="colombia" transform="translate(541.713 4052.495)">
        <path id="Path_1177119" data-name="Path 1177119" d="M133.971,53.616l.339-.678a2.617,2.617,0,0,0,.142-2l-1.944-5.831a3.927,3.927,0,0,1-.125-2.01l.791-3.953a1.308,1.308,0,0,0-1.282-1.564h-8.168A1.309,1.309,0,0,1,122.634,37l-1.839-2.759a1.308,1.308,0,0,0-1.088-.582H111.1a1.308,1.308,0,0,1-1.3-1.146l-1.022-8.172a1.308,1.308,0,0,0-1.3-1.146h-.325a1.308,1.308,0,0,1-1.088-2.033l5.746-8.62a7.852,7.852,0,0,1,1.821-1.925l1.017-.763a1.308,1.308,0,0,0-.784-2.354h-2.3a3.924,3.924,0,0,0-2.775,1.149l-4.241,4.241a3.923,3.923,0,0,1-2.774,1.149H98.49a3.924,3.924,0,0,0-2.775,1.149L93.707,17.2a2.616,2.616,0,0,0-.766,1.85V20.51a3.924,3.924,0,0,1-.86,2.451L88.369,27.6a1.308,1.308,0,0,1-1.606.353l-.4-.2a1.308,1.308,0,0,0-1.8.684l-1.652,4.129A2.616,2.616,0,0,0,83,34.709l1.262,2.524a7.846,7.846,0,0,1,.829,3.51V48.85a6.54,6.54,0,0,1-.932,3.365l-2,3.329a15.689,15.689,0,0,1-2.36,3.023l-1.395,1.395A1.308,1.308,0,0,0,78.64,62l8.024,5.015a2.616,2.616,0,0,0,2.214.264l1.506-.5a6.248,6.248,0,0,1,3.681.2l9.846,7.979a2.615,2.615,0,0,1,1.037,1.509l.823,3.293a1.308,1.308,0,0,0,1.269.991h10.9a.713.713,0,0,1,.638,1.031l-1.515,3.03a1.308,1.308,0,0,0,.585,1.755l2.909,1.455a.952.952,0,0,0,1.365-.695l2.319-13.914a1.308,1.308,0,0,0-.2-.941L122.136,69.6a1.308,1.308,0,0,1-.082-1.31l1.984-3.968a1.307,1.307,0,0,0,0-1.17l-.177-.353a1.308,1.308,0,0,1,1.025-1.885l10.327-1.147-1.386-4.157a2.615,2.615,0,0,1,.142-2Z" transform="translate(-6.277 -6.276)" fill="#ffe07d"/>
        <path id="Path_1177120" data-name="Path 1177120" d="M121.747,84.22l.345-.691a4.636,4.636,0,0,0-4.147-6.71h-8.862l-.328-1.311a6.542,6.542,0,0,0-2.594-3.771l-11.2-7.84a6.54,6.54,0,0,0-5.818-.846l-.922.307-4.751-2.97a19.625,19.625,0,0,0,2.058-2.825l2-3.33a10.466,10.466,0,0,0,1.491-5.383V40.743a11.831,11.831,0,0,0-1.243-5.264l-1-2,.586-1.464a5.206,5.206,0,0,0,4.073-1.964l3.711-4.639a7.876,7.876,0,0,0,1.72-4.9v-.922l1.625-1.625h3.289a7.8,7.8,0,0,0,5.549-2.3l4.241-4.241h1.162a7.835,7.835,0,0,1,.9-.807l1.017-.763a1.308,1.308,0,0,0-.784-2.354h-2.3a3.924,3.924,0,0,0-2.775,1.149l-4.241,4.241a3.923,3.923,0,0,1-2.774,1.149H98.49a3.924,3.924,0,0,0-2.775,1.149L93.707,17.2a2.616,2.616,0,0,0-.766,1.85V20.51a3.924,3.924,0,0,1-.86,2.451L88.369,27.6a1.308,1.308,0,0,1-1.606.353l-.4-.2a1.308,1.308,0,0,0-1.8.684l-1.652,4.129A2.616,2.616,0,0,0,83,34.709l1.262,2.524a7.846,7.846,0,0,1,.829,3.51V48.85a6.54,6.54,0,0,1-.932,3.365l-2,3.329a15.689,15.689,0,0,1-2.36,3.023l-1.395,1.395A1.308,1.308,0,0,0,78.64,62l8.024,5.015a2.616,2.616,0,0,0,2.214.264l1.506-.5a2.616,2.616,0,0,1,2.327.339l11.2,7.84a2.615,2.615,0,0,1,1.037,1.509l.823,3.293a1.308,1.308,0,0,0,1.269.991h10.9a.713.713,0,0,1,.638,1.032l-1.515,3.03a1.308,1.308,0,0,0,.585,1.755l2.909,1.455a.952.952,0,0,0,1.365-.695l.463-2.778Z" transform="translate(-6.277 -6.276)" fill="#ffd064"/>
        <path id="Path_1177121" data-name="Path 1177121" d="M161.958,368.226H124.552l1.048.655a2.616,2.616,0,0,0,2.214.263l1.506-.5c.786-.262,4.145-.136,4.823.339l8.7,7.84a2.615,2.615,0,0,1,1.038,1.509l.823,3.293a1.308,1.308,0,0,0,1.269.991h10.9a.713.713,0,0,1,.637,1.032L156,386.675a1.308,1.308,0,0,0,.585,1.755l2.909,1.455a.952.952,0,0,0,1.365-.695l2.319-13.914a1.309,1.309,0,0,0-.2-.941l-1.908-2.862a1.308,1.308,0,0,1-.082-1.31Z" transform="translate(-45.212 -308.146)" fill="#e5646e"/>
        <path id="Path_1177122" data-name="Path 1177122" d="M160.683,386.09l.345-.691a4.636,4.636,0,0,0-4.147-6.71h-8.862l-.328-1.311a6.542,6.542,0,0,0-2.594-3.771l-7.686-5.381H124.552l1.048.655a2.616,2.616,0,0,0,2.214.263l1.506-.5a2.616,2.616,0,0,1,2.327.339l11.2,7.84a2.615,2.615,0,0,1,1.037,1.509l.823,3.293a1.308,1.308,0,0,0,1.269.991h10.9a.713.713,0,0,1,.638,1.032L156,386.675a1.308,1.308,0,0,0,.585,1.755l2.909,1.455a.952.952,0,0,0,1.365-.695l.463-2.778Z" transform="translate(-45.212 -308.146)" fill="#db4655"/>
        <path id="Path_1177123" data-name="Path 1177123" d="M133.972,268.279l.339-.678a2.617,2.617,0,0,0,.142-2l-.529-1.588H85.061a6.53,6.53,0,0,1-.9,2.861l-2,3.329a15.691,15.691,0,0,1-2.36,3.023l-1.4,1.4a1.308,1.308,0,0,0,.232,2.034l8.024,5.015a2.616,2.616,0,0,0,2.214.263l1.506-.5a8.024,8.024,0,0,1,2.557-.416h30.082l1.015-2.031a1.307,1.307,0,0,0,0-1.17l-.177-.353a1.308,1.308,0,0,1,1.025-1.885l10.327-1.148-1.386-4.157a2.616,2.616,0,0,1,.142-2Z" transform="translate(-6.278 -220.939)" fill="#6987eb"/>
        <path id="Path_1177124" data-name="Path 1177124" d="M87.526,268.895a10.5,10.5,0,0,0,1.455-4.808l0-.072H85.059a6.529,6.529,0,0,1-.9,2.861l-2,3.33a15.691,15.691,0,0,1-2.36,3.023l-1.395,1.395a1.308,1.308,0,0,0,.232,2.034l8.024,5.015a2.616,2.616,0,0,0,2.214.263l1.506-.5a8.027,8.027,0,0,1,2.557-.416h5.534l-1.531-1.072-1.983-1.388a6.539,6.539,0,0,0-5.818-.847l-.922.307-4.751-2.97a19.624,19.624,0,0,0,2.058-2.825Z" transform="translate(-6.277 -220.938)" fill="#5069d2"/>
        <path id="Path_1177125" data-name="Path 1177125" d="M130.986,55.769l-2.273-6.819a1.383,1.383,0,0,1,.076-1.063l.339-.677a3.814,3.814,0,0,0,.208-2.931l-1.944-5.831a2.7,2.7,0,0,1-.086-1.383l.791-3.953a2.531,2.531,0,0,0-2.482-3.028h-8.168a.084.084,0,0,1-.07-.038l-1.839-2.759a2.526,2.526,0,0,0-2.106-1.127h-8.609a.085.085,0,0,1-.084-.074l-1.021-8.172a2.535,2.535,0,0,0-2.512-2.218h-.325a.084.084,0,0,1-.07-.131l5.746-8.619a6.6,6.6,0,0,1,1.537-1.625l1.017-.763a2.5,2.5,0,0,0,.883-2.826A2.5,2.5,0,0,0,107.591,0h-2.3a5.114,5.114,0,0,0-3.64,1.508L97.411,5.749A2.683,2.683,0,0,1,95.5,6.54H92.213a5.114,5.114,0,0,0-3.64,1.508l-2.008,2.008a3.814,3.814,0,0,0-1.125,2.715v1.464a2.71,2.71,0,0,1-.592,1.687L81.137,20.56a.085.085,0,0,1-.1.023l-.4-.2a2.532,2.532,0,0,0-3.483,1.324L75.5,25.837a3.843,3.843,0,0,0,.131,3.143L76.893,31.5a6.656,6.656,0,0,1,.7,2.962v8.107a5.316,5.316,0,0,1-.758,2.735l-2,3.329a14.485,14.485,0,0,1-2.176,2.787l-1.395,1.4a2.532,2.532,0,0,0,.448,3.937l8.024,5.015a3.828,3.828,0,0,0,3.249.387l1.547-.516a6.609,6.609,0,0,1,2.095-.34h28.137l-.083.166a2.537,2.537,0,0,0,.158,2.536l1.908,2.862a.084.084,0,0,1,.013.061L114.5,80.479l-2.58-1.29a.085.085,0,0,1-.038-.113l2.031-4.062a1.224,1.224,0,0,0-1.094-1.771H100.764a.084.084,0,0,1-.082-.064l-.823-3.293a3.839,3.839,0,0,0-1.523-2.214L92.6,63.657a1.224,1.224,0,1,0-1.4,2l5.736,4.015a1.393,1.393,0,0,1,.552.8l.823,3.293a2.528,2.528,0,0,0,2.456,1.918h10.078L109.7,77.981a2.535,2.535,0,0,0,1.132,3.4l4.062,2.031a1.224,1.224,0,0,0,1.754-.893l2.531-15.185a2.522,2.522,0,0,0-.391-1.821l-1.908-2.862a.084.084,0,0,1-.005-.085l1.984-3.968a2.543,2.543,0,0,0,0-2.264l-.177-.353a.084.084,0,0,1,.066-.121l9.344-1.038.575,1.724a1.224,1.224,0,0,0,2.322-.774Zm-12.511-2.344a2.532,2.532,0,0,0-1.985,3.648l.177.353a.085.085,0,0,1,0,.075l-.677,1.354H86.629a9.052,9.052,0,0,0-2.869.466l-1.547.516a1.387,1.387,0,0,1-1.178-.14l-8.024-5.015A.084.084,0,0,1,73,54.551l1.395-1.395A16.93,16.93,0,0,0,76.936,49.9l2-3.33a7.762,7.762,0,0,0,.908-2.267h36.9a1.224,1.224,0,1,0,0-2.447H80.04V34.466a9.116,9.116,0,0,0-.958-4.057l-1.262-2.524a1.394,1.394,0,0,1-.047-1.14l1.652-4.129a.084.084,0,0,1,.116-.044l.4.2a2.545,2.545,0,0,0,3.109-.683L86.76,17.45a5.166,5.166,0,0,0,1.128-3.216V12.771a1.383,1.383,0,0,1,.408-.984L90.3,9.778a2.682,2.682,0,0,1,1.909-.791H95.5a5.114,5.114,0,0,0,3.64-1.508l4.241-4.241a2.683,2.683,0,0,1,1.909-.791h2.3c.037,0,.061,0,.08.058s0,.072-.029.094l-1.017.763a9.045,9.045,0,0,0-2.1,2.225l-5.747,8.619a2.531,2.531,0,0,0,2.106,3.936h.325a.084.084,0,0,1,.084.074l1.021,8.172a2.535,2.535,0,0,0,2.512,2.218h8.609a.084.084,0,0,1,.07.038l1.839,2.759a2.526,2.526,0,0,0,2.106,1.127h8.168a.084.084,0,0,1,.083.1l-.791,3.953a5.156,5.156,0,0,0,.164,2.637l.877,2.632h-3.97a1.224,1.224,0,1,0,0,2.447h4.786l.25.751a1.382,1.382,0,0,1-.076,1.063l-.339.677a3.814,3.814,0,0,0-.208,2.931l.907,2.721Z" transform="translate(0 0)"/>
      </g>
    </g>
  </g>
</svg>
