<svg xmlns="http://www.w3.org/2000/svg" xmlns:xlink="http://www.w3.org/1999/xlink" width="110" height="110" viewBox="0 0 110 110">
  <defs>
    <filter id="Path_982547" x="0" y="0" width="110" height="110" filterUnits="userSpaceOnUse">
      <feOffset dy="3" input="SourceAlpha"/>
      <feGaussianBlur stdDeviation="3" result="blur"/>
      <feFlood flood-opacity="0.161"/>
      <feComposite operator="in" in2="blur"/>
      <feComposite in="SourceGraphic"/>
    </filter>
  </defs>
  <g id="Group_1223842" data-name="Group 1223842" transform="translate(-3394 -1959.069)">
    <g id="Group_1223778" data-name="Group 1223778">
      <g id="Group_1221874" data-name="Group 1221874" transform="translate(3017 -4114.21)">
        <g id="Group_1200150" data-name="Group 1200150" transform="translate(386 6079.28)">
          <g id="Group_1185951" data-name="Group 1185951" transform="translate(0 0)">
            <g id="Group_1184083" data-name="Group 1184083" transform="translate(0 0)">
              <g id="Group_1183743" data-name="Group 1183743" transform="translate(0 0)">
                <g id="Group_1181545" data-name="Group 1181545">
                  <g id="Group_1177562" data-name="Group 1177562">
                    <g id="Group_1173147" data-name="Group 1173147" transform="translate(0 0)">
                      <g id="Group_1163801" data-name="Group 1163801" transform="translate(0 0)">
                        <g id="Group_1163014" data-name="Group 1163014" transform="translate(0 0)">
                          <g id="Group_1157015" data-name="Group 1157015" transform="translate(0 0)">
                            <g id="Group_1155792" data-name="Group 1155792" transform="translate(0 0)">
                              <g id="Group_1154703" data-name="Group 1154703" transform="translate(0 0)">
                                <g id="Group_1150789" data-name="Group 1150789">
                                  <g id="Group_1154212" data-name="Group 1154212">
                                    <g id="Group_1152583" data-name="Group 1152583">
                                      <g id="Group_1146973" data-name="Group 1146973">
                                        <g id="Group_1146954" data-name="Group 1146954">
                                          <g transform="matrix(1, 0, 0, 1, -9, -6)" filter="url(#Path_982547)">
                                            <g id="Path_982547-2" data-name="Path 982547" transform="translate(9 6)" fill="#f2d944">
                                              <path d="M 46.00000762939453 90.49988555908203 C 39.99188613891602 90.49988555908203 34.16427612304688 89.32352447509766 28.67906188964844 87.00347137451172 C 23.38020706176758 84.76226043701172 18.62104797363281 81.55342864990234 14.53375434875488 77.46615600585938 C 10.44647407531738 73.37887573242188 7.237647533416748 68.61971282958984 4.996420860290527 63.32085800170898 C 2.676367521286011 57.83565902709961 1.500007629394531 52.00806045532227 1.500007629394531 45.99993896484375 C 1.500007629394531 39.99181747436523 2.676367521286011 34.16421890258789 4.996420860290527 28.67901802062988 C 7.237647533416748 23.38017845153809 10.44647407531738 18.62101936340332 14.53375434875488 14.53373908996582 C 18.62104797363281 10.44645881652832 23.38020706176758 7.237632274627686 28.67906188964844 4.996418952941895 C 34.16427612304688 2.676365613937378 39.99188613891602 1.500005602836609 46.00000762939453 1.500005602836609 C 52.00812911987305 1.500005602836609 57.83573913574219 2.676365613937378 63.32095336914062 4.996418952941895 C 68.61980438232422 7.237632274627686 73.37896728515625 10.44645881652832 77.46626281738281 14.53373908996582 C 81.55354309082031 18.62101936340332 84.76236724853516 23.38017845153809 87.00359344482422 28.67901802062988 C 89.32364654541016 34.16421890258789 90.50000762939453 39.99181747436523 90.50000762939453 45.99993896484375 C 90.50000762939453 52.00806045532227 89.32364654541016 57.83565902709961 87.00359344482422 63.32085800170898 C 84.76236724853516 68.61971282958984 81.55354309082031 73.37887573242188 77.46626281738281 77.46615600585938 C 73.37896728515625 81.55342864990234 68.61980438232422 84.76226043701172 63.32095336914062 87.00347137451172 C 57.83573913574219 89.32352447509766 52.00812911987305 90.49988555908203 46.00000762939453 90.49988555908203 Z" stroke="none"/>
                                              <path d="M 46.00000762939453 2.999992370605469 C 40.19372177124023 2.999992370605469 34.56270599365234 4.136497497558594 29.26339340209961 6.377906799316406 C 24.14333343505859 8.543510437011719 19.54441833496094 11.64437866210938 15.59440612792969 15.59439849853516 C 11.6444091796875 19.54439544677734 8.543525695800781 24.14329528808594 6.377922058105469 29.26335144042969 C 4.136505126953125 34.56266784667969 3.000007629394531 40.19366836547852 3.000007629394531 45.99993896484375 C 3.000007629394531 51.80620956420898 4.136505126953125 57.43722534179688 6.377922058105469 62.73654174804688 C 8.543525695800781 67.85658264160156 11.6444091796875 72.45548248291016 15.59440612792969 76.40549468994141 C 19.54441833496094 80.35549926757812 24.14333343505859 83.45636749267578 29.26337814331055 85.62196350097656 C 34.56270599365234 87.86338043212891 40.19372177124023 88.9998779296875 46.00000762939453 88.9998779296875 C 51.80629348754883 88.9998779296875 57.43730926513672 87.86338043212891 62.73662185668945 85.62196350097656 C 67.85668182373047 83.45636749267578 72.45558166503906 80.35549926757812 76.40559387207031 76.40549468994141 C 80.35560607910156 72.45548248291016 83.45648193359375 67.85658264160156 85.62207794189453 62.73654174804688 C 87.86351013183594 57.43722534179688 89.00000762939453 51.80620956420898 89.00000762939453 45.99993896484375 C 89.00000762939453 40.19366836547852 87.86351013183594 34.56266784667969 85.62207794189453 29.26335144042969 C 83.45648193359375 24.14329528808594 80.35560607910156 19.54439544677734 76.40559387207031 15.59439849853516 C 72.45558166503906 11.64437866210938 67.85668182373047 8.543510437011719 62.73662185668945 6.377906799316406 C 57.43729400634766 4.136497497558594 51.80629348754883 2.999992370605469 46.00000762939453 2.999992370605469 M 46.00000762939453 -7.62939453125e-06 C 71.40509033203125 -7.62939453125e-06 92.00000762939453 20.59487915039062 92.00000762939453 45.99993896484375 C 92.00000762939453 71.40501403808594 71.40509033203125 91.99988555908203 46.00000762939453 91.99988555908203 C 20.59490966796875 91.99988555908203 7.62939453125e-06 71.40501403808594 7.62939453125e-06 45.99993896484375 C 7.62939453125e-06 20.59487915039062 20.59490966796875 -7.62939453125e-06 46.00000762939453 -7.62939453125e-06 Z" stroke="none" fill="#ba9c5a"/>
                                            </g>
                                          </g>
                                        </g>
                                      </g>
                                    </g>
                                  </g>
                                </g>
                              </g>
                            </g>
                          </g>
                        </g>
                      </g>
                    </g>
                  </g>
                </g>
              </g>
            </g>
          </g>
        </g>
      </g>
      <g id="obediente_11_" data-name="obediente (11)" transform="translate(3407.372 1980.561)">
        <g id="Group_1223768" data-name="Group 1223768" transform="translate(10.797 1.066)">
          <g id="Group_1223766" data-name="Group 1223766" transform="translate(0)">
            <g id="Group_1223763" data-name="Group 1223763" transform="translate(0 27.86)">
              <g id="Group_1223756" data-name="Group 1223756" transform="translate(0 0)">
                <path id="Path_1177311" data-name="Path 1177311" d="M39.218,204.08l2.561,4.436a.427.427,0,0,0,.369.213H59.7a.427.427,0,0,0,.369-.213l2.561-4.436a.427.427,0,0,0-.369-.64H39.588a.427.427,0,0,0-.369.64Z" transform="translate(-39.16 -203.44)" fill="#fed402"/>
              </g>
              <g id="Group_1223762" data-name="Group 1223762">
                <g id="Group_1223757" data-name="Group 1223757" transform="translate(38.137 0)">
                  <path id="Path_1177312" data-name="Path 1177312" d="M307.44,204.08,310,208.516a.427.427,0,0,0,.369.213h17.549a.426.426,0,0,0,.369-.213l2.561-4.436a.427.427,0,0,0-.369-.64H307.809A.427.427,0,0,0,307.44,204.08Z" transform="translate(-307.382 -203.44)" fill="#fed402"/>
                </g>
                <g id="Group_1223758" data-name="Group 1223758" transform="translate(0 0)">
                  <path id="Path_1177313" data-name="Path 1177313" d="M39.218,204.08l2.561,4.436a.427.427,0,0,0,.369.213H59.7a.427.427,0,0,0,.369-.213l2.561-4.436a.427.427,0,0,0-.369-.64H39.588a.427.427,0,0,0-.369.64Z" transform="translate(-39.16 -203.44)" fill="#ca6e59"/>
                </g>
                <g id="Group_1223759" data-name="Group 1223759" transform="translate(0)">
                  <path id="Path_1177314" data-name="Path 1177314" d="M47.806,208.515l-2.561-4.436a.427.427,0,0,1,.369-.64H39.588a.427.427,0,0,0-.369.64l2.561,4.436a.427.427,0,0,0,.369.213h6.026A.427.427,0,0,1,47.806,208.515Z" transform="translate(-39.161 -203.439)" fill="#bb5d4c"/>
                </g>
                <g id="Group_1223760" data-name="Group 1223760" transform="translate(38.137 0)">
                  <path id="Path_1177315" data-name="Path 1177315" d="M307.44,204.08,310,208.516a.427.427,0,0,0,.369.213h17.549a.426.426,0,0,0,.369-.213l2.561-4.436a.427.427,0,0,0-.369-.64H307.809A.427.427,0,0,0,307.44,204.08Z" transform="translate(-307.382 -203.44)" fill="#ca6e59"/>
                </g>
                <g id="Group_1223761" data-name="Group 1223761" transform="translate(38.137)">
                  <path id="Path_1177316" data-name="Path 1177316" d="M316.772,208.515l-2.561-4.436a.427.427,0,0,1,.369-.64H307.81a.427.427,0,0,0-.369.64L310,208.515a.427.427,0,0,0,.369.213h6.771A.426.426,0,0,1,316.772,208.515Z" transform="translate(-307.383 -203.439)" fill="#bb5d4c"/>
                </g>
              </g>
            </g>
            <path id="Path_1177317" data-name="Path 1177317" d="M241.663,129.905V103.834a.711.711,0,0,0-.711-.711h-4.275a.711.711,0,0,0-.711.711v26.071h5.7Z" transform="translate(-207.983 -89.527)" fill="#bb5d4c"/>
            <path id="Path_1177318" data-name="Path 1177318" d="M238.378,129.905V103.834a.711.711,0,0,1,.711-.711h-2.412a.711.711,0,0,0-.711.711v26.071h2.412Z" transform="translate(-207.983 -89.527)" fill="#a44f3e"/>
            <g id="Group_1223764" data-name="Group 1223764" transform="translate(26.851 0)">
              <circle id="Ellipse_14524" data-name="Ellipse 14524" cx="3.98" cy="3.98" r="3.98" fill="#883f2e"/>
            </g>
            <g id="Group_1223765" data-name="Group 1223765" transform="translate(26.851)">
              <path id="Path_1177319" data-name="Path 1177319" d="M231.56,11.48a3.979,3.979,0,0,1,2.2-3.561,3.98,3.98,0,1,0,0,7.123A3.98,3.98,0,0,1,231.56,11.48Z" transform="translate(-228.005 -7.5)" fill="#6d3326"/>
            </g>
          </g>
          <g id="Group_1223767" data-name="Group 1223767" transform="translate(5.48 40.378)">
            <path id="Path_1177320" data-name="Path 1177320" d="M222.549,297.6v-3.266a2.844,2.844,0,0,0-2.844-2.844H212.1a2.844,2.844,0,0,0-2.844,2.844V297.6Z" transform="translate(-190.551 -291.485)" fill="#883f2e"/>
            <path id="Path_1177321" data-name="Path 1177321" d="M214.053,297.6v-3.266a2.844,2.844,0,0,1,2.844-2.844h-4.8a2.844,2.844,0,0,0-2.844,2.844V297.6Z" transform="translate(-190.55 -291.485)" fill="#6d3326"/>
            <path id="Path_1177322" data-name="Path 1177322" d="M195.294,340.933v-4.039a2.437,2.437,0,0,0-2.437-2.437H173.609a2.437,2.437,0,0,0-2.437,2.437v4.039Z" transform="translate(-157.882 -328.347)" fill="#bb5d4c"/>
            <path id="Path_1177323" data-name="Path 1177323" d="M177.169,340.933v-4.039a2.437,2.437,0,0,1,2.437-2.437h-6a2.437,2.437,0,0,0-2.437,2.437v4.039Z" transform="translate(-157.883 -328.347)" fill="#a44f3e"/>
            <path id="Path_1177324" data-name="Path 1177324" d="M81.5,379.006a3.8,3.8,0,0,0-3.8,3.8v7.216a3.8,3.8,0,0,0,3.8,3.8H83.04V383.753h7.766v10.065h43.486V379.006Z" transform="translate(-77.703 -366.562)" fill="#fff3de"/>
          </g>
        </g>
        <g id="Group_1223777" data-name="Group 1223777" transform="translate(7.162 53.889)">
          <g id="Group_1223772" data-name="Group 1223772" transform="translate(0)">
            <g id="Group_1223769" data-name="Group 1223769">
              <path id="Path_1177325" data-name="Path 1177325" d="M26.509,393.818a3.8,3.8,0,0,1-3.8-3.8V382.8a3.8,3.8,0,0,1,3.8-3.8H21a7.406,7.406,0,0,0,0,14.812h5.507Z" transform="translate(-13.596 -379.006)" fill="#3675bb"/>
            </g>
            <g id="Group_1223770" data-name="Group 1223770">
              <path id="Path_1177326" data-name="Path 1177326" d="M17.193,386.412a7.406,7.406,0,0,1,7.406-7.406H21a7.406,7.406,0,0,0,0,14.812h3.6A7.406,7.406,0,0,1,17.193,386.412Z" transform="translate(-13.596 -379.006)" fill="#2b68b6"/>
            </g>
            <g id="Group_1223771" data-name="Group 1223771" transform="translate(9.115 0.005)">
              <path id="Path_1177327" data-name="Path 1177327" d="M83.04,389.686a3.794,3.794,0,0,1-1.74-3.191v-7.216c0-.08,0-.159.008-.238a3.8,3.8,0,0,0-3.6,3.793v7.216a3.8,3.8,0,0,0,3.8,3.8H83.04Z" transform="translate(-77.703 -379.041)" fill="#ffe5c2"/>
              <path id="Path_1177328" data-name="Path 1177328" d="M169.857,458.174h43.486v3.556H169.857Z" transform="translate(-156.754 -446.922)" fill="#ffe5c2"/>
            </g>
          </g>
          <g id="Group_1223776" data-name="Group 1223776" transform="translate(14.452 4.747)">
            <g id="Group_1223773" data-name="Group 1223773">
              <path id="Path_1177329" data-name="Path 1177329" d="M123.006,425.064V412.4H115.24v12.669a.427.427,0,0,0,.669.351l3.214-2.224,3.214,2.224A.427.427,0,0,0,123.006,425.064Z" transform="translate(-115.24 -412.395)" fill="#fb2b3a"/>
            </g>
            <g id="Group_1223775" data-name="Group 1223775" transform="translate(0)">
              <g id="Group_1223774" data-name="Group 1223774">
                <path id="Path_1177330" data-name="Path 1177330" d="M118.815,412.4H115.24v12.669a.427.427,0,0,0,.669.351l2.906-2.011Z" transform="translate(-115.24 -412.395)" fill="#e41f2d"/>
              </g>
            </g>
          </g>
        </g>
        <path id="Path_1177331" data-name="Path 1177331" d="M76.095,67.634H73.933V54.955h2.162a1.066,1.066,0,0,0,0-2.133H54.756V49.992a3.507,3.507,0,0,0-3.5-3.5H49.341v-2.2a3.914,3.914,0,0,0-3.8-3.907V23.176a1.066,1.066,0,1,0-2.133,0v17.2H39.847V15.729h3.564V18.2a1.066,1.066,0,1,0,2.133,0V15.373A1.779,1.779,0,0,0,43.766,13.6H42.695V9.979a5.061,5.061,0,0,0,3.866-3.866h13.07V8.058L49.2,27.87A1.49,1.49,0,0,0,48.068,30.1l2.561,4.436a1.5,1.5,0,0,0,1.293.747H61.961a1.066,1.066,0,1,0,0-2.133H52.292L50.47,29.992H70.925L69.1,33.149H66.937a1.066,1.066,0,0,0,0,2.133h2.534a1.5,1.5,0,0,0,1.293-.746L73.326,30.1A1.49,1.49,0,0,0,72.19,27.87L61.764,8.058V6.113h3.992a1.066,1.066,0,1,0,0-2.133H46.561a5.046,5.046,0,0,0-9.865,0H17.5a1.066,1.066,0,1,0,0,2.133h3.992V8.058L11.067,27.87A1.49,1.49,0,0,0,9.931,30.1h0l2.561,4.436a1.5,1.5,0,0,0,1.293.746H31.335a1.5,1.5,0,0,0,1.293-.746L35.189,30.1a1.49,1.49,0,0,0-1.135-2.229L23.626,8.058V6.113H36.7a5.061,5.061,0,0,0,3.866,3.866V13.6H39.491a1.779,1.779,0,0,0-1.777,1.777V40.381a3.914,3.914,0,0,0-3.8,3.907v2.2H32a3.508,3.508,0,0,0-3.5,3.5v2.831H14.568a8.472,8.472,0,1,0,0,16.945h5.98V71.3a1.493,1.493,0,0,0,2.342,1.228l2.607-1.8,2.607,1.8A1.493,1.493,0,0,0,30.447,71.3V69.767H76.095a1.066,1.066,0,1,0,0-2.132ZM59.631,27.86H51.619l8.011-15.222Zm2.133-15.222L69.775,27.86H61.764Zm-40.27,0V27.86H13.482Zm9.471,20.511H14.155l-1.822-3.157H32.788Zm.673-5.289H23.627V12.638ZM38.714,5.047a2.914,2.914,0,1,1,2.914,2.914A2.917,2.917,0,0,1,38.714,5.047ZM36.049,44.288a1.779,1.779,0,0,1,1.777-1.777h7.605a1.779,1.779,0,0,1,1.777,1.777v2.2H36.049ZM14.568,67.634a6.34,6.34,0,1,1,0-12.679h1.484a4.836,4.836,0,0,0-.842,2.732V64.9a4.835,4.835,0,0,0,.842,2.732Zm13.745,2.45L26.1,68.555a1.066,1.066,0,0,0-1.214,0l-2.21,1.529V59.7h5.633ZM71.8,57.57H48.75a1.066,1.066,0,1,0,0,2.133H71.8v3.184H48.75a1.066,1.066,0,1,0,0,2.133H71.8v2.615H30.447V59.7h9a1.066,1.066,0,0,0,0-2.133H20.075a1.066,1.066,0,0,0,0,2.133h.473v7.932h-.473A2.735,2.735,0,0,1,17.344,64.9V57.687a2.735,2.735,0,0,1,2.732-2.732H37.221a1.066,1.066,0,1,0,0-2.133H30.634V49.992A1.372,1.372,0,0,1,32,48.621H51.253a1.372,1.372,0,0,1,1.371,1.371v2.831H42.2a1.066,1.066,0,1,0,0,2.133H71.8Z"/>
      </g>
    </g>
  </g>
</svg>
