<svg xmlns="http://www.w3.org/2000/svg" xmlns:xlink="http://www.w3.org/1999/xlink" width="93.934" height="93.934" viewBox="0 0 93.934 93.934">
  <defs>
    <filter id="Path_982547" x="0" y="0" width="93.934" height="93.934" filterUnits="userSpaceOnUse">
      <feOffset dy="3" input="SourceAlpha"/>
      <feGaussianBlur stdDeviation="3" result="blur"/>
      <feFlood flood-opacity="0.161"/>
      <feComposite operator="in" in2="blur"/>
      <feComposite in="SourceGraphic"/>
    </filter>
  </defs>
  <g id="Group_1223813" data-name="Group 1223813" transform="translate(-611.066 -2217.561)">
    <g id="Group_1223625" data-name="Group 1223625">
      <g id="Group_1220446" data-name="Group 1220446" transform="translate(420 -5850.439)">
        <g id="Group_1219553" data-name="Group 1219553" transform="translate(0 -381.729)">
          <g id="Group_1214711" data-name="Group 1214711" transform="translate(-0.229 3321.729)">
            <g id="Group_1214432" data-name="Group 1214432" transform="translate(-0.771 -2738.674)">
              <g id="Group_1183196" data-name="Group 1183196" transform="translate(1 1016.674)">
                <g id="Group_1179610" data-name="Group 1179610" transform="translate(8 4723.467)">
                  <g id="Group_1175227" data-name="Group 1175227" transform="translate(-5.967 140.533)">
                    <g id="Group_1167337" data-name="Group 1167337" transform="translate(198.033 1992)">
                      <g id="Group_1166720" data-name="Group 1166720">
                        <g id="Group_1164305" data-name="Group 1164305">
                          <g id="Group_1163948" data-name="Group 1163948">
                            <g id="Group_1158168" data-name="Group 1158168">
                              <g id="Group_1152576" data-name="Group 1152576">
                                <g id="Group_1148633" data-name="Group 1148633">
                                  <g id="Group_1148525" data-name="Group 1148525">
                                    <g transform="matrix(1, 0, 0, 1, -9, -6)" filter="url(#Path_982547)">
                                      <g id="Path_982547-2" data-name="Path 982547" transform="translate(9 6)" fill="#f7f4ed">
                                        <path d="M 37.966796875 74.43359375 C 33.04315185546875 74.43359375 28.26757431030273 73.46962738037109 23.77274131774902 71.56847381591797 C 19.43047523498535 69.73184967041016 15.53040790557861 67.10224914550781 12.18087482452393 63.75271987915039 C 8.831341743469238 60.4031867980957 6.201741218566895 56.50312042236328 4.365118980407715 52.16086196899414 C 2.463963508605957 47.66601943969727 1.499996900558472 42.89044189453125 1.499996900558472 37.966796875 C 1.499996900558472 33.04315185546875 2.463963508605957 28.26757431030273 4.365118980407715 23.77274131774902 C 6.201741218566895 19.43047523498535 8.831341743469238 15.53040790557861 12.18087482452393 12.18087482452393 C 15.53040790557861 8.831341743469238 19.43047523498535 6.201741218566895 23.77274131774902 4.365118980407715 C 28.26757431030273 2.463963508605957 33.04315185546875 1.499996900558472 37.966796875 1.499996900558472 C 42.89044189453125 1.499996900558472 47.66601943969727 2.463963508605957 52.16086196899414 4.365118980407715 C 56.50312042236328 6.201741218566895 60.4031867980957 8.831341743469238 63.75271987915039 12.18087482452393 C 67.10224914550781 15.53040790557861 69.73184967041016 19.43047523498535 71.56847381591797 23.77274131774902 C 73.46962738037109 28.26757431030273 74.43359375 33.04315185546875 74.43359375 37.966796875 C 74.43359375 42.89044189453125 73.46962738037109 47.66601943969727 71.56847381591797 52.16086196899414 C 69.73184967041016 56.50313186645508 67.10224914550781 60.4031867980957 63.75271987915039 63.75271987915039 C 60.4031867980957 67.10224914550781 56.50313186645508 69.73184967041016 52.16086196899414 71.56847381591797 C 47.66601943969727 73.46962738037109 42.89044189453125 74.43359375 37.966796875 74.43359375 Z" stroke="none"/>
                                        <path d="M 37.966796875 3 C 33.2449836730957 3 28.66600799560547 3.924095153808594 24.35705947875977 5.746635437011719 C 20.19359588623047 7.507637023925781 16.45379638671875 10.02928161621094 13.24153518676758 13.24153518676758 C 10.02927398681641 16.45379638671875 7.507621765136719 20.19359588623047 5.746635437011719 24.35705947875977 C 3.924095153808594 28.66600799560547 3 33.2449836730957 3 37.966796875 C 3 42.6886100769043 3.924095153808594 47.26758575439453 5.746635437011719 51.57653427124023 C 7.507621765136719 55.73999786376953 10.02927398681641 59.47979736328125 13.24153518676758 62.69205856323242 C 16.45379638671875 65.90431976318359 20.19359588623047 68.42597198486328 24.35705947875977 70.18695831298828 C 28.66600799560547 72.00949859619141 33.2449836730957 72.93359375 37.966796875 72.93359375 C 42.6886100769043 72.93359375 47.26758575439453 72.00949859619141 51.57653427124023 70.18695831298828 C 55.73999786376953 68.42597198486328 59.47979736328125 65.90431976318359 62.69205856323242 62.69205856323242 C 65.90431976318359 59.47979736328125 68.42597198486328 55.73999786376953 70.18695831298828 51.57653427124023 C 72.00949859619141 47.26758575439453 72.93359375 42.6886100769043 72.93359375 37.966796875 C 72.93359375 33.2449836730957 72.00949859619141 28.66600799560547 70.18695831298828 24.35705947875977 C 68.42597198486328 20.19359588623047 65.90431976318359 16.45379638671875 62.69205856323242 13.24153518676758 C 59.47979736328125 10.02928161621094 55.73999786376953 7.507637023925781 51.57653427124023 5.746635437011719 C 47.26758575439453 3.924095153808594 42.6886100769043 3 37.966796875 3 M 37.966796875 0 C 58.93528366088867 0 75.93359375 16.99832153320312 75.93359375 37.966796875 C 75.93359375 58.93528366088867 58.93528366088867 75.93359375 37.966796875 75.93359375 C 16.99831008911133 75.93359375 0 58.93528366088867 0 37.966796875 C 0 16.99832153320312 16.99831008911133 0 37.966796875 0 Z" stroke="none" fill="#655531"/>
                                      </g>
                                    </g>
                                  </g>
                                </g>
                              </g>
                            </g>
                          </g>
                        </g>
                      </g>
                    </g>
                  </g>
                </g>
              </g>
            </g>
          </g>
        </g>
      </g>
      <g id="obediente_10_" data-name="obediente (10)" transform="translate(614.722 2239.494)">
        <g id="Group_1223601" data-name="Group 1223601" transform="translate(26.942 0.879)">
          <path id="Path_1177000" data-name="Path 1177000" d="M154.22,7.5H116.9a.586.586,0,0,0-.586.586V24.331h3.843a2.872,2.872,0,0,1,.2,5.736V33.63h0a1.171,1.171,0,0,1,.994,1.157v7.274a1.171,1.171,0,0,1-.994,1.157h0v3.563a2.872,2.872,0,0,1-.2,5.736h-3.843v4.809H124.4a1.172,1.172,0,0,1,1.172,1.172V60.83s0,0,0,0h.893A1.172,1.172,0,0,1,127.639,62v3.737h27.167V8.086A.586.586,0,0,0,154.22,7.5Z" transform="translate(-116.315 -7.5)" fill="#fff3de"/>
        </g>
        <g id="Group_1223602" data-name="Group 1223602" transform="translate(26.942 0.879)">
          <path id="Path_1177001" data-name="Path 1177001" d="M120.158,24.331l.1,0V8.086a.586.586,0,0,1,.586-.586H116.9a.586.586,0,0,0-.586.586V24.331Z" transform="translate(-116.315 -7.5)" fill="#ffe5c2"/>
          <path id="Path_1177002" data-name="Path 1177002" d="M120.158,391.63h-3.843v4.809h3.947v-4.812Z" transform="translate(-116.315 -346.612)" fill="#ffe5c2"/>
        </g>
        <g id="Group_1223620" data-name="Group 1223620" transform="translate(15.957 17.71)">
          <g id="Group_1223603" data-name="Group 1223603" transform="translate(16.022 12.089)">
            <path id="Path_1177003" data-name="Path 1177003" d="M159.3,254.29h5.424V258.3H159.3Z" transform="translate(-159.296 -254.29)" fill="#883f2e"/>
            <path id="Path_1177004" data-name="Path 1177004" d="M237.5,254.29h7.748V258.3H237.5Z" transform="translate(-228.337 -254.29)" fill="#883f2e"/>
          </g>
          <g id="Group_1223604" data-name="Group 1223604" transform="translate(16.022 14.165)">
            <path id="Path_1177005" data-name="Path 1177005" d="M159.3,272h5.424v1.932H159.3Z" transform="translate(-159.296 -272)" fill="#6d3326"/>
            <path id="Path_1177006" data-name="Path 1177006" d="M237.5,272h7.748v1.932H237.5Z" transform="translate(-228.337 -272)" fill="#6d3326"/>
          </g>
          <g id="Group_1223605" data-name="Group 1223605" transform="translate(32.934 11.154)">
            <path id="Path_1177007" data-name="Path 1177007" d="M325.39,249.249a2.939,2.939,0,0,1-2.939,2.939H304.284a.668.668,0,0,1-.668-.668v-4.542a.668.668,0,0,1,.668-.668h18.167A2.939,2.939,0,0,1,325.39,249.249Z" transform="translate(-303.616 -246.31)" fill="#ca6e59"/>
          </g>
          <g id="Group_1223606" data-name="Group 1223606" transform="translate(32.934 11.154)">
            <path id="Path_1177008" data-name="Path 1177008" d="M307.61,249.672a.668.668,0,0,1-.668-.668V246.31h-2.658a.668.668,0,0,0-.668.668v4.542a.668.668,0,0,0,.668.668h18.167a2.939,2.939,0,0,0,2.908-2.516Z" transform="translate(-303.616 -246.31)" fill="#bb5d4c"/>
          </g>
          <g id="Group_1223607" data-name="Group 1223607" transform="translate(21.446 11.154)">
            <path id="Path_1177009" data-name="Path 1177009" d="M209.325,246.9V251.6a.586.586,0,0,1-.586.586h-2.568a.586.586,0,0,1-.586-.586V246.9a.586.586,0,0,1,.586-.586h2.568A.586.586,0,0,1,209.325,246.9Z" transform="translate(-205.585 -246.311)" fill="#ca6e59"/>
          </g>
          <g id="Group_1223608" data-name="Group 1223608" transform="translate(21.446 11.154)">
            <path id="Path_1177010" data-name="Path 1177010" d="M207.284,251.6V246.9a.586.586,0,0,1,.586-.586h-1.7a.586.586,0,0,0-.586.586V251.6a.586.586,0,0,0,.586.586h1.7A.586.586,0,0,1,207.284,251.6Z" transform="translate(-205.585 -246.311)" fill="#bb5d4c"/>
          </g>
          <g id="Group_1223609" data-name="Group 1223609" transform="translate(7.28 5.736)">
            <path id="Path_1177011" data-name="Path 1177011" d="M92.272,312.312H84.881a1.177,1.177,0,0,1-.178-.015v3.563c.066,0,.133-.008.2-.008H92.25c.067,0,.134,0,.2.008V312.3A1.162,1.162,0,0,1,92.272,312.312Z" transform="translate(-84.703 -299.146)" fill="#883f2e"/>
            <path id="Path_1177012" data-name="Path 1177012" d="M84.881,312.312a1.177,1.177,0,0,1-.178-.015v3.563c.066,0,.133-.008.2-.008h2.751v-3.54H84.881Z" transform="translate(-84.703 -299.146)" fill="#6d3326"/>
            <path id="Path_1177013" data-name="Path 1177013" d="M84.881,203.627h7.391a1.177,1.177,0,0,1,.178.015v-3.563c-.066,0-.133.008-.2.008H84.9c-.067,0-.134,0-.2-.008v3.563A1.177,1.177,0,0,1,84.881,203.627Z" transform="translate(-84.703 -200.079)" fill="#883f2e"/>
            <path id="Path_1177014" data-name="Path 1177014" d="M84.881,203.626h2.773v-3.54H84.9c-.067,0-.134,0-.2-.008v3.563a1.193,1.193,0,0,1,.178-.015Z" transform="translate(-84.703 -200.078)" fill="#6d3326"/>
          </g>
          <g id="Group_1223610" data-name="Group 1223610" transform="translate(6.287 9.284)">
            <path id="Path_1177015" data-name="Path 1177015" d="M85.96,231.524V238.8a1.172,1.172,0,0,1-1.172,1.172H77.4a1.172,1.172,0,0,1-1.172-1.172v-7.274a1.172,1.172,0,0,1,1.172-1.172h7.391A1.172,1.172,0,0,1,85.96,231.524Z" transform="translate(-76.225 -230.352)" fill="#ca6e59"/>
          </g>
          <g id="Group_1223611" data-name="Group 1223611" transform="translate(6.287 9.284)">
            <path id="Path_1177016" data-name="Path 1177016" d="M80.183,238.8v-7.274a1.172,1.172,0,0,1,1.172-1.172H77.4a1.172,1.172,0,0,0-1.172,1.172V238.8A1.172,1.172,0,0,0,77.4,239.97h3.958A1.172,1.172,0,0,1,80.183,238.8Z" transform="translate(-76.225 -230.352)" fill="#bb5d4c"/>
          </g>
          <g id="Group_1223614" data-name="Group 1223614" transform="translate(0 32.995)">
            <path id="Path_1177017" data-name="Path 1177017" d="M58.368,436.309a1.2,1.2,0,0,0,.006-.12v-2.332a1.172,1.172,0,0,0-1.172-1.172H41.367a1.172,1.172,0,0,0-1.172,1.172v2.332a1.2,1.2,0,0,0,.006.12Z" transform="translate(-38.131 -432.685)" fill="#ca6e59"/>
            <path id="Path_1177018" data-name="Path 1177018" d="M44.163,436.309a1.2,1.2,0,0,1-.006-.12v-2.332a1.172,1.172,0,0,1,1.172-1.172H41.367a1.172,1.172,0,0,0-1.172,1.172v2.332a1.2,1.2,0,0,0,.006.12Z" transform="translate(-38.131 -432.685)" fill="#bb5d4c"/>
            <g id="Group_1223612" data-name="Group 1223612" transform="translate(0 3.507)">
              <path id="Path_1177019" data-name="Path 1177019" d="M44.886,467.517H23.164a.586.586,0,0,1-.586-.586V463.78a1.172,1.172,0,0,1,1.172-1.172H43.715a1.172,1.172,0,0,1,1.172,1.172Z" transform="translate(-22.578 -462.608)" fill="#883f2e"/>
            </g>
            <g id="Group_1223613" data-name="Group 1223613" transform="translate(0 3.507)">
              <path id="Path_1177020" data-name="Path 1177020" d="M26.495,466.931V463.78a1.172,1.172,0,0,1,1.172-1.172H23.75a1.172,1.172,0,0,0-1.172,1.172v3.151a.586.586,0,0,0,.586.586h3.917A.586.586,0,0,1,26.495,466.931Z" transform="translate(-22.578 -462.608)" fill="#6d3326"/>
            </g>
          </g>
          <g id="Group_1223619" data-name="Group 1223619" transform="translate(4.609)">
            <g id="Group_1223615" data-name="Group 1223615" transform="translate(0 22.442)">
              <path id="Path_1177021" data-name="Path 1177021" d="M75,345.505a2.872,2.872,0,0,1-2.872,2.872H64.777a2.872,2.872,0,1,1,0-5.744h7.347A2.872,2.872,0,0,1,75,345.505Z" transform="translate(-61.905 -342.633)" fill="#ca6e59"/>
            </g>
            <g id="Group_1223616" data-name="Group 1223616" transform="translate(0 22.442)">
              <path id="Path_1177022" data-name="Path 1177022" d="M65.817,345.505a2.872,2.872,0,0,1,2.872-2.872H64.777a2.872,2.872,0,1,0,0,5.744h3.912A2.872,2.872,0,0,1,65.817,345.505Z" transform="translate(-61.905 -342.633)" fill="#bb5d4c"/>
            </g>
            <g id="Group_1223617" data-name="Group 1223617" transform="translate(0)">
              <path id="Path_1177023" data-name="Path 1177023" d="M75,154a2.872,2.872,0,0,1-2.872,2.872H64.777a2.872,2.872,0,1,1,0-5.744h7.347A2.872,2.872,0,0,1,75,154Z" transform="translate(-61.905 -151.128)" fill="#ca6e59"/>
            </g>
            <g id="Group_1223618" data-name="Group 1223618">
              <path id="Path_1177024" data-name="Path 1177024" d="M65.817,154a2.872,2.872,0,0,1,2.872-2.872H64.777a2.872,2.872,0,1,0,0,5.744h3.912A2.872,2.872,0,0,1,65.817,154Z" transform="translate(-61.905 -151.128)" fill="#bb5d4c"/>
            </g>
          </g>
        </g>
        <g id="Group_1223623" data-name="Group 1223623" transform="translate(37.964 6.341)">
          <g id="Group_1223621" data-name="Group 1223621" transform="translate(0)">
            <circle id="Ellipse_14512" data-name="Ellipse 14512" cx="8.223" cy="8.223" r="8.223" fill="#4fc123"/>
          </g>
          <g id="Group_1223622" data-name="Group 1223622" transform="translate(0)">
            <path id="Path_1177025" data-name="Path 1177025" d="M214.313,62.33a8.225,8.225,0,0,1,6.253-7.984,8.223,8.223,0,1,0,0,15.967A8.225,8.225,0,0,1,214.313,62.33Z" transform="translate(-210.372 -54.107)" fill="#47a920"/>
          </g>
        </g>
        <g id="Group_1223624" data-name="Group 1223624" transform="translate(15.078 0)">
          <path id="Path_1177026" data-name="Path 1177026" d="M67.726,27.986H66.311V12.773a.879.879,0,0,0-.906-.879.9.9,0,0,0-.852.915V27.986H58.663a.879.879,0,1,0,0,1.758h9.064a2.06,2.06,0,0,1,0,4.12H49.77v-4.12h4.791a.879.879,0,0,0,0-1.758h-5a1.549,1.549,0,0,0-1.42.935H41.922a1.466,1.466,0,0,0-1.364-.935H37.989a1.466,1.466,0,0,0-1.364.935H32.857v-.754a2.049,2.049,0,0,0-.994-1.754V24.174a3.751,3.751,0,0,0-1.079-7.343H27.821V1.758H64.553V8.672a.879.879,0,0,0,.906.879.9.9,0,0,0,.852-.915V1.465A1.465,1.465,0,0,0,64.846,0H27.528a1.465,1.465,0,0,0-1.465,1.465V16.831H23.438a3.751,3.751,0,0,0-1.079,7.343v2.238a2.049,2.049,0,0,0-.994,1.754V35.44a2.049,2.049,0,0,0,.994,1.754v2.238a3.751,3.751,0,0,0,1.079,7.343h2.625v3.051H19.193a2.053,2.053,0,0,0-2.051,2.051v1.456h-.014a2.053,2.053,0,0,0-2.051,2.051v3.151A1.466,1.466,0,0,0,16.543,60h48.3a1.465,1.465,0,0,0,1.465-1.465V35.621h1.415a3.818,3.818,0,0,0,0-7.635Zm-25.7,2.693h5.99v2.25h-5.99Zm-3.74-.935h1.982v4.12H38.282Zm-5.424.935h3.667v2.25H32.857Zm-11.413-10.1a2,2,0,0,1,1.993-1.993h7.347a1.993,1.993,0,0,1,0,3.986H23.438a2,2,0,0,1-1.993-1.993Zm1.971,15.151a.293.293,0,0,1-.293-.293V28.166a.293.293,0,0,1,.293-.293h7.391a.293.293,0,0,1,.293.293V35.44a.293.293,0,0,1-.293.293Zm6.69,1.758v1.782h-5.99V37.491Zm-5.99-11.376V24.333h5.99v1.782Zm-.679,18.9a1.993,1.993,0,1,1,0-3.986h7.347a1.993,1.993,0,0,1,0,3.986ZM37.386,58.242H16.836V55.384a.293.293,0,0,1,.293-.293h5.44a.879.879,0,0,0,0-1.758H18.9V51.877a.293.293,0,0,1,.293-.293H35.029a.293.293,0,0,1,.293.293v1.456H26.67a.879.879,0,0,0,0,1.758H37.093a.293.293,0,0,1,.293.293Zm27.167,0H39.144V55.384a2.053,2.053,0,0,0-2.051-2.051H37.08V51.877a2.053,2.053,0,0,0-2.051-2.051H27.821V46.775h2.964a3.751,3.751,0,0,0,1.079-7.343V37.194a2.049,2.049,0,0,0,.994-1.754v-.754h3.767a1.466,1.466,0,0,0,1.364.935h2.568a1.466,1.466,0,0,0,1.364-.935h6.217a1.549,1.549,0,0,0,1.42.935H64.553V58.242Z" transform="translate(-15.078 0)"/>
          <path id="Path_1177027" data-name="Path 1177027" d="M202.872,55.709a9.1,9.1,0,1,0,9.1-9.1A9.112,9.112,0,0,0,202.872,55.709Zm16.446,0a7.344,7.344,0,1,1-7.344-7.344A7.352,7.352,0,0,1,219.318,55.709Z" transform="translate(-180.865 -41.145)"/>
          <path id="Path_1177028" data-name="Path 1177028" d="M247.844,102.9a.879.879,0,0,0-1.243,1.243l2.7,2.7a.879.879,0,0,0,1.243,0l4.19-4.19a.879.879,0,0,0-1.243-1.243l-3.569,3.569Z" transform="translate(-219.242 -89.305)"/>
          <path id="Path_1177029" data-name="Path 1177029" d="M243.681,327.948a.879.879,0,0,0,.879.879h16.164a.879.879,0,0,0,0-1.758H244.56A.879.879,0,0,0,243.681,327.948Z" transform="translate(-216.892 -288.741)"/>
          <path id="Path_1177030" data-name="Path 1177030" d="M319.712,363.546h-8.333a.879.879,0,0,0,0,1.758h8.333a.879.879,0,0,0,0-1.758Z" transform="translate(-275.88 -320.943)"/>
          <path id="Path_1177031" data-name="Path 1177031" d="M244.56,365.3h4.783a.879.879,0,0,0,0-1.758H244.56a.879.879,0,0,0,0,1.758Z" transform="translate(-216.892 -320.943)"/>
          <path id="Path_1177032" data-name="Path 1177032" d="M260.723,400.023H244.559a.879.879,0,0,0,0,1.758h16.164a.879.879,0,0,0,0-1.758Z" transform="translate(-216.891 -353.145)"/>
          <path id="Path_1177033" data-name="Path 1177033" d="M350.611,436.5h-4.232a.879.879,0,1,0,0,1.758h4.232a.879.879,0,1,0,0-1.758Z" transform="translate(-306.779 -385.348)"/>
          <path id="Path_1177034" data-name="Path 1177034" d="M253.8,436.5H244.56a.879.879,0,1,0,0,1.758H253.8a.879.879,0,1,0,0-1.758Z" transform="translate(-216.892 -385.348)"/>
        </g>
      </g>
    </g>
  </g>
</svg>
