<svg xmlns="http://www.w3.org/2000/svg" xmlns:xlink="http://www.w3.org/1999/xlink" width="113" height="113" viewBox="0 0 113 113">
  <defs>
    <filter id="Path_982547" x="0" y="0" width="113" height="113" filterUnits="userSpaceOnUse">
      <feOffset dy="3" input="SourceAlpha"/>
      <feGaussianBlur stdDeviation="3" result="blur"/>
      <feFlood flood-opacity="0.161"/>
      <feComposite operator="in" in2="blur"/>
      <feComposite in="SourceGraphic"/>
    </filter>
  </defs>
  <g id="Group_1223820" data-name="Group 1223820" transform="translate(-901 -4035.033)">
    <g id="Group_1223673" data-name="Group 1223673">
      <g id="Group_1221845" data-name="Group 1221845" transform="translate(0 -2216.811)">
        <g id="Group_1219103" data-name="Group 1219103" transform="translate(0 -838)">
          <g id="Group_1217906" data-name="Group 1217906" transform="translate(-1.234 -2607)">
            <g id="Group_1216307" data-name="Group 1216307" transform="translate(911.234 9702.844)">
              <g id="Group_1208705" data-name="Group 1208705">
                <g id="Group_1148633" data-name="Group 1148633">
                  <g id="Group_1148525" data-name="Group 1148525">
                    <g transform="matrix(1, 0, 0, 1, -9, -6)" filter="url(#Path_982547)">
                      <g id="Path_982547-2" data-name="Path 982547" transform="translate(9 6)" fill="#e6d567">
                        <path d="M 47.5 93.5 C 41.28937149047852 93.5 35.26533508300781 92.28397369384766 29.59518623352051 89.88570404052734 C 24.11771965026855 87.56893157958984 19.19813346862793 84.25196075439453 14.97309303283691 80.02691650390625 C 10.74804019927979 75.80186462402344 7.431066513061523 70.88229370117188 5.114293098449707 65.40481567382812 C 2.716026782989502 59.73468017578125 1.5 53.71062850952148 1.5 47.5 C 1.5 41.28937149047852 2.716026782989502 35.26533508300781 5.114293098449707 29.59518623352051 C 7.431066513061523 24.11771965026855 10.74804019927979 19.19813346862793 14.97309303283691 14.97309303283691 C 19.19813346862793 10.74804019927979 24.11771965026855 7.431066513061523 29.59518623352051 5.114293098449707 C 35.26533508300781 2.716026782989502 41.28937149047852 1.5 47.5 1.5 C 53.71062850952148 1.5 59.73468017578125 2.716026782989502 65.40481567382812 5.114293098449707 C 70.88229370117188 7.431066513061523 75.80186462402344 10.74804019927979 80.02691650390625 14.97309303283691 C 84.25196075439453 19.19813346862793 87.56893157958984 24.11771965026855 89.88570404052734 29.59518623352051 C 92.28397369384766 35.26533508300781 93.5 41.28937149047852 93.5 47.5 C 93.5 53.71062850952148 92.28397369384766 59.73468017578125 89.88570404052734 65.40481567382812 C 87.56893157958984 70.88229370117188 84.25196075439453 75.80186462402344 80.02691650390625 80.02691650390625 C 75.80186462402344 84.25196075439453 70.88229370117188 87.56893157958984 65.40481567382812 89.88570404052734 C 59.73468017578125 92.28397369384766 53.71062850952148 93.5 47.5 93.5 Z" stroke="none"/>
                        <path d="M 47.5 3 C 41.49121475219727 3 35.66376876831055 4.176155090332031 30.17950439453125 6.495796203613281 C 24.88084411621094 8.736953735351562 20.12152099609375 11.94598388671875 16.03375244140625 16.03375244140625 C 11.94598388671875 20.12152099609375 8.736953735351562 24.88084411621094 6.495796203613281 30.17950439453125 C 4.176155090332031 35.66376876831055 3 41.49121475219727 3 47.5 C 3 53.50878524780273 4.176155090332031 59.33623123168945 6.495796203613281 64.82049560546875 C 8.736953735351562 70.11915588378906 11.94598388671875 74.87847900390625 16.03375244140625 78.96624755859375 C 20.12152099609375 83.05401611328125 24.88084411621094 86.26304626464844 30.17950439453125 88.50419616699219 C 35.66376876831055 90.82384490966797 41.49121475219727 92 47.5 92 C 53.50878524780273 92 59.33623123168945 90.82384490966797 64.82049560546875 88.50419616699219 C 70.11915588378906 86.26304626464844 74.87847900390625 83.05401611328125 78.96624755859375 78.96624755859375 C 83.05401611328125 74.87847900390625 86.26304626464844 70.11915588378906 88.50419616699219 64.82049560546875 C 90.82384490966797 59.33623123168945 92 53.50878524780273 92 47.5 C 92 41.49121475219727 90.82384490966797 35.66376876831055 88.50419616699219 30.17950439453125 C 86.26304626464844 24.88084411621094 83.05401611328125 20.12152099609375 78.96624755859375 16.03375244140625 C 74.87847900390625 11.94598388671875 70.11915588378906 8.736953735351562 64.82049560546875 6.495796203613281 C 59.33623123168945 4.176155090332031 53.50878524780273 3 47.5 3 M 47.5 0 C 73.7335205078125 0 95 21.2664794921875 95 47.5 C 95 73.7335205078125 73.7335205078125 95 47.5 95 C 21.2664794921875 95 0 73.7335205078125 0 47.5 C 0 21.2664794921875 21.2664794921875 0 47.5 0 Z" stroke="none" fill="#ba9c5a"/>
                      </g>
                    </g>
                  </g>
                </g>
              </g>
            </g>
          </g>
        </g>
      </g>
      <g id="team-work_9746429" transform="translate(885.604 4052.837)">
        <g id="Group_1223672" data-name="Group 1223672" transform="translate(37.908 1.137)">
          <path id="Path_1177126" data-name="Path 1177126" d="M44.4,389.175H68.8a.649.649,0,0,0,.65-.65v-8.3c0-4.919-4.4-8.945-9.779-8.945H53.534c-5.38,0-9.779,4.026-9.779,8.945v8.3a.652.652,0,0,0,.65.65Z" transform="translate(-43.755 -312.09)" fill="#0091ca" fill-rule="evenodd"/>
          <path id="Path_1177127" data-name="Path 1177127" d="M310.785,389.175h24.39a.653.653,0,0,0,.654-.65v-8.3c0-4.919-4.4-8.945-9.779-8.945h-6.14c-5.376,0-9.775,4.026-9.775,8.945v8.3a.649.649,0,0,0,.65.65Z" transform="translate(-266.851 -312.09)" fill="#e6404d" fill-rule="evenodd"/>
          <path id="Path_1177128" data-name="Path 1177128" d="M352.757,279.821a7.066,7.066,0,1,0-7.071-7.068A7.066,7.066,0,0,0,352.757,279.821Z" transform="translate(-296.625 -223.654)" fill="#fbbd80" fill-rule="evenodd"/>
          <path id="Path_1177129" data-name="Path 1177129" d="M86.395,279.821a7.066,7.066,0,1,0-7.066-7.066,7.066,7.066,0,0,0,7.066,7.066Z" transform="translate(-73.549 -223.654)" fill="#fbbd80" fill-rule="evenodd"/>
          <path id="Path_1177130" data-name="Path 1177130" d="M215.75,282.243a7.81,7.81,0,1,0-7.808-7.809,7.81,7.81,0,0,0,7.808,7.809Z" transform="translate(-181.263 -224.436)" fill="#fbbd80" fill-rule="evenodd"/>
          <path id="Path_1177131" data-name="Path 1177131" d="M111.11,379.646h1.373l.9,11.221-2.271,2.312-2.271-2.312.9-11.221Z" transform="translate(-98.263 -319.094)" fill="#006694" fill-rule="evenodd"/>
          <path id="Path_1177132" data-name="Path 1177132" d="M116.079,382.769a7.547,7.547,0,0,1-3.243,0l.253-3.123h2.741Z" transform="translate(-101.611 -319.094)" fill="#005c85" fill-rule="evenodd"/>
          <path id="Path_1177133" data-name="Path 1177133" d="M109.725,371.294l-.971,3.211a1.428,1.428,0,0,1-1.428.852h-1.5a1.418,1.418,0,0,1-1.423-.852l-.977-3.211c.115,0,.23-.009.345-.009h5.615c.115,0,.23,0,.341.009Z" transform="translate(-93.728 -312.091)" fill="#006694" fill-rule="evenodd"/>
          <path id="Path_1177134" data-name="Path 1177134" d="M121.816,371.284l-.792,2.828-.087.318a1.417,1.417,0,0,1-1.423.926h.774a1.868,1.868,0,0,0,.824-.184,1.144,1.144,0,0,0,.6-.668l.972-3.211c-.111,0-.226-.009-.341-.009Zm-1.433,4.625.6,7.5-2.087,2.123.636.645,2.271-2.313-.65-8.1a3.431,3.431,0,0,1-.774.143Z" transform="translate(-106.69 -312.09)" fill="#005c85" fill-rule="evenodd"/>
          <path id="Path_1177135" data-name="Path 1177135" d="M377.493,379.646h1.368l.9,11.221-2.271,2.312-2.271-2.312.9-11.221Z" transform="translate(-321.361 -319.094)" fill="#006694" fill-rule="evenodd"/>
          <path id="Path_1177136" data-name="Path 1177136" d="M382.462,382.769a7.548,7.548,0,0,1-3.243,0l.249-3.123h2.741Z" transform="translate(-324.709 -319.094)" fill="#005c85" fill-rule="evenodd"/>
          <path id="Path_1177137" data-name="Path 1177137" d="M376.085,371.294l-.976,3.211a1.422,1.422,0,0,1-1.423.852h-1.5a1.424,1.424,0,0,1-1.428-.852l-.977-3.211c.115,0,.23-.009.345-.009h5.615c.115,0,.23,0,.345.009Z" transform="translate(-316.803 -312.091)" fill="#006694" fill-rule="evenodd"/>
          <path id="Path_1177138" data-name="Path 1177138" d="M388.2,371.284l-.788,2.828-.092.318a1.412,1.412,0,0,1-1.423.926h.779a1.848,1.848,0,0,0,.82-.184,1.13,1.13,0,0,0,.6-.668l.976-3.211c-.115,0-.23-.009-.345-.009Zm-1.433,4.625.6,7.5-2.082,2.123.636.645,2.271-2.313-.65-8.1a3.479,3.479,0,0,1-.779.143Z" transform="translate(-329.791 -312.09)" fill="#005c85" fill-rule="evenodd"/>
          <path id="Path_1177139" data-name="Path 1177139" d="M416.72,371.851a9.245,9.245,0,0,1,6.817,8.688v8.453a.654.654,0,0,1-.65.659h1.552a.653.653,0,0,0,.654-.65v-8.3c0-4.482-3.657-8.227-8.374-8.853Z" transform="translate(-356.116 -312.565)" fill="#cf3a45" fill-rule="evenodd"/>
          <path id="Path_1177140" data-name="Path 1177140" d="M150.34,371.851a9.244,9.244,0,0,1,6.822,8.688v8.453a.657.657,0,0,1-.65.659h1.552a.649.649,0,0,0,.65-.65v-8.3C158.714,376.222,155.061,372.477,150.34,371.851Z" transform="translate(-133.021 -312.565)" fill="#0083b6" fill-rule="evenodd"/>
          <path id="Path_1177141" data-name="Path 1177141" d="M169.277,403.1h27.094a.653.653,0,0,0,.654-.65v-9.235c0-5.436-4.864-9.885-10.806-9.885h-6.786c-5.942,0-10.806,4.45-10.806,9.885v9.235a.652.652,0,0,0,.65.65Z" transform="translate(-148.337 -322.181)" fill="#25c73b" fill-rule="evenodd"/>
          <path id="Path_1177142" data-name="Path 1177142" d="M243.076,392.573h1.516l.995,12.4-2.51,2.556-2.506-2.556.995-12.4Z" transform="translate(-208.589 -329.92)" fill="#006694" fill-rule="evenodd"/>
          <path id="Path_1177143" data-name="Path 1177143" d="M248.552,396.051a8.419,8.419,0,0,1-3.588,0l.281-3.482h3.026Z" transform="translate(-212.269 -329.917)" fill="#005c85" fill-rule="evenodd"/>
          <path id="Path_1177144" data-name="Path 1177144" d="M241.521,383.341l-1.078,3.551a1.564,1.564,0,0,1-1.571.94H237.21a1.577,1.577,0,0,1-1.576-.94l-1.078-3.551c.129,0,.253-.009.382-.009h6.206c.129,0,.253,0,.378.009Z" transform="translate(-203.552 -322.181)" fill="#006694" fill-rule="evenodd"/>
          <path id="Path_1177145" data-name="Path 1177145" d="M258.5,383.332l-.884,3.183-.083.295a1.57,1.57,0,0,1-1.576,1.023h.838a2.052,2.052,0,0,0,.907-.207,1.233,1.233,0,0,0,.663-.733l1.078-3.551c-.115,0-.235-.009-.35-.009H258.5Z" transform="translate(-221.477 -322.181)" fill="#005c85" fill-rule="evenodd"/>
          <path id="Path_1177146" data-name="Path 1177146" d="M253.522,414.157l.673,8.351-2.257,2.294.659.673,2.51-2.556L254.393,414a3.627,3.627,0,0,1-.871.157Z" transform="translate(-218.11 -347.865)" fill="#005c85" fill-rule="evenodd"/>
          <path id="Path_1177147" data-name="Path 1177147" d="M293.3,387.309a9.739,9.739,0,0,1,2.5,6.476v9.48a.659.659,0,0,1-.65.668H297.1a.653.653,0,0,0,.654-.65v-9.235a9.044,9.044,0,0,0-.686-3.453,10.077,10.077,0,0,0-3.244-4.156,11.271,11.271,0,0,0-4.923-2.114,10.95,10.95,0,0,1,4.4,2.985Z" transform="translate(-249.069 -323.012)" fill="#21b335" fill-rule="evenodd"/>
          <path id="Path_1177148" data-name="Path 1177148" d="M181.341,28.136l-3.317.921a.3.3,0,0,0-.211.2,15.029,15.029,0,0,1-.945,2.281.292.292,0,0,0,0,.295l1.7,3a.309.309,0,0,1-.018.332,18.015,18.015,0,0,1-4.285,4.283.309.309,0,0,1-.332.014l-2.994-1.7a.314.314,0,0,0-.3,0,14.094,14.094,0,0,1-2.275.944.309.309,0,0,0-.207.211l-.921,3.321a.3.3,0,0,1-.244.221,18.065,18.065,0,0,1-6.057,0,.307.307,0,0,1-.249-.221l-.916-3.32a.318.318,0,0,0-.207-.211,14.143,14.143,0,0,1-2.28-.944.305.305,0,0,0-.295,0l-2.994,1.7a.309.309,0,0,1-.332-.014,17.929,17.929,0,0,1-4.284-4.284.3.3,0,0,1-.019-.332l1.7-3a.293.293,0,0,0,0-.295,14.563,14.563,0,0,1-.944-2.28.3.3,0,0,0-.211-.2l-3.316-.921a.307.307,0,0,1-.226-.249,18.038,18.038,0,0,1,0-6.053.307.307,0,0,1,.226-.249l3.316-.921a.3.3,0,0,0,.211-.2,14.561,14.561,0,0,1,.944-2.28.293.293,0,0,0,0-.295l-1.7-3a.3.3,0,0,1,.019-.332,17.926,17.926,0,0,1,4.284-4.284.309.309,0,0,1,.332-.014l2.994,1.7a.3.3,0,0,0,.295,0,14.158,14.158,0,0,1,2.28-.944.318.318,0,0,0,.207-.211l.917-3.321a.307.307,0,0,1,.249-.221,18.065,18.065,0,0,1,6.057,0,.3.3,0,0,1,.244.221l.921,3.317a.307.307,0,0,0,.207.216,14.108,14.108,0,0,1,2.275.944.314.314,0,0,0,.3,0l2.994-1.7a.309.309,0,0,1,.332.014,18.012,18.012,0,0,1,4.284,4.284.309.309,0,0,1,.018.332l-1.694,3a.292.292,0,0,0,0,.295,15.027,15.027,0,0,1,.944,2.28.3.3,0,0,0,.211.2l3.317.921a.307.307,0,0,1,.226.249,18.046,18.046,0,0,1,0,6.053.307.307,0,0,1-.226.249Z" transform="translate(-129.474 -7.004)" fill="#bec7cf" fill-rule="evenodd"/>
          <path id="Path_1177149" data-name="Path 1177149" d="M214.511,65.4a9.989,9.989,0,1,1-9.99-9.991,9.988,9.988,0,0,1,9.99,9.991Z" transform="translate(-170.034 -47.539)" fill="#eaf6ff" fill-rule="evenodd"/>
          <path id="Path_1177150" data-name="Path 1177150" d="M237.37,93.767a4.485,4.485,0,1,1-4.486-4.486,4.485,4.485,0,0,1,4.486,4.486Z" transform="translate(-198.397 -75.911)" fill="#bec7cf" fill-rule="evenodd"/>
          <path id="Path_1177151" data-name="Path 1177151" d="M190.4,11.953c.313-.166.636-.318.963-.456l-2.2-1.244a.309.309,0,0,0-.332.014c-.249.18-.493.359-.732.548l2,1.133A.3.3,0,0,0,190.4,11.953Zm-1.235,27.5,2.2-1.244c-.327-.138-.65-.29-.963-.456a.3.3,0,0,0-.295,0l-2,1.134c.24.189.484.369.732.548a.309.309,0,0,0,.332.014Zm14.593-1.7a14.143,14.143,0,0,1-2.28.944.3.3,0,0,0-.2.211l-.921,3.322a.3.3,0,0,1-.249.221,17.012,17.012,0,0,1-2,.226,17.886,17.886,0,0,0,4.058-.226.3.3,0,0,0,.244-.221l.921-3.321a.309.309,0,0,1,.207-.211c.447-.143.884-.3,1.313-.487l-.8-.451a.3.3,0,0,0-.295,0Zm4.353-26.941a17.881,17.881,0,0,1,3.556,3.736.309.309,0,0,1,.014.332l-1.695,3a.3.3,0,0,0,0,.295,14.153,14.153,0,0,1,.944,2.28.3.3,0,0,0,.211.2l3.321.921a.3.3,0,0,1,.221.249,18.038,18.038,0,0,1,0,6.053.3.3,0,0,1-.221.249l-3.321.921a.3.3,0,0,0-.211.2,14.152,14.152,0,0,1-.944,2.281.3.3,0,0,0,0,.295l1.7,3a.309.309,0,0,1-.014.332,17.992,17.992,0,0,1-3.556,3.736l.995.562a.309.309,0,0,0,.332-.014,18.016,18.016,0,0,0,4.284-4.284.309.309,0,0,0,.018-.332l-1.7-3a.293.293,0,0,1,0-.295,15.029,15.029,0,0,0,.944-2.28.3.3,0,0,1,.211-.2l3.317-.921a.307.307,0,0,0,.226-.249,18.047,18.047,0,0,0,0-6.053.307.307,0,0,0-.226-.249l-3.317-.921a.3.3,0,0,1-.211-.2,15.029,15.029,0,0,0-.944-2.28.293.293,0,0,1,0-.295l1.7-3a.309.309,0,0,0-.018-.332,18.013,18.013,0,0,0-4.285-4.284.309.309,0,0,0-.332-.014Zm-7.757-3.341.921,3.317a.3.3,0,0,0,.2.216,14.157,14.157,0,0,1,2.28.944.3.3,0,0,0,.295,0l.8-.451c-.428-.184-.866-.345-1.313-.487a.307.307,0,0,1-.207-.216l-.92-3.317a.3.3,0,0,0-.244-.221,17.876,17.876,0,0,0-4.059-.226,17.012,17.012,0,0,1,2,.226.3.3,0,0,1,.249.221Z" transform="translate(-164.644 -6.999)" fill="#abb3ba" fill-rule="evenodd"/>
          <path id="Path_1177152" data-name="Path 1177152" d="M205.449,55.451a9.991,9.991,0,0,0,0,19.89c-.313.028-.631.046-.954.046a9.991,9.991,0,1,1,0-19.982C204.818,55.4,205.136,55.423,205.449,55.451Z" transform="translate(-170.008 -47.539)" fill="#d3dde6" fill-rule="evenodd"/>
          <path id="Path_1177153" data-name="Path 1177153" d="M256.053,93.767a4.478,4.478,0,0,1-3.86,4.441,4.583,4.583,0,0,0,.617.046,4.487,4.487,0,1,0,0-8.973,4.583,4.583,0,0,0-.617.046A4.478,4.478,0,0,1,256.053,93.767Z" transform="translate(-218.323 -75.91)" fill="#abb3ba" fill-rule="evenodd"/>
          <path id="Path_1177154" data-name="Path 1177154" d="M161.049,265.731a7.068,7.068,0,0,1,0,14.039,6.978,6.978,0,0,0,.825.046,7.066,7.066,0,1,0,0-14.132,6.972,6.972,0,0,0-.825.046Zm-43.281,0a7.068,7.068,0,0,1,0,14.039,6.886,6.886,0,0,0,.82.046,7.066,7.066,0,1,0,0-14.132,6.893,6.893,0,0,0-.82.046Zm21.64.147a7.812,7.812,0,0,1,0,15.537,8.02,8.02,0,0,0,.82.041,7.81,7.81,0,1,0,0-15.62A8.02,8.02,0,0,0,139.408,265.879Z" transform="translate(-105.741 -223.65)" fill="#e2aa73" fill-rule="evenodd"/>
        </g>
        <path id="Path_1177155" data-name="Path 1177155" d="M94.035,42.032a8.206,8.206,0,1,0,8.2,8.2,8.206,8.206,0,0,0-8.2-8.2Zm0,14.136a5.93,5.93,0,1,1,5.928-5.932A5.93,5.93,0,0,1,94.035,56.168ZM97.1,59.19H90.968a11.2,11.2,0,0,0-8.542,3.824,12.583,12.583,0,0,0-6.64-1.866h-6.78a12.582,12.582,0,0,0-6.641,1.867,11.2,11.2,0,0,0-8.541-3.824h-6.14c-6.017,0-10.912,4.525-10.912,10.087v8.945a1.137,1.137,0,0,0,1.137,1.137H57.063v2.7A1.137,1.137,0,0,0,58.2,83.2H86.592a1.137,1.137,0,0,0,1.137-1.137v-2.7h19.152a1.137,1.137,0,0,0,1.137-1.137V69.277c0-5.562-4.9-10.087-10.916-10.087Zm-3.6,6.347h1.076l.556,6.943-1.1,1.118-1.1-1.117Zm1.641-2.364a.649.649,0,0,1-.354.088h-1.5a.74.74,0,0,1-.3-.057h0a.341.341,0,0,1-.049-.026l-.52-1.712h3.24ZM71.689,67.923H73.1l.631,7.837L72.4,77.119l-1.335-1.359ZM73.716,65.5a.733.733,0,0,1-.491.146H71.568a.733.733,0,0,1-.491-.146l-.631-2.079h3.9Zm-23.5.036h1.075l.559,6.944-1.1,1.117-1.1-1.118Zm1.639-2.36a.3.3,0,0,1-.049.026l0,0a.74.74,0,0,1-.3.057h-1.5a.665.665,0,0,1-.353-.086l-.517-1.71h3.24ZM43.936,77.084V69.839a1.137,1.137,0,0,0-2.275,0v7.245H39.049V69.277c0-4.029,3.389-7.354,7.724-7.767l.717,2.374a2.129,2.129,0,0,0,.509.856l-.646,8.077a1.137,1.137,0,0,0,.322.887l2.271,2.317a1.137,1.137,0,0,0,1.625,0L53.841,73.7a1.137,1.137,0,0,0,.322-.888l-.65-8.076a2.132,2.132,0,0,0,.509-.857l.72-2.37a8.854,8.854,0,0,1,5.81,2.881,10.586,10.586,0,0,0-3.488,7.78v4.91Zm41.518,3.837H82.327V72.8a1.137,1.137,0,0,0-2.275,0v8.125H64.742V72.8a1.137,1.137,0,0,0-2.275,0v8.125H59.339V72.174a8.419,8.419,0,0,1,3.385-6.643c.014-.009.029-.016.043-.026a1.152,1.152,0,0,0,.138-.112,10.181,10.181,0,0,1,5.176-1.928l.824,2.714a2.246,2.246,0,0,0,.568.933l-.72,8.985a1.137,1.137,0,0,0,.322.888l2.51,2.557a1.137,1.137,0,0,0,1.623,0l2.51-2.556a1.137,1.137,0,0,0,.322-.889l-.724-8.98a2.248,2.248,0,0,0,.572-.938l.823-2.712a10.183,10.183,0,0,1,5.176,1.928,1.142,1.142,0,0,0,.139.114c.014.009.028.017.042.026a8.42,8.42,0,0,1,3.384,6.643Zm20.289-3.837h-2.611V69.839a1.137,1.137,0,1,0-2.275,0v7.245H87.73v-4.91a10.585,10.585,0,0,0-3.487-7.779,9.014,9.014,0,0,1,5.811-2.881l.719,2.369a2.129,2.129,0,0,0,.508.856l-.65,8.076a1.137,1.137,0,0,0,.322.888l2.271,2.317a1.137,1.137,0,0,0,1.625,0L97.119,73.7a1.139,1.139,0,0,0,.322-.887l-.647-8.081a2.169,2.169,0,0,0,.509-.853l.717-2.371c4.335.415,7.724,3.74,7.724,7.767ZM50.758,42.032a8.206,8.206,0,1,0,8.2,8.2A8.206,8.206,0,0,0,50.758,42.032Zm0,14.136a5.93,5.93,0,1,1,5.928-5.932A5.93,5.93,0,0,1,50.758,56.168ZM72.4,42.184a8.949,8.949,0,1,0,8.945,8.948A8.949,8.949,0,0,0,72.4,42.184Zm0,15.623a6.674,6.674,0,1,1,6.669-6.672A6.674,6.674,0,0,1,72.4,57.808ZM54.525,14.677a1.137,1.137,0,0,0-.816.894,19.163,19.163,0,0,0,0,6.848,1.137,1.137,0,0,0,.816.894l3.084.855a15.563,15.563,0,0,0,.673,1.622l-1.574,2.785a1.137,1.137,0,0,0,.054,1.206,18.979,18.979,0,0,0,4.844,4.845,1.137,1.137,0,0,0,1.206.055L65.6,33.111a15.535,15.535,0,0,0,1.622.672l.855,3.082a1.137,1.137,0,0,0,.894.816,19.187,19.187,0,0,0,6.853,0,1.137,1.137,0,0,0,.894-.816l.855-3.082a15.673,15.673,0,0,0,1.621-.672l2.788,1.572a1.137,1.137,0,0,0,1.206-.055,18.982,18.982,0,0,0,4.844-4.845,1.137,1.137,0,0,0,.054-1.206l-1.574-2.785a15.564,15.564,0,0,0,.674-1.623l3.084-.855a1.137,1.137,0,0,0,.816-.894,19.161,19.161,0,0,0,0-6.848,1.137,1.137,0,0,0-.816-.894l-3.084-.856A15.7,15.7,0,0,0,86.51,12.2l1.574-2.781A1.137,1.137,0,0,0,88.03,8.21a18.991,18.991,0,0,0-4.844-4.85,1.137,1.137,0,0,0-1.207-.055L79.193,4.88a15.7,15.7,0,0,0-1.622-.673l-.855-3.08a1.137,1.137,0,0,0-.889-.814,19,19,0,0,0-6.862,0,1.137,1.137,0,0,0-.889.814l-.855,3.08a15.465,15.465,0,0,0-1.622.673L62.814,3.305a1.137,1.137,0,0,0-1.207.055,18.989,18.989,0,0,0-4.845,4.849,1.137,1.137,0,0,0-.054,1.207L58.283,12.2a15.742,15.742,0,0,0-.673,1.625ZM58.8,15.852a1.137,1.137,0,0,0,.784-.764,13.449,13.449,0,0,1,.989-2.386,1.137,1.137,0,0,0-.014-1.1L59.048,8.929a16.7,16.7,0,0,1,3.281-3.284L65.01,7.16a1.137,1.137,0,0,0,1.1.012,13.253,13.253,0,0,1,2.379-.988,1.137,1.137,0,0,0,.764-.784l.823-2.964a16.71,16.71,0,0,1,4.645,0L75.542,5.4a1.137,1.137,0,0,0,.764.784,13.405,13.405,0,0,1,2.381.989,1.136,1.136,0,0,0,1.1-.013l2.681-1.516A16.7,16.7,0,0,1,85.745,8.93L84.23,11.608a1.137,1.137,0,0,0-.014,1.1,13.422,13.422,0,0,1,.989,2.386,1.137,1.137,0,0,0,.784.764l2.967.823a16.839,16.839,0,0,1,0,4.642l-2.967.823a1.137,1.137,0,0,0-.784.764,13.227,13.227,0,0,1-.988,2.379,1.137,1.137,0,0,0,.012,1.1l1.516,2.682a16.683,16.683,0,0,1-3.282,3.281l-2.681-1.512a1.137,1.137,0,0,0-1.09-.015,13.376,13.376,0,0,1-2.381.985,1.137,1.137,0,0,0-.768.785l-.822,2.965a16.919,16.919,0,0,1-4.646,0l-.823-2.967a1.137,1.137,0,0,0-.768-.785,13.209,13.209,0,0,1-2.378-.984,1.137,1.137,0,0,0-1.093.014l-2.681,1.512a16.684,16.684,0,0,1-3.282-3.281l1.516-2.682a1.137,1.137,0,0,0,.012-1.1,13.243,13.243,0,0,1-.988-2.379,1.137,1.137,0,0,0-.784-.764l-2.967-.823a16.855,16.855,0,0,1,0-4.642ZM72.4,30.121A11.126,11.126,0,1,0,61.269,18.994,11.125,11.125,0,0,0,72.4,30.121Zm0-19.976a8.85,8.85,0,1,1-8.853,8.848A8.85,8.85,0,0,1,72.4,10.145Zm0,14.472a5.622,5.622,0,1,0-5.624-5.623A5.622,5.622,0,0,0,72.4,24.617Zm0-8.968a3.346,3.346,0,1,1-3.348,3.344A3.346,3.346,0,0,1,72.4,15.649ZM37.425,31.439a1.137,1.137,0,0,1,1.606-.105L42.6,34.467c-1.393-5.471-1.251-10.3.426-14.374a18.183,18.183,0,0,1,9.635-9.522,1.138,1.138,0,0,1,.944,2.07c-8.387,3.824-11.437,11.541-8.659,21.8l1.833-5.111a1.138,1.138,0,1,1,2.142.768l-2.966,8.272a1.137,1.137,0,0,1-1.821.471l-6.6-5.794a1.137,1.137,0,0,1-.105-1.605ZM90.619,11.133a1.137,1.137,0,0,1,1.507-.563,18.146,18.146,0,0,1,9.715,9.711c1.607,4.038,1.724,8.8.352,14.186l3.57-3.132a1.138,1.138,0,1,1,1.5,1.711l-6.6,5.794a1.137,1.137,0,0,1-1.821-.471L95.871,30.1a1.138,1.138,0,1,1,2.142-.768l1.833,5.113c2.78-10.264-.262-17.97-8.664-21.8a1.137,1.137,0,0,1-.563-1.508Z"/>
      </g>
    </g>
  </g>
</svg>
