<svg xmlns="http://www.w3.org/2000/svg" xmlns:xlink="http://www.w3.org/1999/xlink" width="110" height="110" viewBox="0 0 110 110">
  <defs>
    <filter id="Path_982547" x="0" y="0" width="110" height="110" filterUnits="userSpaceOnUse">
      <feOffset dy="3" input="SourceAlpha"/>
      <feGaussianBlur stdDeviation="3" result="blur"/>
      <feFlood flood-opacity="0.161"/>
      <feComposite operator="in" in2="blur"/>
      <feComposite in="SourceGraphic"/>
    </filter>
  </defs>
  <g id="Group_1223841" data-name="Group 1223841" transform="translate(-692 -1960.069)">
    <g id="Group_1223755" data-name="Group 1223755">
      <g id="Group_1211001" data-name="Group 1211001" transform="translate(0 -4114.21)">
        <g id="Group_1200151" data-name="Group 1200151" transform="translate(701 6080.28)">
          <g id="Group_1185952" data-name="Group 1185952" transform="translate(0 0)">
            <g id="Group_1184115" data-name="Group 1184115">
              <g id="Group_1183744" data-name="Group 1183744" transform="translate(0 0)">
                <g id="Group_1181546" data-name="Group 1181546">
                  <g id="Group_1177563" data-name="Group 1177563">
                    <g id="Group_1173148" data-name="Group 1173148" transform="translate(0 0)">
                      <g id="Group_1163803" data-name="Group 1163803" transform="translate(0 0)">
                        <g id="Group_1163015" data-name="Group 1163015" transform="translate(0 0)">
                          <g id="Group_1157017" data-name="Group 1157017" transform="translate(0 0)">
                            <g id="Group_1155793" data-name="Group 1155793" transform="translate(0 0)">
                              <g id="Group_1154704" data-name="Group 1154704" transform="translate(0 0)">
                                <g id="Group_1150790" data-name="Group 1150790">
                                  <g id="Group_1154214" data-name="Group 1154214">
                                    <g id="Group_1152583" data-name="Group 1152583">
                                      <g id="Group_1146973" data-name="Group 1146973">
                                        <g id="Group_1146954" data-name="Group 1146954">
                                          <g transform="matrix(1, 0, 0, 1, -9, -6)" filter="url(#Path_982547)">
                                            <g id="Path_982547-2" data-name="Path 982547" transform="translate(9 6)" fill="#f2d944">
                                              <path d="M 46.00000762939453 90.49988555908203 C 39.99188613891602 90.49988555908203 34.16427612304688 89.32352447509766 28.67906188964844 87.00347137451172 C 23.38020706176758 84.76226043701172 18.62104797363281 81.55342864990234 14.53375434875488 77.46615600585938 C 10.44647407531738 73.37887573242188 7.237647533416748 68.61971282958984 4.996420860290527 63.32085800170898 C 2.676367521286011 57.83565902709961 1.500007629394531 52.00806045532227 1.500007629394531 45.99993896484375 C 1.500007629394531 39.99181747436523 2.676367521286011 34.16421890258789 4.996420860290527 28.67901802062988 C 7.237647533416748 23.38017845153809 10.44647407531738 18.62101936340332 14.53375434875488 14.53373908996582 C 18.62104797363281 10.44645881652832 23.38020706176758 7.237632274627686 28.67906188964844 4.996418952941895 C 34.16427612304688 2.676365613937378 39.99188613891602 1.500005602836609 46.00000762939453 1.500005602836609 C 52.00812911987305 1.500005602836609 57.83573913574219 2.676365613937378 63.32095336914062 4.996418952941895 C 68.61980438232422 7.237632274627686 73.37896728515625 10.44645881652832 77.46626281738281 14.53373908996582 C 81.55354309082031 18.62101936340332 84.76236724853516 23.38017845153809 87.00359344482422 28.67901802062988 C 89.32364654541016 34.16421890258789 90.50000762939453 39.99181747436523 90.50000762939453 45.99993896484375 C 90.50000762939453 52.00806045532227 89.32364654541016 57.83565902709961 87.00359344482422 63.32085800170898 C 84.76236724853516 68.61971282958984 81.55354309082031 73.37887573242188 77.46626281738281 77.46615600585938 C 73.37896728515625 81.55342864990234 68.61980438232422 84.76226043701172 63.32095336914062 87.00347137451172 C 57.83573913574219 89.32352447509766 52.00812911987305 90.49988555908203 46.00000762939453 90.49988555908203 Z" stroke="none"/>
                                              <path d="M 46.00000762939453 2.999992370605469 C 40.19372177124023 2.999992370605469 34.56270599365234 4.136497497558594 29.26339340209961 6.377906799316406 C 24.14333343505859 8.543510437011719 19.54441833496094 11.64437866210938 15.59440612792969 15.59439849853516 C 11.6444091796875 19.54439544677734 8.543525695800781 24.14329528808594 6.377922058105469 29.26335144042969 C 4.136505126953125 34.56266784667969 3.000007629394531 40.19366836547852 3.000007629394531 45.99993896484375 C 3.000007629394531 51.80620956420898 4.136505126953125 57.43722534179688 6.377922058105469 62.73654174804688 C 8.543525695800781 67.85658264160156 11.6444091796875 72.45548248291016 15.59440612792969 76.40549468994141 C 19.54441833496094 80.35549926757812 24.14333343505859 83.45636749267578 29.26337814331055 85.62196350097656 C 34.56270599365234 87.86338043212891 40.19372177124023 88.9998779296875 46.00000762939453 88.9998779296875 C 51.80629348754883 88.9998779296875 57.43730926513672 87.86338043212891 62.73662185668945 85.62196350097656 C 67.85668182373047 83.45636749267578 72.45558166503906 80.35549926757812 76.40559387207031 76.40549468994141 C 80.35560607910156 72.45548248291016 83.45648193359375 67.85658264160156 85.62207794189453 62.73654174804688 C 87.86351013183594 57.43722534179688 89.00000762939453 51.80620956420898 89.00000762939453 45.99993896484375 C 89.00000762939453 40.19366836547852 87.86351013183594 34.56266784667969 85.62207794189453 29.26335144042969 C 83.45648193359375 24.14329528808594 80.35560607910156 19.54439544677734 76.40559387207031 15.59439849853516 C 72.45558166503906 11.64437866210938 67.85668182373047 8.543510437011719 62.73662185668945 6.377906799316406 C 57.43729400634766 4.136497497558594 51.80629348754883 2.999992370605469 46.00000762939453 2.999992370605469 M 46.00000762939453 -7.62939453125e-06 C 71.40509033203125 -7.62939453125e-06 92.00000762939453 20.59487915039062 92.00000762939453 45.99993896484375 C 92.00000762939453 71.40501403808594 71.40509033203125 91.99988555908203 46.00000762939453 91.99988555908203 C 20.59490966796875 91.99988555908203 7.62939453125e-06 71.40501403808594 7.62939453125e-06 45.99993896484375 C 7.62939453125e-06 20.59487915039062 20.59490966796875 -7.62939453125e-06 46.00000762939453 -7.62939453125e-06 Z" stroke="none" fill="#ba9c5a"/>
                                            </g>
                                          </g>
                                        </g>
                                      </g>
                                    </g>
                                  </g>
                                </g>
                              </g>
                            </g>
                          </g>
                        </g>
                      </g>
                    </g>
                  </g>
                </g>
              </g>
            </g>
          </g>
        </g>
      </g>
      <g id="decision_2_" data-name="decision (2)" transform="translate(684.167 1983.582)">
        <g id="Group_1223753" data-name="Group 1223753" transform="translate(23.523 1.082)">
          <path id="Path_1177284" data-name="Path 1177284" d="M221.466,7.5H182.224a2.17,2.17,0,0,0-2.164,2.164V61.89l42.127,1.443L223.63,9.664A2.17,2.17,0,0,0,221.466,7.5Z" transform="translate(-158.402 -7.5)" fill="#e1dee2"/>
          <path id="Path_1177285" data-name="Path 1177285" d="M220.744,24.664v2.164H180.06V77.611h41.406a2.17,2.17,0,0,0,2.164-2.164V22.5h-.721A2.17,2.17,0,0,0,220.744,24.664Z" transform="translate(-158.402 -20.336)" fill="#c5bec6"/>
          <path id="Path_1177286" data-name="Path 1177286" d="M191.466,37.5H152.224a2.17,2.17,0,0,0-2.164,2.164V91.89l42.127,1.443,1.443-53.669A2.17,2.17,0,0,0,191.466,37.5Z" transform="translate(-132.73 -33.172)" fill="#faf8f8"/>
          <path id="Path_1177287" data-name="Path 1177287" d="M190.744,54.664v48.98a1.082,1.082,0,0,1-1.082,1.082h-39.6v.721a2.17,2.17,0,0,0,2.164,2.164h39.242a2.17,2.17,0,0,0,2.164-2.164V52.5h-.721A2.17,2.17,0,0,0,190.744,54.664Z" transform="translate(-132.73 -46.008)" fill="#e1dee2"/>
          <path id="Path_1177288" data-name="Path 1177288" d="M68.143,462.31a6.924,6.924,0,0,0-.945-.063H42.929a6.049,6.049,0,0,0-5.433,3.21L70.835,466.9A7.146,7.146,0,0,0,68.143,462.31Z" transform="translate(-36.406 -396.64)" fill="#d09180"/>
          <path id="Path_1177289" data-name="Path 1177289" d="M67.255,468.719s-.877-5.387-5.578-6.032a9.12,9.12,0,0,1,.836,1.694,1.08,1.08,0,0,1-1.017,1.453H31.03a9.358,9.358,0,0,0-1.09,2.885Z" transform="translate(-29.94 -397.017)" fill="#b46e5a"/>
          <path id="Path_1177290" data-name="Path 1177290" d="M299.716,423.513c.363-.629.894-3-.34-3.655-3.346-1.712-11.594-5.734-11.594-5.734l-2.164,1.022v2.727s7.607,5.132,10.763,7.174C297.562,425.789,299.353,424.142,299.716,423.513Z" transform="translate(-248.731 -355.46)" fill="#d09180"/>
          <path id="Path_1177291" data-name="Path 1177291" d="M364.448,454.519c-.216-.125-.651-.353-1.233-.651a5.418,5.418,0,0,1-3,5.188c.549.355.965.618,1.181.742a3.048,3.048,0,1,0,3.048-5.279Z" transform="translate(-312.569 -389.47)" fill="#b46e5a"/>
          <path id="Path_1177292" data-name="Path 1177292" d="M237.348,385.006l-8.5-4.909-2.164,1.092v2.656l8.5,4.909Z" transform="translate(-198.297 -326.342)" fill="#b46e5a"/>
          <path id="Path_1177293" data-name="Path 1177293" d="M0,0H4.328V4.786H0Z" transform="matrix(0.5, -0.866, 0.866, 0.5, 24.238, 55.111)" fill="#a65d4e"/>
          <path id="Path_1177294" data-name="Path 1177294" d="M169.514,345.6s3.048,1.685,2.045,3.421l-2.164,3.748c-1,1.736-3.985-.061-3.985-.061l-2.523-6.2Z" transform="translate(-143.707 -296.819)" fill="#d09180"/>
          <path id="Path_1177295" data-name="Path 1177295" d="M105.011,278.76l-1.782-3.863-8.768.8c-1.085,1.88-1.085,4.925-2.17,6.8s-3.722,3.4-4.807,5.282l3.688,8,4.237-.388Z" transform="translate(-79.181 -236.319)" fill="#d09180"/>
          <path id="Path_1177296" data-name="Path 1177296" d="M152.019,301.676c-1.581,2.563-5.158,4.666-6.65,7.249s-1.524,6.733-2.953,9.384l4.531-.415c1.085-1.88,1.085-4.925,2.17-6.8s3.722-3.4,4.807-5.282Z" transform="translate(-126.189 -259.235)" fill="#b46e5a"/>
          <path id="Path_1177297" data-name="Path 1177297" d="M68.7,399.09c1.966,0,5.838-2.567,5.838-2.567l-14.885-6.4a6.117,6.117,0,0,0-.262,3.164c.29,1.083,1.746,2.49,3.595,3.775a13.145,13.145,0,0,0,5.714,2.03Z" transform="translate(-55.048 -334.919)" fill="#d09180"/>
          <path id="Path_1177298" data-name="Path 1177298" d="M90.052,436c-1.083.29-3.029-.268-5.067-1.225,3.007,2.091,7.054,3.861,8.815,3.389a6.14,6.14,0,0,0,2.613-1.807v-2.164H92.665A6.139,6.139,0,0,1,90.052,436Z" transform="translate(-77.044 -372.63)" fill="#b46e5a"/>
          <path id="Path_1177299" data-name="Path 1177299" d="M65.579,362.987a1.5,1.5,0,0,0-2.082.558l-1.016,1.76a7.376,7.376,0,0,0-.595,1.416L72.9,373.079l4.445-1.539c.421-.729-.9-2.281-2.91-3.44Z" transform="translate(-57.277 -311.52)" fill="#ebae9d"/>
          <path id="Path_1177300" data-name="Path 1177300" d="M139.753,399.676a1.388,1.388,0,0,1,.411,2l-1.016,1.76a7.335,7.335,0,0,1-.931,1.223l3.748,2.164a7.332,7.332,0,0,0,.931-1.223l1.016-1.76a1.524,1.524,0,0,0-.558-2.082Z" transform="translate(-122.596 -343.096)" fill="#d09180"/>
          <path id="Path_1177301" data-name="Path 1177301" d="M157.755,237.523c.983,1.7.7,6.34.7,6.34l-12.987-9.689a6.117,6.117,0,0,1,2.609-1.809c1.083-.29,3.029.267,5.066,1.225a13.143,13.143,0,0,1,4.615,3.933Z" transform="translate(-128.797 -199.857)" fill="#d09180"/>
          <path id="Path_1177302" data-name="Path 1177302" d="M202.263,245.089c-.29-1.083-1.746-2.49-3.595-3.775,3.315,1.559,6.871,4.178,7.343,5.939a6.138,6.138,0,0,1-.258,3.166l-1.874,1.082L202,248.255A6.139,6.139,0,0,0,202.263,245.089Z" transform="translate(-174.325 -207.581)" fill="#b46e5a"/>
          <path id="Path_1177303" data-name="Path 1177303" d="M131.248,250.423a1.5,1.5,0,0,1-.558-2.082l1.016-1.76a7.389,7.389,0,0,1,.929-1.223l11.012,6.358.889,4.62c-.421.729-2.427.358-4.434-.8Z" transform="translate(-115.968 -211.042)" fill="#ebae9d"/>
          <path id="Path_1177304" data-name="Path 1177304" d="M197.227,293.247a1.388,1.388,0,0,0,1.935-.643l1.016-1.76a7.327,7.327,0,0,0,.593-1.417l3.748,2.164a7.341,7.341,0,0,1-.593,1.417l-1.016,1.76a1.524,1.524,0,0,1-2.082.558Z" transform="translate(-173.092 -248.753)" fill="#d09180"/>
        </g>
        <g id="Group_1223754" data-name="Group 1223754" transform="translate(22.441)">
          <path id="Path_1177305" data-name="Path 1177305" d="M405.5,85.5a1.082,1.082,0,0,0-1.082,1.082v42.055a1.083,1.083,0,0,1-1.082,1.082h-1.082v-5.944a1.082,1.082,0,0,0-2.164,0v9.911a1.083,1.083,0,0,1-1.082,1.082H393.68a1.082,1.082,0,1,0,0,2.164h5.333a3.25,3.25,0,0,0,3.246-3.246v-1.8h1.082a3.25,3.25,0,0,0,3.246-3.246V86.58A1.082,1.082,0,0,0,405.5,85.5Z" transform="translate(-339.195 -73.163)"/>
          <path id="Path_1177306" data-name="Path 1177306" d="M189.376,0H150.134a3.25,3.25,0,0,0-3.246,3.246V4.328h-1.082a3.25,3.25,0,0,0-3.246,3.246v11.07a1.082,1.082,0,0,0,2.164,0V7.574a1.083,1.083,0,0,1,1.082-1.082h39.242a1.083,1.083,0,0,1,1.082,1.082V46.282a1.082,1.082,0,1,0,2.164,0V7.574a3.25,3.25,0,0,0-3.246-3.246h-36V3.246a1.083,1.083,0,0,1,1.082-1.082h39.242a1.083,1.083,0,0,1,1.082,1.082V9.089a1.082,1.082,0,0,0,2.164,0V3.246A3.25,3.25,0,0,0,189.376,0Z" transform="translate(-125.23 0)"/>
          <path id="Path_1177307" data-name="Path 1177307" d="M193.322,172.464h25.184a1.082,1.082,0,0,0,0-2.164H193.322a1.082,1.082,0,0,0,0,2.164Z" transform="translate(-167.743 -145.731)"/>
          <path id="Path_1177308" data-name="Path 1177308" d="M193.322,132.464h20.855a1.082,1.082,0,1,0,0-2.164H193.322a1.082,1.082,0,1,0,0,2.164Z" transform="translate(-167.743 -111.502)"/>
          <path id="Path_1177309" data-name="Path 1177309" d="M193.322,92.464h29.189a1.082,1.082,0,0,0,0-2.164H193.322a1.082,1.082,0,0,0,0,2.164Z" transform="translate(-167.743 -77.272)"/>
          <path id="Path_1177310" data-name="Path 1177310" d="M75.942,195.038c-1.364-.787-10.85-5.423-12.623-6.288h4.609a1.082,1.082,0,0,0,0-2.164H59.534l-6.247-3.607H77.209a1.082,1.082,0,1,0,0-2.164H52.156a5.673,5.673,0,0,0-1.139-1.25,10.172,10.172,0,0,0,.688-.8,2.6,2.6,0,0,0,2.571-1.283l.158-.274H77.209a1.082,1.082,0,0,0,0-2.164H55.629a9.225,9.225,0,0,0,.77-3.607h20.81a1.082,1.082,0,1,0,0-2.164H55.773a14.27,14.27,0,0,0-3.94-3.607H77.209a1.082,1.082,0,0,0,0-2.164H47.933c-1.737-.779-3.929-1.512-5.414-1.114a4.335,4.335,0,0,0-.584.2v-9.776a1.082,1.082,0,0,0-2.164,0v11.3a9.069,9.069,0,0,0-1.447,1.81l-1.01,1.749a2.528,2.528,0,0,0-.29,1.945,2.606,2.606,0,0,0,.457.939,17.658,17.658,0,0,0-.821,2.919,11.489,11.489,0,0,1-.966,3.094,1.082,1.082,0,1,0,1.874,1.082,13.12,13.12,0,0,0,1.2-3.71,21.339,21.339,0,0,1,.533-2.094l10.365,5.984a21.349,21.349,0,0,1-1.547,1.509,13.115,13.115,0,0,0-2.611,2.9,13.12,13.12,0,0,0-1.2,3.71,21.341,21.341,0,0,1-.533,2.094L33.412,182.06c.306-.345.652-.682,1-1.006a1.082,1.082,0,1,0-1.476-1.582,13.893,13.893,0,0,0-1.554,1.651,2.6,2.6,0,0,0-1.042.074A2.528,2.528,0,0,0,28.8,182.42l-1.01,1.749a8.228,8.228,0,0,0-.965,5.4c.638,2.381,4.7,4.882,5.928,5.591.136.079.31.177.513.288h-3.22c-5.1,0-7.2,4.582-7.591,7a1.082,1.082,0,0,0,1.068,1.256H60.837a1.082,1.082,0,0,0,1.068-1.256c-.394-2.423-2.488-7-7.591-7H43.623a8.436,8.436,0,0,0,1.136-1.483l1.016-1.76a2.608,2.608,0,0,0-.175-2.871,10.2,10.2,0,0,0,.349-.994,5.461,5.461,0,0,0,1.833.366,3.135,3.135,0,0,0,.784-.094,2.563,2.563,0,0,0,.833-.383l5.57,3.216H49.21a1.082,1.082,0,0,0,0,2.164h9.508l1.117.645c.749.506,10.528,7.1,11.976,7.935a4.13,4.13,0,0,0,4.13-7.153ZM60.013,191.86l-9.325-5.384,1.082-1.874,9.325,5.384ZM43.079,164.478a1.546,1.546,0,0,1,.394-.043,14.124,14.124,0,0,1,5.77,2.165c2.931,1.692,4.694,3.433,4.92,4.277a3.388,3.388,0,0,1,.047,1.209l-12.2-7.043a3.37,3.37,0,0,1,1.069-.566Zm-3.912,4.312.014-.024,1.016-1.76c.067-.115.149-.24.243-.37l13.178,7.609a4.37,4.37,0,0,1-.2.4L52.4,176.4a.442.442,0,0,1-.6.162L39.343,169.37a.469.469,0,0,1-.222-.285.372.372,0,0,1,.047-.3Zm-5.333,24.5c-2.931-1.692-4.694-3.433-4.92-4.277a3.368,3.368,0,0,1-.045-1.208l12.2,7.044a3.387,3.387,0,0,1-1.071.565,1.35,1.35,0,0,1-.276.04h-.24A14.752,14.752,0,0,1,33.835,193.289Zm25.581,8.258H24.953a8.086,8.086,0,0,1,.678-1.4,4.935,4.935,0,0,1,4.414-2.534H54.315A5.419,5.419,0,0,1,59.415,201.547ZM43.9,191.126l-1.016,1.76a4.416,4.416,0,0,1-.243.37l-13.178-7.609c.066-.146.133-.28.2-.4l1.016-1.76.014-.024a.372.372,0,0,1,.232-.188.431.431,0,0,1,.116-.016.486.486,0,0,1,.242.066l12.456,7.192a.442.442,0,0,1,.162.6Zm2.564-4.9a10.718,10.718,0,0,1,.922-2.9,10.71,10.71,0,0,1,2.05-2.249,2.943,2.943,0,0,1,1.039,1.2.351.351,0,0,1-.039.306l-2.164,3.748a.351.351,0,0,1-.246.187A2.941,2.941,0,0,1,46.466,186.221ZM75.58,199.6a1.968,1.968,0,0,1-2.686.719c-1.046-.6-7.262-4.766-11.043-7.312l1.155-2c4.1,2,10.808,5.3,11.854,5.907a1.968,1.968,0,0,1,.72,2.686Z" transform="translate(-22.441 -129.844)"/>
        </g>
      </g>
    </g>
  </g>
</svg>
