<svg xmlns="http://www.w3.org/2000/svg" xmlns:xlink="http://www.w3.org/1999/xlink" width="103" height="103" viewBox="0 0 103 103">
  <defs>
    <filter id="Path_978624" x="0" y="0" width="103" height="103" filterUnits="userSpaceOnUse">
      <feOffset dy="3" input="SourceAlpha"/>
      <feGaussianBlur stdDeviation="3" result="blur"/>
      <feFlood flood-opacity="0.161"/>
      <feComposite operator="in" in2="blur"/>
      <feComposite in="SourceGraphic"/>
    </filter>
  </defs>
  <g id="Group_1223833" data-name="Group 1223833" transform="translate(-159.5 -3040)">
    <g id="Group_1223800" data-name="Group 1223800" transform="translate(0 3.291)">
      <g id="Group_1223799" data-name="Group 1223799" transform="translate(-458 2736.709)">
        <g id="Group_1221866" data-name="Group 1221866" transform="translate(452 -758)">
          <g id="Group_1178144" data-name="Group 1178144" transform="translate(-19.5 -2004)">
            <g id="Group_1177896" data-name="Group 1177896" transform="translate(14 196)">
              <g id="Group_1176881" data-name="Group 1176881">
                <g id="Group_1175148" data-name="Group 1175148" transform="translate(0 1580)">
                  <g id="Group_1173798" data-name="Group 1173798" transform="translate(-3 -3520)">
                    <g id="Group_1171925" data-name="Group 1171925" transform="translate(-22 -2246)">
                      <g id="Group_1164524" data-name="Group 1164524" transform="translate(205 7058)">
                        <g id="Group_1144123" data-name="Group 1144123">
                          <g transform="matrix(1, 0, 0, 1, -9, -6)" filter="url(#Path_978624)">
                            <g id="Path_978624-2" data-name="Path 978624" transform="translate(9 6)" fill="#edeef2">
                              <path d="M 42.5 83.5 C 36.96437835693359 83.5 31.59512901306152 82.41617584228516 26.54141235351562 80.27863311767578 C 21.65934181213379 78.21369171142578 17.27447128295898 75.25723266601562 13.50862312316895 71.49137878417969 C 9.742764472961426 67.72553253173828 6.786305904388428 63.34066009521484 4.721364498138428 58.45858764648438 C 2.583823442459106 53.40486907958984 1.5 48.03562164306641 1.5 42.5 C 1.5 36.96437835693359 2.583823442459106 31.59512901306152 4.721364498138428 26.54141235351562 C 6.786305904388428 21.65934181213379 9.742764472961426 17.27447128295898 13.50862312316895 13.50862312316895 C 17.27447128295898 9.742764472961426 21.65934181213379 6.786305904388428 26.54141235351562 4.721364498138428 C 31.59512901306152 2.583823442459106 36.96437835693359 1.5 42.5 1.5 C 48.03562164306641 1.5 53.40486907958984 2.583823442459106 58.45858764648438 4.721364498138428 C 63.34066009521484 6.786305904388428 67.72553253173828 9.742764472961426 71.49137878417969 13.50862312316895 C 75.25723266601562 17.27447128295898 78.21369171142578 21.65934181213379 80.27863311767578 26.54141235351562 C 82.41617584228516 31.59512901306152 83.5 36.96437835693359 83.5 42.5 C 83.5 48.03562164306641 82.41617584228516 53.40486907958984 80.27863311767578 58.45858764648438 C 78.21369171142578 63.34066009521484 75.25723266601562 67.72553253173828 71.49137878417969 71.49137878417969 C 67.72553253173828 75.25723266601562 63.34066009521484 78.21369171142578 58.45858764648438 80.27863311767578 C 53.40486907958984 82.41617584228516 48.03562164306641 83.5 42.5 83.5 Z" stroke="none"/>
                              <path d="M 42.5 3 C 37.16621398925781 3 31.99356079101562 4.043960571289062 27.125732421875 6.102882385253906 C 22.42246627807617 8.092185974121094 18.19785308837891 10.94070434570312 14.56928253173828 14.56928253173828 C 10.94070434570312 18.19785308837891 8.092185974121094 22.42246627807617 6.102882385253906 27.125732421875 C 4.043960571289062 31.99356079101562 3 37.16621398925781 3 42.5 C 3 47.83378601074219 4.043960571289062 53.00643920898438 6.102882385253906 57.87425231933594 C 8.092185974121094 62.57753372192383 10.94070434570312 66.80213165283203 14.56928253173828 70.43071746826172 C 18.19786834716797 74.05929565429688 22.42246627807617 76.90781402587891 27.125732421875 78.89711761474609 C 31.99356079101562 80.95603942871094 37.16621398925781 82 42.5 82 C 47.83378601074219 82 53.00642395019531 80.95603942871094 57.87425231933594 78.89711761474609 C 62.57753372192383 76.90781402587891 66.80213165283203 74.05929565429688 70.43071746826172 70.43071746826172 C 74.05929565429688 66.80213165283203 76.90781402587891 62.57753372192383 78.89711761474609 57.87425231933594 C 80.95603942871094 53.00642395019531 82 47.83378601074219 82 42.5 C 82 37.16621398925781 80.95603942871094 31.99356079101562 78.89711761474609 27.125732421875 C 76.90781402587891 22.42246627807617 74.05929565429688 18.19786834716797 70.43071746826172 14.56928253173828 C 66.80213165283203 10.94070434570312 62.57753372192383 8.092185974121094 57.87425231933594 6.102882385253906 C 53.00643920898438 4.043960571289062 47.83378601074219 3 42.5 3 M 42.5 0 C 65.97209167480469 0 85 19.02789306640625 85 42.5 C 85 65.97209167480469 65.97209167480469 85 42.5 85 C 19.02789306640625 85 0 65.97209167480469 0 42.5 C 0 19.02789306640625 19.02789306640625 0 42.5 0 Z" stroke="none" fill="#cbd0dc"/>
                            </g>
                          </g>
                        </g>
                      </g>
                    </g>
                  </g>
                </g>
              </g>
            </g>
          </g>
        </g>
      </g>
      <g id="Group_1223798" data-name="Group 1223798" transform="translate(17.138 -5.692)">
        <g id="libro-de-leyes_4_" data-name="libro-de-leyes (4)" transform="translate(171 3062)">
          <g id="Group_1223796" data-name="Group 1223796" transform="translate(0.847 0.847)">
            <path id="Path_1177432" data-name="Path 1177432" d="M68.256,7.5,70.7,37.2,68.256,63.61H65.434l-.921-.275a1.129,1.129,0,0,1-1.129-1.129L63.2,8.785a1.129,1.129,0,0,1,1.129-1.129L65.434,7.5Z" transform="translate(-62.95 -7.5)" fill="#fece85"/>
            <path id="Path_1177433" data-name="Path 1177433" d="M63.484,7.5V63.61H62.129A1.129,1.129,0,0,1,61,62.481V8.629A1.129,1.129,0,0,1,62.129,7.5Z" transform="translate(-61 -7.5)" fill="#fdb97e"/>
            <path id="Path_1177434" data-name="Path 1177434" d="M146.724,8.629V62.481a1.129,1.129,0,0,1-1.129,1.129H108V7.5h37.595A1.129,1.129,0,0,1,146.724,8.629Z" transform="translate(-102.694 -7.5)" fill="#e88f77"/>
            <g id="Group_1223795" data-name="Group 1223795" transform="translate(10.819 13.265)">
              <path id="Path_1177435" data-name="Path 1177435" d="M264.387,145.269H261V126.693a1.693,1.693,0,1,1,3.387,0Z" transform="translate(-249.239 -125)" fill="#72706f"/>
              <path id="Path_1177436" data-name="Path 1177436" d="M239.494,297h-2.748l-2.741.186a2.445,2.445,0,0,0-2.338,2.392l.1.442a.226.226,0,0,0,.226.226l2.869.141h6.661a.226.226,0,0,0,.226-.226v-.9A2.258,2.258,0,0,0,239.494,297Z" transform="translate(-223.217 -277.582)" fill="#fece85"/>
              <path id="Path_1177437" data-name="Path 1177437" d="M236.532,297a2.257,2.257,0,0,0-2.258,2.258v1.129h-3.048a.226.226,0,0,1-.226-.226v-.9A2.257,2.257,0,0,1,233.258,297Z" transform="translate(-222.626 -277.582)" fill="#fdb97e"/>
              <g id="Group_1223794" data-name="Group 1223794" transform="translate(0 4.008)">
                <circle id="Ellipse_14540" data-name="Ellipse 14540" cx="2.822" cy="2.822" r="2.822" transform="translate(10.632)" fill="#fece85"/>
                <path id="Path_1177438" data-name="Path 1177438" d="M326.962,247.711h-3.878a2.258,2.258,0,0,1-2.258-2.258v-1.016a.113.113,0,0,1,.113-.113h8.168a.113.113,0,0,1,.113.113v1.016A2.258,2.258,0,0,1,326.962,247.711Z" transform="translate(-302.311 -234.86)" fill="#fece85"/>
                <path id="Path_1177439" data-name="Path 1177439" d="M162.962,247.711h-3.878a2.258,2.258,0,0,1-2.258-2.258v-.9a.226.226,0,0,1,.226-.226h7.942a.226.226,0,0,1,.226.226v.9A2.258,2.258,0,0,1,162.962,247.711Z" transform="translate(-156.826 -234.86)" fill="#fece85"/>
              </g>
            </g>
            <path id="Path_1177440" data-name="Path 1177440" d="M169.853,376.79H141.629a1.129,1.129,0,0,1-1.129-1.129v-9.032a1.129,1.129,0,0,1,1.129-1.129h28.224a1.129,1.129,0,0,1,1.129,1.129v9.032A1.129,1.129,0,0,1,169.853,376.79Z" transform="translate(-131.525 -325.083)" fill="#f2fbff"/>
            <path id="Path_1177441" data-name="Path 1177441" d="M193.757,400.016H170.952a.452.452,0,0,1-.452-.452v-3.613a.452.452,0,0,1,.452-.452h22.805a.452.452,0,0,1,.452.452v3.613A.452.452,0,0,1,193.757,400.016Z" transform="translate(-158.138 -351.696)" fill="#dfeef4"/>
          </g>
          <g id="Group_1223797" data-name="Group 1223797">
            <path id="Path_1177442" data-name="Path 1177442" d="M97.248,0H55.476A1.978,1.978,0,0,0,53.5,1.976V55.828A1.978,1.978,0,0,0,55.476,57.8H97.248a1.978,1.978,0,0,0,1.976-1.976V1.976A1.978,1.978,0,0,0,97.248,0Zm.282,55.828a.283.283,0,0,1-.282.282H59.709V42.733a.847.847,0,0,0-1.693,0V56.11h-2.54a.283.283,0,0,1-.282-.282V1.976a.283.283,0,0,1,.282-.282h2.54V38.782a.847.847,0,0,0,1.693,0V1.693H97.248a.283.283,0,0,1,.282.282Z" transform="translate(-53.5)"/>
            <path id="Path_1177443" data-name="Path 1177443" d="M152.108,136.05H156a3.111,3.111,0,0,0,3.108-3.108v-1.126a.847.847,0,0,0-.847-.847h-.782l-2.138-4.948h4.417a3.668,3.668,0,0,0,1.032,1.8v9.1H160.5a3.111,3.111,0,0,0-3.108,3.108v1.126a.847.847,0,0,0,.847.847h10.189a.847.847,0,0,0,.847-.847v-1.126a3.111,3.111,0,0,0-3.108-3.108h-.288v-2.278a.847.847,0,0,0-1.693,0v2.278h-1.7v-8.173a3.661,3.661,0,0,0,1.7,0v1.943a.847.847,0,1,0,1.693,0V127.82a3.666,3.666,0,0,0,1.032-1.8h4.417l-2.138,4.948h-.782a.847.847,0,0,0-.847.847v1.126a3.111,3.111,0,0,0,3.108,3.108h3.895a3.111,3.111,0,0,0,3.108-3.108v-1.126a.847.847,0,0,0-.847-.847h-.782l-2.645-6.12a.852.852,0,0,0-.781-.521h-5.706a3.668,3.668,0,0,0-1.032-1.8v-2.49a2.545,2.545,0,0,0-5.09,0v2.49a3.666,3.666,0,0,0-1.032,1.8h-5.706a.856.856,0,0,0-.781.521l-2.645,6.12h-.781a.847.847,0,0,0-.847.847v1.126a3.111,3.111,0,0,0,3.108,3.108Zm15.478,3.974v.279h-8.5v-.279a1.416,1.416,0,0,1,1.414-1.414h5.666A1.416,1.416,0,0,1,167.585,140.024Zm-10.169-7.082A1.416,1.416,0,0,1,156,134.357h-3.895a1.416,1.416,0,0,1-1.414-1.414v-.279h6.723Zm3.938-7.767a1.983,1.983,0,1,1,1.983,1.976A1.982,1.982,0,0,1,161.355,125.175Zm14.628,7.767a1.416,1.416,0,0,1-1.414,1.414h-3.895a1.416,1.416,0,0,1-1.414-1.414v-.279h6.723Zm-4.944-1.973,1.582-3.66,1.582,3.66Zm-8.552-10.929a.851.851,0,0,1,1.7,0v1.566a3.659,3.659,0,0,0-1.7,0Zm-8.432,7.269,1.582,3.66h-3.164Z" transform="translate(-138.218 -104.233)"/>
            <path id="Path_1177444" data-name="Path 1177444" d="M163.2,358H134.976A1.978,1.978,0,0,0,133,359.976v9.032a1.978,1.978,0,0,0,1.976,1.976h19.674a.847.847,0,1,0,0-1.693H134.976a.283.283,0,0,1-.282-.282v-9.032a.283.283,0,0,1,.282-.282H163.2a.283.283,0,0,1,.282.282v9.032a.283.283,0,0,1-.282.282h-4.6a.847.847,0,1,0,0,1.693h4.6a1.978,1.978,0,0,0,1.976-1.976v-9.032A1.978,1.978,0,0,0,163.2,358Z" transform="translate(-124.025 -317.583)"/>
            <path id="Path_1177445" data-name="Path 1177445" d="M188.4,393.363v-4.516a.847.847,0,0,0-.847-.847H163.847a.847.847,0,0,0-.847.847v4.516a.847.847,0,0,0,.847.847h23.709A.847.847,0,0,0,188.4,393.363Zm-1.693-.847H164.693v-2.822h22.015Z" transform="translate(-150.638 -344.196)"/>
            <path id="Path_1177446" data-name="Path 1177446" d="M199.347,75a.847.847,0,1,0,0,1.693h15.806a.847.847,0,0,0,0-1.693Z" transform="translate(-182.13 -66.533)"/>
            <path id="Path_1177447" data-name="Path 1177447" d="M250.623,41.693h15.605a.847.847,0,1,0,0-1.693H250.623a.847.847,0,0,0,0,1.693Z" transform="translate(-227.617 -35.484)"/>
            <path id="Path_1177448" data-name="Path 1177448" d="M149.847,41.693h7.426a.847.847,0,1,0,0-1.693h-7.426a.847.847,0,0,0,0,1.693Z" transform="translate(-138.218 -35.484)"/>
          </g>
        </g>
      </g>
    </g>
  </g>
</svg>
