<svg xmlns="http://www.w3.org/2000/svg" xmlns:xlink="http://www.w3.org/1999/xlink" width="110" height="110" viewBox="0 0 110 110">
  <defs>
    <filter id="Path_982547" x="0" y="0" width="110" height="110" filterUnits="userSpaceOnUse">
      <feOffset dy="3" input="SourceAlpha"/>
      <feGaussianBlur stdDeviation="3" result="blur"/>
      <feFlood flood-opacity="0.161"/>
      <feComposite operator="in" in2="blur"/>
      <feComposite in="SourceGraphic"/>
    </filter>
  </defs>
  <g id="Group_1223840" data-name="Group 1223840" transform="translate(-377 -1959.069)">
    <g id="Group_1223752" data-name="Group 1223752">
      <g id="Group_1210976" data-name="Group 1210976" transform="translate(0 -4114.21)">
        <g id="Group_1200150" data-name="Group 1200150" transform="translate(386 6079.28)">
          <g id="Group_1185951" data-name="Group 1185951" transform="translate(0 0)">
            <g id="Group_1184083" data-name="Group 1184083" transform="translate(0 0)">
              <g id="Group_1183743" data-name="Group 1183743" transform="translate(0 0)">
                <g id="Group_1181545" data-name="Group 1181545">
                  <g id="Group_1177562" data-name="Group 1177562">
                    <g id="Group_1173147" data-name="Group 1173147" transform="translate(0 0)">
                      <g id="Group_1163801" data-name="Group 1163801" transform="translate(0 0)">
                        <g id="Group_1163014" data-name="Group 1163014" transform="translate(0 0)">
                          <g id="Group_1157015" data-name="Group 1157015" transform="translate(0 0)">
                            <g id="Group_1155792" data-name="Group 1155792" transform="translate(0 0)">
                              <g id="Group_1154703" data-name="Group 1154703" transform="translate(0 0)">
                                <g id="Group_1150789" data-name="Group 1150789">
                                  <g id="Group_1154212" data-name="Group 1154212">
                                    <g id="Group_1152583" data-name="Group 1152583">
                                      <g id="Group_1146973" data-name="Group 1146973">
                                        <g id="Group_1146954" data-name="Group 1146954">
                                          <g transform="matrix(1, 0, 0, 1, -9, -6)" filter="url(#Path_982547)">
                                            <g id="Path_982547-2" data-name="Path 982547" transform="translate(9 6)" fill="#f2d944">
                                              <path d="M 46.00000762939453 90.49988555908203 C 39.99188613891602 90.49988555908203 34.16427612304688 89.32352447509766 28.67906188964844 87.00347137451172 C 23.38020706176758 84.76226043701172 18.62104797363281 81.55342864990234 14.53375434875488 77.46615600585938 C 10.44647407531738 73.37887573242188 7.237647533416748 68.61971282958984 4.996420860290527 63.32085800170898 C 2.676367521286011 57.83565902709961 1.500007629394531 52.00806045532227 1.500007629394531 45.99993896484375 C 1.500007629394531 39.99181747436523 2.676367521286011 34.16421890258789 4.996420860290527 28.67901802062988 C 7.237647533416748 23.38017845153809 10.44647407531738 18.62101936340332 14.53375434875488 14.53373908996582 C 18.62104797363281 10.44645881652832 23.38020706176758 7.237632274627686 28.67906188964844 4.996418952941895 C 34.16427612304688 2.676365613937378 39.99188613891602 1.500005602836609 46.00000762939453 1.500005602836609 C 52.00812911987305 1.500005602836609 57.83573913574219 2.676365613937378 63.32095336914062 4.996418952941895 C 68.61980438232422 7.237632274627686 73.37896728515625 10.44645881652832 77.46626281738281 14.53373908996582 C 81.55354309082031 18.62101936340332 84.76236724853516 23.38017845153809 87.00359344482422 28.67901802062988 C 89.32364654541016 34.16421890258789 90.50000762939453 39.99181747436523 90.50000762939453 45.99993896484375 C 90.50000762939453 52.00806045532227 89.32364654541016 57.83565902709961 87.00359344482422 63.32085800170898 C 84.76236724853516 68.61971282958984 81.55354309082031 73.37887573242188 77.46626281738281 77.46615600585938 C 73.37896728515625 81.55342864990234 68.61980438232422 84.76226043701172 63.32095336914062 87.00347137451172 C 57.83573913574219 89.32352447509766 52.00812911987305 90.49988555908203 46.00000762939453 90.49988555908203 Z" stroke="none"/>
                                              <path d="M 46.00000762939453 2.999992370605469 C 40.19372177124023 2.999992370605469 34.56270599365234 4.136497497558594 29.26339340209961 6.377906799316406 C 24.14333343505859 8.543510437011719 19.54441833496094 11.64437866210938 15.59440612792969 15.59439849853516 C 11.6444091796875 19.54439544677734 8.543525695800781 24.14329528808594 6.377922058105469 29.26335144042969 C 4.136505126953125 34.56266784667969 3.000007629394531 40.19366836547852 3.000007629394531 45.99993896484375 C 3.000007629394531 51.80620956420898 4.136505126953125 57.43722534179688 6.377922058105469 62.73654174804688 C 8.543525695800781 67.85658264160156 11.6444091796875 72.45548248291016 15.59440612792969 76.40549468994141 C 19.54441833496094 80.35549926757812 24.14333343505859 83.45636749267578 29.26337814331055 85.62196350097656 C 34.56270599365234 87.86338043212891 40.19372177124023 88.9998779296875 46.00000762939453 88.9998779296875 C 51.80629348754883 88.9998779296875 57.43730926513672 87.86338043212891 62.73662185668945 85.62196350097656 C 67.85668182373047 83.45636749267578 72.45558166503906 80.35549926757812 76.40559387207031 76.40549468994141 C 80.35560607910156 72.45548248291016 83.45648193359375 67.85658264160156 85.62207794189453 62.73654174804688 C 87.86351013183594 57.43722534179688 89.00000762939453 51.80620956420898 89.00000762939453 45.99993896484375 C 89.00000762939453 40.19366836547852 87.86351013183594 34.56266784667969 85.62207794189453 29.26335144042969 C 83.45648193359375 24.14329528808594 80.35560607910156 19.54439544677734 76.40559387207031 15.59439849853516 C 72.45558166503906 11.64437866210938 67.85668182373047 8.543510437011719 62.73662185668945 6.377906799316406 C 57.43729400634766 4.136497497558594 51.80629348754883 2.999992370605469 46.00000762939453 2.999992370605469 M 46.00000762939453 -7.62939453125e-06 C 71.40509033203125 -7.62939453125e-06 92.00000762939453 20.59487915039062 92.00000762939453 45.99993896484375 C 92.00000762939453 71.40501403808594 71.40509033203125 91.99988555908203 46.00000762939453 91.99988555908203 C 20.59490966796875 91.99988555908203 7.62939453125e-06 71.40501403808594 7.62939453125e-06 45.99993896484375 C 7.62939453125e-06 20.59487915039062 20.59490966796875 -7.62939453125e-06 46.00000762939453 -7.62939453125e-06 Z" stroke="none" fill="#ba9c5a"/>
                                            </g>
                                          </g>
                                        </g>
                                      </g>
                                    </g>
                                  </g>
                                </g>
                              </g>
                            </g>
                          </g>
                        </g>
                      </g>
                    </g>
                  </g>
                </g>
              </g>
            </g>
          </g>
        </g>
      </g>
      <g id="caja-de-votacion" transform="translate(380.766 1960.335)">
        <path id="Path_1177264" data-name="Path 1177264" d="M24,216H91.153v9.262H24Z" transform="translate(-6.842 -171.055)" fill="#c9a062"/>
        <path id="Path_1177265" data-name="Path 1177265" d="M40,280h62.522v30.1H40Z" transform="translate(-20.527 -225.792)" fill="#fbc87a"/>
        <path id="Path_1177266" data-name="Path 1177266" d="M79.575,88h-44L24,106.525H91.153Z" transform="translate(-6.842 -61.58)" fill="#957749"/>
        <path id="Path_1177267" data-name="Path 1177267" d="M72,312h53.259v20.841H72Z" transform="translate(-47.895 -253.161)" fill="#53abee"/>
        <g id="Group_1223743" data-name="Group 1223743" transform="translate(26.42 62.312)">
          <path id="Path_1177268" data-name="Path 1177268" d="M93.8,349.892a1.158,1.158,0,0,1-1.075-.727l-4.642-11.578a1.158,1.158,0,1,1,2.149-.862l3.564,8.891,3.548-8.89a1.158,1.158,0,0,1,2.151.859l-4.621,11.578a1.158,1.158,0,0,1-1.074.729Z" transform="translate(-87.997 -335.998)" fill="#62312e"/>
        </g>
        <g id="Group_1223744" data-name="Group 1223744" transform="translate(39.156 62.312)">
          <path id="Path_1177269" data-name="Path 1177269" d="M184.393,349.894h-5.208A3.188,3.188,0,0,1,176,346.709v-7.524A3.188,3.188,0,0,1,179.185,336h5.208a3.188,3.188,0,0,1,3.185,3.185v7.524a3.188,3.188,0,0,1-3.185,3.185Zm-5.208-11.578a.87.87,0,0,0-.869.869v7.524a.87.87,0,0,0,.869.869h5.208a.87.87,0,0,0,.869-.869v-7.524a.87.87,0,0,0-.869-.869Z" transform="translate(-176 -336)" fill="#62312e"/>
        </g>
        <g id="Group_1223747" data-name="Group 1223747" transform="translate(51.892 62.313)">
          <g id="Group_1223745" data-name="Group 1223745">
            <path id="Path_1177270" data-name="Path 1177270" d="M274.42,338.316h-9.263a1.158,1.158,0,1,1,0-2.316h9.263a1.158,1.158,0,1,1,0,2.316Z" transform="translate(-264 -336)" fill="#62312e"/>
          </g>
          <g id="Group_1223746" data-name="Group 1223746" transform="translate(4.631)">
            <path id="Path_1177271" data-name="Path 1177271" d="M297.158,349.894A1.158,1.158,0,0,1,296,348.736V337.158a1.158,1.158,0,0,1,2.316,0v11.578A1.158,1.158,0,0,1,297.158,349.894Z" transform="translate(-296 -336)" fill="#62312e"/>
          </g>
        </g>
        <g id="Group_1223748" data-name="Group 1223748" transform="translate(64.628 62.313)">
          <path id="Path_1177272" data-name="Path 1177272" d="M361.263,344.1h-8.1A1.158,1.158,0,0,1,352,342.947v-5.789A1.158,1.158,0,0,1,353.158,336h8.1a1.158,1.158,0,1,1,0,2.316h-6.947v3.473h6.947a1.158,1.158,0,1,1,0,2.316Z" transform="translate(-352 -336)" fill="#62312e"/>
        </g>
        <g id="Group_1223749" data-name="Group 1223749" transform="translate(64.628 68.102)">
          <path id="Path_1177273" data-name="Path 1177273" d="M361.263,384.1h-8.1A1.158,1.158,0,0,1,352,382.947v-5.789A1.158,1.158,0,0,1,353.158,376h8.1a1.158,1.158,0,1,1,0,2.316h-6.947v3.473h6.947a1.158,1.158,0,1,1,0,2.316Z" transform="translate(-352 -376)" fill="#62312e"/>
        </g>
        <path id="Path_1177274" data-name="Path 1177274" d="M182.1,140.631H152L154.316,136h25.472Z" transform="translate(-116.317 -102.633)" fill="#5f4c2f"/>
        <path id="Path_1177275" data-name="Path 1177275" d="M209.078,24h-15.63A1.447,1.447,0,0,0,192,25.447V44.841h18.525V25.447A1.447,1.447,0,0,0,209.078,24Z" transform="translate(-150.528 -6.842)" fill="#53abee"/>
        <g id="Group_1223750" data-name="Group 1223750" transform="translate(44.945 22.947)">
          <path id="Path_1177276" data-name="Path 1177276" d="M220.632,72.105a1.155,1.155,0,0,1-.819-.339l-3.473-3.473a1.158,1.158,0,1,1,1.637-1.637l2.726,2.726,6.135-5.112a1.158,1.158,0,1,1,1.482,1.779l-6.947,5.789a1.155,1.155,0,0,1-.741.268Z" transform="translate(-216 -64.001)" fill="#62312e"/>
        </g>
        <g id="Group_1223751" data-name="Group 1223751" transform="translate(16 16)">
          <path id="Path_1177277" data-name="Path 1177277" d="M85.293,44.332,73.715,25.807a1.158,1.158,0,0,0-.982-.544H61.155V18.605A2.608,2.608,0,0,0,58.55,16H42.919a2.608,2.608,0,0,0-2.605,2.605v6.657H28.736a1.158,1.158,0,0,0-.982.544L16.176,44.332a1.157,1.157,0,0,0-.176.614v9.263a1.158,1.158,0,0,0,1.158,1.158h1.158V84.311a1.158,1.158,0,0,0,1.158,1.158H82a1.158,1.158,0,0,0,1.158-1.158V55.366h1.158a1.158,1.158,0,0,0,1.158-1.158V44.945A1.157,1.157,0,0,0,85.293,44.332ZM61.155,34.525h1.6l1.158,2.316H61.155ZM42.63,18.605a.29.29,0,0,1,.289-.289H58.55a.29.29,0,0,1,.289.289V36.841H42.63ZM29.378,27.578H40.314v4.631H38a1.158,1.158,0,0,0-1.036.64l-2.316,4.631a1.158,1.158,0,0,0,1.036,1.676h30.1a1.158,1.158,0,0,0,1.036-1.676l-2.316-4.631a1.159,1.159,0,0,0-1.036-.64H61.155V27.578H72.091L82.222,43.787H19.247Zm10.936,6.947v2.316H37.556l1.158-2.316ZM80.838,83.153H20.631V55.366H80.838Zm2.316-30.1H18.316V46.1H83.153Z" transform="translate(-16 -16)"/>
          <path id="Path_1177278" data-name="Path 1177278" d="M65.158,327.156h53.259A1.158,1.158,0,0,0,119.575,326V305.158A1.158,1.158,0,0,0,118.417,304H65.158A1.158,1.158,0,0,0,64,305.158V326A1.158,1.158,0,0,0,65.158,327.156Zm1.158-20.841h50.944v18.525H66.316Z" transform="translate(-57.053 -262.319)"/>
          <path id="Path_1177279" data-name="Path 1177279" d="M98.847,336.08a1.157,1.157,0,0,0-1.5.646l-3.548,8.89-3.564-8.891a1.158,1.158,0,1,0-2.149.862l4.642,11.578a1.158,1.158,0,0,0,1.075.727h0a1.158,1.158,0,0,0,1.074-.729l4.621-11.578A1.158,1.158,0,0,0,98.847,336.08Z" transform="translate(-77.577 -289.685)"/>
          <path id="Path_1177280" data-name="Path 1177280" d="M184.393,336h-5.208A3.188,3.188,0,0,0,176,339.185v7.524a3.188,3.188,0,0,0,3.185,3.185h5.208a3.188,3.188,0,0,0,3.185-3.185v-7.524A3.188,3.188,0,0,0,184.393,336Zm.869,10.709a.87.87,0,0,1-.869.869h-5.208a.87.87,0,0,1-.869-.869v-7.524a.87.87,0,0,1,.869-.869h5.208a.87.87,0,0,1,.869.869Z" transform="translate(-152.844 -289.688)"/>
          <path id="Path_1177281" data-name="Path 1177281" d="M274.42,336h-9.263a1.158,1.158,0,1,0,0,2.316h3.473v10.42a1.158,1.158,0,0,0,2.316,0v-10.42h3.473a1.158,1.158,0,1,0,0-2.316Z" transform="translate(-228.108 -289.688)"/>
          <path id="Path_1177282" data-name="Path 1177282" d="M361.263,338.316a1.158,1.158,0,1,0,0-2.316h-8.1A1.158,1.158,0,0,0,352,337.158v11.578a1.158,1.158,0,0,0,1.158,1.158h8.1a1.158,1.158,0,1,0,0-2.316h-6.947V344.1h6.947a1.158,1.158,0,1,0,0-2.316h-6.947v-3.473Z" transform="translate(-303.372 -289.688)"/>
          <path id="Path_1177283" data-name="Path 1177283" d="M226.837,64.268,220.7,69.38l-2.726-2.726a1.158,1.158,0,1,0-1.637,1.637l3.473,3.473a1.158,1.158,0,0,0,1.56.071l6.947-5.789a1.158,1.158,0,0,0-1.482-1.779Z" transform="translate(-187.055 -57.053)"/>
        </g>
      </g>
    </g>
  </g>
</svg>
