<svg xmlns="http://www.w3.org/2000/svg" xmlns:xlink="http://www.w3.org/1999/xlink" width="113" height="113" viewBox="0 0 113 113">
  <defs>
    <filter id="Path_982547" x="0" y="0" width="113" height="113" filterUnits="userSpaceOnUse">
      <feOffset dy="3" input="SourceAlpha"/>
      <feGaussianBlur stdDeviation="3" result="blur"/>
      <feFlood flood-opacity="0.161"/>
      <feComposite operator="in" in2="blur"/>
      <feComposite in="SourceGraphic"/>
    </filter>
  </defs>
  <g id="Group_1223825" data-name="Group 1223825" transform="translate(-1059 -717.682)">
    <g id="Group_1223710" data-name="Group 1223710">
      <g id="Group_1221856" data-name="Group 1221856" transform="translate(0 -632.264)">
        <g id="Group_1214349" data-name="Group 1214349" transform="translate(0 -2817)">
          <g id="Group_1212851" data-name="Group 1212851" transform="translate(1068 4172.946)">
            <g id="Group_1209935" data-name="Group 1209935">
              <g id="Group_1208705" data-name="Group 1208705">
                <g id="Group_1148633" data-name="Group 1148633">
                  <g id="Group_1148525" data-name="Group 1148525">
                    <g transform="matrix(1, 0, 0, 1, -9, -6)" filter="url(#Path_982547)">
                      <g id="Path_982547-2" data-name="Path 982547" transform="translate(9 6)" fill="#e6d567">
                        <path d="M 47.5 93.5 C 41.28937149047852 93.5 35.26533508300781 92.28397369384766 29.59518623352051 89.88570404052734 C 24.11771965026855 87.56893157958984 19.19813346862793 84.25196075439453 14.97309303283691 80.02691650390625 C 10.74804019927979 75.80186462402344 7.431066513061523 70.88229370117188 5.114293098449707 65.40481567382812 C 2.716026782989502 59.73468017578125 1.5 53.71062850952148 1.5 47.5 C 1.5 41.28937149047852 2.716026782989502 35.26533508300781 5.114293098449707 29.59518623352051 C 7.431066513061523 24.11771965026855 10.74804019927979 19.19813346862793 14.97309303283691 14.97309303283691 C 19.19813346862793 10.74804019927979 24.11771965026855 7.431066513061523 29.59518623352051 5.114293098449707 C 35.26533508300781 2.716026782989502 41.28937149047852 1.5 47.5 1.5 C 53.71062850952148 1.5 59.73468017578125 2.716026782989502 65.40481567382812 5.114293098449707 C 70.88229370117188 7.431066513061523 75.80186462402344 10.74804019927979 80.02691650390625 14.97309303283691 C 84.25196075439453 19.19813346862793 87.56893157958984 24.11771965026855 89.88570404052734 29.59518623352051 C 92.28397369384766 35.26533508300781 93.5 41.28937149047852 93.5 47.5 C 93.5 53.71062850952148 92.28397369384766 59.73468017578125 89.88570404052734 65.40481567382812 C 87.56893157958984 70.88229370117188 84.25196075439453 75.80186462402344 80.02691650390625 80.02691650390625 C 75.80186462402344 84.25196075439453 70.88229370117188 87.56893157958984 65.40481567382812 89.88570404052734 C 59.73468017578125 92.28397369384766 53.71062850952148 93.5 47.5 93.5 Z" stroke="none"/>
                        <path d="M 47.5 3 C 41.49121475219727 3 35.66376876831055 4.176155090332031 30.17950439453125 6.495796203613281 C 24.88084411621094 8.736953735351562 20.12152099609375 11.94598388671875 16.03375244140625 16.03375244140625 C 11.94598388671875 20.12152099609375 8.736953735351562 24.88084411621094 6.495796203613281 30.17950439453125 C 4.176155090332031 35.66376876831055 3 41.49121475219727 3 47.5 C 3 53.50878524780273 4.176155090332031 59.33623123168945 6.495796203613281 64.82049560546875 C 8.736953735351562 70.11915588378906 11.94598388671875 74.87847900390625 16.03375244140625 78.96624755859375 C 20.12152099609375 83.05401611328125 24.88084411621094 86.26304626464844 30.17950439453125 88.50419616699219 C 35.66376876831055 90.82384490966797 41.49121475219727 92 47.5 92 C 53.50878524780273 92 59.33623123168945 90.82384490966797 64.82049560546875 88.50419616699219 C 70.11915588378906 86.26304626464844 74.87847900390625 83.05401611328125 78.96624755859375 78.96624755859375 C 83.05401611328125 74.87847900390625 86.26304626464844 70.11915588378906 88.50419616699219 64.82049560546875 C 90.82384490966797 59.33623123168945 92 53.50878524780273 92 47.5 C 92 41.49121475219727 90.82384490966797 35.66376876831055 88.50419616699219 30.17950439453125 C 86.26304626464844 24.88084411621094 83.05401611328125 20.12152099609375 78.96624755859375 16.03375244140625 C 74.87847900390625 11.94598388671875 70.11915588378906 8.736953735351562 64.82049560546875 6.495796203613281 C 59.33623123168945 4.176155090332031 53.50878524780273 3 47.5 3 M 47.5 0 C 73.7335205078125 0 95 21.2664794921875 95 47.5 C 95 73.7335205078125 73.7335205078125 95 47.5 95 C 21.2664794921875 95 0 73.7335205078125 0 47.5 C 0 21.2664794921875 21.2664794921875 0 47.5 0 Z" stroke="none" fill="#ba9c5a"/>
                      </g>
                    </g>
                  </g>
                </g>
              </g>
            </g>
          </g>
        </g>
      </g>
      <g id="subasta_6_" data-name="subasta (6)" transform="translate(1067 723)">
        <g id="Group_1223681" data-name="Group 1223681" transform="translate(7.865 2.373)">
          <path id="Path_1177183" data-name="Path 1177183" d="M66.414,76.144H22.477V78.89a5.492,5.492,0,1,1-10.984,0V7.492A5.492,5.492,0,0,0,6,2H56.8a9.611,9.611,0,0,1,9.611,9.611Z" transform="translate(-6 -2)" fill="#adaba6"/>
        </g>
        <g id="Group_1223682" data-name="Group 1223682" transform="translate(7.865 2.373)">
          <path id="Path_1177184" data-name="Path 1177184" d="M11.492,7.492v56.19a30.4,30.4,0,0,0,19.223,6.97c18.2,0,32.953-16.6,32.953-37.072C63.668,20.227,57.39,8.526,47.975,2H6A5.492,5.492,0,0,1,11.492,7.492Z" transform="translate(-6 -2)" fill="#f1efeb"/>
        </g>
        <g id="Group_1223684" data-name="Group 1223684" transform="translate(18.85 76.517)">
          <g id="Group_1223683" data-name="Group 1223683">
            <path id="Path_1177185" data-name="Path 1177185" d="M63.43,56H19.492v2.746A5.492,5.492,0,0,1,14,64.238H63.43a5.492,5.492,0,0,0,5.492-5.492V56Z" transform="translate(-14 -56)" fill="#74726f"/>
          </g>
        </g>
        <g id="Group_1223685" data-name="Group 1223685" transform="translate(2.373 2.373)">
          <path id="Path_1177186" data-name="Path 1177186" d="M12.984,18.477H2V7.492a5.492,5.492,0,0,1,10.984,0Z" transform="translate(-2 -2)" fill="#74726f"/>
        </g>
        <g id="Group_1223686" data-name="Group 1223686" transform="translate(18.85 49.057)">
          <circle id="Ellipse_14514" data-name="Ellipse 14514" cx="11" cy="11" r="11" transform="translate(0.15 -0.057)" fill="#b57769"/>
        </g>
        <g id="Group_1223687" data-name="Group 1223687" transform="translate(24.342 54.549)">
          <circle id="Ellipse_14515" data-name="Ellipse 14515" cx="5.5" cy="5.5" r="5.5" transform="translate(-0.342 0.451)" fill="#f29f8c"/>
        </g>
        <g id="Group_1223688" data-name="Group 1223688" transform="translate(64.146 50.432)">
          <path id="Path_1177187" data-name="Path 1177187" d="M0,0H4.855V24.273H0Z" transform="translate(0 3.433) rotate(-45)" fill="#bf8859"/>
        </g>
        <g id="Group_1223689" data-name="Group 1223689" transform="translate(54.537 40.821)">
          <path id="Path_1177188" data-name="Path 1177188" d="M0,0H13.592V9.709H0Z" transform="translate(0 9.609) rotate(-45)" fill="#bf8859"/>
        </g>
        <g id="Group_1223690" data-name="Group 1223690" transform="translate(49.045 49.057)">
          <path id="Path_1177189" data-name="Path 1177189" d="M0,0H5.826V13.592H0Z" transform="translate(0 4.119) rotate(-45)" fill="#bf8859"/>
        </g>
        <g id="Group_1223691" data-name="Group 1223691" transform="translate(62.776 35.329)">
          <path id="Path_1177190" data-name="Path 1177190" d="M0,0H5.826V13.592H0Z" transform="translate(0 4.119) rotate(-45)" fill="#bf8859"/>
        </g>
        <g id="Group_1223692" data-name="Group 1223692" transform="translate(1 1)">
          <path id="Path_1177191" data-name="Path 1177191" d="M68.279,86.129H18.85a6.873,6.873,0,0,1-6.865-6.865V20.223H2.373A1.373,1.373,0,0,1,1,18.85V7.865a6.865,6.865,0,0,1,13.73,0v71.4a4.119,4.119,0,1,0,8.238,0V76.517a1.373,1.373,0,0,1,1.373-1.373h49.43a1.373,1.373,0,0,1,1.373,1.373v2.746A6.873,6.873,0,0,1,68.279,86.129Zm-43.94-2.746h43.94A4.124,4.124,0,0,0,72.4,79.263V77.89H25.715v1.373a6.829,6.829,0,0,1-1.376,4.119ZM3.746,17.477h8.238V7.865a4.119,4.119,0,1,0-8.238,0Z" transform="translate(-1 -1)"/>
        </g>
        <g id="Group_1223693" data-name="Group 1223693" transform="translate(66.906 57.981)">
          <path id="Path_1177192" data-name="Path 1177192" d="M49,42.5h2.746V61.036H49Z" transform="translate(-49 -42.5)"/>
        </g>
        <g id="Group_1223694" data-name="Group 1223694" transform="translate(7.865 1)">
          <path id="Path_1177193" data-name="Path 1177193" d="M67.787,36.7H65.041V10.611a6.873,6.873,0,0,0-6.865-6.865H6V1H58.176a9.623,9.623,0,0,1,9.611,9.611Z" transform="translate(-6 -1)"/>
        </g>
        <g id="Group_1223695" data-name="Group 1223695" transform="translate(47.683 47.683)">
          <path id="Path_1177194" data-name="Path 1177194" d="M45.984,51.477a1.369,1.369,0,0,1-.971-.4L35.4,41.463a1.372,1.372,0,0,1,0-1.941L39.522,35.4a1.372,1.372,0,0,1,1.941,0l9.611,9.611a1.372,1.372,0,0,1,0,1.941l-4.119,4.119A1.369,1.369,0,0,1,45.984,51.477Zm-7.67-10.984,7.67,7.67,2.178-2.178-7.67-7.67Z" transform="translate(-35 -35)"/>
        </g>
        <g id="Group_1223696" data-name="Group 1223696" transform="translate(61.414 33.953)">
          <path id="Path_1177195" data-name="Path 1177195" d="M55.984,41.477a1.369,1.369,0,0,1-.971-.4L45.4,31.463a1.371,1.371,0,0,1,0-1.941L49.522,25.4a1.372,1.372,0,0,1,1.941,0l9.611,9.611a1.372,1.372,0,0,1,0,1.941l-4.119,4.119A1.369,1.369,0,0,1,55.984,41.477Zm-7.67-10.984,7.67,7.67,2.178-2.178-7.67-7.67Z" transform="translate(-45 -25)"/>
        </g>
        <g id="Group_1223697" data-name="Group 1223697" transform="translate(53.567 39.85)">
          <path id="Path_1177196" data-name="Path 1177196" d="M0,0H13.592V2.746H0Z" transform="translate(0 9.609) rotate(-45)"/>
        </g>
        <g id="Group_1223698" data-name="Group 1223698" transform="translate(60.431 46.716)">
          <path id="Path_1177197" data-name="Path 1177197" d="M0,0H13.592V2.746H0Z" transform="translate(0 9.609) rotate(-45)"/>
        </g>
        <g id="Group_1223699" data-name="Group 1223699" transform="translate(63.189 49.459)">
          <path id="Path_1177198" data-name="Path 1177198" d="M64.427,59.232a1.369,1.369,0,0,1-.971-.4L46.293,41.667l1.941-1.941L64.427,55.918l1.491-1.491L49.726,38.234l1.941-1.941L68.83,53.456a1.372,1.372,0,0,1,0,1.941L65.4,58.83A1.369,1.369,0,0,1,64.427,59.232Z" transform="translate(-46.293 -36.293)"/>
        </g>
        <g id="Group_1223700" data-name="Group 1223700" transform="translate(18.85 25.715)">
          <path id="Path_1177199" data-name="Path 1177199" d="M14,19H59.31v2.746H14Z" transform="translate(-14 -19)"/>
        </g>
        <g id="Group_1223701" data-name="Group 1223701" transform="translate(18.85 36.699)">
          <path id="Path_1177200" data-name="Path 1177200" d="M14,27H53.818v2.746H14Z" transform="translate(-14 -27)"/>
        </g>
        <g id="Group_1223702" data-name="Group 1223702" transform="translate(18.85 31.207)">
          <path id="Path_1177201" data-name="Path 1177201" d="M14,23H59.31v2.746H14Z" transform="translate(-14 -23)"/>
        </g>
        <g id="Group_1223703" data-name="Group 1223703" transform="translate(18.85 14.73)">
          <path id="Path_1177202" data-name="Path 1177202" d="M14,11H59.31v2.746H14Z" transform="translate(-14 -11)"/>
        </g>
        <g id="Group_1223704" data-name="Group 1223704" transform="translate(18.85 9.238)">
          <path id="Path_1177203" data-name="Path 1177203" d="M14,7H59.31V9.746H14Z" transform="translate(-14 -7)"/>
        </g>
        <g id="Group_1223705" data-name="Group 1223705" transform="translate(18.85 20.223)">
          <path id="Path_1177204" data-name="Path 1177204" d="M14,15H59.31v2.746H14Z" transform="translate(-14 -15)"/>
        </g>
        <g id="Group_1223706" data-name="Group 1223706" transform="translate(18.85 42.191)">
          <path id="Path_1177205" data-name="Path 1177205" d="M14,31H51.072v2.746H14Z" transform="translate(-14 -31)"/>
        </g>
        <g id="Group_1223707" data-name="Group 1223707" transform="translate(17.477 47.683)">
          <path id="Path_1177206" data-name="Path 1177206" d="M25.357,59.715A12.357,12.357,0,1,1,37.715,47.357,12.372,12.372,0,0,1,25.357,59.715Zm0-21.969a9.611,9.611,0,1,0,9.611,9.611A9.623,9.623,0,0,0,25.357,37.746Z" transform="translate(-13 -35)"/>
        </g>
        <g id="Group_1223708" data-name="Group 1223708" transform="translate(22.969 53.176)">
          <path id="Path_1177207" data-name="Path 1177207" d="M23.865,52.73a6.865,6.865,0,1,1,6.865-6.865A6.873,6.873,0,0,1,23.865,52.73Zm0-10.984a4.119,4.119,0,1,0,4.119,4.119A4.124,4.124,0,0,0,23.865,41.746Z" transform="translate(-17 -39)"/>
        </g>
        <g id="Group_1223709" data-name="Group 1223709" transform="translate(44.937 65.532)">
          <path id="Path_1177208" data-name="Path 1177208" d="M49.477,54.865H43.984a5.494,5.494,0,0,1-4.652-2.574A9.054,9.054,0,0,1,33,54.865V52.119A6.312,6.312,0,0,0,38.262,49.3l.461-.692a1.373,1.373,0,0,1,2.515.762,2.749,2.749,0,0,0,2.746,2.746h5.492Z" transform="translate(-33 -47.999)"/>
        </g>
      </g>
    </g>
  </g>
</svg>
