<svg xmlns="http://www.w3.org/2000/svg" xmlns:xlink="http://www.w3.org/1999/xlink" width="93.934" height="93.934" viewBox="0 0 93.934 93.934">
  <defs>
    <filter id="Path_982547" x="0" y="0" width="93.934" height="93.934" filterUnits="userSpaceOnUse">
      <feOffset dy="3" input="SourceAlpha"/>
      <feGaussianBlur stdDeviation="3" result="blur"/>
      <feFlood flood-opacity="0.161"/>
      <feComposite operator="in" in2="blur"/>
      <feComposite in="SourceGraphic"/>
    </filter>
  </defs>
  <g id="Group_1223816" data-name="Group 1223816" transform="translate(-611.066 -2378.044)">
    <g id="Group_1223656" data-name="Group 1223656">
      <g id="Group_1220449" data-name="Group 1220449" transform="translate(420 -5689.956)">
        <g id="Group_1219553" data-name="Group 1219553" transform="translate(0 -381.729)">
          <g id="Group_1214711" data-name="Group 1214711" transform="translate(-0.229 3321.729)">
            <g id="Group_1214432" data-name="Group 1214432" transform="translate(-0.771 -2738.674)">
              <g id="Group_1183196" data-name="Group 1183196" transform="translate(1 1016.674)">
                <g id="Group_1179610" data-name="Group 1179610" transform="translate(8 4723.467)">
                  <g id="Group_1175227" data-name="Group 1175227" transform="translate(-5.967 140.533)">
                    <g id="Group_1167337" data-name="Group 1167337" transform="translate(198.033 1992)">
                      <g id="Group_1166720" data-name="Group 1166720">
                        <g id="Group_1164305" data-name="Group 1164305">
                          <g id="Group_1163948" data-name="Group 1163948">
                            <g id="Group_1158168" data-name="Group 1158168">
                              <g id="Group_1152576" data-name="Group 1152576">
                                <g id="Group_1148633" data-name="Group 1148633">
                                  <g id="Group_1148525" data-name="Group 1148525">
                                    <g transform="matrix(1, 0, 0, 1, -9, -6)" filter="url(#Path_982547)">
                                      <g id="Path_982547-2" data-name="Path 982547" transform="translate(9 6)" fill="#f7f4ed">
                                        <path d="M 37.966796875 74.43359375 C 33.04315185546875 74.43359375 28.26757431030273 73.46962738037109 23.77274131774902 71.56847381591797 C 19.43047523498535 69.73184967041016 15.53040790557861 67.10224914550781 12.18087482452393 63.75271987915039 C 8.831341743469238 60.4031867980957 6.201741218566895 56.50312042236328 4.365118980407715 52.16086196899414 C 2.463963508605957 47.66601943969727 1.499996900558472 42.89044189453125 1.499996900558472 37.966796875 C 1.499996900558472 33.04315185546875 2.463963508605957 28.26757431030273 4.365118980407715 23.77274131774902 C 6.201741218566895 19.43047523498535 8.831341743469238 15.53040790557861 12.18087482452393 12.18087482452393 C 15.53040790557861 8.831341743469238 19.43047523498535 6.201741218566895 23.77274131774902 4.365118980407715 C 28.26757431030273 2.463963508605957 33.04315185546875 1.499996900558472 37.966796875 1.499996900558472 C 42.89044189453125 1.499996900558472 47.66601943969727 2.463963508605957 52.16086196899414 4.365118980407715 C 56.50312042236328 6.201741218566895 60.4031867980957 8.831341743469238 63.75271987915039 12.18087482452393 C 67.10224914550781 15.53040790557861 69.73184967041016 19.43047523498535 71.56847381591797 23.77274131774902 C 73.46962738037109 28.26757431030273 74.43359375 33.04315185546875 74.43359375 37.966796875 C 74.43359375 42.89044189453125 73.46962738037109 47.66601943969727 71.56847381591797 52.16086196899414 C 69.73184967041016 56.50313186645508 67.10224914550781 60.4031867980957 63.75271987915039 63.75271987915039 C 60.4031867980957 67.10224914550781 56.50313186645508 69.73184967041016 52.16086196899414 71.56847381591797 C 47.66601943969727 73.46962738037109 42.89044189453125 74.43359375 37.966796875 74.43359375 Z" stroke="none"/>
                                        <path d="M 37.966796875 3 C 33.2449836730957 3 28.66600799560547 3.924095153808594 24.35705947875977 5.746635437011719 C 20.19359588623047 7.507637023925781 16.45379638671875 10.02928161621094 13.24153518676758 13.24153518676758 C 10.02927398681641 16.45379638671875 7.507621765136719 20.19359588623047 5.746635437011719 24.35705947875977 C 3.924095153808594 28.66600799560547 3 33.2449836730957 3 37.966796875 C 3 42.6886100769043 3.924095153808594 47.26758575439453 5.746635437011719 51.57653427124023 C 7.507621765136719 55.73999786376953 10.02927398681641 59.47979736328125 13.24153518676758 62.69205856323242 C 16.45379638671875 65.90431976318359 20.19359588623047 68.42597198486328 24.35705947875977 70.18695831298828 C 28.66600799560547 72.00949859619141 33.2449836730957 72.93359375 37.966796875 72.93359375 C 42.6886100769043 72.93359375 47.26758575439453 72.00949859619141 51.57653427124023 70.18695831298828 C 55.73999786376953 68.42597198486328 59.47979736328125 65.90431976318359 62.69205856323242 62.69205856323242 C 65.90431976318359 59.47979736328125 68.42597198486328 55.73999786376953 70.18695831298828 51.57653427124023 C 72.00949859619141 47.26758575439453 72.93359375 42.6886100769043 72.93359375 37.966796875 C 72.93359375 33.2449836730957 72.00949859619141 28.66600799560547 70.18695831298828 24.35705947875977 C 68.42597198486328 20.19359588623047 65.90431976318359 16.45379638671875 62.69205856323242 13.24153518676758 C 59.47979736328125 10.02928161621094 55.73999786376953 7.507637023925781 51.57653427124023 5.746635437011719 C 47.26758575439453 3.924095153808594 42.6886100769043 3 37.966796875 3 M 37.966796875 0 C 58.93528366088867 0 75.93359375 16.99832153320312 75.93359375 37.966796875 C 75.93359375 58.93528366088867 58.93528366088867 75.93359375 37.966796875 75.93359375 C 16.99831008911133 75.93359375 0 58.93528366088867 0 37.966796875 C 0 16.99832153320312 16.99831008911133 0 37.966796875 0 Z" stroke="none" fill="#655531"/>
                                      </g>
                                    </g>
                                  </g>
                                </g>
                              </g>
                            </g>
                          </g>
                        </g>
                      </g>
                    </g>
                  </g>
                </g>
              </g>
            </g>
          </g>
        </g>
      </g>
      <g id="solidaridad" transform="translate(621.858 2392.809)">
        <g id="Group_1223643" data-name="Group 1223643" transform="translate(14.259 16.61)">
          <path id="Path_1177080" data-name="Path 1177080" d="M53.836,22.407V33.134a13.538,13.538,0,0,1-2.546,7.982A13.165,13.165,0,0,1,48,44.373l.489,20.343H26.479L27.668,44.9A25.1,25.1,0,0,1,17.385,35.1c-3.946-6.725-3.179-15.63-3.179-15.63a5.728,5.728,0,0,1,6.225-4.158l12.217,1.523a1.425,1.425,0,0,1,1.134,1.99,5.109,5.109,0,0,1-.456.845c8.86.8,19.02,1.6,19.343,1.734a2.344,2.344,0,0,1,.889.634,3.172,3.172,0,0,1,.278.367Z" transform="translate(-14.146 -15.269)" fill="#90a3a5"/>
        </g>
        <g id="Group_1223644" data-name="Group 1223644" transform="translate(22.689 6.439)">
          <path id="Path_1177081" data-name="Path 1177081" d="M21.73,16.6V9.833a3.71,3.71,0,0,1,3.7-3.713h.389a3.712,3.712,0,0,1,3.713,3.713V17.57Z" transform="translate(-21.73 -6.12)" fill="#90a3a5"/>
        </g>
        <g id="Group_1223645" data-name="Group 1223645" transform="translate(30.504 4.372)">
          <path id="Path_1177082" data-name="Path 1177082" d="M30.972,21.88a3.565,3.565,0,0,0,1.5.322h.378a3.712,3.712,0,0,0,3.713-3.713V7.962a3.71,3.71,0,0,0-3.713-3.7h-.378a3.71,3.71,0,0,0-3.713,3.7v9.816Z" transform="translate(-28.76 -4.26)" fill="#90a3a5"/>
        </g>
        <g id="Group_1223646" data-name="Group 1223646" transform="translate(38.319 5.728)">
          <path id="Path_1177083" data-name="Path 1177083" d="M39.892,23.433H39.5A3.712,3.712,0,0,1,35.79,19.72V9.193A3.712,3.712,0,0,1,39.5,5.48h.389A3.712,3.712,0,0,1,43.6,9.193V19.709A3.722,3.722,0,0,1,39.892,23.433Z" transform="translate(-35.79 -5.48)" fill="#90a3a5"/>
        </g>
        <g id="Group_1223647" data-name="Group 1223647" transform="translate(46.134 6.606)">
          <path id="Path_1177084" data-name="Path 1177084" d="M46.922,24.223h-.389A3.712,3.712,0,0,1,42.82,20.51V9.983A3.712,3.712,0,0,1,46.533,6.27h.389a3.712,3.712,0,0,1,3.713,3.713V20.5A3.722,3.722,0,0,1,46.922,24.223Z" transform="translate(-42.82 -6.27)" fill="#90a3a5"/>
        </g>
        <g id="Group_1223648" data-name="Group 1223648" transform="translate(21.589 5.328)">
          <path id="Path_1177085" data-name="Path 1177085" d="M29.655,18.793a1.115,1.115,0,0,1-1.112-1.112V9.945a2.6,2.6,0,0,0-2.6-2.6h-.389a2.6,2.6,0,0,0-2.59,2.6v6.77a1.112,1.112,0,0,1-2.223,0V9.945A4.818,4.818,0,0,1,25.553,5.12h.389a4.827,4.827,0,0,1,4.825,4.825v7.737a1.115,1.115,0,0,1-1.112,1.112Z" transform="translate(-20.74 -5.12)"/>
        </g>
        <g id="Group_1223649" data-name="Group 1223649" transform="translate(29.393 3.26)">
          <path id="Path_1177086" data-name="Path 1177086" d="M32.963,23.414h-.378a4.666,4.666,0,0,1-1.968-.422,1.114,1.114,0,0,1,.934-2.023,2.474,2.474,0,0,0,1.045.211h.378a2.6,2.6,0,0,0,2.6-2.6V8.073a2.6,2.6,0,0,0-2.6-2.59h-.389a2.6,2.6,0,0,0-2.6,2.59v9.816a1.112,1.112,0,1,1-2.223,0V8.073A4.825,4.825,0,0,1,32.585,3.26h.378a4.818,4.818,0,0,1,4.825,4.813V18.59a4.82,4.82,0,0,1-4.825,4.825Z" transform="translate(-27.76 -3.26)"/>
        </g>
        <g id="Group_1223650" data-name="Group 1223650" transform="translate(37.208 4.616)">
          <path id="Path_1177087" data-name="Path 1177087" d="M40,24.656h-.389a4.834,4.834,0,0,1-4.825-4.825V9.3A4.834,4.834,0,0,1,39.615,4.48H40A4.834,4.834,0,0,1,44.828,9.3V19.821A4.837,4.837,0,0,1,40,24.656ZM39.615,6.7a2.6,2.6,0,0,0-2.6,2.6V19.821a2.6,2.6,0,0,0,2.6,2.6H40a2.6,2.6,0,0,0,2.6-2.6V9.3A2.6,2.6,0,0,0,40,6.7Z" transform="translate(-34.79 -4.48)"/>
        </g>
        <g id="Group_1223651" data-name="Group 1223651" transform="translate(45.022 5.494)">
          <path id="Path_1177088" data-name="Path 1177088" d="M47.034,25.446h-.389a4.834,4.834,0,0,1-4.825-4.825V10.095A4.834,4.834,0,0,1,46.645,5.27h.389a4.834,4.834,0,0,1,4.825,4.825V20.611A4.837,4.837,0,0,1,47.034,25.446ZM46.645,7.493a2.6,2.6,0,0,0-2.6,2.6V20.611a2.6,2.6,0,0,0,2.6,2.6h.389a2.6,2.6,0,0,0,2.6-2.6V10.095a2.6,2.6,0,0,0-2.6-2.6Z" transform="translate(-41.82 -5.27)"/>
        </g>
        <g id="Group_1223652" data-name="Group 1223652" transform="translate(47.001 19.913)">
          <path id="Path_1177089" data-name="Path 1177089" d="M45.2,65.5a1.11,1.11,0,0,1-1.112-1.089L43.6,44.064a1.111,1.111,0,0,1,.522-.967,12.524,12.524,0,0,0,5.3-10.294V19.352a1.112,1.112,0,0,1,2.223,0V32.8a14.838,14.838,0,0,1-5.814,11.806L46.3,64.351a1.108,1.108,0,0,1-1.089,1.134c.011.011,0,.011-.011.011Z" transform="translate(-43.6 -18.24)"/>
        </g>
        <g id="Group_1223653" data-name="Group 1223653" transform="translate(13.137 15.504)">
          <path id="Path_1177090" data-name="Path 1177090" d="M26.591,65.939h-.067a1.117,1.117,0,0,1-1.045-1.178l1.145-19.087A26.711,26.711,0,0,1,16.531,35.78c-4.08-6.959-3.357-15.919-3.324-16.3a1.253,1.253,0,0,1,.033-.2,6.885,6.885,0,0,1,7.437-4.958l12.206,1.523a2.518,2.518,0,0,1,1.9,1.267,2.549,2.549,0,0,1,.133,2.268c-2.19,5.058-8.7,5.625-12.395,5.514a.308.308,0,0,0-.311.122.417.417,0,0,0-.133.322.426.426,0,0,0,.245.4,19.538,19.538,0,0,1,10.394,9.582,1.111,1.111,0,0,1-2.045.867A17.689,17.689,0,0,0,21.5,27.8a2.668,2.668,0,0,1-.834-4.38,2.759,2.759,0,0,1,1.934-.745c2.5.078,8.549-.178,10.283-4.169a.282.282,0,0,0-.022-.278.331.331,0,0,0-.245-.167L20.411,16.526a4.643,4.643,0,0,0-4.991,3.246c-.067.989-.467,8.915,3.035,14.874a24.165,24.165,0,0,0,9.783,9.327,1.1,1.1,0,0,1,.656,1.078L27.7,64.872A1.113,1.113,0,0,1,26.591,65.939Z" transform="translate(-13.137 -14.274)"/>
        </g>
        <g id="Group_1223654" data-name="Group 1223654" transform="translate(42.11 44.598)">
          <path id="Path_1177091" data-name="Path 1177091" d="M40.312,44.853a1.111,1.111,0,0,1-.211-2.2,16.607,16.607,0,0,0,4.513-2.034A1.112,1.112,0,1,1,45.8,42.5a19.26,19.26,0,0,1-5.28,2.334.684.684,0,0,1-.211.022Z" transform="translate(-39.2 -40.446)"/>
        </g>
        <g id="Group_1223655" data-name="Group 1223655" transform="translate(19.977 64.946)">
          <path id="Path_1177092" data-name="Path 1177092" d="M53.262,60.973H20.4a1.112,1.112,0,0,1,0-2.223h32.86a1.112,1.112,0,1,1,0,2.223Z" transform="translate(-19.29 -58.75)"/>
        </g>
      </g>
    </g>
  </g>
</svg>
